<?xml version="1.0" standalone="no"?><!DOCTYPE svg PUBLIC "-//W3C//DTD SVG 1.1//EN" "http://www.w3.org/Graphics/SVG/1.1/DTD/svg11.dtd"><svg width="100%" height="100%" viewBox="0 0 200 200" version="1.1" xmlns="http://www.w3.org/2000/svg" xmlns:xlink="http://www.w3.org/1999/xlink" xml:space="preserve" style="fill-rule:evenodd;clip-rule:evenodd;stroke-linejoin:round;stroke-miterlimit:1.41421;"><path d="M91.713,140.039l0,-14.149l-39.008,-25.89l39.008,-26.04l0,-13.999l-53.439,34.169l0,11.74l53.439,34.169ZM161.726,105.87l0,-11.74l-53.439,-34.169l0,13.999l38.865,26.04l-38.865,25.89l0,14.149l53.439,-34.169Z" style="fill:#fff;"/><path d="M100.291,9.835c1.641,0.008 3.281,0.054 4.919,0.148c3.132,0.179 6.253,0.52 9.349,1.023c7.678,1.249 15.188,3.503 22.285,6.687c9.175,4.118 17.641,9.784 24.96,16.679c7.503,7.069 13.788,15.418 18.49,24.592c3.869,7.55 6.659,15.647 8.257,23.979c1.853,9.662 2.112,19.629 0.778,29.376c-0.609,4.447 -1.551,8.848 -2.819,13.153c-1.348,4.581 -3.064,9.052 -5.125,13.36c-2.271,4.747 -4.96,9.293 -8.023,13.572c-3.203,4.475 -6.815,8.656 -10.775,12.477c-4.028,3.887 -8.415,7.4 -13.09,10.478c-4.634,3.051 -9.55,5.675 -14.666,7.822c-5.545,2.326 -11.323,4.092 -17.222,5.262c-5.699,1.131 -11.507,1.703 -17.318,1.722c-5.817,0.018 -11.635,-0.518 -17.348,-1.614c-5.91,-1.134 -11.704,-2.865 -17.267,-5.159c-5.047,-2.083 -9.903,-4.627 -14.49,-7.588c-4.779,-3.086 -9.266,-6.623 -13.383,-10.548c-3.851,-3.673 -7.379,-7.684 -10.529,-11.974c-3.22,-4.386 -6.044,-9.063 -8.422,-13.958c-2.045,-4.209 -3.76,-8.577 -5.124,-13.054c-1.333,-4.378 -2.329,-8.859 -2.978,-13.389c-1.396,-9.74 -1.198,-19.711 0.595,-29.385c1.547,-8.348 4.288,-16.466 8.114,-24.045c4.647,-9.204 10.882,-17.592 18.344,-24.707c7.343,-7 15.859,-12.756 25.103,-16.938c7.085,-3.205 14.585,-5.481 22.256,-6.754c3.092,-0.513 6.211,-0.863 9.34,-1.052c1.637,-0.099 3.276,-0.151 4.916,-0.164c0.291,-0.001 0.582,-0.001 0.873,-0.001ZM99.725,14.835c-1.551,0.007 -3.102,0.051 -4.65,0.14c-3.047,0.174 -6.084,0.511 -9.095,1.01c-7.157,1.187 -14.157,3.3 -20.777,6.27c-8.589,3.855 -16.521,9.146 -23.392,15.581c-7.045,6.598 -12.964,14.387 -17.418,22.951c-3.736,7.18 -6.433,14.893 -7.983,22.837c-1.797,9.21 -2.058,18.72 -0.785,28.017c0.575,4.199 1.464,8.354 2.661,12.419c1.273,4.325 2.893,8.547 4.839,12.614c2.145,4.484 4.685,8.778 7.578,12.82c3.027,4.228 6.44,8.179 10.182,11.789c3.806,3.672 7.951,6.991 12.368,9.9c4.376,2.882 9.019,5.359 13.851,7.387c5.235,2.197 10.691,3.864 16.259,4.969c5.385,1.068 10.872,1.609 16.362,1.626c5.496,0.017 10.993,-0.489 16.39,-1.525c5.58,-1.07 11.05,-2.704 16.302,-4.871c4.846,-1.999 9.505,-4.449 13.901,-7.305c4.435,-2.882 8.6,-6.177 12.428,-9.827c7.362,-7.019 13.459,-15.349 17.905,-24.498c1.969,-4.052 3.614,-8.262 4.913,-12.576c1.221,-4.054 2.136,-8.2 2.737,-12.392c1.331,-9.29 1.128,-18.803 -0.611,-28.025c-1.501,-7.959 -4.152,-15.694 -7.846,-22.901c-4.364,-8.516 -10.173,-16.279 -17.098,-22.882c-6.873,-6.553 -14.836,-11.953 -23.477,-15.895c-6.678,-3.045 -13.75,-5.215 -20.987,-6.439c-2.917,-0.494 -5.861,-0.834 -8.814,-1.021c-1.546,-0.098 -3.093,-0.152 -4.642,-0.169c-0.367,-0.003 -0.734,-0.005 -1.101,-0.004Z" style="fill:#fff;fill-rule:nonzero;"/></svg>