<?xml version="1.0" encoding="utf-8"?>
<!-- Generator: Adobe Illustrator 21.1.0, SVG Export Plug-In . SVG Version: 6.00 Build 0)  -->
<svg version="1.1" id="Layer_1" xmlns="http://www.w3.org/2000/svg" xmlns:xlink="http://www.w3.org/1999/xlink" x="0px" y="0px"
	 viewBox="0 0 100 100" style="enable-background:new 0 0 100 100;" xml:space="preserve">
<style type="text/css">
	.st0{fill:#444444;}
</style>
<path class="st0" d="M50,0c27.6,0,50,22.4,50,50s-22.4,50-50,50S0,77.6,0,50S22.4,0,50,0z M40.2,76.1c22.1,0,34.1-18.3,34.1-34.1
	c0-0.5,0-1,0-1.6c2.3-1.7,4.4-3.8,6-6.2c-2.2,1-4.5,1.6-6.9,1.9c2.5-1.5,4.4-3.9,5.3-6.6c-2.4,1.4-4.9,2.4-7.6,2.9
	c-4.5-4.8-12.1-5.1-17-0.5c-3.1,2.9-4.4,7.3-3.5,11.5c-9.6-0.5-18.6-5-24.7-12.5c-3.2,5.5-1.6,12.5,3.7,16c-1.9-0.1-3.8-0.6-5.4-1.5
	c0,0,0,0.1,0,0.2c0,5.7,4,10.6,9.6,11.8c-1.8,0.5-3.6,0.6-5.4,0.2c1.6,4.9,6.1,8.2,11.2,8.3c-4.2,3.3-9.5,5.2-14.9,5.2
	c-1,0-1.9-0.1-2.9-0.2C27.3,74.2,33.7,76.1,40.2,76.1"/>
</svg>
