<?xml version="1.0" encoding="utf-8"?>
<!-- Generator: Adobe Illustrator 21.1.0, SVG Export Plug-In . SVG Version: 6.00 Build 0)  -->
<svg version="1.1" id="Layer_1" xmlns="http://www.w3.org/2000/svg" xmlns:xlink="http://www.w3.org/1999/xlink" x="0px" y="0px"
	 viewBox="0 0 100 100" style="enable-background:new 0 0 100 100;" xml:space="preserve">
<style type="text/css">
	.st0{fill:#444444;}
</style>
<path class="st0" d="M100,50c0,27.6-22.4,50-50,50S0,77.6,0,50S22.4,0,50,0S100,22.4,100,50z M80.9,35.4c0-0.3,0-0.6-0.1-1
	c-0.1-0.7-0.3-1.4-0.5-2.1c-0.5-1.3-1.3-2.5-2.4-3.5s-2.5-1.8-4-2.3c-0.8-0.3-1.6-0.4-2.4-0.5c-0.4,0-0.7-0.1-1.1-0.1l0,0
	c-13.6-0.1-27.1-0.1-40.7,0c-0.4,0-0.7,0-1.1,0.1c-0.8,0.1-1.7,0.3-2.4,0.5C24.6,27,23.1,27.9,22,29c-1,1-1.7,2.1-2.2,3.4
	c-0.3,0.7-0.4,1.4-0.5,2.1c0,0.3-0.1,0.6-0.1,1c0,9.7-0.1,19.3,0,29c0,0.4,0,0.7,0.1,1.1c0.1,0.7,0.3,1.4,0.6,2.1
	c0.6,1.4,1.5,2.6,2.7,3.6c1.1,1,2.5,1.7,3.9,2.1c0.8,0.2,1.5,0.4,2.3,0.5c0.4,0,0.7,0,1.1,0c13.5,0,27.1,0.1,40.6,0
	c0.4,0,0.8,0,1.2-0.1c0.8-0.1,1.6-0.3,2.3-0.5c1.6-0.5,3.1-1.4,4.2-2.5c1-1,1.7-2.1,2.2-3.4c0.3-0.7,0.4-1.4,0.5-2.1
	c0-0.3,0.1-0.6,0.1-1C80.9,54.8,80.9,45.1,80.9,35.4z M25.2,31.4c0.7-0.6,1.5-1.1,2.4-1.4c0.5-0.2,1-0.3,1.5-0.3c0.3,0,0.5,0,0.8,0
	c13.5,0,27-0.1,40.5,0c0.3,0,0.5,0,0.7,0c0.5,0.1,1,0.2,1.4,0.3c1,0.3,1.8,0.8,2.5,1.5c0.2,0.2,0.4,0.4,0.6,0.7l0,0
	c-3.1,3.3-6.2,6.7-9.5,9.8c-1,1-2.1,2-3.2,3c-0.9,0.8-1.9,1.7-2.8,2.5c-1.2,1-2.4,1.9-3.7,2.8c-0.5,0.4-1,0.7-1.6,1
	c-0.5,0.3-1,0.6-1.5,0.8c-0.6,0.3-1.2,0.5-1.8,0.7C51.1,53,50.7,53,50.4,53c-0.1,0-0.2,0-0.4,0c-0.3,0-0.7-0.1-1-0.2
	c-0.4-0.1-0.9-0.3-1.3-0.5c-0.6-0.3-1.1-0.5-1.6-0.8c-0.6-0.3-1.2-0.7-1.8-1.1c-1.3-0.9-2.6-1.8-3.9-2.8c-1-0.8-2-1.6-3-2.5
	s-2.1-1.8-3.1-2.7c-1.8-1.6-3.5-3.3-5.2-5c-1.5-1.5-3-3.1-4.5-4.7c-0.1-0.1-0.2-0.2-0.3-0.3C24.6,32,24.9,31.7,25.2,31.4z
	 M24.1,67.4c-0.2-0.3-0.3-0.6-0.5-0.9c-0.2-0.4-0.3-0.8-0.3-1.3c0-0.2,0-0.4-0.1-0.7c-0.1-9.3-0.1-18.5,0-27.8
	c0.9,0.9,1.8,1.8,2.7,2.7c2,2,4,4,6.1,5.9c1.2,1.1,2.5,2.2,3.8,3.3c0.2,0.2,0.4,0.3,0.6,0.5L24.1,67.4z M72.5,70
	c-0.5,0.1-0.9,0.3-1.4,0.3c-0.2,0-0.5,0-0.7,0c-13.5,0.1-27.1,0.1-40.6,0c-0.3,0-0.5,0-0.7,0c-0.5-0.1-1-0.2-1.4-0.3
	c-0.1,0-0.2-0.1-0.3-0.1l12.3-18.2l0,0c0.8,0.6,1.5,1.1,2.3,1.6c0.8,0.6,1.7,1.1,2.6,1.6c0.7,0.4,1.5,0.8,2.2,1.1s1.4,0.5,2.1,0.6
	c0.5,0.1,1.1,0.2,1.6,0.2c1.2,0,2.3-0.3,3.4-0.6c0.8-0.3,1.5-0.6,2.3-1s1.6-0.9,2.3-1.4c0.5-0.4,1.1-0.7,1.6-1.1
	c0.4-0.3,0.9-0.6,1.3-1l12.1,18C73,69.8,72.7,69.9,72.5,70z M76.8,64.5c0,0.2,0,0.4,0,0.6c-0.1,0.4-0.2,0.9-0.3,1.3
	c-0.1,0.2-0.1,0.3-0.2,0.5l-12-17.7c0.2-0.1,0.3-0.3,0.5-0.4c1.1-1,2.2-2,3.3-3c1.4-1.3,2.7-2.6,4-3.9c1.6-1.6,3.2-3.3,4.8-5
	C76.8,46,76.8,55.3,76.8,64.5z"/>
</svg>
