<?xml version="1.0" encoding="utf-8"?>
<!-- Generator: Adobe Illustrator 21.1.0, SVG Export Plug-In . SVG Version: 6.00 Build 0)  -->
<svg version="1.1" id="Layer_1" xmlns="http://www.w3.org/2000/svg" xmlns:xlink="http://www.w3.org/1999/xlink" x="0px" y="0px"
	 viewBox="0 0 100 100" style="enable-background:new 0 0 100 100;" xml:space="preserve">
<style type="text/css">
	.st0{fill:#444444;}
</style>
<path class="st0" d="M50,0c27.6,0,50,22.4,50,50s-22.4,50-50,50S0,77.6,0,50S22.4,0,50,0z M33.7,23.2c-5.8,0-10.5,4.7-10.5,10.5
	v32.6c0,5.8,4.7,10.5,10.5,10.5h32.6c5.8,0,10.5-4.7,10.5-10.5V33.7c0-5.8-4.7-10.5-10.5-10.5H33.7L33.7,23.2z M32.2,43.8h8.1v24.4
	h-8.1L32.2,43.8L32.2,43.8z M52.9,68.2h-8.1c0,0,0.1-22.1,0-24.4h8.1v3.5c1.1-1.7,3-4,7.3-4l0,0c5.3,0,9.3,3.5,9.3,11v14h-8.1v-13
	c0-3.3-1.2-5.5-4.1-5.5c-2.2,0-3.6,1.5-4.2,3c-0.2,0.5-0.3,1.2-0.3,2L52.9,68.2L52.9,68.2z M36.3,40.4L36.3,40.4
	c-2.8,0-4.5-1.9-4.5-4.2c0-2.4,1.8-4.2,4.6-4.2l0,0c2.8,0,4.5,1.8,4.5,4.2C40.9,38.6,39.1,40.4,36.3,40.4L36.3,40.4z"/>
</svg>
