<?xml version="1.0" encoding="utf-8"?>
<!-- Generator: Adobe Illustrator 21.0.2, SVG Export Plug-In . SVG Version: 6.00 Build 0)  -->
<svg version="1.1" id="Layer_1" xmlns="http://www.w3.org/2000/svg" xmlns:xlink="http://www.w3.org/1999/xlink" x="0px" y="0px"
	 viewBox="0 0 180 180" style="enable-background:new 0 0 180 180;" xml:space="preserve">
<style type="text/css">
	.st0{fill:#BD2026;}
	.st1{fill:none;}
	.st2{font-family:'OstrichSans-Black';}
	.st3{font-size:59.9606px;}
	.st4{fill:#FFFFFF;}
	.st5{font-family:'OstrichSansRounded-Medium';}
	.st6{font-size:29.0572px;}
	.st7{fill:none;stroke:#BD2026;stroke-width:0.4091;stroke-miterlimit:10;}
	.st8{fill:#1C7039;}
	.st9{fill:#D32E3B;}
</style>
<g>
	<g>
		<rect x="12.654" y="31.0326" class="st0" width="154.6921" height="31.1271"/>
		<rect x="24.4033" y="91.6827" class="st1" width="48.4817" height="57.2855"/>
		<text transform="matrix(1 0 0 1 24.403 135.8744)" class="st0 st2 st3">A</text>
		<rect x="108.2478" y="36.4483" class="st1" width="52.7189" height="20.2958"/>
		<text transform="matrix(1 0 0 1 108.2477 56.0331)" class="st4 st5 st6">aPPle</text>
		<rect x="12.654" y="31.0318" class="st7" width="154.5951" height="113.5748"/>
	</g>
	<g>
		<path class="st8" d="M130.5867,79.9405c-0.3986-0.8122-0.797-1.6246-1.1952-2.437c-0.4321-0.8012-1.0223-1.4442-1.7708-1.929
			c-0.664-0.6077-1.4434-1.0179-2.3381-1.2306c-0.6093-0.0819-1.2185-0.1637-1.8278-0.2456
			c-0.9466-0.0357-1.8295,0.1617-2.6489,0.5921c-0.5823,0.1634-1.088,0.458-1.5169,0.8841
			c-0.7485,0.4848-1.3387,1.1278-1.7708,1.929c-0.231,0.5475-0.462,1.0949-0.6931,1.6424c-0.3275,1.2185-0.3275,2.4369,0,3.6554
			c0.1746,0.4165,0.3491,0.833,0.5237,1.2495c0.1779,0.7483,0.5024,1.4111,0.9566,1.9981c0.136,0.2772,0.2719,0.5545,0.4079,0.8318
			c0.4321,0.8012,1.0223,1.4442,1.7708,1.929c0.664,0.6077,1.4434,1.0179,2.3381,1.2306c0.9138,0.2865,1.8277,0.3274,2.7415,0.1228
			c0.915-0.0415,1.767-0.3135,2.5562-0.8159c1.468-0.9464,2.7603-2.3558,3.1596-4.1088c0.0818-0.6092,0.1637-1.2185,0.2456-1.8277
			C131.5215,82.1695,131.2086,81.0129,130.5867,79.9405z"/>
		<path class="st9" d="M153.4558,96.1543c-3.3989-6.1441-12.82-8.6073-19.2459-6.9989c-1.6512,0.4133-3.2027,1.0857-4.6821,1.8994
			c-7.9476-3.5569-18.2771-3.112-23.5883,3.7157c-4.1039,5.2758-3.6559,11.7824-2.4754,17.9806
			c1.0654,5.5937,1.6508,11.996,5.8486,16.2826c4.9565,5.0613,10.9393,3.7708,17.1573,2.8516
			c2.9713-0.4392,5.4978,1.0382,8.4624,1.2111c3.5222,0.2054,6.7773-1.0608,9.5075-3.2267c4.7052-3.7328,7.7194-9.4411,9.1085-15.22
			C154.8046,109.423,156.2181,101.1478,153.4558,96.1543z"/>
		<g>
			<g>
				<path class="st0" d="M139.9106,86.9474c-3.3947,0-6.7846,0.7506-8.9845,1.9349c1.0686-2.5786,3.2935-6.0995,7.6075-6.7769
					l-0.5088-3.2376c-2.6142,0.4124-4.6387,1.5417-6.2026,2.9582c-0.1879-1.1216-0.5358-2.2249-1.0493-3.2714
					c-2.036-4.1367-6.1872-6.7075-10.8326-6.7075l-0.9674,0.0135l-0.4818,0.6061c-2.9042,3.6472-3.4622,8.6819-1.4222,12.8291
					c0.291,0.5888,0.6273,1.1447,1.0002,1.667c-0.1898-0.0039-0.3797-0.0173-0.5695-0.0173
					c-8.4188,0-17.4447,4.5154-17.5314,17.1903c-0.1243,17.8302,10.5368,27.0651,15.1254,30.2084
					c1.1823,0.8094,2.6296,1.2199,4.3034,1.2199c3.836,0,7.7299-2.1922,7.9486-2.3184c0.0202-0.0116,0.4818-0.2766,1.2536-0.2766
					c0.5145,0,1.0542,0.1185,1.6015,0.3556c0.6022,0.3315,4.2311,2.2394,7.8098,2.2394c0.001,0,0.0019,0,0.0019,0
					c1.6728,0,3.1201-0.4105,4.3014-1.2199c4.5905-3.1413,15.2526-12.3743,15.1302-30.2084
					C157.3563,91.4618,148.3285,86.9474,139.9106,86.9474z M120.0087,83.8514c-1.3673-2.7819-1.1255-6.1168,0.581-8.7041
					c3.122,0.2216,5.8586,2.0399,7.2442,4.8516c1.3876,2.832,1.1553,6.1014-0.5772,8.706
					c-0.7073-0.0511-1.3914-0.1918-2.0486-0.3989c-0.2091-0.0829-0.423-0.1619-0.6446-0.239
					C122.6095,87.2789,120.9752,85.8162,120.0087,83.8514z M140.4647,131.6413c-0.6263,0.4288-1.4521,0.6475-2.4523,0.6475
					c-2.9572,0-6.2402-1.8385-6.271-1.8559l-0.1436-0.0732c-0.9915-0.4423-2.0004-0.6658-2.9977-0.6658
					c-1.5832,0-2.6344,0.5589-2.9514,0.7506c-0.3045,0.1677-3.4275,1.8443-6.2508,1.8443c-1.0002,0-1.826-0.2187-2.4523-0.6456
					c-4.1569-2.8474-13.8149-11.2238-13.7002-27.4824c0.0848-12.5805,9.9972-13.9392,14.2553-13.9392
					c2.2153,0,4.1916,0.3594,5.7015,0.8431c0.3421,0.1426,0.6918,0.2688,1.0484,0.3806c0.5232,0.2216,0.9539,0.4577,1.2719,0.687
					l0.1127,0.0732c0.0877,0.053,0.6022,0.3459,1.3615,0.5781c-2.17,1.3008-4.4142,0.6321-4.7601,0.5155
					c-0.847-0.2997-1.7826,0.1465-2.0842,0.9973c-0.3035,0.8528,0.1416,1.7894,0.9935,2.0929
					c0.7429,0.2631,1.7499,0.4625,2.884,0.4625c2.6238,0,5.9126-1.0783,8.1172-4.8815c1.3924-0.8692,4.2851-1.7479,7.7636-1.7479
					c4.2571,0,14.1705,1.3587,14.2581,13.9382C154.2805,120.4223,144.6216,128.7949,140.4647,131.6413z"/>
			</g>
		</g>
	</g>
</g>
</svg>
