<?xml version="1.0" encoding="utf-8"?>
<!-- Generator: Adobe Illustrator 21.1.0, SVG Export Plug-In . SVG Version: 6.00 Build 0)  -->
<svg version="1.1" id="Layer_1" xmlns="http://www.w3.org/2000/svg" xmlns:xlink="http://www.w3.org/1999/xlink" x="0px" y="0px"
	 viewBox="0 0 180 180" style="enable-background:new 0 0 180 180;" xml:space="preserve">
<style type="text/css">
	.st0{fill:#BD2026;}
	.st1{fill:none;}
	.st2{font-family:'OstrichSans-Black';}
	.st3{font-size:59.9606px;}
	.st4{enable-background:new    ;}
	.st5{fill:#FFFFFF;}
	.st6{fill:none;stroke:#BD2026;stroke-width:0.4091;stroke-miterlimit:10;}
	.st7{fill:#1C7039;}
	.st8{fill:#D32E3B;}
</style>
<g>
	<g>
		<rect x="12.7" y="31" class="st0" width="154.7" height="31.1"/>
		<rect x="24.4" y="91.7" class="st1" width="48.5" height="57.3"/>
		<text transform="matrix(1 0 0 1 24.403 135.8744)" class="st0 st2 st3">A</text>
		<rect x="108.2" y="36.4" class="st1" width="52.7" height="20.3"/>
		<g class="st4">
			<path class="st5" d="M118.2,55.5c0.1,0.2-0.1,0.5-0.3,0.6h-0.1c-0.2,0-0.4-0.1-0.4-0.3L116,50h-5.1l-1.3,5.6
				c-0.1,0.2-0.3,0.4-0.6,0.3c-0.3-0.1-0.4-0.3-0.3-0.6l4.3-18.7c0.1-0.2,0.2-0.3,0.4-0.3c0.3,0,0.4,0.1,0.5,0.3L118.2,55.5z
				 M113.4,38.9L111,49.1h4.7L113.4,38.9z"/>
			<path class="st5" d="M119.9,36.9c0-0.2,0.2-0.4,0.5-0.4h3.1c3.1,0,4.5,1.7,4.5,5.1c0,3.5-1.4,5.1-4.5,5.1h-2.6v8.9
				c0,0.3-0.1,0.5-0.5,0.5s-0.5-0.1-0.5-0.5V36.9z M120.9,37.4v8.4h2.6c2.5,0,3.6-1.2,3.6-4.2s-1-4.2-3.6-4.2H120.9z"/>
			<path class="st5" d="M129.8,36.9c0-0.2,0.2-0.4,0.5-0.4h3.1c3.1,0,4.5,1.7,4.5,5.1c0,3.5-1.4,5.1-4.5,5.1h-2.6v8.9
				c0,0.3-0.1,0.5-0.5,0.5c-0.3,0-0.5-0.1-0.5-0.5V36.9z M130.7,37.4v8.4h2.6c2.5,0,3.6-1.2,3.6-4.2s-1-4.2-3.6-4.2H130.7z"/>
			<path class="st5" d="M140,56c-0.3,0-0.5-0.1-0.5-0.5V36.9c0-0.2,0.2-0.4,0.5-0.4c0.2,0,0.4,0.2,0.4,0.4v18.2h6.1
				c0.3,0,0.5,0.2,0.5,0.4c0,0.3-0.1,0.5-0.5,0.5H140z"/>
			<path class="st5" d="M149.2,46.7v8.5h5.7c0.3,0,0.5,0.2,0.5,0.4c0,0.3-0.1,0.5-0.5,0.5h-6.1c-0.3,0-0.5-0.1-0.5-0.5V36.9
				c0-0.2,0.2-0.4,0.5-0.4h6.1c0.3,0,0.5,0.2,0.5,0.4c0,0.3-0.1,0.5-0.5,0.5h-5.7v8.4h5.7c0.3,0,0.5,0.1,0.5,0.5
				c0,0.2-0.2,0.4-0.5,0.4H149.2z"/>
		</g>
		<rect x="12.7" y="31" class="st6" width="154.6" height="113.6"/>
	</g>
	<g>
		<path class="st7" d="M130.6,79.9c-0.4-0.8-0.8-1.6-1.2-2.4c-0.4-0.8-1-1.4-1.8-1.9c-0.7-0.6-1.4-1-2.3-1.2
			c-0.6-0.1-1.2-0.2-1.8-0.2c-0.9,0-1.8,0.2-2.6,0.6c-0.6,0.2-1.1,0.5-1.5,0.9c-0.7,0.5-1.3,1.1-1.8,1.9c-0.2,0.5-0.5,1.1-0.7,1.6
			c-0.3,1.2-0.3,2.4,0,3.7c0.2,0.4,0.3,0.8,0.5,1.2c0.2,0.7,0.5,1.4,1,2c0.1,0.3,0.3,0.6,0.4,0.8c0.4,0.8,1,1.4,1.8,1.9
			c0.7,0.6,1.4,1,2.3,1.2c0.9,0.3,1.8,0.3,2.7,0.1c0.9,0,1.8-0.3,2.6-0.8c1.5-0.9,2.8-2.4,3.2-4.1c0.1-0.6,0.2-1.2,0.2-1.8
			C131.5,82.2,131.2,81,130.6,79.9z"/>
		<path class="st8" d="M153.5,96.2c-3.4-6.1-12.8-8.6-19.2-7c-1.7,0.4-3.2,1.1-4.7,1.9c-7.9-3.6-18.3-3.1-23.6,3.7
			c-4.1,5.3-3.7,11.8-2.5,18c1.1,5.6,1.7,12,5.8,16.3c5,5.1,10.9,3.8,17.2,2.9c3-0.4,5.5,1,8.5,1.2c3.5,0.2,6.8-1.1,9.5-3.2
			c4.7-3.7,7.7-9.4,9.1-15.2C154.8,109.4,156.2,101.1,153.5,96.2z"/>
		<g>
			<g>
				<path class="st0" d="M139.9,86.9c-3.4,0-6.8,0.8-9,1.9c1.1-2.6,3.3-6.1,7.6-6.8l-0.5-3.2c-2.6,0.4-4.6,1.5-6.2,3
					c-0.2-1.1-0.5-2.2-1-3.3c-2-4.1-6.2-6.7-10.8-6.7l-1,0l-0.5,0.6c-2.9,3.6-3.5,8.7-1.4,12.8c0.3,0.6,0.6,1.1,1,1.7
					c-0.2,0-0.4,0-0.6,0c-8.4,0-17.4,4.5-17.5,17.2c-0.1,17.8,10.5,27.1,15.1,30.2c1.2,0.8,2.6,1.2,4.3,1.2c3.8,0,7.7-2.2,7.9-2.3
					c0,0,0.5-0.3,1.3-0.3c0.5,0,1.1,0.1,1.6,0.4c0.6,0.3,4.2,2.2,7.8,2.2c0,0,0,0,0,0c1.7,0,3.1-0.4,4.3-1.2
					c4.6-3.1,15.3-12.4,15.1-30.2C157.4,91.5,148.3,86.9,139.9,86.9z M120,83.9c-1.4-2.8-1.1-6.1,0.6-8.7c3.1,0.2,5.9,2,7.2,4.9
					c1.4,2.8,1.2,6.1-0.6,8.7c-0.7-0.1-1.4-0.2-2-0.4c-0.2-0.1-0.4-0.2-0.6-0.2C122.6,87.3,121,85.8,120,83.9z M140.5,131.6
					c-0.6,0.4-1.5,0.6-2.5,0.6c-3,0-6.2-1.8-6.3-1.9l-0.1-0.1c-1-0.4-2-0.7-3-0.7c-1.6,0-2.6,0.6-3,0.8c-0.3,0.2-3.4,1.8-6.3,1.8
					c-1,0-1.8-0.2-2.5-0.6c-4.2-2.8-13.8-11.2-13.7-27.5c0.1-12.6,10-13.9,14.3-13.9c2.2,0,4.2,0.4,5.7,0.8c0.3,0.1,0.7,0.3,1,0.4
					c0.5,0.2,1,0.5,1.3,0.7l0.1,0.1c0.1,0.1,0.6,0.3,1.4,0.6c-2.2,1.3-4.4,0.6-4.8,0.5c-0.8-0.3-1.8,0.1-2.1,1
					c-0.3,0.9,0.1,1.8,1,2.1c0.7,0.3,1.7,0.5,2.9,0.5c2.6,0,5.9-1.1,8.1-4.9c1.4-0.9,4.3-1.7,7.8-1.7c4.3,0,14.2,1.4,14.3,13.9
					C154.3,120.4,144.6,128.8,140.5,131.6z"/>
			</g>
		</g>
	</g>
</g>
</svg>
