<?xml version="1.0" encoding="utf-8"?>
<!-- Generator: Adobe Illustrator 21.0.2, SVG Export Plug-In . SVG Version: 6.00 Build 0)  -->
<svg version="1.1" id="Layer_1" xmlns="http://www.w3.org/2000/svg" xmlns:xlink="http://www.w3.org/1999/xlink" x="0px" y="0px"
	 viewBox="0 0 180 180" style="enable-background:new 0 0 180 180;" xml:space="preserve">
<style type="text/css">
	.st0{fill:#9B1B3C;}
	.st1{fill:#801839;}
	.st2{fill:#661537;}
	.st3{fill:#4C1235;}
</style>
<g>
	<g>
		<path class="st0" d="M39.8138,106.3512l-5.0412,1.6423l-5.0052,1.6314c4.1743,12.85,12.3383,23.8867,23.0368,31.6558l3.092-4.2629
			l3.1119-4.2888C50.0921,126.2556,43.2914,117.0618,39.8138,106.3512z"/>
		<path class="st1" d="M47.7828,90.0314c-0.0037-4.558,0.7211-8.9421,2.0478-13.0535l-5.0348-1.6317l-5.0068-1.6226
			c-1.6599,5.1392-2.5662,10.6183-2.5615,16.3166c0.0039,5.6967,0.9181,11.1755,2.5862,16.311l5.0042-1.6304l5.0325-1.6394
			C48.5175,98.9732,47.7864,94.5901,47.7828,90.0314z"/>
		<path class="st1" d="M89.9706,42.4819l-0.0042-5.2607c-11.6087,0.0092-22.3216,3.7587-31.0233,10.096l3.0981,4.2575l3.1131,4.2765
			c6.96-5.0694,15.5312-8.0672,24.82-8.0744L89.9706,42.4819z"/>
		<path class="st0" d="M37.2276,90.0402c-0.0048-5.6983,0.9016-11.1774,2.5615-16.3166l-5.0438-1.6346l-5.0081-1.6231
			c-1.9925,6.1656-3.0711,12.7459-3.0657,19.5815c0.0051,6.8363,1.0939,13.4136,3.0959,19.5775l5.0052-1.6314l5.0412-1.6423
			C38.1457,101.2156,37.2314,95.7369,37.2276,90.0402z"/>
		<path class="st1" d="M49.8505,103.0814l-5.0325,1.6394l-5.0042,1.6304c3.4775,10.7106,10.2783,19.9044,19.1942,26.3777
			l3.091-4.2617l3.1059-4.2816C58.0724,119.0073,52.6323,111.6524,49.8505,103.0814z"/>
		<path class="st1" d="M62.0412,51.5747l-3.0981-4.2575c-8.9053,6.4869-15.6919,15.6909-19.154,26.4064l5.0068,1.6226l5.0348,1.6317
			c2.769-8.5742,8.1982-15.9377,15.3237-21.1267L62.0412,51.5747z"/>
		<path class="st0" d="M55.8252,43.0335l-3.0981-4.2576c-10.6868,7.7843-18.8345,18.8335-22.9898,31.69l5.0081,1.6231l5.0438,1.6346
			c3.4621-10.7155,10.2488-19.9194,19.154-26.4064L55.8252,43.0335z"/>
		<path class="st0" d="M89.9624,31.9269l-0.004-5.2613C76.03,26.6759,63.169,31.1687,52.7271,38.7759l3.0981,4.2576l3.1179,4.2837
			c8.7017-6.3373,19.4146-10.0868,31.0233-10.096L89.9624,31.9269z"/>
		<path class="st0" d="M145.267,107.9109l-5.0437-1.6346c-3.462,10.7148-10.2486,19.9189-19.1539,26.4059l3.1177,4.2842
			l3.0988,4.2578c10.6862-7.7845,18.8336-18.833,22.9885-31.6904L145.267,107.9109z"/>
		<path class="st0" d="M124.1871,136.9664l-3.1177-4.2842c-8.7013,6.3382-19.4148,10.0875-31.0235,10.0965l0.0039,5.2944
			l0.0041,5.2613c13.9277-0.0107,26.7899-4.503,37.2319-12.1103L124.1871,136.9664z"/>
		<path class="st0" d="M90.0499,148.0731l-0.0039-5.2944c-11.6084,0.0085-22.3276-3.7247-31.0379-10.0498l-3.1119,4.2888
			l-3.092,4.2629c10.4531,7.591,23.3214,12.0643,37.2498,12.0538L90.0499,148.0731z"/>
		<path class="st2" d="M68.2519,60.1086l-3.0975-4.2574c-7.1255,5.189-12.5547,12.5524-15.3237,21.1267l5.0073,1.6235l5.0418,1.634
			c2.0801-6.4225,6.1534-11.9434,11.4945-15.8374L68.2519,60.1086z"/>
		<path class="st2" d="M58.3389,90.0242c-0.0026-3.4178,0.542-6.7048,1.5408-9.7889l-5.0418-1.634l-5.0073-1.6235
			c-1.3267,4.1114-2.0515,8.4955-2.0478,13.0535c0.0036,4.5588,0.7347,8.9418,2.0677,13.0501l5.0049-1.6301l5.0389-1.6415
			C58.8917,96.7273,58.3414,93.4406,58.3389,90.0242z"/>
		<path class="st2" d="M89.9784,53.0383l-0.0041-5.2615c-9.2887,0.0072-17.8599,3.0051-24.82,8.0744l3.0975,4.2574l3.1224,4.2893
			c5.222-3.8065,11.6497-6.0597,18.608-6.0654L89.9784,53.0383z"/>
		<path class="st1" d="M85.5291,132.0234c-2.8653-0.3052-5.6954-0.9056-8.4446-1.7876v-0.0307
			c-4.3018-1.3796-8.3033-3.4245-11.8795-6.0207l-2.4617,3.3935c-0.1267,0.1385-0.2491,0.2824-0.3617,0.4374l-0.3289,0.4524
			L62.051,128.47c-0.1184,0.1628-0.2231,0.331-0.3192,0.5023l-2.7238,3.7554c1.3065,0.9487,2.6598,1.8366,4.0531,2.6643
			c0.152,0.1135,0.3112,0.2208,0.4798,0.3185c6.4759,3.7527,13.6401,6.0525,20.9822,6.8191
			c2.926,0.3055,5.4575-2.0365,5.4583-4.9785l0.0002-0.5608C89.9825,134.4404,88.0648,132.2936,85.5291,132.0234z"/>
		<path class="st2" d="M68.1342,113.0027c-1.3757-1.3207-2.63-2.766-3.7497-4.3151l0.0411-0.0267
			c-1.9469-2.6646-3.4876-5.6451-4.5314-8.8511l-5.0389,1.6415l-5.0049,1.6301c0.5439,1.6759,1.1958,3.3015,1.937,4.8764
			c0.0621,0.1772,0.1339,0.353,0.2175,0.5266c2.2216,4.6159,5.2572,8.7617,8.9224,12.2538c2.1713,2.0687,5.6614,1.774,7.4225-0.6534
			l0.4174-0.5752C70.2309,117.4921,69.9322,114.7288,68.1342,113.0027z"/>
		<path class="st3" d="M76.4332,73.8419c0.0482-0.0405,0.0942-0.0834,0.1428-0.1235c0.328-0.272,0.6639-0.5349,1.0089-0.7864
			c0.3884-0.2831,0.7903-0.5485,1.198-0.8052c0.1138-0.0717,0.2293-0.1408,0.3446-0.2104c0.331-0.1996,0.6679-0.3904,1.0104-0.572
			c0.0953-0.0506,0.1888-0.104,0.285-0.1533c0.4283-0.2188,0.8651-0.4234,1.3096-0.6133c0.0989-0.0422,0.2001-0.0797,0.2997-0.1205
			c0.3621-0.1481,0.7292-0.2863,1.1011-0.4145c0.1291-0.0445,0.2581-0.0893,0.3883-0.1314c2.0385-0.6586,4.2104-1.0213,6.4686-1.023
			l-0.0031-4.4212v-0.0002l-0.0006-0.8698v-0.0039v-0.0053v-0.0001l-0.0043-5.2552c-1.8767,0.0016-3.7131,0.1717-5.4994,0.4866
			c-0.0324,0.0052-0.0642,0.006-0.0967,0.0118c-0.0662,0.0118-0.1301,0.0299-0.1961,0.0422
			c-0.6274,0.1167-1.2498,0.2476-1.8636,0.4007c-0.059,0.0147-0.117,0.032-0.1759,0.0471
			c-0.5975,0.1527-1.1875,0.3233-1.7708,0.5095c-0.0742,0.0238-0.1494,0.0452-0.2235,0.0695
			c-0.5922,0.1939-1.1751,0.4079-1.7514,0.6352c-0.1091,0.043-0.218,0.0859-0.3264,0.1302
			c-0.5671,0.2311-1.1266,0.4766-1.6767,0.7391c-0.0331,0.0158-0.0679,0.0285-0.1009,0.0445
			c-0.0301,0.0144-0.0568,0.0327-0.0864,0.0477c-1.7032,0.8264-3.3239,1.796-4.8402,2.9013
			c-1.5204,1.1085-2.9334,2.3531-4.2308,3.7091c-0.0324,0.0322-0.0674,0.0599-0.0991,0.0933
			c-0.0343,0.0361-0.0652,0.0753-0.0993,0.1116c-0.3805,0.4048-0.7487,0.8211-1.1077,1.2454
			c-0.1163,0.1374-0.2309,0.2758-0.3449,0.4152c-0.3291,0.4026-0.6521,0.8103-0.9615,1.229l0.0031,0.0018
			c-0.8732,1.1815-1.6715,2.4214-2.3763,3.7207c-1.4481,2.67-0.1603,5.998,2.7291,6.9348h0.0001l0.8805,0.2854
			c2.1748,0.7048,4.586-0.1917,5.6765-2.2009c0.6601-1.216,1.4422-2.3546,2.3193-3.4114l0.0016,0.0009
			c0.5495-0.6621,1.1379-1.2904,1.7614-1.8821c0.0181-0.0172,0.0356-0.035,0.0538-0.0521
			C75.8567,74.3381,76.1427,74.0873,76.4332,73.8419z"/>
	</g>
	<path class="st0" d="M152.4941,100.2781c0.0341-0.2089,0.0663-0.4184,0.0983-0.6281c0.0901-0.5895,0.172-1.1817,0.2457-1.7766
		c0.0196-0.1578,0.042-0.3147,0.0604-0.4729c0.0854-0.7347,0.1578-1.4731,0.2179-2.2151c0.0142-0.1753,0.0243-0.3517,0.0371-0.5275
		c0.0431-0.5925,0.078-1.1872,0.1047-1.7842c0.0095-0.213,0.0194-0.4257,0.0268-0.6393c0.0263-0.7576,0.044-1.5173,0.0434-2.2816
		c0,0,0,0,0-0.0001l0,0v-0.0001c-0.0005-0.753-0.0188-1.5018-0.0454-2.2484c-0.0005-0.0144-0.0013-0.0287-0.0019-0.043
		c-0.1493-4.1082-0.685-8.1162-1.5789-11.9867c-0.6666-2.8862-3.6583-4.5862-6.4748-3.6685l-0.4692,0.1529
		c-2.4764,0.8067-3.9331,3.3691-3.3457,5.9065c0.5558,2.4014,0.9484,4.8659,1.1647,7.3816h-0.0043
		c0.06,0.6977,0.1047,1.3996,0.1383,2.1046c0.0044,0.096,0.0087,0.1919,0.0126,0.288c0.0297,0.7037,0.0484,1.4101,0.0489,2.1213
		v0.0002c0.0005,0.6367-0.0143,1.2698-0.0364,1.9009c-0.0062,0.1781-0.0145,0.3557-0.0225,0.5333
		c-0.0224,0.4973-0.0516,0.9927-0.0877,1.4862c-0.0107,0.1464-0.0192,0.2935-0.0311,0.4396
		c-0.0504,0.6183-0.1111,1.2336-0.1827,1.8457c-0.0154,0.1318-0.0341,0.2626-0.0505,0.3941
		c-0.0618,0.4955-0.1303,0.9888-0.2057,1.4798c-0.0269,0.1748-0.0538,0.3495-0.0823,0.5238
		c-0.0918,0.5602-0.1905,1.1181-0.2997,1.6722c-0.0096,0.0486-0.0175,0.0979-0.0273,0.1465
		c-0.4015,2.0078-0.9159,3.9746-1.536,5.8935l4.5736,1.4822l0.0007,0.0003l0.4695,0.1521l0.0005,0.0002l0.0007,0.0002l5.0062,1.6225
		c0.5464-1.6901,1.017-3.4138,1.4224-5.1627c0.0121-0.0467,0.0287-0.091,0.0396-0.1383c0.1348-0.5875,0.2608-1.1784,0.3792-1.772
		c0.0116-0.058,0.021-0.1168,0.0324-0.1749C152.2663,101.6206,152.3844,100.9508,152.4941,100.2781z"/>
</g>
</svg>
