<?xml version="1.0" encoding="utf-8"?>
<!-- Generator: Adobe Illustrator 21.0.2, SVG Export Plug-In . SVG Version: 6.00 Build 0)  -->
<svg version="1.1" id="Layer_1" xmlns="http://www.w3.org/2000/svg" xmlns:xlink="http://www.w3.org/1999/xlink" x="0px" y="0px"
	 viewBox="0 0 180 180" style="enable-background:new 0 0 180 180;" xml:space="preserve">
<style type="text/css">
	.st0{fill:#1A8090;}
	.st1{fill:#D4903B;}
	.st2{fill:#C03288;}
	.st3{fill:#2A3884;}
</style>
<g>
	<g>
		<g>
			<path class="st0" d="M61.3261,124.2968C48.3413,116.9194,38.6246,104.1229,34.83,89.629
				c-1.9236-7.2314-2.4966-14.8495-1.5562-22.32c0.9217-7.4704,3.3306-14.7692,7.0133-21.3786
				c3.6901-6.6043,8.658-12.5259,14.5989-17.2878c5.9355-4.761,12.8162-8.3958,20.1685-10.5317
				c7.3483-2.1297,15.1409-2.8257,22.774-1.9162c7.6306,0.9116,15.0722,3.3946,21.7423,7.2191
				c6.6511,3.8585,12.5198,9.0664,17.1255,15.218c4.6139,6.1499,7.9008,13.2528,9.7325,20.6809
				c1.836,7.4345,2.1207,15.2142,0.9667,22.7357c-1.1543,7.5272-3.7998,14.7913-7.6754,21.2898
				c-3.8837,6.4947-9.0015,12.2305-15.0112,16.7638c-6.0007,4.5489-12.885,7.8638-20.111,9.8098
				C90.1476,133.8717,74.2074,131.8525,61.3261,124.2968z M61.3261,124.2968c6.4667,3.7063,13.6723,6.1092,21.0648,6.9918
				c7.3943,0.8846,14.9477,0.204,22.0714-1.8622c7.1287-2.0707,13.7977-5.6021,19.5493-10.2198
				c5.7568-4.6198,10.569-10.3614,14.1461-16.7708c3.5692-6.4148,5.8985-13.489,6.7878-20.7286
				c0.9083-7.2396,0.3454-14.6205-1.5175-21.6259c-3.6847-14.0431-13.083-26.413-25.651-33.5604
				c-12.4713-7.3117-27.8861-9.2736-41.8917-5.4416c-7.0025,1.8807-13.675,5.0922-19.4918,9.4978
				c-5.8257,4.3913-10.7877,9.9471-14.5584,16.2468c-3.762,6.3039-6.3279,13.3433-7.4498,20.6397
				c-1.1219,7.2906-0.8473,14.8331,0.928,22.0416c1.7733,7.2023,4.9602,14.0848,9.4251,20.0451
				C49.199,115.511,54.8829,120.5497,61.3261,124.2968z"/>
		</g>
		<g>
			<g>
				<path class="st1" d="M96.7427,122.4301c-13.3288,1.8956-27.3712-0.9436-38.7396-8.3389
					c-5.6703-3.683-10.6961-8.4443-14.5007-14.1095c-3.8183-5.6461-6.3979-12.1668-7.4357-18.9581
					c-1.063-6.7865-0.5811-13.8339,1.3796-20.4618c1.9544-6.6303,5.3237-12.8501,9.7848-18.1575
					c4.4685-5.3013,9.952-9.7501,16.0645-13.0426c6.1182-3.2852,12.8269-5.4437,19.6958-6.4271
					c6.8776-0.9234,13.9214-0.6603,20.7014,0.8409c6.7799,1.5003,13.2635,4.3041,19.0035,8.193
					c5.7401,3.8914,10.6667,8.972,14.3477,14.8234c3.6852,5.8493,6.0604,12.5034,6.8774,19.3252
					c0.8427,6.8195,0.1276,13.7965-2.0171,20.2673c-2.1269,6.4849-5.672,12.4328-10.1342,17.5135
					C122.8326,114.0994,110.0855,120.6388,96.7427,122.4301z M96.7427,122.4301c6.6672-0.9558,13.171-3.0504,19.0985-6.2341
					c5.9243-3.1871,11.2287-7.5012,15.5467-12.6263c4.3129-5.1307,7.5551-11.138,9.433-17.5224
					c1.8831-6.3838,2.3405-13.1553,1.3134-19.6832c-1.0037-6.5325-3.4862-12.7933-7.1644-18.2243
					c-3.6643-5.4493-8.5132-10.0347-13.989-13.5918c-10.9835-7.1384-24.5732-9.8932-37.4981-8.0592
					c-12.9367,1.7383-25.2762,8.0709-33.9123,17.923c-4.3141,4.904-7.7319,10.6393-9.7824,16.8784
					c-2.067,6.2267-2.7576,12.9277-1.951,19.4887c0.7829,6.5629,3.061,12.9572,6.6061,18.5914
					c3.5407,5.6355,8.2904,10.5402,13.836,14.3056c5.5468,3.7612,11.8227,6.4757,18.3899,7.9344
					C83.238,123.0669,90.0662,123.3187,96.7427,122.4301z"/>
			</g>
		</g>
		<g>
			<path class="st2" d="M139.9865,73.8695c0.0707,12.6883-5.0689,25.2929-13.9961,34.3917
				c-4.4541,4.5462-9.7752,8.2831-15.6604,10.8283c-5.8754,2.5603-12.2809,3.9396-18.7312,4.0614
				c-6.4495,0.1-12.9441-1.0577-18.9861-3.447c-6.0388-2.3858-11.6401-5.9628-16.3192-10.5293
				c-4.6593-4.5791-8.4472-10.0775-10.991-16.1277c-2.5379-6.0511-3.8523-12.612-3.8857-19.1775
				c0.0266-6.566,1.3462-13.1273,3.8828-19.1787c2.5337-6.0557,6.3305-11.5514,10.9884-16.132
				c4.6735-4.5744,10.2818-8.1464,16.3205-10.5337c6.0436-2.3891,12.5395-3.5463,18.9901-3.4456
				c6.4514,0.1226,12.8578,1.5028,18.7337,4.064c5.8852,2.5467,11.2082,6.2829,15.6598,10.8324
				C134.9193,48.5759,140.0567,61.1815,139.9865,73.8695z M139.9865,73.8695c-0.034-6.3353-1.3022-12.6572-3.7492-18.4901
				c-2.449-5.8337-6.1077-11.1326-10.6014-15.5471c-4.5126-4.4036-9.9183-7.8453-15.7382-10.1404
				c-5.8243-2.2977-12.0799-3.4082-18.299-3.308c-6.2199,0.123-12.3859,1.4566-18.0426,3.9264
				c-5.6665,2.4546-10.7869,6.0604-15.0775,10.4392c-8.5953,8.7734-13.5358,20.8966-13.4737,33.1201
				c-0.0643,12.2219,4.871,24.3515,13.4683,33.1255c4.285,4.3867,9.4124,7.9875,15.0789,10.4436
				c5.6582,2.4697,11.8257,3.8028,18.0467,3.9251c6.2202,0.0995,12.4767-1.012,18.3015-3.3106
				c5.8199-2.2967,11.2276-5.7376,15.7376-10.1445c4.4932-4.4151,8.1528-9.7141,10.6-15.5487
				C138.6846,86.5267,139.9527,80.2048,139.9865,73.8695z"/>
		</g>
		<g>
			<path class="st3" d="M119.5636,28.1216c5.8741,3.6074,10.9436,8.5185,14.7481,14.2767c3.8239,5.745,6.4623,12.28,7.7344,19.0853
				c1.2875,6.8006,1.32,13.8573,0.0454,20.7009c-1.2594,6.8461-3.792,13.4657-7.377,19.4721
				c-3.6022,5.9951-8.2626,11.3872-13.7669,15.7801c-5.4998,4.3882-11.8259,7.8102-18.6162,9.8627
				c-6.7837,2.0406-14.0072,2.7835-21.0992,1.9462c-7.0866-0.8359-14.0008-3.2395-20.0823-6.9993
				c-6.0727-3.775-11.2933-8.9085-15.1889-14.8867c-3.9086-5.9781-6.4421-12.7866-7.6268-19.7708
				c-2.3617-14.0269,1.0247-28.6619,8.6036-40.4063c3.7919-5.8791,8.6006-11.0871,14.1772-15.2545
				c5.5679-4.1792,11.906-7.2844,18.5731-9.1457c6.6632-1.8802,13.6907-2.4177,20.536-1.5392
				C107.0727,22.0963,113.7237,24.4592,119.5636,28.1216z M119.5636,28.1216c-5.8642-3.6238-12.5216-5.9372-19.3564-6.7428
				c-6.8392-0.8107-13.8172-0.0879-20.3785,1.8872c-13.1682,3.9876-24.4179,13.2176-31.3579,24.8678
				c-3.475,5.8308-5.9245,12.2483-7.1402,18.8796c-1.2315,6.629-1.1908,13.4578,0.053,20.0298
				c1.2308,6.5774,3.785,12.8784,7.4645,18.4128c3.6647,5.5469,8.542,10.263,14.1937,13.7415
				c11.253,7.1358,25.5663,8.8012,38.4289,5.1418c6.4455-1.794,12.5816-4.7973,17.9763-8.8425
				c5.4031-4.0343,10.0666-9.0794,13.7488-14.7827c7.358-11.3925,10.6363-25.5728,8.3592-39.1428
				c-1.1434-6.7563-3.5928-13.3307-7.357-19.0983C130.4423,36.7063,125.414,31.7677,119.5636,28.1216z"/>
		</g>
	</g>
	<g>
		<path class="st3" d="M34.5569,148.7941v-9.6388h0.953v9.6388H34.5569z"/>
		<path class="st3" d="M42.0073,148.7941l-3.3525-8.0187H38.614v8.0187h-0.8986v-9.6388h1.1844l3.3354,8.0187h0.041v-8.0187h0.8713
			v9.6388H42.0073z"/>
		<path class="st3" d="M47.0411,139.9721v8.822h-0.9394v-8.822h-1.8515v-0.8167h4.656v0.8167H47.0411z"/>
		<path class="st3" d="M50.0089,148.7941v-9.6388h3.88v0.844h-2.9543v3.3764h2.7637v0.8167h-2.7637v3.7439h3.0905v0.8577H50.0089z"
			/>
		<path class="st3" d="M59.6204,148.7941l-1.7426-4.4654H56.639v4.4654h-0.9394v-9.6388h2.3145
			c0.3176,0,0.6238,0.0431,0.9188,0.1294c0.2948,0.0862,0.5583,0.2292,0.7896,0.4288c0.2315,0.1998,0.4174,0.4629,0.5583,0.7896
			c0.1405,0.3267,0.2109,0.7262,0.2109,1.198c0,0.4085-0.0523,0.7604-0.1565,1.0551c-0.1045,0.2952-0.2406,0.5425-0.4084,0.7421
			c-0.1681,0.1998-0.354,0.354-0.5583,0.4629c-0.2042,0.1088-0.4062,0.1769-0.6057,0.2042l1.8787,4.6288H59.6204z M59.566,141.7488
			c0-0.3433-0.0477-0.6305-0.1429-0.8611c-0.0954-0.2306-0.2225-0.4136-0.3812-0.5493c-0.1589-0.1356-0.3403-0.2305-0.5446-0.2848
			c-0.2042-0.0542-0.4152-0.0815-0.633-0.0815H56.639v3.6078h1.2661c0.5173,0,0.9234-0.1605,1.2184-0.4814
			C59.4184,142.7775,59.566,142.3277,59.566,141.7488z"/>
		<path class="st3" d="M66.4717,148.7941l-3.3525-8.0187h-0.0408v8.0187h-0.8986v-9.6388h1.1844l3.3354,8.0187h0.041v-8.0187h0.8713
			v9.6388H66.4717z"/>
		<path class="st3" d="M73.9422,148.7941l-0.5854-2.4097h-2.9677l-0.6129,2.4097h-0.9664l2.4505-9.6388h1.2934l2.3823,9.6388
			H73.9422z M71.9137,140.0129h-0.0546l-1.3342,5.6092h2.6959L71.9137,140.0129z"/>
		<path class="st3" d="M77.5773,139.9721v8.822h-0.9396v-8.822h-1.8514v-0.8167h4.656v0.8167H77.5773z"/>
		<path class="st3" d="M80.545,148.7941v-9.6388h0.9533v9.6388H80.545z"/>
		<path class="st3" d="M89.6666,143.9612c0,0.7534-0.0728,1.4409-0.2179,2.0624c-0.1451,0.6219-0.3538,1.1552-0.6263,1.5997
			c-0.2721,0.4448-0.6037,0.7896-0.9938,1.0348c-0.3904,0.245-0.835,0.3675-1.3342,0.3675c-0.4992,0-0.946-0.1225-1.3409-0.3675
			c-0.3947-0.2452-0.7308-0.59-1.0075-1.0348c-0.2767-0.4445-0.4879-0.9778-0.633-1.5997
			c-0.1454-0.6216-0.2179-1.3091-0.2179-2.0624c0-0.7442,0.0704-1.4272,0.2112-2.049c0.1405-0.6216,0.3471-1.1526,0.6193-1.5928
			c0.2724-0.4402,0.6059-0.7829,1.0008-1.0279c0.3947-0.245,0.8509-0.3675,1.368-0.3675c0.4992,0,0.9438,0.1225,1.3342,0.3675
			c0.3901,0.245,0.7217,0.5877,0.9938,1.0279c0.2725,0.4402,0.4812,0.9713,0.6263,1.5928
			C89.5938,142.534,89.6666,143.217,89.6666,143.9612z M88.6728,143.9612c0-0.5809-0.0454-1.1253-0.1362-1.6338
			c-0.0908-0.5082-0.2292-0.9482-0.4151-1.3205c-0.1862-0.3721-0.4154-0.6671-0.6875-0.885
			c-0.2725-0.2177-0.5854-0.3267-0.9396-0.3267c-0.3721,0-0.6967,0.1089-0.9734,0.3267c-0.277,0.2179-0.5059,0.5129-0.6875,0.885
			c-0.1816,0.3723-0.3179,0.8123-0.4084,1.3205c-0.0908,0.5085-0.1362,1.0529-0.1362,1.6338s0.0454,1.1255,0.1362,1.6336
			c0.0905,0.5083,0.2267,0.953,0.4084,1.3342c0.1816,0.3811,0.4105,0.6807,0.6875,0.8986c0.2767,0.2177,0.6013,0.3267,0.9734,0.3267
			c0.363,0,0.6808-0.1089,0.953-0.3267c0.2724-0.2179,0.4992-0.5175,0.6808-0.8986c0.1813-0.3812,0.3176-0.8259,0.4084-1.3342
			C88.6274,145.0866,88.6728,144.542,88.6728,143.9612z"/>
		<path class="st3" d="M95.7553,148.7941l-3.3523-8.0187h-0.0408v8.0187h-0.8987v-9.6388h1.1846l3.3355,8.0187h0.0408v-8.0187
			h0.8713v9.6388H95.7553z"/>
		<path class="st3" d="M103.226,148.7941l-0.5854-2.4097h-2.9677l-0.6129,2.4097h-0.9664l2.4505-9.6388h1.2934l2.3823,9.6388
			H103.226z M101.1976,140.0129h-0.0546l-1.3342,5.6092h2.6959L101.1976,140.0129z"/>
		<path class="st3" d="M105.4178,148.7941v-9.6388h0.9533v8.7539h2.7498v0.8849H105.4178z"/>
		<path class="st3" d="M117.1128,148.7941v-4.5744h-3.6894v4.5744h-0.9533v-9.6388h0.9533v4.2204h3.6894v-4.2204h0.953v9.6388
			H117.1128z"/>
		<path class="st3" d="M126.2341,143.9612c0,0.7534-0.0728,1.4409-0.2179,2.0624c-0.1451,0.6219-0.3538,1.1552-0.6263,1.5997
			c-0.2721,0.4448-0.6037,0.7896-0.9938,1.0348c-0.3904,0.245-0.835,0.3675-1.3342,0.3675c-0.4992,0-0.946-0.1225-1.3409-0.3675
			c-0.3947-0.2452-0.7308-0.59-1.0075-1.0348c-0.2767-0.4445-0.4879-0.9778-0.633-1.5997
			c-0.1454-0.6216-0.2179-1.3091-0.2179-2.0624c0-0.7442,0.0704-1.4272,0.2112-2.049c0.1405-0.6216,0.3471-1.1526,0.6193-1.5928
			c0.2724-0.4402,0.6059-0.7829,1.0008-1.0279c0.3947-0.245,0.8509-0.3675,1.368-0.3675c0.4992,0,0.9438,0.1225,1.3342,0.3675
			c0.3901,0.245,0.7217,0.5877,0.9938,1.0279c0.2724,0.4402,0.4812,0.9713,0.6263,1.5928
			C126.1612,142.534,126.2341,143.217,126.2341,143.9612z M125.2403,143.9612c0-0.5809-0.0454-1.1253-0.1362-1.6338
			c-0.0908-0.5082-0.2292-0.9482-0.4151-1.3205c-0.1862-0.3721-0.4154-0.6671-0.6875-0.885
			c-0.2724-0.2177-0.5854-0.3267-0.9396-0.3267c-0.3721,0-0.6967,0.1089-0.9734,0.3267c-0.277,0.2179-0.5059,0.5129-0.6875,0.885
			c-0.1816,0.3723-0.3179,0.8123-0.4084,1.3205c-0.0908,0.5085-0.1362,1.0529-0.1362,1.6338s0.0454,1.1255,0.1362,1.6336
			c0.0905,0.5083,0.2267,0.953,0.4084,1.3342c0.1816,0.3811,0.4105,0.6807,0.6875,0.8986c0.2767,0.2177,0.6013,0.3267,0.9734,0.3267
			c0.363,0,0.6808-0.1089,0.953-0.3267c0.2724-0.2179,0.4992-0.5175,0.6808-0.8986c0.1813-0.3812,0.3176-0.8259,0.4084-1.3342
			C125.1949,145.0866,125.2403,144.542,125.2403,143.9612z"/>
		<path class="st3" d="M133.2794,146.8269c-0.0954,0.4402-0.2499,0.8236-0.4629,1.1503c-0.2133,0.3269-0.4971,0.5833-0.8509,0.7692
			c-0.3541,0.1859-0.7896,0.2792-1.3071,0.2792c-0.5172,0-0.9508-0.0932-1.3001-0.2792c-0.3496-0.1859-0.6308-0.4423-0.8442-0.7692
			c-0.2133-0.3267-0.3654-0.7101-0.4559-1.1503c-0.0908-0.4402-0.1362-0.9098-0.1362-1.4092v-6.2624h0.953v6.1399
			c0,0.354,0.025,0.7035,0.075,1.0484c0.0497,0.345,0.1405,0.6513,0.2721,0.919s0.3133,0.4832,0.5446,0.6467
			c0.2316,0.1634,0.533,0.245,0.9054,0.245c0.363,0,0.6625-0.0817,0.8984-0.245c0.2359-0.1635,0.4196-0.379,0.5516-0.6467
			c0.1313-0.2677,0.2222-0.5719,0.2722-0.9121c0.0497-0.3404,0.075-0.6921,0.075-1.0552v-6.1399h0.953v6.2624
			C133.4223,145.9171,133.3745,146.3867,133.2794,146.8269z"/>
		<path class="st3" d="M139.6981,146.33c0,0.4267-0.0637,0.8055-0.1905,1.1367c-0.1274,0.3314-0.302,0.6126-0.5242,0.844
			c-0.2225,0.2315-0.4834,0.4085-0.7829,0.531c-0.2996,0.1225-0.6174,0.1838-0.953,0.1838c-0.4901,0-0.9417-0.1045-1.3546-0.3131
			c-0.4133-0.2088-0.7467-0.4855-1.0005-0.8305l0.5851-0.6671c0.2088,0.2996,0.4721,0.5309,0.7896,0.6944
			c0.3179,0.1634,0.64,0.245,0.9667,0.245c0.4358,0,0.8009-0.1542,1.0959-0.4629c0.295-0.3084,0.4425-0.7488,0.4425-1.3205
			c0-0.2723-0.0454-0.5128-0.1362-0.7217c-0.0908-0.2086-0.2133-0.3948-0.3675-0.5582c-0.1542-0.1634-0.3288-0.3084-0.5242-0.4357
			c-0.195-0.1269-0.4014-0.245-0.6193-0.354c-0.2633-0.1269-0.5129-0.2699-0.7488-0.4288
			c-0.2362-0.1588-0.4425-0.3425-0.6196-0.5515c-0.1771-0.2086-0.32-0.4561-0.4288-0.7419s-0.1633-0.6194-0.1633-1.0007
			c0-0.4446,0.068-0.8326,0.2042-1.164c0.1362-0.3311,0.32-0.608,0.5513-0.8304c0.2316-0.2223,0.4925-0.388,0.7829-0.4969
			c0.2904-0.1089,0.5943-0.1634,0.9121-0.1634c0.4358,0,0.828,0.0748,1.1776,0.2246c0.3492,0.1498,0.6421,0.3835,0.8783,0.7011
			l-0.5854,0.6671c-0.1816-0.2632-0.395-0.4513-0.64-0.565c-0.245-0.1134-0.5129-0.17-0.8033-0.17
			c-0.1905,0-0.3788,0.034-0.565,0.1021c-0.1859,0.068-0.3517,0.1748-0.4967,0.3199c-0.1454,0.1454-0.2633,0.3314-0.3541,0.5582
			c-0.0908,0.227-0.1359,0.4949-0.1359,0.8033c0,0.2723,0.0408,0.5083,0.1225,0.7079c0.0817,0.1998,0.1926,0.3767,0.3334,0.5309
			c0.1408,0.1545,0.3042,0.2906,0.4901,0.4085c0.1862,0.1179,0.3791,0.2269,0.5787,0.3267
			c0.2539,0.1272,0.5059,0.2723,0.7555,0.4357c0.2496,0.1633,0.4742,0.354,0.6741,0.5717c0.1993,0.2179,0.3584,0.4721,0.4763,0.7625
			C139.639,145.5995,139.6981,145.9398,139.6981,146.33z"/>
		<path class="st3" d="M141.4267,148.7941v-9.6388h3.8801v0.844h-2.9543v3.3764h2.7638v0.8167h-2.7638v3.7439h3.0905v0.8577
			H141.4267z"/>
		<path class="st3" d="M70.3276,159.5493h-3.3899l-0.7351,2.7501h-0.2996l2.4914-9.6388h0.5173l2.4097,9.6388H71.022
			L70.3276,159.5493z M67.0058,159.277h3.2539l-1.5792-6.4122h-0.0546L67.0058,159.277z"/>
		<path class="st3" d="M72.9824,157.3846c0.0998-0.5717,0.2996-1.0278,0.599-1.3682c0.2996-0.3403,0.6761-0.5105,1.13-0.5105
			c0.354,0,0.633,0.0795,0.8372,0.2382c0.2043,0.1589,0.3608,0.3587,0.4698,0.5992c0.1089,0.2404,0.179,0.5036,0.211,0.7896
			c0.0317,0.2859,0.0475,0.556,0.0475,0.81v4.3565h-0.2994v-4.3565c0-0.236-0.0136-0.481-0.0408-0.7352
			c-0.0273-0.254-0.0864-0.4878-0.1771-0.7011c-0.0908-0.2132-0.2202-0.3881-0.388-0.5242
			c-0.1681-0.1362-0.388-0.2042-0.6602-0.2042c-0.2906,0-0.5446,0.084-0.7625,0.2519c-0.2178,0.1679-0.3994,0.3835-0.5444,0.6467
			c-0.1454,0.2633-0.2543,0.556-0.3268,0.878c-0.0727,0.3223-0.1088,0.6331-0.1088,0.9326v3.812h-0.2996v-4.9148
			c0-0.1088-0.0023-0.2382-0.0069-0.388c-0.0046-0.1498-0.0091-0.304-0.0136-0.4629c-0.0047-0.1586-0.0091-0.3107-0.0136-0.4561
			c-0.0047-0.1451-0.0116-0.2632-0.0204-0.354h0.2994c0.009,0.0908,0.0158,0.2089,0.0204,0.354
			c0.0046,0.1454,0.009,0.2974,0.0137,0.4561c0.0044,0.1589,0.0067,0.3131,0.0067,0.4629c0,0.1498,0,0.2792,0,0.388H72.9824z"/>
		<path class="st3" d="M78.8772,157.3846c0.0998-0.5717,0.2996-1.0278,0.599-1.3682c0.2996-0.3403,0.6761-0.5105,1.13-0.5105
			c0.354,0,0.633,0.0795,0.8372,0.2382c0.2043,0.1589,0.3608,0.3587,0.4698,0.5992c0.109,0.2404,0.179,0.5036,0.211,0.7896
			c0.0317,0.2859,0.0475,0.556,0.0475,0.81v4.3565h-0.2994v-4.3565c0-0.236-0.0136-0.481-0.0408-0.7352
			c-0.0273-0.254-0.0864-0.4878-0.1771-0.7011c-0.0908-0.2132-0.2202-0.3881-0.3879-0.5242
			c-0.1681-0.1362-0.388-0.2042-0.6603-0.2042c-0.2906,0-0.5446,0.084-0.7625,0.2519c-0.2178,0.1679-0.3994,0.3835-0.5444,0.6467
			c-0.1454,0.2633-0.2543,0.556-0.3269,0.878c-0.0727,0.3223-0.1088,0.6331-0.1088,0.9326v3.812h-0.2996v-4.9148
			c0-0.1088-0.0023-0.2382-0.0069-0.388c-0.0046-0.1498-0.0091-0.304-0.0136-0.4629c-0.0047-0.1586-0.0091-0.3107-0.0136-0.4561
			c-0.0047-0.1451-0.0116-0.2632-0.0204-0.354h0.2994c0.009,0.0908,0.0158,0.2089,0.0204,0.354
			c0.0046,0.1454,0.009,0.2974,0.0137,0.4561c0.0044,0.1589,0.0067,0.3131,0.0067,0.4629c0,0.1498,0,0.2792,0,0.388H78.8772z"/>
		<path class="st3" d="M90.068,159.5493H86.678l-0.7351,2.7501h-0.2996l2.4914-9.6388h0.5173l2.4097,9.6388h-0.2994L90.068,159.5493
			z M86.7461,159.277H90l-1.5792-6.4122h-0.0546L86.7461,159.277z"/>
		<path class="st3" d="M92.4027,156.9967c-0.0046-0.1498-0.0091-0.304-0.0136-0.4629c-0.0047-0.1586-0.0091-0.3107-0.0136-0.4561
			c-0.0047-0.1451-0.0116-0.2632-0.0204-0.354h0.2994c0.009,0.0908,0.0158,0.2066,0.0204,0.3473
			c0.0046,0.1408,0.009,0.2906,0.0137,0.4492c0.0044,0.1589,0.0067,0.311,0.0067,0.4561c0,0.1454,0,0.2723,0,0.3812h0.0408
			c0.1271-0.6444,0.3244-1.1005,0.5923-1.3682c0.2676-0.2677,0.565-0.4017,0.8917-0.4017c0.0725,0,0.1269,0.0047,0.1634,0.0135
			v0.2723c-0.0183-0.0089-0.0456-0.0136-0.0817-0.0136c-0.0364,0-0.0635,0-0.0817,0c-0.2542,0-0.4765,0.0908-0.6671,0.2723
			c-0.1906,0.1816-0.3471,0.4175-0.4696,0.7079c-0.1227,0.2906-0.2158,0.615-0.2792,0.9734
			c-0.0635,0.3585-0.0952,0.7194-0.0952,1.0823v3.4035h-0.2996v-4.9148C92.4095,157.2758,92.4073,157.1465,92.4027,156.9967z"/>
		<path class="st3" d="M95.8947,162.2994h-0.2996v-10.2923h0.286v5.2959h0.0136c0.1093-0.5262,0.3073-0.9574,0.5943-1.2932
			c0.2871-0.3357,0.6583-0.5038,1.1137-0.5038c0.3188,0,0.6034,0.0864,0.8541,0.2586c0.2504,0.1726,0.462,0.4152,0.6351,0.7284
			c0.1731,0.3131,0.3052,0.6831,0.3963,1.1096c0.091,0.4267,0.1367,0.8986,0.1367,1.4159c0,0.5083-0.0433,0.9781-0.1297,1.409
			c-0.0865,0.4312-0.2142,0.801-0.3828,1.1096c-0.1684,0.3086-0.3803,0.5492-0.6353,0.7215
			c-0.2551,0.1723-0.5466,0.2587-0.8745,0.2587c-0.4375,0-0.8018-0.1566-1.0933-0.4698c-0.2913-0.3131-0.4964-0.7372-0.6147-1.2729
			V162.2994z M95.8674,159.0184c0,0.4539,0.0364,0.8781,0.1094,1.2729c0.0727,0.3948,0.1821,0.7375,0.3279,1.0278
			c0.1458,0.2906,0.3258,0.5198,0.54,0.6875c0.2139,0.1681,0.4669,0.2519,0.7585,0.2519c0.2913,0,0.5466-0.0838,0.7654-0.2519
			c0.2187-0.1678,0.3986-0.3969,0.5399-0.6875c0.1413-0.2903,0.2458-0.633,0.3144-1.0278c0.0683-0.3948,0.1025-0.819,0.1025-1.2729
			c0-0.4538-0.0343-0.8782-0.1025-1.273c-0.0686-0.3948-0.1731-0.7372-0.3144-1.0278c-0.1413-0.2904-0.3212-0.5196-0.5399-0.6875
			c-0.2188-0.1679-0.474-0.2519-0.7654-0.2519c-0.2916,0-0.5467,0.084-0.7654,0.2519c-0.2187,0.1679-0.3986,0.3971-0.5399,0.6875
			c-0.1413,0.2906-0.2485,0.633-0.3212,1.0278C95.9039,158.1403,95.8674,158.5646,95.8674,159.0184z"/>
		<path class="st3" d="M105.1522,159.0184c0,0.5083-0.0475,0.9781-0.1429,1.409c-0.0954,0.4312-0.2313,0.801-0.4084,1.1096
			c-0.1771,0.3086-0.3928,0.5492-0.6467,0.7215c-0.2542,0.1723-0.54,0.2587-0.8576,0.2587c-0.3179,0-0.6037-0.0864-0.8579-0.2587
			c-0.2542-0.1723-0.4696-0.4129-0.6467-0.7215c-0.1771-0.3086-0.313-0.6784-0.4084-1.1096
			c-0.0954-0.4309-0.1429-0.9007-0.1429-1.409c0-0.5173,0.0454-0.9892,0.1362-1.4159c0.0905-0.4265,0.2222-0.7965,0.3947-1.1096
			c0.1725-0.3131,0.388-0.5557,0.6467-0.7284c0.2587-0.1722,0.5513-0.2586,0.8783-0.2586c0.3176,0,0.6034,0.0864,0.8576,0.2586
			c0.2539,0.1726,0.4696,0.4152,0.6467,0.7284c0.1771,0.3131,0.313,0.6831,0.4084,1.1096
			C105.1047,158.0292,105.1522,158.5011,105.1522,159.0184z M104.8527,159.0116c0-0.4637-0.0387-0.8934-0.1155-1.2891
			c-0.0774-0.3956-0.1886-0.7389-0.3337-1.0299c-0.1454-0.291-0.3291-0.5208-0.5513-0.689
			c-0.2225-0.1682-0.4745-0.2525-0.7555-0.2525c-0.2907,0-0.547,0.0843-0.7692,0.2525c-0.2228,0.1682-0.4065,0.398-0.5516,0.689
			c-0.1451,0.291-0.2542,0.6344-0.3267,1.0299c-0.0728,0.3957-0.1088,0.8254-0.1088,1.2891c0,0.4548,0.036,0.878,0.1088,1.2688
			c0.0725,0.391,0.1816,0.7323,0.3267,1.0232c0.1451,0.291,0.3288,0.5208,0.5516,0.689c0.2222,0.1682,0.4785,0.2523,0.7692,0.2523
			c0.2901,0,0.5443-0.0841,0.7622-0.2523c0.2179-0.1682,0.4017-0.398,0.5513-0.689c0.1499-0.2909,0.2609-0.6322,0.3337-1.0232
			C104.8164,159.8896,104.8527,159.4664,104.8527,159.0116z"/>
		<path class="st3" d="M107.0378,156.9967c-0.0046-0.1498-0.0091-0.304-0.0137-0.4629c-0.0046-0.1586-0.0091-0.3107-0.0134-0.4561
			c-0.0049-0.1451-0.0116-0.2632-0.0204-0.354h0.2996c0.0088,0.0908,0.0155,0.2066,0.0204,0.3473
			c0.0043,0.1408,0.0088,0.2906,0.0134,0.4492c0.0046,0.1589,0.007,0.311,0.007,0.4561c0,0.1454,0,0.2723,0,0.3812h0.0408
			c0.1268-0.6444,0.3243-1.1005,0.5921-1.3682c0.2676-0.2677,0.565-0.4017,0.8917-0.4017c0.0725,0,0.1271,0.0047,0.1633,0.0135
			v0.2723c-0.0183-0.0089-0.0454-0.0136-0.0817-0.0136c-0.0363,0-0.0637,0-0.0817,0c-0.2542,0-0.4766,0.0908-0.6671,0.2723
			c-0.1905,0.1816-0.3471,0.4175-0.4696,0.7079c-0.1225,0.2906-0.2158,0.615-0.2792,0.9734
			c-0.0637,0.3585-0.0954,0.7194-0.0954,1.0823v3.4035h-0.2993v-4.9148C107.0448,157.2758,107.0423,157.1465,107.0378,156.9967z"/>
	</g>
</g>
</svg>
