<?xml version="1.0" encoding="utf-8"?>
<!-- Generator: Adobe Illustrator 21.0.2, SVG Export Plug-In . SVG Version: 6.00 Build 0)  -->
<svg version="1.1" id="Layer_1" xmlns="http://www.w3.org/2000/svg" xmlns:xlink="http://www.w3.org/1999/xlink" x="0px" y="0px"
	 viewBox="0 0 180 180" style="enable-background:new 0 0 180 180;" xml:space="preserve">
<style type="text/css">
	.st0{fill:#445876;stroke:#3E3C3C;stroke-width:0.8696;stroke-miterlimit:10;}
	.st1{fill:#FFFFFF;}
	.st2{fill:#CC2959;stroke:#3E3C3C;stroke-width:0.8581;stroke-miterlimit:10;}
</style>
<g>
	<g id="Card">
		
			<rect x="24.2607" y="83.9579" transform="matrix(0.9783 -0.207 0.207 0.9783 -22.693 20.3185)" class="st0" width="122.9851" height="69.2969"/>
		<g>
			<path class="st1" d="M76.0602,105.5371c0.1426,0.6569,0.1836,1.3724,0.1231,2.1454c-0.0604,0.7735-0.2393,1.5613-0.5355,2.3643
				c-0.2966,0.8025-0.7244,1.6095-1.2832,2.4186c-0.559,0.8097-1.2725,1.581-2.1405,2.3144
				c-0.8677,0.7334-1.8906,1.4113-3.0682,2.0319c-1.1777,0.6212-2.5404,1.1472-4.0871,1.5778
				c1.0223,0.1472,1.911,0.4291,2.6664,0.8467c0.7553,0.4176,1.4202,0.9223,1.9945,1.5141c0.5741,0.5918,1.0969,1.2633,1.568,2.0152
				c0.4711,0.7518,0.8543,1.4645,1.1498,2.1362c0.2951,0.6712,0.5974,1.314,0.9065,1.9262c0.309,0.6128,0.6155,1.1564,0.9192,1.6304
				c0.3038,0.4745,0.6348,0.8346,0.9927,1.0808c0.3582,0.2462,0.7822,0.3164,1.2719,0.2101
				c0.4635-0.1006,0.9547-0.2895,1.4734-0.566c0.5182-0.2764,1.036-0.6213,1.5536-1.0336c0.5175-0.4123,1.0164-0.8776,1.4966-1.396
				c0.4802-0.5184,0.9142-1.0696,1.3016-1.6536l3.2437,3.495c-0.003-0.0136-0.1143,0.0997-0.3332,0.3403
				c-0.2193,0.2401-0.5305,0.5511-0.9334,0.931c-0.4031,0.38-0.8856,0.8064-1.4471,1.2779
				c-0.5619,0.4722-1.1935,0.9343-1.8953,1.386c-0.7018,0.4528-1.4581,0.8666-2.2692,1.2426
				c-0.8111,0.376-1.6595,0.6601-2.545,0.8523c-1.0014,0.2174-1.9083,0.1571-2.7208-0.1802
				c-0.8131-0.3377-1.5534-0.8557-2.2217-1.5528c-0.668-0.6971-1.2785-1.525-1.8312-2.483
				c-0.5526-0.9575-1.035-1.8915-1.4472-2.8012c-0.4124-0.9091-0.8575-1.8911-1.3355-2.946
				c-0.4779-1.0543-0.9439-1.9786-1.3985-2.7729c-0.4546-0.7943-0.9309-1.3948-1.4289-1.8008
				c-0.498-0.4061-1.0407-0.5454-1.6278-0.418l-1.4229,0.3088c0.2184,3.0399,0.3941,5.7892,0.5273,8.2483
				c0.1327,2.4592,0.0632,4.5858-0.2084,6.3798c-0.2723,1.7936-0.7882,3.2321-1.5483,4.3152
				c-0.7605,1.0826-1.8295,1.7733-3.2074,2.0724c-1.0915,0.2369-2.1356,0.2458-3.133,0.0264
				c-0.9974-0.2194-1.9393-0.6109-2.826-1.1754c-0.8866-0.5645-1.708-1.2718-2.4635-2.1219c-0.7558-0.85-1.4352-1.7915-2.0379-2.825
				c-0.6027-1.0329-1.1247-2.1234-1.5666-3.2695c-0.4415-1.1473-0.7898-2.3069-1.0444-3.4799
				c-0.4589-2.1142-0.6454-4.2412-0.559-6.3806c0.0863-2.14,0.4292-4.2174,1.029-6.2328c0.5995-2.0154,1.4393-3.9293,2.5189-5.7421
				c1.08-1.8123,2.3784-3.4584,3.8951-4.937c1.5169-1.4787,3.2434-2.7503,5.18-3.8128c1.9359-1.0634,4.0582-1.8452,6.367-2.3462
				c1.0219-0.2218,2.0574-0.3466,3.1072-0.3744c1.05-0.0279,2.071,0.0435,3.0639,0.2131c0.9931,0.1707,1.9404,0.4432,2.842,0.8189
				c0.9016,0.3756,1.7115,0.8534,2.4296,1.4328c0.7175,0.5801,1.3332,1.264,1.8468,2.0523
				C75.4746,103.6286,75.8411,104.5277,76.0602,105.5371z M62.2987,103.3604c-2.2552,0.4895-4.199,1.2399-5.8328,2.2514
				c-1.6335,1.0115-3.0046,2.1946-4.1132,3.5493c-1.1088,1.3547-1.9817,2.837-2.6199,4.446
				c-0.638,1.6101-1.0832,3.2493-1.3364,4.9176c-0.253,1.6694-0.3413,3.3236-0.2644,4.9637s0.2708,3.1759,0.5818,4.6087
				c0.2397,1.1043,0.5755,2.1923,1.0079,3.2622c0.4323,1.0705,0.9492,2.0043,1.5508,2.8021s1.2862,1.4028,2.054,1.8143
				c0.7679,0.4121,1.6088,0.5186,2.5227,0.3203c0.4635-0.1006,0.8335-0.37,1.1099-0.8088c0.2762-0.4382,0.4845-0.9907,0.6259-1.6567
				c0.1411-0.6659,0.2273-1.4205,0.2587-2.2631c0.0315-0.8421-0.0035-1.7034-0.1048-2.5835
				c-0.1014-0.8806-0.2035-1.768-0.3067-2.662c-0.1029-0.894-0.1989-1.7296-0.2879-2.5055
				c-0.0895-0.7758-0.1822-1.4607-0.2782-2.0546c-0.0959-0.5933-0.1777-1.0452-0.2451-1.3556
				c-1.1546-0.2516-2.0498-0.5252-2.6853-0.822c-0.6353-0.2963-1.0122-0.7167-1.1305-1.2617
				c-0.0327-0.1506-0.0621-0.3333-0.0874-0.5489c-0.0255-0.215-0.024-0.4198,0.0041-0.6156
				c0.0282-0.1952,0.0926-0.3709,0.1931-0.5264c0.1004-0.156,0.2583-0.2577,0.4743-0.3046
				c0.0947-0.0205,0.2826-0.0665,0.5632-0.1399c0.2808-0.0724,0.5749-0.1505,0.882-0.2331c0.307-0.0832,0.5909-0.1585,0.8514-0.2271
				c0.2609-0.068,0.4316-0.1108,0.5129-0.1284l0.0273,0.0272c-0.0513-0.3008-0.0967-0.6257-0.1365-0.9753
				c-0.0404-0.3494-0.0665-0.7511-0.0787-1.2061c-0.0122-0.4538,0.0122-0.9202,0.0746-1.3976
				c0.0615-0.4772,0.1839-0.9254,0.367-1.3439c0.1827-0.4179,0.4316-0.7792,0.7473-1.0831
				c0.3156-0.3044,0.7347-0.5131,1.2574-0.6265c0.6872-0.1491,1.1787-0.0901,1.4743,0.1765s0.4966,0.6458,0.6035,1.1379
				l0.0412,0.1899c0.0891,0.5394,0.089,1.2787-0.0001,2.2172c-0.0892,0.9392-0.1284,2.0103-0.1182,3.2141
				c2.3296-0.5496,4.21-1.1971,5.6409-1.943c1.431-0.7453,2.5223-1.5318,3.2744-2.3583c0.7521-0.8265,1.2259-1.6561,1.4213-2.4868
				c0.1952-0.8313,0.2162-1.5992,0.0635-2.303c-0.1451-0.6684-0.4443-1.2747-0.8974-1.8196
				c-0.4531-0.5438-1.0438-0.9835-1.7724-1.3184c-0.7284-0.3344-1.5857-0.5414-2.5723-0.6198
				C64.6297,103.0013,63.5236,103.0946,62.2987,103.3604z"/>
			<path class="st1" d="M91.3598,112.7569c0.5673,0.7053,1.0451,1.4762,1.4338,2.3128c0.3888,0.8371,0.7031,1.8075,0.943,2.9129
				c0.1747,0.8048,0.2618,1.6354,0.2624,2.4922c0.0003,0.8569-0.0839,1.7035-0.2523,2.5399
				c-0.1684,0.8364-0.4221,1.6416-0.7613,2.415c-0.3392,0.7735-0.7658,1.4728-1.2796,2.0985
				c-0.5143,0.6258-1.1083,1.1621-1.7828,1.6078c-0.6743,0.4468-1.4278,0.7601-2.2596,0.9406
				c-1.2003,0.2605-2.2838,0.2209-3.2504-0.1195c-0.9664-0.3398-1.8143-0.8734-2.5432-1.6007
				c-0.7291-0.7273-1.3355-1.5954-1.8185-2.6047c-0.4835-1.0091-0.8434-2.0593-1.0804-3.151
				c-0.3908-1.8005-0.5024-3.4005-0.335-4.801c0.1675-1.4,0.5664-2.6721,1.1962-3.816c0.6305-1.1435,1.4921-2.1234,2.5865-2.9391
				c1.094-0.8162,2.3981-1.3883,3.9121-1.7169c1.2958-0.2812,2.5532-0.3433,3.7728-0.187c1.2195,0.1569,2.3968,0.4653,3.5323,0.9261
				c1.1354,0.4603,2.2404,1.1099,3.3151,1.9473c1.0744,0.8386,2.0807,1.6411,3.0185,2.4087l0.2373,2.969
				c-0.4749-0.4111-1.0883-0.8344-1.8398-1.2712c-0.7518-0.4367-1.5546-0.9269-2.408-1.4701
				c-0.8534-0.5432-1.6735-0.9828-2.4607-1.3192c-0.7873-0.3359-1.4617-0.6146-2.0237-0.8353L91.3598,112.7569z M87.6087,125.9751
				c0.4635-0.1006,0.8626-0.4334,1.1971-0.9991c0.3344-0.565,0.5875-1.2415,0.7595-2.0284
				c0.1719-0.7874,0.2464-1.7102,0.2236-2.7696c-0.0227-1.0588-0.1198-1.9838-0.2916-2.7755
				c-0.1361-0.6269-0.3107-1.1997-0.5229-1.7181c-0.2124-0.5178-0.4569-0.9537-0.7337-1.3078
				c-0.2771-0.3541-0.5907-0.6145-0.9409-0.7818c-0.3503-0.1662-0.7372-0.2039-1.1598-0.1122
				c-0.5595,0.1214-1.0396,0.4759-1.4404,1.0627c-0.4011,0.5869-0.7122,1.2932-0.9325,2.1197
				c-0.2205,0.8265-0.3427,1.7129-0.3652,2.6604c-0.0229,0.9476,0.0886,1.9877,0.3344,3.1199
				c0.1243,0.5729,0.2956,1.1002,0.5144,1.5805c0.2188,0.4815,0.4844,0.8844,0.798,1.2088c0.3134,0.325,0.6854,0.5585,1.1161,0.7004
				C86.5951,126.0774,87.0768,126.0906,87.6087,125.9751z"/>
			<path class="st1" d="M104.4007,126.444c-0.7341,0.1593-1.4861-0.0111-2.2563-0.5118c-0.7705-0.5006-1.5068-1.2372-2.2085-2.2092
				c-0.7018-0.9726-1.339-2.138-1.9114-3.4974c-0.5724-1.3583-1.0276-2.8169-1.3655-4.374
				c-0.2906-1.3389-0.4816-3.1679-0.5734-5.4886c-0.0917-2.3202-0.1377-3.4802-0.1376-3.4796c0,0,0.056-1.1805,0.1672-3.5424
				c0.1114-2.3614,0.3204-4.2817,0.6272-5.76c0.3065-1.4782,0.6839-2.8793,1.1324-4.2032c0.4482-1.3239,0.9638-2.5047,1.5465-3.5429
				c0.5823-1.0376,1.24-1.8968,1.9723-2.5762c0.7325-0.68,1.5326-1.1142,2.4007-1.3026c0.6318-0.1371,1.1793-0.1297,1.6427,0.0222
				c0.4633,0.1514,0.8558,0.3999,1.1768,0.7444c0.321,0.3445,0.5835,0.7566,0.7877,1.2367
				c0.2038,0.4797,0.3625,0.9794,0.4751,1.4982c0.2799,1.2898,0.4125,2.6362,0.3977,4.0396
				c-0.0148,1.4035-0.1342,2.8365-0.3584,4.3003c-0.2248,1.4633-0.53,2.9475-0.9159,4.4533
				c-0.3862,1.5058-0.8027,3.0073-1.2496,4.5045c-0.4473,1.4979-0.9025,2.9753-1.3659,4.4332
				c-0.4632,1.4574-0.8751,2.8739-1.2361,4.248c-0.0384,0.1523-0.0714,0.3474-0.0987,0.5836
				c-0.0278,0.2363-0.0481,0.4892-0.061,0.7588c-0.0133,0.2691-0.0228,0.5557-0.0286,0.8592
				c-0.0054,0.304,0.0007,0.598,0.0193,0.8813l0.0628,0.2892c0.0777,0.3579,0.1904,0.6968,0.3391,1.0176
				c0.1481,0.3204,0.3063,0.6031,0.4742,0.8477c0.1674,0.2448,0.3302,0.4328,0.4874,0.5638
				c0.1574,0.1315,0.291,0.1854,0.4007,0.1616c0.2654-0.0576,0.5571-0.1786,0.8754-0.3625
				c0.3182-0.1845,0.6492-0.4111,0.9929-0.6805c0.344-0.2683,0.6921-0.5673,1.0449-0.8963
				c0.3529-0.3285,0.6911-0.6573,1.0147-0.9869c0.7544-0.7687,1.5311-1.636,2.3307-2.6014l2.7427,3.9203
				c-1.07,1.1018-2.1457,2.1088-3.2268,3.0227c-0.4748,0.3881-0.9677,0.7768-1.4787,1.1665
				c-0.5114,0.3892-1.0323,0.7502-1.5632,1.0825c-0.531,0.3329-1.0569,0.6201-1.578,0.8618
				C105.3775,126.168,104.8781,126.3404,104.4007,126.444z M100.9001,110.2213c0.3769-1.2341,0.7613-2.6138,1.154-4.1393
				c0.3925-1.5254,0.7386-3.0842,1.0379-4.6757c0.2992-1.592,0.5174-3.1625,0.6536-4.7117
				c0.1366-1.5487,0.1308-2.9626-0.0176-4.2415c-0.0866-0.3988-0.1703-0.7372-0.2509-1.015s-0.1725-0.4053-0.2759-0.3829
				c-0.3748,0.0814-0.7226,0.4282-1.0432,1.0399c-0.3204,0.6123-0.6014,1.408-0.8425,2.3858
				c-0.2407,0.9783-0.4458,2.5288-0.6143,4.6517c-0.1692,2.1225-0.2537,3.1847-0.2537,3.1847
				c0.0002,0.0011,0.0174,0.9646,0.0517,2.8927C100.5331,107.1382,100.6671,108.8082,100.9001,110.2213z"/>
			<path class="st1" d="M117.7292,123.5512c-1.2734,0.2764-2.439,0.2826-3.4969,0.0174c-1.0578-0.2646-1.9914-0.727-2.8016-1.3869
				c-0.81-0.66-1.488-1.4795-2.0339-2.4591c-0.5458-0.979-0.944-2.0449-1.1941-3.1972c-0.1637-0.754-0.2164-1.6829-0.1576-2.7886
				c0.0584-1.105,0.1527-2.0944,0.2826-2.9687c0.1297-0.8737,0.3457-1.7278,0.6477-2.5618
				c0.3022-0.8334,0.7013-1.5965,1.1972-2.2897c0.4961-0.6927,1.0912-1.2869,1.7866-1.7829
				c0.6949-0.4965,1.5102-0.8465,2.4464-1.0497c0.7647-0.166,1.5015-0.1968,2.21-0.094c0.7084,0.1028,1.3536,0.3232,1.9341,0.6606
				c0.5809,0.3378,1.0762,0.7902,1.4853,1.3578c0.4087,0.5671,0.698,1.2391,0.8665,2.0154
				c0.1795,0.8271,0.1038,1.8142-0.2271,2.9612c-0.3307,1.1469-0.7852,2.1677-1.3643,3.0612
				c-0.579,0.8935-1.3153,1.7377-2.2092,2.5322s-1.9006,1.4814-3.0203,2.0592c0.2833,0.3156,0.5507,0.5723,0.8014,0.7693
				c0.2502,0.1971,0.4928,0.3398,0.7271,0.4283c0.2344,0.0891,0.4705,0.1356,0.7077,0.1401
				c0.2371,0.004,0.4862-0.0221,0.7465-0.0786c0.8184-0.1776,1.6463-0.5247,2.4841-1.0419
				c0.8373-0.5171,1.6338-1.1087,2.3889-1.7753c0.7551-0.6666,1.4527-1.3665,2.0939-2.0987
				c0.6408-0.7327,1.1722-1.4101,1.5941-2.0325l3.2211,2.1077c-0.9229,1.5389-1.9527,2.9467-3.0897,4.2229
				c-0.495,0.549-1.0357,1.1006-1.6225,1.6541c-0.5868,0.5536-1.2178,1.0698-1.8923,1.547
				c-0.6751,0.4773-1.3906,0.8971-2.1474,1.2602S118.5484,123.3734,117.7292,123.5512z M112.8829,114.399
				c0.493-0.107,1.0037-0.3464,1.5321-0.7193c0.5282-0.3734,1-0.8072,1.4161-1.3025c0.4158-0.4953,0.7923-1.122,1.1295-1.8791
				c0.3374-0.7577,0.46-1.3498,0.3673-1.777c-0.1301-0.5996-0.3505-1.0688-0.6601-1.4067c-0.3101-0.3377-0.6293-0.4713-0.9578-0.4
				c-0.589,0.1278-1.0691,0.344-1.44,0.6485c-0.3711,0.3039-0.6602,0.6563-0.8672,1.0572
				c-0.2068,0.4014-0.3489,0.8367-0.4258,1.3076c-0.0776,0.4705-0.1593,1.0509-0.2462,1.7399s-0.0993,1.243-0.0371,1.6625
				C112.7559,113.7496,112.8193,114.1061,112.8829,114.399z"/>
		</g>
		<g>
			<path class="st1" d="M104.8897,139.0647l-0.9496-4.3922c-0.4217-1.9506,0.4565-3.2748,2.0458-3.6184
				c1.647-0.3561,2.9268,0.4564,3.4338,2.3125l-0.8668,0.1874c-0.4103-1.4083-1.2506-1.9374-2.3921-1.6906
				c-1.0836,0.2343-1.6787,1.1188-1.3538,2.6216l0.9496,4.3922c0.3248,1.5024,1.2611,2.0563,2.3737,1.8158
				c1.1558-0.2499,1.6672-1.1016,1.5089-2.5344l0.8668-0.1874c0.2554,1.8806-0.5393,3.1719-2.2007,3.5311
				C106.6872,141.8522,105.3114,141.0154,104.8897,139.0647z"/>
			<path class="st1" d="M115.7171,137.2383l-3.2073,0.6934l-0.0802,2.4975l-0.9535,0.2061l0.4719-10.6885l0.9824-0.2124l4.845,9.539
				l-0.9535,0.2061L115.7171,137.2383z M115.34,136.4727l-1.9461-3.9652c-0.2933-0.5869-0.5938-1.2779-0.6903-1.5142l-0.0291,0.0063
				c0.01,0.255,0.0214,1.0084-0.003,1.664l-0.1346,4.4151L115.34,136.4727z"/>
			<path class="st1" d="M120.203,134.6198l-1.1125,0.2405l0.8528,3.9444l-0.8958,0.1937l-2.1865-10.1138l2.3117-0.4998
				c1.8639-0.403,3.1239,0.4589,3.53,2.3373c0.3811,1.7626-0.2133,3.0706-1.544,3.6307l3.3502,3.4649l-1.0403,0.2249
				L120.203,134.6198z M118.9093,134.0224l1.4013-0.3029c1.3148-0.2843,1.816-1.2545,1.4942-2.7428
				c-0.3123-1.4447-1.1509-2.035-2.4512-1.7538l-1.4159,0.3061L118.9093,134.0224z"/>
			<path class="st1" d="M123.8397,127.3758l2.2683-0.4904c1.9073-0.4123,3.2395,0.4339,3.6456,2.3123l0.9089,4.2042
				c0.403,1.8639-0.4896,3.1911-2.368,3.5972l-2.2683,0.4904L123.8397,127.3758z M128.1103,136.1468
				c1.3436-0.2905,1.9534-1.1786,1.6473-2.5943l-0.8903-4.1179c-0.3092-1.4302-1.2168-1.9903-2.575-1.6967l-1.3725,0.2967
				l1.8179,8.4088L128.1103,136.1468z"/>
		</g>
	</g>
	<g id="Card_3_">
		
			<rect x="31.7066" y="35.6677" transform="matrix(0.9213 0.3888 -0.3888 0.9213 34.4267 -30.4214)" class="st2" width="121.3542" height="68.378"/>
		<g>
			<path class="st1" d="M101.5174,99.5169l1.7058-4.0929c0.7576-1.8177,2.2151-2.3954,3.6961-1.7781
				c1.5348,0.6397,2.1136,2.0189,1.4784,3.8081l-0.8077-0.3366c0.4613-1.3719,0.0787-2.274-0.985-2.7173
				c-1.0098-0.4209-1.9902-0.0397-2.5739,1.3607l-1.7058,4.0929c-0.5835,1.4-0.1372,2.3763,0.8996,2.8084
				c1.0771,0.4489,1.9712,0.0472,2.6503-1.2027l0.8077,0.3366c-0.8528,1.6672-2.2242,2.2654-3.7723,1.6202
				C101.4027,102.7876,100.7598,101.3345,101.5174,99.5169z"/>
			<path class="st1" d="M111.317,104.1386l-2.9887-1.2456l-1.4723,1.9778l-0.8885-0.3703l6.4052-8.392l0.9154,0.3815
				l-1.4506,10.4569l-0.8885-0.3703L111.317,104.1386z M111.443,103.3059l0.658-4.3085c0.0932-0.6407,0.239-1.3697,0.2941-1.6155
				l-0.0271-0.0113c-0.1356,0.2122-0.5509,0.8289-0.9401,1.3462l-2.5969,3.5004L111.443,103.3059z"/>
			<path class="st1" d="M116.4261,104.5453l-1.0367-0.4321l-1.5319,3.6756l-0.8348-0.3479l3.9279-9.4244l2.1541,0.8978
				c1.7368,0.7239,2.2718,2.132,1.5423,3.8824c-0.6846,1.6425-1.903,2.3671-3.2965,2.0709l0.7613,4.6944l-0.9694-0.404
				L116.4261,104.5453z M115.7148,103.3324l1.3058,0.5442c1.2252,0.5106,2.1779,0.0071,2.7559-1.3797
				c0.5611-1.3462,0.2144-2.2969-0.9972-2.8019l-1.3194-0.5499L115.7148,103.3324z"/>
			<path class="st1" d="M123.4539,100.7268l2.1137,0.881c1.7773,0.7407,2.3795,2.1769,1.65,3.9273l-1.6328,3.9177
				c-0.7239,1.7368-2.1947,2.309-3.9451,1.5795l-2.1137-0.881L123.4539,100.7268z M121.9707,110.2379
				c1.2521,0.5218,2.2464,0.146,2.7962-1.1732l1.5993-3.8372c0.5554-1.3327,0.1359-2.2978-1.1297-2.8253l-1.2789-0.533
				l-3.2658,7.8357L121.9707,110.2379z"/>
		</g>
		<g>
			<path class="st1" d="M65.4435,43.3797c-0.3353,0.7959-0.4021,1.6062-0.2022,2.4289s0.5701,1.6652,1.1116,2.5252
				c0.541,0.8611,1.1958,1.7369,1.9639,2.6284c0.7677,0.8926,1.5545,1.8094,2.3596,2.7524c0.8051,0.9431,1.57,1.9119,2.2947,2.9064
				c0.7247,0.9945,1.3156,2.022,1.7731,3.0812c0.4575,1.0592,0.7223,2.1519,0.7949,3.2769c0.073,1.1239-0.1412,2.284-0.6448,3.4795
				c-0.4574,1.0857-1.0529,2.0118-1.7874,2.7742c-0.7354,0.7646-1.5598,1.3797-2.4741,1.8477
				c-0.9143,0.4679-1.9056,0.8021-2.973,1.0069c-1.0669,0.2037-2.159,0.2835-3.2784,0.2384
				c-1.1194-0.0451-2.2497-0.1973-3.3903-0.4579c-1.1406-0.2606-2.2489-0.6169-3.3244-1.07
				c-1.5102-0.6363-2.8996-1.439-4.1688-2.4069c-1.2687-0.9691-2.3029-2.058-3.1017-3.2691
				c-0.7988-1.211-1.297-2.5154-1.4965-3.9151c-0.1999-1.3986,0.0159-2.8474,0.6469-4.3451
				c0.3253-0.7721,0.736-1.3989,1.2299-1.8813c0.4934-0.4813,1.0074-0.8406,1.5419-1.078c0.5341-0.2362,1.0598-0.364,1.5785-0.3801
				c0.5187-0.0161,0.9659,0.055,1.3395,0.2124c0.3872,0.1631,0.6639,0.405,0.8355,0.7253c0.1712,0.3214,0.1614,0.7052-0.0265,1.1513
				c-0.0868,0.206-0.201,0.4139-0.3449,0.6225c-0.1421,0.2107-0.2973,0.4399-0.4639,0.6897
				c-0.1665,0.2498-0.3423,0.5276-0.5249,0.8346c-0.1849,0.306-0.3578,0.6531-0.5205,1.0391
				c-0.3563,0.8457-0.4715,1.657-0.3461,2.435c0.1277,0.779,0.4257,1.5017,0.8963,2.1693c0.4706,0.6675,1.0792,1.2732,1.8291,1.8157
				c0.7494,0.5437,1.5692,1.0024,2.4613,1.3783c1.0506,0.4426,2.1546,0.7585,3.312,0.9475c1.1574,0.189,2.2567,0.2123,3.2984,0.0686
				c1.0417-0.1437,1.9743-0.4652,2.7952-0.9645c0.8209-0.4993,1.4285-1.2137,1.8196-2.1421
				c0.3611-0.857,0.4508-1.7217,0.2714-2.5931c-0.1794-0.8714-0.532-1.7558-1.0582-2.652
				c-0.5262-0.8962-1.1704-1.8035-1.9348-2.7228c-0.7649-0.9181-1.5446-1.8518-2.3405-2.7977
				c-0.7959-0.9459-1.5622-1.9113-2.294-2.8954c-0.7345-0.984-1.3383-1.9809-1.8136-2.9916
				c-0.4758-1.0096-0.765-2.0379-0.871-3.0837c-0.1055-1.0469,0.0714-2.1121,0.5288-3.1978
				c0.4283-1.0166,1.0945-1.9144,1.999-2.6944c0.9022-0.781,2.0101-1.3539,3.3219-1.7211c1.3113-0.366,2.8046-0.4807,4.4805-0.3451
				c1.6731,0.1357,3.5005,0.6203,5.4771,1.4531c1.2566,0.5294,2.4046,1.2344,3.4495,2.1145
				c1.0444,0.8813,1.8917,1.8634,2.5435,2.9486c0.6519,1.0852,1.0641,2.2266,1.2353,3.4212
				c0.1707,1.1957,0.0133,2.3731-0.4751,3.5323c-0.29,0.6883-0.7054,1.3451-1.2461,1.9705c-0.5407,0.6253-1.237,1.2211-2.086,1.7872
				c-0.8277,0.5471-1.6182,0.8792-2.3709,0.9953c-0.7532,0.1172-1.3716,0.0726-1.8539-0.1306
				c-0.3623-0.1526-0.6145-0.3829-0.754-0.6909c-0.14-0.3069-0.1224-0.6714,0.0555-1.0937c0.1321-0.3136,0.3605-0.6533,0.688-1.0192
				c0.3252-0.3669,0.7835-0.7523,1.3705-1.1582c0.5515-0.3915,1.0059-0.7866,1.36-1.184s0.6145-0.7942,0.7824-1.1927
				c0.259-0.6147,0.3185-1.2242,0.1812-1.8286c-0.1373-0.6044-0.4333-1.1863-0.8871-1.7481
				c-0.457-0.5605-1.062-1.0926-1.8203-1.5961c-0.7556-0.5036-1.6261-0.9624-2.6065-1.3754
				c-1.0868-0.4579-2.083-0.7323-2.9912-0.823c-0.9078-0.0919-1.7129-0.0538-2.4146,0.1118
				c-0.7021,0.1667-1.2847,0.4358-1.7483,0.8084C65.9718,42.4865,65.6419,42.9087,65.4435,43.3797z"/>
			<path class="st1" d="M85.7283,68.1319c0.6727-0.3818,1.4118-0.8008,2.2156-1.2594c0.8028-0.4563,1.5863-0.886,2.3462-1.291
				c0.7589-0.4028,1.5333-0.8297,2.32-1.2794c0.7872-0.4509,1.3368-0.7112,1.6515-0.7812c0.4876-0.1132,1.044-0.1493,1.668-0.1117
				c0.6235,0.0388,1.2681,0.1984,1.9315,0.4779c0.3374,0.1421,0.6273,0.3589,0.868,0.6483
				c0.2407,0.2894,0.4142,0.6304,0.5189,1.0211c0.1042,0.3918,0.1351,0.8247,0.0927,1.2988
				c-0.0424,0.474-0.1733,0.9681-0.3908,1.4843c-0.2127,0.5049-0.6303,1.0341-1.2556,1.5879
				c-0.6257,0.5549-1.2268,1.0135-1.8066,1.3771c-0.5798,0.3636-1.189,0.7148-1.8299,1.0527s-1.2515,0.6924-1.8342,1.0628
				c-0.5822,0.3693-1.1022,0.762-1.562,1.1762c-0.4598,0.4142-0.7973,0.8798-1.0148,1.3961
				c-0.1865,0.4426-0.2136,0.8045-0.0832,1.0834c0.1304,0.2789,0.4209,0.5133,0.867,0.7012
				c0.2423,0.1021,0.5397,0.1301,0.8929,0.0829c0.3527-0.046,0.7391-0.1405,1.1542-0.2842c0.4151-0.1437,0.8477-0.316,1.2954-0.518
				c0.4477-0.202,0.8869-0.4155,1.3149-0.6404c0.428-0.2249,0.8358-0.4397,1.2215-0.6464c0.3857-0.2067,0.727-0.3776,1.0265-0.5126
				l-0.8163,4.9749c-0.5878,0.3509-1.2617,0.6215-2.0172,0.8138c-0.756,0.1934-1.538,0.3092-2.3436,0.3483
				s-1.6066-0.0024-2.4002-0.1248c-0.7936-0.1224-1.5246-0.3237-2.188-0.6032c-0.8694-0.3663-1.5366-0.7634-2.0038-1.1922
				c-0.4672-0.4288-0.7872-0.8716-0.9646-1.3302c-0.1774-0.4586-0.2347-0.9174-0.177-1.377c0.0577-0.4596,0.1799-0.908,0.365-1.3472
				c0.1188-0.2819,0.2992-0.6151,0.5384-0.9995c0.2388-0.3833,0.5612-0.794,0.9666-1.2311c0.4054-0.437,0.9075-0.8947,1.5062-1.3729
				c0.5987-0.4782,1.3212-0.959,2.1651-1.4433c0.3104-0.1292,0.5936-0.2445,0.8501-0.347c0.2565-0.1026,0.4795-0.1952,0.6732-0.2816
				c0.1927-0.0841,0.3504-0.1736,0.4749-0.2665c0.124-0.0917,0.2146-0.2055,0.2718-0.3414
				c0.1087-0.2581,0.1512-0.4855,0.1284-0.6844c-0.0238-0.1967-0.119-0.3314-0.2888-0.403
				c-0.206-0.0868-0.5277-0.0637-0.9677,0.0695c-0.4566,0.1409-1.0137,0.4634-1.6668,0.9694l-9.2451,7.0598
				c-0.4749,0.3171-0.8949,0.5041-1.261,0.5631c-0.3652,0.0568-0.7407,0.0052-1.1279-0.1579
				c-0.5185-0.2185-0.8862-0.4974-1.0991-0.8337c-0.2124-0.3374-0.3236-0.7189-0.3291-1.1425
				c-0.0055-0.4236,0.0699-0.881,0.2253-1.3701c0.1559-0.4902,0.3473-1.0014,0.5724-1.5358
				c0.2948-0.6996,0.7098-1.6152,1.2434-2.7487c0.5336-1.1336,1.1398-2.3698,1.819-3.71c0.6793-1.3401,1.4169-2.7303,2.2162-4.1718
				c0.7988-1.4404,1.6135-2.8235,2.4422-4.1513c0.2966-0.4509,0.6576-1.004,1.088-1.6585c0.4276-0.6543,0.9229-1.3361,1.4847-2.0432
				c0.5596-0.708,1.1504-1.4522,1.767-2.2322c0.6188-0.779,1.2801-1.5069,1.9828-2.1813c0.7055-0.6746,1.4372-1.2914,2.2003-1.8497
				c0.7604-0.5581,1.5387-1.0007,2.329-1.3262c0.7931-0.3257,1.5909-0.5108,2.3912-0.5562
				c0.8026-0.0444,1.5958,0.0978,2.3815,0.4288c0.6159,0.2595,1.0811,0.5728,1.3961,0.9388c0.315,0.366,0.5156,0.7758,0.6013,1.2305
				c0.0862,0.4536,0.0731,0.9466-0.0375,1.4812c-0.1101,0.5335-0.2882,1.089-0.531,1.6652
				c-0.4355,1.0336-1.0334,2.0921-1.7955,3.1733c-0.7622,1.0813-1.5937,2.1373-2.4968,3.1671
				c-0.9027,1.0287-1.8282,2.0105-2.7751,2.9419c-0.9474,0.9325-1.8305,1.7629-2.6492,2.4911
				c-0.8187,0.7282-1.5257,1.3368-2.1218,1.8215c-0.5971,0.4869-0.9894,0.8042-1.1801,0.9532l-3.523,2.3375L85.7283,68.1319z
				 M97.9029,49.1452c-0.394-0.166-0.7796-0.1872-1.1642-0.0653c-0.3824,0.1228-0.7941,0.3533-1.2328,0.6923
				c-0.4393,0.3402-0.919,0.7765-1.4389,1.308c-0.5203,0.5326-1.1052,1.1234-1.7517,1.7721
				c-0.4683,0.6305-0.9501,1.2807-1.4474,1.9483c-0.495,0.6686-0.9522,1.3424-1.3685,2.0269
				c-0.4204,0.6814-0.8315,1.3533-1.235,2.0138c-0.404,0.6616-0.7822,1.2808-1.1345,1.8575
				c-0.8227,1.4463-1.5981,2.8819-2.3269,4.3078c0.6055-0.6967,1.2682-1.4533,1.9848-2.2684
				c0.7172-0.8163,1.4268-1.621,2.1267-2.4153c0.7021-0.7933,1.361-1.5408,1.9784-2.2405c0.6197-0.6987,1.1393-1.2929,1.5621-1.784
				c0.1954-0.2296,0.4579-0.5109,0.7843-0.8427s0.6788-0.6871,1.0558-1.0695c0.3766-0.3812,0.7585-0.7815,1.1508-1.2001
				c0.3918-0.4175,0.7602-0.8235,1.1078-1.2182c0.3449-0.3946,0.6502-0.7712,0.9154-1.1287
				c0.2653-0.3575,0.4572-0.6739,0.5745-0.9523C98.2062,49.501,98.1587,49.253,97.9029,49.1452z"/>
			<path class="st1" d="M105.915,83.8528c-0.6026,0.2153-1.3231,0.413-2.1592,0.594c-0.8361,0.181-1.709,0.3038-2.6187,0.3684
				c-0.9097,0.0646-1.8063,0.0601-2.692-0.0144c-0.8857-0.0746-1.6795-0.2597-2.3792-0.5545
				c-0.6272-0.2642-1.1203-0.5746-1.4743-0.9304c-0.3545-0.3546-0.6001-0.7461-0.7324-1.1724
				c-0.1328-0.4252-0.1613-0.8891-0.086-1.3906c0.0753-0.5015,0.2286-1.0235,0.4575-1.5669
				c0.3205-0.7608,0.7782-1.613,1.3754-2.5558c1.2325-1.9509,1.9509-3.0359,2.1598-3.2531
				c0.3828-0.4466,1.1924-1.4505,2.4337-3.0111c1.065-1.2496,1.7435-2.0688,2.0358-2.4589
				c0.1872-0.2797,0.4684-0.4852,0.8454-0.6143c0.3416-0.1147,0.6982-0.1764,1.0721-0.1842
				c0.3739-0.0078,0.7438,0.0254,1.1093,0.1008c0.3678,0.0763,0.6877,0.1711,0.9594,0.2856
				c0.4981,0.2099,0.7982,0.4469,0.8961,0.7081c0.0997,0.2633,0.0826,0.5507-0.0495,0.8643
				c-0.1121,0.266-0.3311,0.615-0.6602,1.0482c-0.3287,0.4321-0.7023,0.9265-1.1222,1.4801
				c-0.4221,0.5527-0.9911,1.2514-1.7147,2.0956c-0.7213,0.8452-1.2843,1.5865-1.6875,2.2271
				c-0.4055,0.6397-0.8362,1.2633-1.2963,1.868c-0.4605,0.6058-0.8065,1.1865-1.0407,1.7424
				c-0.2285,0.5423-0.3495,1.0005-0.364,1.3703c-0.015,0.3709,0.1668,0.6355,0.5404,0.7929
				c0.4347,0.1832,0.9804,0.2358,1.6399,0.1577c0.659-0.077,1.3496-0.2165,2.0738-0.4166c0.7237-0.199,1.4428-0.4186,2.1549-0.6598
				c0.7117-0.24,1.3368-0.4392,1.8727-0.5974L105.915,83.8528z M105.8271,61.4326c0.1178-0.2796,0.3125-0.5709,0.5813-0.8735
				c0.2693-0.3038,0.606-0.5525,1.0089-0.7493c0.4024-0.1957,0.8753-0.3057,1.4178-0.3278c0.543-0.0232,1.1516,0.1079,1.8286,0.3932
				c0.4234,0.1784,0.8014,0.395,1.1339,0.6497c0.3321,0.2559,0.5952,0.5427,0.7892,0.8604s0.3016,0.6763,0.3258,1.0744
				c0.0247,0.397-0.0583,0.8219-0.2482,1.2725c-0.1746,0.4143-0.4096,0.7886-0.7077,1.1229s-0.6547,0.592-1.0733,0.7756
				c-0.4181,0.1824-0.8866,0.2756-1.4078,0.2787c-0.5212,0.003-1.0883-0.1253-1.7042-0.3847
				c-1.0619-0.4474-1.7412-1.0309-2.0352-1.7506C105.4425,63.0542,105.4727,62.2737,105.8271,61.4326z"/>
			<path class="st1" d="M107.0427,88.8709c-0.6498-0.2738-1.1356-0.8104-1.4568-1.6109c-0.3212-0.8005-0.4889-1.763-0.5026-2.8885
				c-0.016-1.1265,0.1248-2.3655,0.4178-3.7191c0.2948-1.3515,0.7318-2.7177,1.3127-4.0966
				c0.4989-1.1842,1.3401-2.6934,2.5225-4.5253c1.1797-1.8318,1.7709-2.7478,1.7709-2.7478
				c-0.0005,0.0011,0.6808-0.8756,2.0412-2.6299c1.3604-1.7544,2.5579-3.1161,3.5905-4.0861
				c1.033-0.9711,2.0802-1.843,3.1375-2.6186c1.0596-0.7747,2.0923-1.4033,3.1009-1.8862c1.0081-0.4817,1.977-0.788,2.9047-0.9144
				c0.9309-0.1277,1.7797-0.0287,2.5473,0.2947c0.5592,0.2356,0.9763,0.5366,1.2507,0.9042
				c0.2749,0.3664,0.4414,0.7685,0.5018,1.2072c0.0609,0.4376,0.0412,0.8958-0.0621,1.3749
				c-0.1027,0.4779-0.25,0.9478-0.4437,1.4074c-0.4813,1.1423-1.1065,2.2466-1.8748,3.3172
				c-0.7683,1.0706-1.6342,2.1069-2.5957,3.1108c-0.9633,1.0018-1.9982,1.9775-3.1071,2.926
				c-1.1088,0.9485-2.241,1.8766-3.392,2.786c-1.151,0.9094-2.2984,1.7977-3.4409,2.668s-2.2238,1.7345-3.2425,2.5957
				c-0.1126,0.0965-0.2428,0.2283-0.3905,0.3953c-0.15,0.1661-0.3021,0.35-0.4581,0.5495c-0.1538,0.2005-0.316,0.4147-0.485,0.6448
				c-0.1667,0.231-0.3214,0.4591-0.4607,0.6884l-0.1078,0.2559c-0.1331,0.3158-0.2288,0.6381-0.2886,0.9635
				c-0.058,0.3275-0.0891,0.629-0.0941,0.9068c-0.0028,0.2788,0.0217,0.5117,0.0717,0.6967
				c0.0495,0.1862,0.1218,0.2993,0.2192,0.3403c0.2355,0.0992,0.5254,0.164,0.8698,0.1945c0.3422,0.0295,0.719,0.0337,1.1301,0.0135
				c0.4088-0.0211,0.8371-0.0632,1.2845-0.1253c0.4497-0.0612,0.8872-0.1314,1.3126-0.2108c0.994-0.1824,2.0603-0.429,3.194-0.7405
				l-0.0076,4.4918c-1.4172,0.2694-2.7865,0.463-4.1106,0.5809c-0.5748,0.0418-1.1618,0.0744-1.7659,0.0971
				c-0.6019,0.0237-1.1973,0.0195-1.7845-0.0107c-0.5867-0.0312-1.1464-0.0951-1.6772-0.1894
				C107.9441,89.1867,107.4661,89.0493,107.0427,88.8709z M113.1102,74.5203c0.9563-0.7448,1.9954-1.5974,3.12-2.558
				c1.1263-0.9585,2.2322-1.9696,3.3216-3.0303c1.0899-1.0618,2.1032-2.1506,3.0453-3.2666c0.9399-1.117,1.6999-2.2058,2.275-3.2672
				c0.1488-0.3532,0.2671-0.6593,0.3562-0.915c0.0873-0.2578,0.0854-0.4052-0.0051-0.4434
				c-0.3328-0.1402-0.7874-0.0611-1.3632,0.2361s-1.2226,0.7566-1.9348,1.3777c-0.7122,0.6211-1.7085,1.701-2.9837,3.2406
				c-1.2752,1.5396-1.9117,2.3099-1.9122,2.311c0,0-0.5079,0.7498-1.5236,2.2494C114.4927,71.9541,113.695,73.3096,113.1102,74.5203
				z"/>
			<path class="st1" d="M116.7877,92.9767c-0.6498-0.2738-1.1356-0.8104-1.4568-1.6109s-0.4889-1.763-0.5026-2.8885
				c-0.016-1.1265,0.1248-2.3655,0.4179-3.7191c0.2948-1.3515,0.7318-2.7177,1.3127-4.0966
				c0.4989-1.1842,1.3401-2.6934,2.5225-4.5254c1.1797-1.8318,1.7709-2.7478,1.7709-2.7478
				c-0.0005,0.0011,0.6808-0.8756,2.0412-2.6299c1.3603-1.7544,2.5579-3.1161,3.5905-4.0861
				c1.033-0.9711,2.0802-1.843,3.1375-2.6186c1.0596-0.7747,2.0923-1.4033,3.1009-1.8862c1.0081-0.4817,1.977-0.788,2.9047-0.9144
				c0.9309-0.1277,1.7797-0.0287,2.5473,0.2947c0.5592,0.2356,0.9763,0.5366,1.2507,0.9042
				c0.2749,0.3664,0.4414,0.7685,0.5018,1.2072c0.0609,0.4376,0.0412,0.8958-0.062,1.3749c-0.1027,0.4779-0.25,0.9478-0.4437,1.4074
				c-0.4813,1.1423-1.1065,2.2466-1.8748,3.3172c-0.7683,1.0706-1.6342,2.1069-2.5957,3.1108
				c-0.9633,1.0018-1.9982,1.9775-3.1071,2.926c-1.1088,0.9485-2.241,1.8765-3.392,2.786c-1.151,0.9094-2.2984,1.7977-3.4409,2.668
				s-2.2238,1.7345-3.2425,2.5957c-0.1126,0.0965-0.2428,0.2283-0.3905,0.3953c-0.15,0.1661-0.3021,0.35-0.4581,0.5495
				c-0.1538,0.2005-0.316,0.4147-0.485,0.6448c-0.1667,0.231-0.3214,0.4591-0.4607,0.6884l-0.1078,0.2559
				c-0.1331,0.3159-0.2289,0.6381-0.2886,0.9635c-0.058,0.3275-0.0891,0.629-0.0941,0.9068
				c-0.0028,0.2788,0.0217,0.5117,0.0717,0.6967c0.0495,0.1862,0.1219,0.2993,0.2192,0.3403
				c0.2355,0.0992,0.5254,0.1641,0.8698,0.1945c0.3421,0.0295,0.719,0.0337,1.13,0.0135c0.4088-0.0211,0.8371-0.0632,1.2845-0.1253
				c0.4497-0.0612,0.8872-0.1314,1.3126-0.2108c0.994-0.1824,2.0603-0.429,3.194-0.7405l-0.0076,4.4918
				c-1.4172,0.2694-2.7865,0.463-4.1106,0.5809c-0.5748,0.0418-1.1618,0.0744-1.7659,0.0971
				c-0.6019,0.0237-1.1973,0.0195-1.7845-0.0107c-0.5867-0.0312-1.1464-0.0951-1.6772-0.1894
				C117.6891,93.2925,117.2111,93.1551,116.7877,92.9767z M122.8553,78.6261c0.9563-0.7448,1.9954-1.5974,3.12-2.558
				c1.1263-0.9585,2.2322-1.9696,3.3216-3.0303c1.0899-1.0618,2.1031-2.1506,3.0453-3.2666c0.9399-1.117,1.6999-2.2058,2.275-3.2672
				c0.1488-0.3532,0.2671-0.6593,0.3562-0.915c0.0873-0.2578,0.0854-0.4052-0.0051-0.4434
				c-0.3328-0.1402-0.7874-0.0611-1.3632,0.2361s-1.2226,0.7566-1.9348,1.3777s-1.7085,1.701-2.9837,3.2406
				c-1.2752,1.5396-1.9117,2.3099-1.9122,2.311c0,0-0.5079,0.7498-1.5236,2.2495C124.2377,76.0599,123.44,77.4154,122.8553,78.6261z
				"/>
		</g>
	</g>
</g>
</svg>
