<?xml version="1.0" encoding="utf-8"?>
<!-- Generator: Adobe Illustrator 21.0.2, SVG Export Plug-In . SVG Version: 6.00 Build 0)  -->
<svg version="1.1" id="Layer_1" xmlns="http://www.w3.org/2000/svg" xmlns:xlink="http://www.w3.org/1999/xlink" x="0px" y="0px"
	 viewBox="0 0 680 59" style="enable-background:new 0 0 680 59;" xml:space="preserve">
<style type="text/css">
	.st0{fill:#AAC0D0;}
</style>
<g>
	<path class="st0" d="M47.5,13.5c0.6,0,3.6-4.4,3.6-4.8c0-0.4-1.9-3.3-2.8-3.3s-2.7,5-2.7,5.6C45.7,11.7,46.9,13.5,47.5,13.5z"/>
	<path class="st0" d="M118.9,23.2c-2.8,5.2-6.7,10.1-9.4,10.1c0-2.6,6.2-12.6,6.2-15.1c0-2.2-1.7-3.6-2.4-3.9c0,0-0.1,0-0.2,0
		c0,0,0,0-0.1,0s-0.1,0-0.1,0c-0.9,0.5-5.3,5.6-8.7,9.7c1.6-3.7,3.1-7.4,3.1-8.1c0-1.4-1.7-2.6-2.6-2.6c-0.2,0-0.3,0.1-0.3,0.2
		c0,0,0,0.1,0,0.2c0,0.8-2,5.2-4.1,9.8c0,0,0,0,0,0c-0.6,1.1-5.2,11-12.7,11c-1.7,0-2-2.3-2-4.2c0-1.3,0.3-2.7,0.9-4.3
		c0.7,0.7,1.7,1.3,3.2,1.3c4,0,7.5-4.6,7.5-8.1c0-0.3,0-0.5,0-0.6c0,0,0.1,0,0.3,0c0.5,0-0.2-4.5-4.2-4.5c-3.3,0-7.5,4.7-9.6,9.4
		c-2.3,4.3-6.9,11.1-11.3,11.1c-0.4,0-0.5-0.3-0.5-1c0-4,3.8-13.9,6.7-21.1c2.9-0.3,5.8-0.5,8.5-0.5c0.8,0,1.4-0.1,1.4-0.8
		c0-1.4,0.1-2.7-2.2-2.7c-1,0-3.4,0-6.1,0.2c1.6-3.9,2.4-5.5,2.4-5.8c0-1.6-3.5-4.4-3.5-2.5c0,0.5-1.2,3.4-3.4,8.6
		c-1.7,0.1-5.6,0.1-6.6,0.1c-0.6,0-1.1,3.9,1.8,3.9c1,0,2,0,3.2-0.1c-1.3,3.3-2.8,7-3.9,10.2c-0.1,0.1-0.1,0.2-0.2,0.3
		c-1.2,2.7-3.5,6.1-7,8.4c0-0.5,0.1-0.9,0.1-1.6c0-4.4-9.7-5.8-9.7-6.3c0.2-3,8.5-6.5,8.5-5.8c-0.1,0.8-1.8,3.5-1.9,4.3
		c-0.1,0.8,2.2,0.8,2.6,0.8c0.3,0,2.3-2.8,2.4-4.5c0.1-1.7-0.5-4.7-2.4-4.7c-2.8,0-11,3.7-11.9,9.1c0,0-0.1,0-0.1,0
		c-1.7,3.6-5.2,10.3-9.5,10.3c-1.1,0,5.6-14.2,5.6-15c0-1.2-2.1-4-2.8-3.2c-0.2,0.3-1.9,4-3.6,8.1c0,0-0.1,0.1-0.1,0.2
		c-0.8,1.5-6.1,10.6-9,10.6c-1.4,0,4.2-10.5,4.2-12.2c0-1.7-2.7-3-4.6-3.8c3-5.9,5.2-11.4,5.2-13.2c0-2.3-3.2-4.7-4.6-4.7
		c-0.9,0-2.8,1.7-4.5,4.1c-0.2-0.2-0.3-0.4-0.4-0.4c-0.4,0-7.6,8.7-16,16.3c3-6.9,5.7-13.5,5.7-13.7c0-0.5-2-2.8-2.6-2.8
		c-0.5,0-0.5,0.2-0.5,0.6c0,1-13.1,30.3-13.1,30.7c0,0.5,2.3,2.6,2.8,2.6c0.2,0,2.4-4.9,5-10.9l1.5-1c1.2,4.4,6,11.3,6.6,11.3
		c0.7,0,3.2-0.3,3.2-1.1c0-0.7-5.8-7.1-7.3-12.3c3.9-3.3,8.3-7.6,11.5-11c0,0.1,0,0.2,0,0.4c0,2.9,1.8,4.2,3.7,5.3
		c-0.8,1.7-1.7,3.7-2.5,5.4c-0.5,1,1.6,4.1,2.3,2.6l3.4-6.6c0.8,0.3,1.9,0.9,1.9,1.1c0,2-4.3,7.9-4.3,12.2c0,3.2,3.2,4.8,3.9,4.8
		c1.7,0,3.8-1.8,5.7-3.9c0.2,2.1,3.6,3.9,4.7,3.9c4.5,0,9.1-6.8,10.6-10.2c3,2.1,8.6,2.1,8.5,3.9c-0.3,2.9-9,4.2-8.7-0.7
		c0-0.3-1-0.3-1.2,2c-0.2,2.3,1.1,5.2,4.4,5.2c0.4,0,0.8,0,1.1-0.1c5.1-0.1,9-2.7,11.8-5.8c0.8,4.3,4.5,5.8,6.1,5.8
		c3.4,0,6.2-2.8,8.4-5.9c1.2,3.1,4,5.9,6.6,5.9c2.3,0,4.4-1,6.4-2.5c0.4,1.3,1.8,2.4,2.4,2.4c0.5,0,4.5-8,13.3-16.8
		c-2,4.7-5.5,10.2-5.5,12.9c0,1.3,2.5,3.9,4,3.9c4.4,0,9.5-7.5,11.7-11.8C121.8,25,119.4,22.5,118.9,23.2z M76.4,7.4
		c0.5-1,0.7-1.7,1-2.3c0.1-0.3,0.2-0.5,0.3-0.6c0-0.1,0-0.2,0.1-0.2c0,0,0,0.1-0.1,0.3c0,0.2-0.1,0.3-0.2,0.6
		c-0.3,0.5-0.5,1.4-0.9,2.4c-0.3,0.8-0.2,0.5-0.5,1.5h-0.3C76.3,7.9,76.1,8.2,76.4,7.4z M1.1,34.2c-0.1,0.2-0.2,0.4-0.3,0.6
		c0,0.1,0,0.2-0.1,0.2c0-0.1,0-0.2,0-0.2c0-0.2,0.1-0.4,0.2-0.7l0.8-1.9c0.3-0.7,0.6-1.3,0.9-1.8c0.1-0.3,0.3-0.5,0.3-0.6l0.1-0.2
		l0,0c0,0,0,0,0,0.1s0,0,0,0.2l-0.2,0.6c-0.2,0.5-0.5,1.3-0.8,1.9C1.6,33,1.4,33.6,1.1,34.2z M4,28.7c0,0.1-0.1,0.3-0.2,0.4
		c-0.1,0.3-0.3,0.8-0.5,1.3l-0.6,1.3l-0.3,0.6c0,0,0-0.1,0-0.2c0-0.1,0-0.3,0.2-0.4l0.5-1.3l0.6-1.3C3.8,28.9,3.9,28.8,4,28.7l0-0.2
		C4,28.6,4,28.7,4,28.7z M8.9,15.8L7.5,19l-1.2,2.7c-0.3,0.8-0.7,1.5-0.9,1.9l-0.3,0.5l0.2-0.6l0.8-2c0.3-0.8,0.7-1.8,1.1-2.8
		c0.5-1,0.9-2.1,1.3-3.2c0.5-1.1,0.9-2.2,1.4-3.2c0.5-1,0.8-1.9,1.2-2.7c0.3-0.8,0.7-1.5,0.9-1.9c0.1-0.2,0.2-0.4,0.3-0.5l0.1-0.2
		c0,0,0,0.1-0.1,0.2l-0.2,0.5l-0.8,2c-0.3,0.8-0.7,1.8-1.1,2.8C9.8,13.7,9.4,14.7,8.9,15.8z M31.9,7.2C31.9,7.2,31.9,7.2,31.9,7.2
		C31.9,7.2,31.9,7.2,31.9,7.2L31.9,7.2z M23.8,10.2L23.8,10.2c0.2-0.2,0.3-0.4,0.5-0.5l-0.2,0.5c-0.1,0.2-0.3,0.3-0.4,0.5
		C23.7,10.6,23.7,10.4,23.8,10.2z M24.5,8.7l0.5-0.5L25,8.3L24.5,8.7c-0.1,0.2-0.2,0.4-0.3,0.6l0.1-0.3L24.5,8.7z M27.1,4.5
		c0.3-0.5,0.6-0.7,0.8-1L28,3.3l0.1-0.1l-0.3,0.4c-0.2,0.3-0.4,0.5-0.7,1l-0.1,0.2c0-0.1-0.1-0.1-0.1-0.2C27,4.6,27,4.5,27.1,4.5z
		 M21.4,12c0.2-0.2,0.4-0.5,0.7-0.8l0.8-0.9c0.2-0.3,0.5-0.5,0.7-0.7c0,0.1-0.1,0.2-0.1,0.3l-0.5,0.6l-0.8,0.9
		C21.9,11.6,21.7,11.8,21.4,12c-0.2,0.3-0.3,0.5-0.5,0.6C21.1,12.4,21.2,12.3,21.4,12z M21,13.5l-2.4,2.4c-0.8,0.8-1.5,1.4-2.1,2.1
		c-0.6,0.6-1.2,1.1-1.6,1.4c-0.2,0.2-0.4,0.4-0.6,0.5l0.5-0.6c0.3-0.4,0.8-0.8,1.5-1.5l2.1-2.1l2.4-2.4c0.9-0.9,1.8-1.8,2.6-2.6
		c0,0.2-0.1,0.3-0.1,0.5C22.5,11.9,21.8,12.7,21,13.5z M23.4,12.5v0.1C23.4,12.6,23.4,12.6,23.4,12.5L23.4,12.5c0-0.1,0-0.2,0-0.3
		c0,0,0,0,0,0c0,0,0,0,0.1-0.1l0,0.1C23.4,12.3,23.4,12.4,23.4,12.5z M24.4,15.8c-0.1-0.1-0.2-0.3-0.3-0.5l-0.3-0.8
		c0-0.2-0.1-0.4-0.1-0.5c0-0.2-0.1-0.4-0.1-0.5c0-0.2,0-0.4,0-0.5c0-0.2,0-0.4,0-0.5c0-0.1,0-0.3,0.1-0.5l0.1-0.4
		c0,0,0.1-0.1,0.1-0.1c0,0,0,0.1,0,0.1l-0.1,0.8c0,0.2,0,0.4,0,0.5v0.5c0,0.2,0,0.3,0,0.5l0.1,0.5c0.1,0.3,0.2,0.6,0.3,0.8
		C24.2,15.5,24.3,15.7,24.4,15.8c0.1,0.1,0.1,0.1,0.1,0.1L24.4,15.8z M26.1,14.2c0-4,5.5-10.9,6.5-10.9c0.6,0-1.8,6.3-5.2,13.3
		C26.6,16,26.1,15.3,26.1,14.2z M29.4,13.9c-0.3,0.6-0.5,1.1-0.8,1.5c-0.2,0.5-0.4,0.7-0.5,1l-0.3,0.4h0l0.7-1.5
		c0.4-0.9,0.9-2.1,1.4-3.3c0.5-1.2,1-2.3,1.4-3.3c0.2-0.5,0.3-0.8,0.5-1.1c0.1-0.1,0.1-0.2,0.1-0.3c0,0.1,0,0.2,0,0.3
		c-0.1,0.3-0.2,0.7-0.3,1.1l-0.3,0.8l-0.3,0.8c-0.2,0.6-0.4,1.1-0.7,1.8L29.4,13.9z M28.3,31c0,0,0,0.2,0,0.4l-0.1,1.1
		c0,0.5,0,0.8,0,1.1c0,0.2,0,0.3,0,0.4l-0.1-0.4C28,33.4,28,33,28,32.5c0-0.5,0.1-0.8,0.2-1.1C28.2,31.2,28.2,31.1,28.3,31
		c0,0,0-0.1,0-0.1V31z M29.6,27.6c-0.1,0.2-0.2,0.5-0.3,0.9c-0.1,0.4-0.2,0.8-0.3,1.3c-0.1,0.2-0.1,0.4-0.2,0.7
		c-0.1,0.3-0.1,0.5-0.1,0.8s-0.1,0.5-0.1,0.8c0,0.3,0,0.5,0,0.8c0,0.3,0,0.5,0,0.7c0,0.1,0,0.2,0,0.3l0.1,0.3c0,0,0,0.1,0.1,0.3
		s0,0.2,0.1,0.2c0,0.1,0.1,0.3,0.2,0.4l0.1,0.2c0,0,0,0.1,0,0.1c0,0,0,0,0-0.1l-0.2-0.2c0-0.1-0.2-0.2-0.2-0.4
		c0-0.1-0.1-0.1-0.1-0.2s-0.1-0.2-0.1-0.3c0-0.1-0.1-0.2-0.1-0.3l-0.1-0.3l-0.1-0.7c0-0.3,0-0.5,0-0.8c0-0.3,0-0.5,0.1-0.8l0.1-0.8
		c0-0.3,0.1-0.5,0.2-0.8l0.4-1.3L29.6,27.6c0-0.2,0-0.3,0-0.3C29.6,27.4,29.6,27.5,29.6,27.6z M43.3,17l0.3-0.7h0c0,0,0,0.1-0.1,0.2
		C43.6,16.6,43.5,16.8,43.3,17c-0.1,0.5-0.3,1.1-0.6,1.9c-0.3,0.8-0.1,0.6-0.6,1.5L41,23.2c-0.1,0-0.2,0-0.3,0
		c0.8-2,1.2-2.9,1.9-4.4L43.3,17z M38.1,33.1c-0.1,0.4-0.1,0.7-0.1,1c0,0.1,0,0.2,0,0.3c0,0-0.1-0.1-0.1-0.3
		C37.9,33.8,37.8,33.5,38.1,33.1c-0.1-0.3,0-0.5,0-0.7c0.1-0.1,0.1-0.2,0.2-0.3C38.2,32.5,38.2,32.8,38.1,33.1z M53.8,19.3
		c-0.1,0.1-0.2,0.2-0.3,0.3c-0.2,0.3-0.5,0.5-0.8,0.9s-0.5,0.6-0.8,0.9l-0.1,0.2c0,0,0,0.1-0.1,0.1s0,0.1,0,0.1c0,0,0,0,0,0
		c0,0,0-0.1,0-0.1l0.2-0.3c0.1-0.3,0.4-0.6,0.7-1l0.8-0.8C53.6,19.4,53.7,19.3,53.8,19.3l0.1-0.1L53.8,19.3z M60.7,14.6L60.7,14.6
		C60.7,14.7,60.7,14.7,60.7,14.6l-0.1,0C60.6,14.7,60.6,14.6,60.7,14.6z M51,22.5l0.1-0.4c0-0.2,0.1-0.5,0.3-0.8
		c0.2-0.3,0.3-0.6,0.5-0.9c0.2-0.3,0.5-0.6,0.8-0.9c0.6-0.6,1.2-1.2,1.9-1.7c0.7-0.5,1.4-1,2.1-1.4c0.7-0.5,1.3-0.7,1.9-1
		c0.6-0.3,1.1-0.5,1.5-0.6c0.1,0,0.1,0,0.1,0c0,0-0.1,0-0.1,0.1l-1.4,0.6c-1.1,0.5-2.6,1.4-4,2.5c-0.7,0.5-1.3,1.1-1.9,1.7L52,20.5
		c-0.2,0.3-0.4,0.6-0.5,0.9l-0.2,0.4c0,0.1-0.1,0.2-0.2,0.4C51.1,22.3,51,22.5,51,22.5c0,0.1,0,0.2,0,0.3c0,0.1,0,0.1,0,0.2
		c0,0,0,0,0,0c0-0.1,0-0.1,0-0.2C50.9,22.7,51,22.6,51,22.5z M46.8,32.1l0.4-0.5c0.2-0.2,0.4-0.4,0.5-0.7l0.6-0.8l0.5-0.8
		c0.2-0.3,0.3-0.5,0.5-0.8c0.1-0.2,0.2-0.4,0.3-0.5l0.1-0.2c0,0,0,0.1-0.1,0.2c-0.1,0.1-0.2,0.4-0.3,0.6l-0.5,0.8l-0.5,0.8L47.8,31
		c-0.2,0.3-0.4,0.5-0.6,0.7C47,31.8,46.9,32,46.8,32.1z M50.6,27.1l-0.5,1l-0.6,1l-0.6,1c-0.2,0.3-0.4,0.5-0.6,0.8s-0.3,0.4-0.5,0.6
		c-0.1,0.1-0.1,0.1-0.2,0.1l0.1-0.2c0.1-0.1,0.3-0.3,0.4-0.6s0.4-0.5,0.5-0.9l0.6-1l0.6-1C50.2,27.6,50.4,27.3,50.6,27.1
		c0-0.3,0.2-0.5,0.3-0.7C50.7,26.6,50.7,26.8,50.6,27.1z M59.6,33.3c-0.1,0-0.2,0.1-0.3,0.2c-0.1,0-0.3,0.1-0.4,0.2
		c-0.1,0-0.3,0.1-0.5,0.2L57.8,34c-0.4,0.1-0.8,0.2-1.3,0.2h-0.6h-0.6l-0.5-0.1L54.2,34l-0.4-0.1l-0.3-0.1c-0.1,0-0.2-0.1-0.2-0.1
		l0,0l0.3,0.1c0,0,0.2,0.1,0.3,0.1l0.4,0.1l0.5,0.1c0.2,0,0.4,0,0.6,0c0.2,0,0.4,0,0.6,0h0.6l1.3-0.2c0.4-0.1,0.7-0.2,1-0.3
		c0.2,0,0.3-0.1,0.4-0.2C59.4,33.4,59.5,33.3,59.6,33.3l0.2-0.1L59.6,33.3z M72.8,18.4l-0.3,0.9l-0.4,1c-0.2,0.3-0.3,0.7-0.4,1
		l-0.4,0.9c-0.1,0.3-0.1,0.5-0.3,0.6l-0.1,0.3c0,0,0-0.1,0.1-0.3c0-0.2,0.1-0.4,0.2-0.7l0.3-0.9l0.4-1c0.1-0.4,0.3-0.7,0.4-1.1
		l0.3-0.9l0.4-0.8L72.8,18.4z M72.1,18.2l2-5l0.1-0.3c0.2,0,0.3,0,0.3,0l-0.2,0.5c-1,2.6-2.5,6.3-3.3,8.3l-0.5,1.4c0,0-0.1,0-0.1,0
		c0.1-0.4,0.3-0.9,0.5-1.4C71.3,20.5,71.7,19.4,72.1,18.2z M70.1,35c-0.1-0.1-0.2-0.2-0.3-0.3c-0.3-0.3-0.5-0.7-0.8-1.2
		c-0.1-0.2-0.2-0.5-0.3-0.7c-0.1-0.2-0.1-0.4-0.2-0.6c0-0.2-0.1-0.3-0.1-0.5v-0.1c0,0,0,0.1,0,0.1c0,0.1,0.1,0.3,0.1,0.4
		c0,0.2,0.1,0.4,0.3,0.6c0.1,0.2,0.2,0.4,0.3,0.6l0.3,0.7c0.1,0.2,0.2,0.4,0.3,0.5C70,34.7,70.1,34.8,70.1,35l0.1,0.1L70.1,35z
		 M93.8,20.9c-0.1,0.2-0.2,0.5-0.4,0.9c-0.1,0.2-0.2,0.3-0.3,0.5l-0.4,0.6l-0.5,0.6c-0.2,0.2-0.3,0.4-0.6,0.5l-0.3,0.3
		c-0.1,0.1-0.2,0.1-0.3,0.2l-0.7,0.3C90,25,89.8,25,89.6,25.1l-0.6,0.1c-0.2,0-0.4,0-0.5,0H88h-0.3c0.1,0,0.2,0,0.3,0h0.4l0.5-0.1
		c0.2,0,0.4,0,0.6-0.1c0.2-0.1,0.5-0.1,0.7-0.3l0.7-0.3c0.1-0.1,0.2-0.1,0.3-0.2l0.3-0.3c0.2-0.1,0.4-0.3,0.6-0.5l0.5-0.5l0.4-0.6
		c0.2-0.2,0.3-0.4,0.3-0.5L93.8,20.9c0-0.2,0-0.3,0.1-0.3c0,0,0,0,0-0.1L93.8,20.9z M87.8,24.9c-0.4,0-0.6,0-0.8-0.1
		c1.8-3.7,4.9-7.2,7-7.2c0.2,0,0.3,0,0.5,0C93.8,20.3,92.4,24.9,87.8,24.9z M85.9,19.9c0.2-0.3,0.5-0.8,0.9-1.3s0.9-1.1,1.5-1.6
		l1-0.8c0.4-0.3,0.7-0.5,1.1-0.7c0.4-0.2,0.8-0.4,1.2-0.5c0.5-0.2,0.9-0.2,1.3-0.3c0.4,0,0.8,0,1.2,0.1l0.3,0.1
		c0.2,0,0.3,0.1,0.3,0.1c0.1,0,0.2,0.1,0.2,0.1c0.1,0,0.2,0.1,0.3,0.1c0.3,0.2,0.5,0.4,0.8,0.5c0.2,0.2,0.4,0.3,0.5,0.5l0.3,0.3
		l0.1,0.1c0,0-0.1,0-0.1-0.1c-0.1,0-0.2-0.2-0.3-0.3c-0.2-0.1-0.3-0.3-0.5-0.4c-0.3-0.2-0.5-0.3-0.8-0.5c-0.1,0-0.2,0-0.2-0.1
		l-0.3-0.1l-0.3-0.1c-0.1,0-0.1,0-0.3,0C93.7,14.9,93.3,15,93,15c-0.5,0-0.8,0.2-1.2,0.3c-0.4,0.1-0.8,0.3-1.2,0.5
		c-0.3,0.2-0.7,0.4-1.1,0.7c-0.3,0.3-0.7,0.5-1,0.8L87.7,18c-0.3,0.3-0.5,0.5-0.7,0.8C86.6,19.2,86.3,19.7,85.9,19.9
		c-0.1,0.2-0.2,0.3-0.2,0.4C85.8,20.2,85.8,20.1,85.9,19.9z M84.8,22.1l0.5-0.7c0.2-0.2,0.3-0.4,0.5-0.6c0.1-0.2,0.3-0.4,0.4-0.5
		l0.7-0.7c-0.1,0.2-0.3,0.5-0.6,0.8l-0.4,0.5l-0.4,0.6l-0.5,0.7c-0.1,0.2-0.3,0.4-0.4,0.7c0,0.1-0.1,0.1-0.1,0.2
		c-0.1,0-0.1,0-0.2-0.1l0.1-0.2L84.8,22.1z M93.5,33.9c-0.3,0.2-0.7,0.4-1.1,0.6l-0.6,0.3c-0.2,0.1-0.4,0.1-0.6,0.2
		c-0.3,0.1-0.5,0.1-0.7,0.2l-0.7,0.1c-0.3,0-0.5,0.1-0.6,0.1c-0.1,0-0.3,0-0.5,0c-0.1,0-0.3,0-0.5,0h-0.4h-0.3c0,0,0.1,0,0.3,0
		c0.1,0,0.3,0,0.4,0c0.2,0,0.3,0,0.5,0c0.2,0,0.3,0,0.5,0l0.6-0.1l0.7-0.1c0.2-0.1,0.4-0.1,0.6-0.2c0.3,0,0.5-0.1,0.7-0.2
		s0.4-0.1,0.6-0.3C92.8,34.2,93.2,34,93.5,33.9c0.3-0.2,0.5-0.3,0.7-0.5C94,33.6,93.8,33.7,93.5,33.9z M102.8,24.9
		c0-0.1,0-0.2,0-0.2l0.3-0.8l2-4.5c0,0,0,0,0,0l-0.1,0.3l-0.4,1l-0.6,1.5c-0.3,0.5-0.5,1.1-0.8,1.7C103,24.3,102.9,24.6,102.8,24.9z
		 M103.9,23.4C103.9,23.5,103.9,23.5,103.9,23.4l0.1-0.3c0.1-0.2,0.2-0.5,0.3-1l0.5-1.3c0.2-0.5,0.4-1,0.6-1.6l0.6-1.5
		c0.2-0.5,0.4-0.9,0.5-1.4c0-0.2,0-0.4,0.2-0.5l0.1-0.4v-0.2v-0.1c0,0,0,0.1,0,0.1v0.2c0,0.3,0,0.6-0.1,1l-0.4,1.4
		c-0.2,0.5-0.3,1.1-0.5,1.6c-0.2,0.5-0.5,1-0.7,1.6c-0.2,0.5-0.4,0.9-0.6,1.3l-0.5,0.9C103.9,23.3,103.9,23.4,103.9,23.4z
		 M111.5,21.9c0.2-0.3,0.3-0.6,0.4-0.8c0-0.1,0.1-0.2,0.2-0.3l-0.1,0.3C111.8,21.3,111.7,21.6,111.5,21.9l-0.4,1.1l-0.6,1.2
		c-0.5,0.8-0.8,1.7-1.1,2.3c-0.2,0.3-0.2,0.6-0.3,0.8l-0.1,0.3c0-0.1,0-0.2,0.1-0.3c0-0.2,0.2-0.5,0.3-0.8c0.2-0.3,0.3-0.7,0.5-1.1
		c0.2-0.5,0.4-0.8,0.6-1.3C110.8,23.3,111.2,22.6,111.5,21.9z M107.2,30.4c-0.2,0.5-0.4,0.9-0.6,1.3c-0.1,0.4-0.3,0.7-0.3,1
		c0,0.1,0,0.2,0,0.3c0,0,0,0.1,0,0.1v-0.1v-0.3c0-0.2,0-0.3,0.1-0.5c0-0.2,0-0.4,0.1-0.6c0-0.2,0.1-0.4,0.2-0.7
		c0.1-0.2,0.2-0.4,0.3-0.7l0.7-1.6c0.3-0.5,0.5-1,0.8-1.6c0.3-0.5,0.5-0.9,0.7-1.3l0.5-0.9c0-0.1,0.1-0.2,0.2-0.3l-0.1,0.3
		c-0.1,0.2-0.2,0.5-0.4,1c-0.2,0.3-0.4,0.8-0.6,1.3c-0.3,0.5-0.5,1-0.8,1.6C107.6,29.4,107.5,29.9,107.2,30.4z M112.1,36.5
		c-0.1,0.1-0.3,0.1-0.4,0.2s-0.3,0.2-0.6,0.3c-0.3,0.1-0.5,0.2-0.8,0.2h-0.4l-0.4-0.1c-0.3,0-0.5-0.1-0.6-0.3l-0.3-0.1l-0.2-0.1
		l-0.1-0.1c0,0,0,0,0.1,0c0,0,0.1,0.1,0.2,0.1l0.3,0.1c0.2,0.1,0.4,0.2,0.6,0.2c0.1,0,0.3,0,0.4,0h0.4c0.5,0,1-0.2,1.3-0.3
		L112.1,36.5l0.2-0.1L112.1,36.5z"/>
	<path class="st0" d="M170.1,4.4c-0.2,0-0.4,0.1-0.6,0.3L169.1,5c0-0.2-0.1-0.3-0.3-0.4c-0.2-0.2-0.4-0.5-0.6-0.5
		c-0.2,0-4.5,3.8-8.5,7.6c-2.4,2.2-5.1,4.7-8.1,7.5l2.9-6.2c1.4-3.1,2.9-6.3,2.9-6.5c0-0.5-1.1-2.9-2.2-2.9
		c-2.2,0-18.2,16.4-26.8,31.3c0,0.8,2.1,2.6,2.5,2.6c0.4,0,9.4-15.8,20-25.5c0,1.3-8.1,18.3-10.1,22.1c0,0.3,1.8,2.4,2.5,2.4
		s4.9-10.4,21.3-23.8c-9.1,17-9.1,17.1-10.6,22.7c0,0.3,2.8,3,3,2.1c2.3-7.4,14.3-29.5,14.3-30C171.2,6.8,170.5,4.4,170.1,4.4z
		 M134.2,26.7l-0.5,0.7l-0.5,0.8c-0.2,0.3-0.4,0.5-0.5,0.8s-0.3,0.5-0.5,0.7c-0.1,0.2-0.2,0.4-0.3,0.5l-0.1,0.2c0,0,0-0.1,0.1-0.2
		c0.1-0.1,0.2-0.3,0.3-0.5l0.5-0.7l0.5-0.8c0.2-0.3,0.4-0.6,0.5-0.8C133.9,27,134.1,26.8,134.2,26.7l0.3-0.5
		C134.4,26.3,134.4,26.5,134.2,26.7z M146.4,12.1l-1.4,1.6l-1.9,2.2l-2.1,2.6c-0.8,0.8-1.5,1.7-2.1,2.6l-1.8,2.3l-1.3,1.6
		c-0.2,0.2-0.4,0.4-0.5,0.6c0,0,0-0.1,0.1-0.2c0.1-0.1,0.2-0.3,0.3-0.5c0.3-0.5,0.7-1,1.2-1.7l1.8-2.3l2.1-2.6
		c0.8-0.9,1.5-1.7,2.2-2.6l1-1.1l0.9-1C145.5,12.9,146,12.4,146.4,12.1l0.3-0.5l0.2-0.1C146.8,11.6,146.6,11.8,146.4,12.1z
		 M150.7,15.8c0,0-0.1,0.2-0.1,0.3c-0.1,0.3-0.2,0.6-0.4,1.1c-0.2,0.5-0.3,1-0.6,1.6c-0.2,0.6-0.4,1.2-0.7,1.8l-0.8,1.8
		c-0.3,0.5-0.5,1-0.8,1.5c-0.2,0.5-0.4,0.8-0.5,1.1l-0.2,0.4c0,0,0-0.1,0-0.1l0.1-0.3l0.5-1.1c0.2-0.5,0.3-1,0.6-1.6
		c0.2-0.5,0.5-1.1,0.8-1.8s0.5-1.2,0.8-1.8c0.3-0.5,0.5-1.1,0.7-1.5l0.5-1.1l0.2-0.4C150.7,15.8,150.7,15.8,150.7,15.8z M159.1,25.3
		c-0.1,0.2-0.1,0.4-0.3,0.7l-0.4,1c-0.2,0.3-0.3,0.8-0.5,1.1l-0.5,1.1l-0.5,1c-0.1,0.3-0.2,0.5-0.3,0.7c0.1-0.2,0.1-0.4,0.3-0.7
		l0.4-1c0.1-0.4,0.3-0.8,0.5-1.1l0.5-1.1l0.5-1C158.9,25.7,159,25.5,159.1,25.3l0.1-0.3L159.1,25.3z M160.1,22.1
		c0,0.1,0,0.2-0.2,0.4c-0.1,0.4-0.3,0.8-0.6,1.5l-2,4.5l-1,2.4c-0.3,0.8-0.6,1.5-0.9,2.1l-0.3,0.8l-0.3,0.6
		c-0.1,0.2-0.1,0.3-0.2,0.4c0-0.1,0-0.2,0.1-0.4c0-0.2,0.1-0.4,0.2-0.7l0.3-0.9c0.3-0.6,0.5-1.3,0.8-2.1l0.5-1.2
		c0.2-0.5,0.3-0.8,0.5-1.2l1.1-2.4l1-2.1c0.3-0.6,0.6-1,0.8-1.4C160,22.3,160.1,22.2,160.1,22.1l0.1-0.2L160.1,22.1z M159.8,12.8
		c-0.4,0.3-0.8,0.7-1.1,1c-0.3,0.3-0.7,0.6-1,0.9c-0.3,0.3-0.5,0.4-0.7,0.6l-0.2,0.2l0.2-0.2l0.6-0.7l1-0.9l1.1-1.1l1.1-1
		c0.4-0.3,0.7-0.5,1-0.8l0.7-0.6l0.2-0.2c0,0,0,0,0.1,0l-0.3,0.3c-0.1,0.2-0.3,0.4-0.6,0.7l-0.9,0.9L159.8,12.8z M164.4,8.9
		l-0.3,0.4l-1.1,1.1c-0.5,0.3-0.8,0.7-1.1,1c-0.2,0.2-0.3,0.2-0.4,0.3c0,0-0.1,0.1-0.1,0.1l0.1-0.1c0.1-0.1,0.2-0.2,0.3-0.3l1.1-1
		c0.5-0.4,0.8-0.7,1.1-1L164.4,8.9l0.1-0.1L164.4,8.9z"/>
	<path class="st0" d="M242.6,23.5c-0.8,1.5-6.1,10.6-9,10.6c-1.4,0,4.2-10.5,4.2-12.2c0-1.7-2.7-3-4.6-3.8c3-5.9,5.2-11.4,5.2-13.2
		c0-2.3-3.2-4.7-4.6-4.7c-1.8,0-8.2,7.5-8.2,12.6c0,2.9,1.8,4.2,3.7,5.3c-0.8,1.7-1.7,3.7-2.5,5.4c0,0,0,0,0,0.1
		c-0.6,1.1-5.2,11-12.7,11c-1.7,0-2-2.3-2-4.2c0-1.3,0.3-2.7,0.9-4.3c0.7,0.7,1.7,1.3,3.2,1.3c4,0,7.5-4.6,7.5-8.1
		c0-0.3,0-0.5,0-0.6c0,0,0.1,0,0.3,0c0.5,0-0.2-4.5-4.2-4.5c-3.3,0-7.4,4.5-9.5,9.2c-5,9.4-10.3,14.4-13.9,18.8c2-8,9-22,11.7-25
		c0.5-0.9-2.1-3-3.1-3c-0.5,0-1.3,0.9-2.2,2.6c-4.3,4.7-13.6,16.1-14.2,16.1c-0.3-2.9,7.5-15.1,7.5-15.7c0-0.6-1.4-3-2.5-3
		c-0.7,0-3.5,4.5-5.9,9.3c-1.1,1.4-5.3,10-8.5,10c-0.9,0,2.7-6.8,2.7-7.3c0-0.5-2.4-3.3-2.8-3.3c-0.1,0-0.3,0.2-0.5,0.5
		c-1.8,2.3-7.9,10.9-11.5,10.9c-0.6,0-1-0.4-1-1.1c0-5.6,9.7-15.5,13.7-15.5c1.9,0,1.4,2.3,2.6,2.3c1,0,0-5.9-3.6-5.9
		c-4.6,0-15.5,10.3-15.5,17.1c0,2.2,3.2,6.4,5.9,6.4c1.6,0,4.3-2,6.6-4.3v0.3c0,1.2,2.4,4,3.9,4c1.4,0,3.2-1.3,4.7-3.1
		c0.8,1.4,3.1,3.1,4.4,3.1c0.7,0,4.1-3.4,7.7-7.2c-4.5,11.2-8.9,24.3-8.7,26c0,0.8,4,4.2,3.9,2.4c-0.6-5.7,10.8-17.3,17.8-27.3
		c1.1,3.2,4.1,6.1,6.6,6.1c7,0,13.2-9.9,13.6-12l3.1-6.1c0.8,0.3,1.9,0.9,1.9,1.1c0,2-4.3,7.9-4.3,12.2c0,3.2,3.2,4.8,3.9,4.8
		c4,0,10.7-10.3,11.5-12.1C245.9,24.2,243.3,22.4,242.6,23.5z M175.9,16.2c-0.3,0.1-0.5,0.3-0.8,0.5l-0.8,0.6l-1.6,1.2l-0.5,0.4
		l0.5-0.5c0.2-0.2,0.4-0.4,0.7-0.6l0.8-0.6c0.3-0.2,0.6-0.4,0.9-0.5C175.4,16.4,175.6,16.3,175.9,16.2c0.2-0.2,0.4-0.3,0.5-0.4
		c0,0,0.1,0,0.1,0l-0.1,0.1C176.3,16,176.1,16.1,175.9,16.2z M165.4,26.1c-0.2,0.3-0.3,0.5-0.5,0.8l-0.4,0.8c-0.2,0.5-0.4,1-0.5,1.4
		c0,0.1-0.1,0.3-0.2,0.6c-0.1,0.2-0.1,0.3-0.1,0.5l-0.1,0.4v0.3c0,0,0,0.1,0,0.2v-0.2c0-0.2,0-0.4,0-0.7l0.1-0.5
		c0-0.2,0-0.4,0.2-0.6c0.1-0.5,0.3-0.9,0.5-1.4l0.4-0.8l0.4-0.8c0.3-0.5,0.7-1.1,1-1.7c0.4-0.5,0.8-1.1,1.3-1.7
		c0.5-0.6,1-1.1,1.4-1.7c1-1.1,2.1-2.1,3.2-2.9c1.1-0.9,2.1-1.6,3.1-2.2c0.5-0.3,0.9-0.5,1.3-0.7c0.2-0.1,0.4-0.1,0.5-0.3
		c0.2,0,0.4-0.1,0.5-0.2l0.4-0.1c0.1,0,0.2,0,0.3,0h0.2c0,0,0,0-0.2,0s-0.2,0-0.3,0l-0.4,0.1c-0.2,0-0.4,0.1-0.5,0.2
		c-0.2,0.1-0.4,0.1-0.5,0.3c-0.4,0.2-0.8,0.4-1.3,0.8c-0.5,0.3-1,0.6-1.5,1c-0.5,0.3-1,0.8-1.5,1.2c-1,0.9-2.1,1.9-3.1,2.9
		c-0.5,0.5-1,1.1-1.4,1.6c-0.5,0.5-0.8,1.1-1.3,1.7C166,25,165.7,25.6,165.4,26.1z M171.1,32.5c0.2-0.2,0.4-0.4,0.7-0.7l0.8-0.8
		l0.8-0.8c0.3-0.3,0.5-0.5,0.7-0.8l0.5-0.5l0.2-0.2l-0.2,0.2c-0.1,0.1-0.3,0.4-0.4,0.6c-0.2,0.2-0.4,0.5-0.7,0.8
		c-0.2,0.3-0.5,0.5-0.8,0.8s-0.5,0.6-0.8,0.8C171.6,32.2,171.4,32.4,171.1,32.5c-0.3,0.3-0.4,0.4-0.5,0.5
		C170.7,32.9,170.8,32.7,171.1,32.5z M174.6,33.3c-0.2,0.2-0.4,0.4-0.7,0.6c-0.3,0.3-0.6,0.5-1,0.8c-0.4,0.3-0.7,0.6-1.2,0.9
		l-0.6,0.4l-0.6,0.3c-0.2,0.1-0.4,0.2-0.6,0.3c-0.2,0.1-0.4,0.1-0.5,0.2c-0.1,0-0.2,0-0.3,0h-0.3c-0.1,0-0.3,0-0.4,0l-0.3-0.1
		c0,0,0.1,0,0.3,0h0.4c0.1,0,0.2,0,0.3,0c0.1,0,0.2,0,0.3,0c0.2,0,0.4,0,0.5-0.2c0.2-0.1,0.4-0.2,0.6-0.3c0.2-0.1,0.4-0.2,0.6-0.3
		l0.6-0.4c0.5-0.3,0.8-0.5,1.2-0.8c0.4-0.3,0.7-0.5,1-0.8L174.6,33.3l0.3-0.3L174.6,33.3z M189.9,20.9c0.4-0.6,0.7-1.2,1-1.6
		l0.7-1.1c0.1-0.1,0.2-0.2,0.2-0.3l0.1-0.1c0,0.1-0.1,0.3-0.3,0.4l-0.6,1.1c-0.3,0.5-0.5,1-0.8,1.6l-1,1.8l-0.6,1.1
		c-0.1-0.1-0.1-0.2-0.2-0.3c0.2-0.4,0.3-0.7,0.5-1.1l0.5-0.9L189.9,20.9z M188.4,22.5c0.1-0.3,0.3-0.5,0.4-0.8s0.2-0.4,0.3-0.5
		l0.1-0.2c-0.1,0.2-0.2,0.5-0.3,0.8l-0.8,1.7c0,0,0,0,0,0.1c0,0-0.1-0.1-0.1-0.1c0,0,0,0,0,0L188.4,22.5z M193.6,30.9
		c-0.4,0.5-0.8,0.8-1.1,1.2l-1,1c-0.3,0.3-0.6,0.5-0.8,0.6l-0.2,0.2c0,0,0,0-0.1,0l0.3-0.3c0.2-0.2,0.4-0.4,0.7-0.7l1-1
		c0.3-0.4,0.7-0.8,1.1-1.2l1.9-2.3c0.3-0.3,0.5-0.6,0.6-0.8c0.1-0.1,0.2-0.2,0.3-0.3c0,0.1-0.1,0.2-0.2,0.3
		c-0.1,0.2-0.3,0.5-0.6,0.8c-0.3,0.3-0.5,0.7-0.9,1.1L193.6,30.9z M195.3,29.3l-0.4,0.4c0,0,0-0.1,0.1-0.1
		C195.1,29.5,195.2,29.4,195.3,29.3l0.9-1.2l1.3-1.6l0.6-0.8c-0.1,0.3-0.3,0.6-0.4,0.9v0c-0.5,0.6-1,1.1-1.4,1.6L195.3,29.3z
		 M191.4,49.7l-0.5,1.5c-0.1,0.5-0.3,1.1-0.5,1.7l-0.5,1.7c-0.2,0.5-0.3,1-0.4,1.5c-0.1,0.5-0.2,0.8-0.2,1.1v0.3c0-0.1,0-0.2,0-0.3
		c0-0.3,0-0.7,0.1-1.1c0.1-0.5,0.2-1,0.3-1.5l0.5-1.7l0.5-1.7l0.5-1.5c0.1-0.5,0.3-0.7,0.4-1C191.6,48.8,191.5,49.2,191.4,49.7z
		 M191.9,43.9L191.9,43.9C191.9,43.9,191.9,43.9,191.9,43.9C191.9,43.9,191.9,43.9,191.9,43.9z M194.8,35.7
		c-0.3,0.7-0.5,1.4-0.8,2.2c-0.5,1.6-1,3.1-1.5,4.2l-0.5,1.4c-0.1,0.1-0.1,0.1-0.1,0.2l0.1-0.2l0.5-1.4c0.2-0.5,0.4-1.2,0.7-1.9
		l0.8-2.3c0.3-0.8,0.5-1.5,0.8-2.2l0.8-1.9l0.5-1.4l0.2-0.5l-0.6,1.9C195.3,34.3,195.1,35,194.8,35.7z M220.3,20.9
		c-0.1,0.2-0.2,0.5-0.4,0.9c-0.1,0.2-0.2,0.3-0.3,0.5l-0.4,0.6l-0.5,0.6c-0.2,0.2-0.3,0.4-0.6,0.5l-0.3,0.3
		c-0.1,0.1-0.2,0.1-0.3,0.2l-0.7,0.3c-0.2,0.1-0.5,0.1-0.7,0.3l-0.6,0.1c-0.2,0-0.4,0-0.5,0h-0.4h-0.3c0.1,0,0.2,0,0.3,0h0.4
		l0.5-0.1c0.2,0,0.4,0,0.6-0.1c0.2-0.1,0.5-0.1,0.7-0.3l0.7-0.3c0.1-0.1,0.2-0.1,0.3-0.2l0.3-0.3c0.2-0.1,0.4-0.3,0.6-0.5l0.5-0.5
		l0.4-0.6c0.2-0.2,0.3-0.4,0.3-0.5L220.3,20.9c0-0.2,0-0.3,0.1-0.3c0,0,0,0,0-0.1L220.3,20.9z M214.4,24.9c-0.4,0-0.6,0-0.8-0.1
		c1.8-3.7,4.9-7.2,7-7.2c0.2,0,0.3,0,0.5,0C220.4,20.3,219,24.9,214.4,24.9z M212.5,19.9c0.2-0.3,0.5-0.8,0.9-1.3s0.9-1.1,1.5-1.6
		l1-0.8c0.4-0.3,0.7-0.5,1.1-0.7c0.4-0.2,0.8-0.4,1.2-0.5c0.5-0.2,0.9-0.2,1.3-0.3c0.4,0,0.8,0,1.2,0.1l0.3,0.1
		c0.2,0,0.3,0.1,0.3,0.1c0.1,0,0.2,0.1,0.2,0.1c0.1,0,0.2,0.1,0.3,0.1c0.3,0.2,0.5,0.4,0.8,0.5c0.2,0.2,0.4,0.3,0.5,0.5l0.3,0.3
		l0.1,0.1c0,0-0.1,0-0.1-0.1c-0.1,0-0.2-0.2-0.3-0.3c-0.2-0.1-0.3-0.3-0.5-0.4c-0.3-0.2-0.5-0.3-0.8-0.5c-0.1,0-0.2,0-0.2-0.1
		l-0.3-0.1l-0.3-0.1c-0.1,0-0.1,0-0.3,0c-0.4-0.1-0.8-0.1-1.1-0.1c-0.5,0-0.8,0.2-1.2,0.3c-0.4,0.1-0.8,0.3-1.2,0.5
		c-0.3,0.2-0.7,0.4-1.1,0.7c-0.3,0.3-0.7,0.5-1,0.8l-0.8,0.8c-0.3,0.3-0.5,0.5-0.7,0.8C213.1,19.2,212.8,19.7,212.5,19.9
		c-0.1,0.2-0.2,0.3-0.2,0.4C212.3,20.2,212.4,20.1,212.5,19.9z M211.3,22.1l0.5-0.7c0.2-0.2,0.3-0.4,0.5-0.6
		c0.1-0.2,0.3-0.4,0.4-0.5l0.7-0.7c-0.1,0.2-0.3,0.5-0.6,0.8l-0.4,0.5l-0.4,0.6l-0.5,0.7c-0.1,0.2-0.3,0.4-0.4,0.7
		c0,0.1-0.1,0.1-0.1,0.2c-0.1,0-0.1,0-0.2,0l0.1-0.2L211.3,22.1z M205.2,31.9l-0.2,0.3c-0.2,0.3-0.5,0.7-0.8,1.2
		c-0.2,0.3-0.4,0.5-0.5,0.8c-0.2,0.3-0.4,0.5-0.7,0.8c-0.5,0.6-1,1.2-1.5,1.8l-1.6,1.7c-0.5,0.5-1,1-1.4,1.4
		c-0.2,0.3-0.4,0.4-0.6,0.6l-0.4,0.5l-0.3,0.3l-0.1,0.1h0c0,0,0,0,0,0s0,0,0-0.1c0-0.1,0.1-0.2,0.3-0.3l0.9-1.1
		c0.8-0.9,1.8-2.1,2.9-3.2c1-1.2,2-2.4,2.8-3.4c0.3-0.5,0.7-0.8,0.8-1.1C205,32.1,205.1,32,205.2,31.9l0-0.2l0,0L205.2,31.9z
		 M220,33.9c-0.3,0.2-0.7,0.4-1.1,0.6l-0.6,0.3c-0.2,0.1-0.4,0.1-0.6,0.2c-0.3,0.1-0.5,0.1-0.7,0.2l-0.7,0.1c-0.3,0-0.5,0.1-0.6,0.1
		c-0.1,0-0.3,0-0.5,0c-0.1,0-0.3,0-0.5,0h-0.4h-0.3c0,0,0.1,0,0.3,0c0.1,0,0.3,0,0.4,0c0.2,0,0.3,0,0.5,0c0.2,0,0.3,0,0.5,0l0.6-0.1
		L217,35c0.2-0.1,0.4-0.1,0.6-0.2c0.3,0,0.5-0.1,0.7-0.2s0.4-0.1,0.6-0.3C219.3,34.2,219.7,34,220,33.9c0.3-0.2,0.5-0.3,0.7-0.5
		C220.5,33.6,220.3,33.7,220,33.9z M234.5,7.2C234.5,7.2,234.5,7.2,234.5,7.2C234.5,7.2,234.5,7.2,234.5,7.2L234.5,7.2z M226.9,15.8
		c-0.1-0.1-0.2-0.3-0.3-0.5l-0.3-0.8c0-0.2-0.1-0.4-0.1-0.5c0-0.2-0.1-0.4-0.1-0.5c0-0.2,0-0.4,0-0.5c0-0.2,0-0.4,0-0.5
		c0-0.1,0-0.3,0.1-0.5l0.1-0.4l0.2-0.6c0,0,0-0.1,0-0.2s0,0,0,0v0c0,0,0,0.1,0,0.2c0,0.2,0,0.4-0.2,0.6l-0.1,0.8c0,0.2,0,0.4,0,0.5
		v0.5c0,0.2,0,0.3,0,0.5l0.1,0.5c0.1,0.3,0.2,0.6,0.3,0.8C226.8,15.5,226.8,15.7,226.9,15.8c0.1,0.1,0.1,0.1,0.1,0.1L226.9,15.8z
		 M227.9,7.7L227,9.5l-0.3,0.8l-0.3,0.8c-0.1,0.3-0.2,0.5-0.2,0.6l-0.1,0.5c0,0.1,0,0.2,0,0.3v0.1c0,0,0,0,0,0v-0.1
		c0-0.1,0-0.2,0-0.3c0-0.2,0-0.4,0-0.5c0-0.2,0-0.4,0.2-0.7c0-0.2,0.1-0.5,0.2-0.8l0.3-0.9l0.4-0.9c0.2-0.3,0.3-0.6,0.5-0.9l0.5-0.9
		c0.2-0.3,0.3-0.5,0.5-0.8l0.5-0.8c0.2-0.2,0.3-0.5,0.5-0.6c0.3-0.5,0.6-0.7,0.8-1l0.2-0.3l0.1-0.1l-0.3,0.4c-0.2,0.3-0.4,0.5-0.7,1
		l-0.4,0.7L228.8,6l-0.5,0.8L227.9,7.7z M228.7,14.2c0-4,5.5-10.9,6.5-10.9c0.6,0-1.8,6.3-5.2,13.3C229.1,16,228.7,15.3,228.7,14.2z
		 M232,13.9c-0.3,0.6-0.5,1.1-0.8,1.5c-0.2,0.5-0.4,0.7-0.5,1l-0.3,0.4h0l0.7-1.5c0.4-0.9,0.9-2.1,1.4-3.3c0.5-1.2,1-2.3,1.4-3.3
		c0.2-0.5,0.3-0.8,0.5-1.1c0.1-0.1,0.1-0.2,0.1-0.3c0,0.1,0,0.2,0,0.3c-0.1,0.3-0.2,0.7-0.3,1.1l-0.3,0.8l-0.3,0.8
		c-0.2,0.6-0.4,1.1-0.7,1.8L232,13.9z M230.9,31c0,0,0,0.2,0,0.4l-0.1,1.1c0,0.5,0,0.8,0,1.1c0,0.2,0,0.3,0,0.4l-0.1-0.4
		c-0.1-0.3-0.1-0.7-0.1-1.1c0-0.5,0.1-0.8,0.2-1.1C230.8,31.2,230.8,31.1,230.9,31c0,0,0-0.1,0-0.1V31z M232.1,27.6
		c-0.1,0.2-0.2,0.5-0.3,0.9c-0.1,0.4-0.2,0.8-0.3,1.3c-0.1,0.2-0.1,0.4-0.2,0.7c-0.1,0.3-0.1,0.5-0.1,0.8s-0.1,0.5-0.1,0.8
		c0,0.3,0,0.5,0,0.8c0,0.3,0,0.5,0,0.7c0,0.1,0,0.2,0,0.3l0.1,0.3c0,0,0,0.1,0.1,0.3s0,0.2,0.1,0.2c0,0.1,0.1,0.3,0.2,0.4l0.1,0.2
		c0,0,0,0.1,0,0.1c0,0,0,0,0-0.1l-0.2-0.2c0-0.1-0.2-0.2-0.2-0.4c0-0.1-0.1-0.1-0.1-0.2s-0.1-0.2-0.1-0.3c0-0.1-0.1-0.2-0.1-0.3
		l-0.1-0.3l-0.1-0.7c0-0.3,0-0.5,0-0.8c0-0.3,0-0.5,0.1-0.8l0.1-0.8c0-0.3,0.1-0.5,0.2-0.8l0.4-1.3L232.1,27.6c0-0.2,0-0.3,0-0.3
		C232.2,27.4,232.1,27.5,232.1,27.6z"/>
	<path class="st0" d="M262.4,21.9c-2,0-4.4,3.2-4.4,4.8c0,1.6,2,3.6,3.5,3.6c1.5,0,4.7-1.7,4.7-3.7C266.2,24.5,264,21.9,262.4,21.9z
		"/>
	<path class="st0" d="M304.6,4c-0.8,0-12.1,30.7-17.8,30.7c-1,0-1.3-1.3-1.3-3.3c0-7.6,9.4-24.7,9.4-25.2c0-0.5-2-2.6-3.2-2.6
		c-0.7,0-9.7,20.3-9.7,25.5c0,6.4,5.7,8.4,6.9,8.4c5.9,0,16.7-25.9,18.8-31.1C308,5.7,305.3,4,304.6,4z M290.9,7.2l0.6-1.4
		c0.2-0.5,0.3-0.7,0.5-1c0.1-0.1,0.2-0.3,0.2-0.4L292,4.8l-0.4,1L291,7.3c-0.3,0.5-0.4,1.1-0.7,1.6l-1.3,3l-0.6,1.4l0.1-0.4
		c0.1-0.3,0.3-0.5,0.4-1l0.5-1.4c0.3-0.5,0.4-1.1,0.7-1.6C290.5,8.3,290.6,7.7,290.9,7.2z M283.5,24.7l-0.5,2.1
		c-0.1,0.7-0.3,1.3-0.3,2c-0.1,0.6-0.1,1.2,0,1.6v0.4l0.1,0.3c0,0.2,0.1,0.4,0.1,0.6c0,0.2,0.1,0.3,0.2,0.4c0,0.2,0.1,0.3,0.1,0.3
		c0-0.1-0.1-0.2-0.2-0.3s-0.2-0.3-0.2-0.5s-0.1-0.4-0.1-0.6c0-0.1-0.1-0.2-0.1-0.3s0-0.2,0-0.3c-0.1-0.5-0.1-1,0-1.7
		c0-0.6,0.2-1.3,0.3-2c0.1-0.7,0.3-1.4,0.5-2.1c0.5-1.5,1-3.1,1.5-4.6c0.6-1.5,1.2-3,1.8-4.5c0.6-1.5,1.2-2.7,1.7-3.9l1.2-2.7
		c0.1-0.3,0.2-0.6,0.3-0.8l0.1-0.3l-0.1,0.3c-0.1,0.2-0.2,0.5-0.3,0.8c-0.3,0.7-0.6,1.6-1.1,2.8l-1.6,3.9c-0.6,1.5-1.2,3-1.8,4.5
		C284.5,21.7,284,23.2,283.5,24.7z M299.6,22.8l-0.8,1.6c-0.3,0.6-0.6,1.2-1,1.8l-1,1.8c-0.3,0.6-0.7,1.1-1,1.6s-0.5,0.8-0.7,1.1
		c0.2-0.3,0.3-0.6,0.6-1.1l0.9-1.6l1-1.8c0.3-0.6,0.7-1.2,1-1.8C299,23.7,299.3,23.2,299.6,22.8c0.2-0.5,0.4-0.9,0.5-1.2
		C300,21.9,299.9,22.3,299.6,22.8z"/>
	<path class="st0" d="M356.9,23.5c-0.8,1.5-6.1,10.6-9,10.6c-1.4,0,4.2-10.5,4.2-12.2c0-1.7-2.7-3-4.6-3.8c3-5.9,5.2-11.4,5.2-13.2
		c0-2.3-3.2-4.7-4.6-4.7c-1.8,0-8.2,7.5-8.2,12.6c0,2.9,1.8,4.2,3.7,5.3c-0.8,1.7-1.7,3.7-2.5,5.4c0,0,0,0,0,0.1
		c-0.6,1.1-5.2,11-12.7,11c-1.7,0-2-2.3-2-4.2c0-1.3,0.3-2.7,0.9-4.3c0.7,0.7,1.7,1.3,3.2,1.3c4,0,7.5-4.6,7.5-8.1
		c0-0.3,0-0.5,0-0.6c0,0,0.1,0,0.3,0c0.5,0-0.2-4.5-4.2-4.5c-3.7,0-8.4,5.6-10.2,10.8c-1.3,2.3-3.3,4.9-6.1,6.8
		c0-0.5,0.1-0.9,0.1-1.6c0-4.4-9.7-5.8-9.7-6.3c0.2-3,8.5-6.5,8.5-5.8c-0.1,0.8-1.8,3.5-1.9,4.3c-0.1,0.8,2.2,0.8,2.6,0.8
		c0.3,0,2.3-2.8,2.4-4.5c0.1-1.7-0.5-4.7-2.4-4.7c-2.8,0-11.4,3.8-11.9,9.5c-0.5,6.2,10.5,5.3,10.3,7.7c-0.3,2.9-9,4.2-8.7-0.7
		c0-0.3-1-0.3-1.2,2c-0.2,2.3,1.1,5.2,4.4,5.2c0.4,0,0.8,0,1.1-0.1c5.4-0.1,9.4-3,12.2-6.3c1.1,3.3,4.1,6.3,6.7,6.3
		c7,0,13.2-9.9,13.6-12l3.1-6.1c0.8,0.3,1.9,0.9,1.9,1.1c0,2-4.3,7.9-4.3,12.2c0,3.2,3.2,4.8,3.9,4.8c4,0,10.7-10.3,11.5-12.1
		C360.2,24.2,357.5,22.4,356.9,23.5z M315.4,14.6L315.4,14.6C315.5,14.7,315.5,14.7,315.4,14.6l-0.1,0
		C315.3,14.7,315.4,14.6,315.4,14.6z M306.3,21.4l-0.2,0.4c0,0.1-0.1,0.2-0.2,0.4c0,0.2-0.1,0.3-0.1,0.3c0,0.1,0,0.2,0,0.3
		c0,0.2-0.1,0.3-0.1,0.5c0-0.2,0-0.3,0-0.5c0-0.1,0-0.2,0-0.3l0.1-0.4C305.9,21.9,306,21.7,306.3,21.4c0.1-0.3,0.3-0.6,0.5-0.9
		c0.2-0.3,0.5-0.6,0.8-0.9c0.6-0.6,1.2-1.2,1.9-1.7c0.7-0.5,1.4-1,2.1-1.4c0.7-0.5,1.3-0.7,1.9-1c0.6-0.3,1.1-0.5,1.5-0.6
		c0.1,0,0.1,0,0.1,0c0,0-0.1,0-0.1,0.1l-1.4,0.6c-1.1,0.5-2.6,1.4-4,2.5c-0.7,0.5-1.3,1.1-1.9,1.7l-0.8,0.9
		C306.6,20.8,306.4,21.1,306.3,21.4z M306.8,21.4l-0.1,0.2c0,0,0,0.1-0.1,0.1c0,0,0,0.1,0,0.1c0,0,0,0,0,0c0,0,0-0.1,0-0.1
		L306.8,21.4c0.1-0.3,0.3-0.7,0.6-1l0.8-0.8c0.1-0.1,0.2-0.2,0.3-0.3l0.1-0.1l-0.1,0.1c-0.1,0.1-0.2,0.2-0.3,0.3
		c-0.2,0.3-0.5,0.5-0.8,0.9S307,21.1,306.8,21.4z M314.3,33.3c-0.1,0-0.2,0.1-0.3,0.2c-0.1,0-0.3,0.1-0.4,0.2
		c-0.1,0-0.3,0.1-0.5,0.2l-0.6,0.2c-0.4,0.1-0.8,0.2-1.3,0.2h-0.6H310l-0.5-0.1L309,34l-0.4-0.1l-0.3-0.1c-0.1,0-0.2-0.1-0.2-0.1
		l0,0l0.3,0.1c0,0,0.2,0.1,0.3,0.1l0.4,0.1l0.5,0.1c0.2,0,0.4,0,0.6,0c0.2,0,0.4,0,0.6,0h0.6l1.3-0.2c0.4-0.1,0.7-0.2,1-0.3
		c0.2,0,0.3-0.1,0.4-0.2C314.2,33.4,314.3,33.3,314.3,33.3l0.2-0.1L314.3,33.3z M334.6,20.9c-0.1,0.2-0.2,0.5-0.4,0.9
		c-0.1,0.2-0.2,0.3-0.3,0.5l-0.4,0.6l-0.5,0.6c-0.2,0.2-0.3,0.4-0.6,0.5l-0.3,0.3c-0.1,0.1-0.2,0.1-0.3,0.2l-0.7,0.3
		c-0.2,0.1-0.5,0.1-0.7,0.3l-0.6,0.1c-0.2,0-0.4,0-0.5,0h-0.4h-0.3c0.1,0,0.2,0,0.3,0h0.4l0.5-0.1c0.2,0,0.4,0,0.6-0.1
		c0.2-0.1,0.5-0.1,0.7-0.3l0.7-0.3c0.1-0.1,0.2-0.1,0.3-0.2l0.3-0.3c0.2-0.1,0.4-0.3,0.6-0.5l0.5-0.5l0.4-0.6
		c0.2-0.2,0.3-0.4,0.3-0.5L334.6,20.9c0-0.2,0-0.3,0.1-0.3c0,0,0,0,0-0.1L334.6,20.9z M328.6,24.9c-0.4,0-0.6,0-0.8-0.1
		c1.8-3.7,4.9-7.2,7-7.2c0.2,0,0.3,0,0.5,0C334.7,20.3,333.3,24.9,328.6,24.9z M326.8,19.9c0.2-0.3,0.5-0.8,0.9-1.3s0.9-1.1,1.5-1.6
		l1-0.8c0.4-0.3,0.7-0.5,1.1-0.7c0.4-0.2,0.8-0.4,1.2-0.5c0.5-0.2,0.9-0.2,1.3-0.3c0.4,0,0.8,0,1.2,0.1l0.3,0.1
		c0.2,0,0.3,0.1,0.3,0.1c0.1,0,0.2,0.1,0.2,0.1c0.1,0,0.2,0.1,0.3,0.1c0.3,0.2,0.5,0.4,0.8,0.5c0.2,0.2,0.4,0.3,0.5,0.5l0.3,0.3
		l0.1,0.1c0,0-0.1,0-0.1-0.1c-0.1,0-0.2-0.2-0.3-0.3c-0.2-0.1-0.3-0.3-0.5-0.4c-0.3-0.2-0.5-0.3-0.8-0.5c-0.1,0-0.2,0-0.2-0.1
		l-0.3-0.1l-0.3-0.1c-0.1,0-0.1,0-0.3,0c-0.4-0.1-0.8-0.1-1.1-0.1c-0.5,0-0.8,0.2-1.2,0.3c-0.4,0.1-0.8,0.3-1.2,0.5
		c-0.3,0.2-0.7,0.4-1.1,0.7c-0.3,0.3-0.7,0.5-1,0.8l-0.8,0.8c-0.3,0.3-0.5,0.5-0.7,0.8C327.4,19.2,327.1,19.7,326.8,19.9
		c-0.1,0.2-0.2,0.3-0.2,0.4C326.6,20.2,326.6,20.1,326.8,19.9z M325.6,22.1l0.5-0.7c0.2-0.2,0.3-0.4,0.5-0.6
		c0.1-0.2,0.3-0.4,0.4-0.5l0.7-0.7c-0.1,0.2-0.3,0.5-0.6,0.8l-0.4,0.5l-0.4,0.6l-0.5,0.7c-0.1,0.2-0.3,0.4-0.4,0.7c0,0,0,0.1,0,0.1
		c-0.1,0-0.1,0-0.2,0l0.1-0.1L325.6,22.1z M334.3,33.9c-0.3,0.2-0.7,0.4-1.1,0.6l-0.6,0.3c-0.2,0.1-0.4,0.1-0.6,0.2
		c-0.3,0.1-0.5,0.1-0.7,0.2l-0.7,0.1c-0.3,0-0.5,0.1-0.6,0.1c-0.1,0-0.3,0-0.5,0c-0.1,0-0.3,0-0.5,0h-0.4h-0.3c0,0,0.1,0,0.3,0
		c0.1,0,0.3,0,0.4,0c0.2,0,0.3,0,0.5,0c0.2,0,0.3,0,0.5,0l0.6-0.1l0.7-0.1c0.2-0.1,0.4-0.1,0.6-0.2c0.3,0,0.5-0.1,0.7-0.2
		s0.4-0.1,0.6-0.3C333.6,34.2,334,34,334.3,33.9c0.3-0.2,0.5-0.3,0.7-0.5C334.8,33.6,334.6,33.7,334.3,33.9z M348.8,7.2
		C348.8,7.2,348.8,7.2,348.8,7.2C348.8,7.2,348.8,7.2,348.8,7.2L348.8,7.2z M341.2,15.8c-0.1-0.1-0.2-0.3-0.3-0.5l-0.3-0.8
		c0-0.2-0.1-0.4-0.1-0.5c0-0.2-0.1-0.4-0.1-0.5c0-0.2,0-0.4,0-0.5c0-0.2,0-0.4,0-0.5c0-0.1,0-0.3,0.1-0.5l0.1-0.4l0.2-0.6
		c0,0,0-0.1,0-0.2s0,0,0,0v0c0,0,0,0.1,0,0.2c0,0.2,0,0.4-0.2,0.6l-0.1,0.8c0,0.2,0,0.4,0,0.5v0.5c0,0.2,0,0.3,0,0.5l0.1,0.5
		c0.1,0.3,0.2,0.6,0.3,0.8C341.1,15.5,341.1,15.7,341.2,15.8c0.1,0.1,0.1,0.1,0.1,0.1L341.2,15.8z M342.1,7.7l-0.9,1.7l-0.3,0.8
		l-0.3,0.8c-0.1,0.3-0.2,0.5-0.2,0.6l-0.1,0.5c0,0.1,0,0.2,0,0.3v0.1c0,0,0,0,0,0v-0.1c0-0.1,0-0.2,0-0.3c0-0.2,0-0.4,0-0.5
		c0-0.2,0-0.4,0.2-0.7c0-0.2,0.1-0.5,0.2-0.8l0.3-0.9l0.4-0.9c0.2-0.3,0.3-0.6,0.5-0.9l0.5-0.9c0.2-0.3,0.3-0.5,0.5-0.8l0.5-0.8
		c0.2-0.2,0.3-0.5,0.5-0.6c0.3-0.5,0.6-0.7,0.8-1l0.2-0.3l0.1-0.1l-0.3,0.4c-0.2,0.3-0.4,0.5-0.7,1l-0.4,0.7L343.1,6l-0.5,0.8
		L342.1,7.7z M342.9,14.2c0-4,5.5-10.9,6.5-10.9c0.6,0-1.8,6.3-5.2,13.3C343.4,16,342.9,15.3,342.9,14.2z M346.2,13.9
		c-0.3,0.6-0.5,1.1-0.8,1.5c-0.2,0.5-0.4,0.7-0.5,1l-0.3,0.4h0l0.7-1.5c0.4-0.9,0.9-2.1,1.4-3.3c0.5-1.2,1-2.3,1.4-3.3
		c0.2-0.5,0.3-0.8,0.5-1.1c0.1-0.1,0.1-0.2,0.1-0.3c0,0.1,0,0.2,0,0.3c-0.1,0.3-0.2,0.7-0.3,1.1l-0.3,0.8l-0.3,0.8
		c-0.2,0.6-0.4,1.1-0.7,1.8L346.2,13.9z M345.2,31c0,0,0,0.2,0,0.4l-0.1,1.1c0,0.5,0,0.8,0,1.1c0,0.2,0,0.3,0,0.4l-0.1-0.4
		c-0.1-0.3-0.1-0.7-0.1-1.1c0-0.5,0.1-0.8,0.2-1.1C345,31.2,345.1,31.1,345.2,31c0,0,0-0.1,0-0.1V31z M346.4,27.6
		c-0.1,0.2-0.2,0.5-0.3,0.9c-0.1,0.4-0.2,0.8-0.3,1.3c-0.1,0.2-0.1,0.4-0.2,0.7c-0.1,0.3-0.1,0.5-0.1,0.8s-0.1,0.5-0.1,0.8
		c0,0.3,0,0.5,0,0.8c0,0.3,0,0.5,0,0.7c0,0.1,0,0.2,0,0.3l0.1,0.3c0,0,0,0.1,0.1,0.3s0,0.2,0.1,0.2c0,0.1,0.1,0.3,0.2,0.4l0.1,0.2
		c0,0,0,0.1,0,0.1c0,0,0,0,0-0.1l-0.2-0.2c0-0.1-0.2-0.2-0.2-0.4c0-0.1-0.1-0.1-0.1-0.2s-0.1-0.2-0.1-0.3c0-0.1-0.1-0.2-0.1-0.3
		l-0.1-0.3l-0.1-0.7c0-0.3,0-0.5,0-0.8c0-0.3,0-0.5,0.1-0.8l0.1-0.8c0-0.3,0.1-0.5,0.2-0.8l0.4-1.3L346.4,27.6c0-0.2,0-0.3,0-0.3
		C346.5,27.4,346.4,27.5,346.4,27.6z"/>
	<path class="st0" d="M383.8,33.3c-2.8,0-7.6-0.2-10.3,0c1.1-3.1,2.7-7.4,4.5-11.9c2.8,0,8.3,0,8.9,0c0.7,0,0.7-0.2,0.9-0.5
		c0.3-0.4,0.5-1.9,0.5-2.4c0.1-0.6-0.1-0.7-0.6-0.7c-0.4,0-5.7,0-8.2-0.2c1.4-3.5,2.9-6.8,4.4-9.8c5.8-0.3,12.8,0.2,13.3,0.2
		s1-3.4,0.8-3.7C397.8,4,388.8,4,383,4c-0.3-0.3-0.5-0.4-0.8-0.4c0,0-0.1,0.1-0.3,0.4c-2.1,0-3.6,0.1-3.7,0.2
		c-0.5,0.5,0,0.4,0.1,2.4c0,1.4,0.6,1.6,1.6,1.5c-3.9,8.7-11.1,26.7-11.1,27.6c0,0.2,0.1,0.4,0.3,0.7c0,0.5,0,0.8,0,0.8
		c0.1,0.1,0.5,0.1,1.2,0.1c0.9,0.4,1.4,0.5,1.6,0.5c0.1,0,0.2-0.2,0.3-0.6c1.8-0.1,4.1-0.2,6-0.2c3.8,0,10.4,0.6,11,0.6
		s0.8-3.3,0.6-3.6C389.5,33.6,387.2,33.3,383.8,33.3z M391,4.3c0.4,0,0.8,0,1.3,0c0.5,0,0.9,0,1.4,0c0.5,0,0.9,0,1.4,0
		c0.5,0,0.9,0,1.3,0c0.3,0,0.7,0.1,0.9,0.1c0,0,0.1,0,0.2,0c0,0,0,0,0.1,0h-0.1c0,0-0.1,0-0.2,0c-0.2,0-0.5,0-0.9,0h-2.6
		c-0.5,0-1,0-1.4,0S391.4,4.4,391,4.3c-0.4,0.1-0.6,0-0.8,0C390.4,4.4,390.6,4.3,391,4.3z M389,4.9c0.1,0,0.3,0,0.6,0s0.5,0,0.8,0h1
		h1c0.3,0,0.5,0,0.8,0s0.4,0,0.6,0h0.3c-0.1,0-0.2,0-0.3,0h-0.6c-0.3,0-0.5,0-0.8,0h-1h-1c-0.3,0-0.5,0-0.8,0L389,4.9
		c-0.1,0-0.2,0-0.2,0H389z M371,31.2c0,0.1-0.1,0.3-0.2,0.5c-0.2,0.4-0.3,0.9-0.5,1.4c-0.2,0.5-0.4,1-0.5,1.4
		c-0.1,0.2-0.2,0.3-0.2,0.5c0-0.1,0-0.3,0.1-0.5c0.1-0.4,0.2-0.9,0.4-1.4c0.2-0.5,0.4-1,0.5-1.4C370.9,31.5,370.9,31.3,371,31.2
		l0-0.2C371.1,31,371.1,31.1,371,31.2z M376.4,19.1c0,0.1-0.1,0.3-0.2,0.5c-0.1,0.5-0.3,1-0.5,1.5s-0.5,1.1-0.6,1.5l-0.3,0.7
		c0,0,0-0.1,0-0.2c0-0.1,0.1-0.3,0.2-0.5c0.1-0.5,0.3-1,0.5-1.5s0.5-1.1,0.6-1.5C376.2,19.3,376.3,19.2,376.4,19.1l0-0.2
		C376.4,18.9,376.4,19,376.4,19.1z M373.5,24.7l0.7-1.9c0.3-0.8,0.7-1.7,1.1-2.7c0.4-1,0.8-2.1,1.3-3.1c0.5-1.1,0.8-2.1,1.3-3.1
		c0.5-1,0.8-1.8,1.2-2.6c0.4-0.8,0.7-1.4,0.8-1.9c0.1-0.2,0.2-0.4,0.3-0.5l0.1-0.2c0,0,0,0.1,0,0.2c0,0.1-0.1,0.3-0.2,0.5l-0.8,1.9
		c-0.3,0.8-0.6,1.7-1.1,2.7c-0.5,1-0.9,2-1.3,3.1l-2.4,5.8c-0.4,0.9-0.8,1.8-1.1,2.6L373.5,24.7z M385.1,37c-0.3,0-0.5,0-1,0
		s-0.9,0-1.4,0l-1.6-0.1c-0.5,0-1.1,0-1.6,0c-0.5,0-1,0-1.4,0h-1h-0.4c0,0,0,0,0.1,0c0.1,0,0.2,0,0.3,0c0.3,0,0.6-0.1,1-0.1
		c0.5,0,0.9-0.1,1.4-0.1c0.5,0,1,0,1.6,0c0.5,0,1.1,0,1.6,0.1c0.5,0,1,0,1.4,0.2L385.1,37c0.1,0,0.2,0,0.3,0c0,0,0,0,0.1,0H385.1z"
		/>
	<path class="st0" d="M477.7,13.5c0.6,0,3.6-4.4,3.6-4.8c0-0.4-1.9-3.3-2.8-3.3s-2.7,5-2.7,5.6C475.9,11.7,477.2,13.5,477.7,13.5z"
		/>
	<path class="st0" d="M551.5,23.3l-0.2-0.1c-0.5-0.2-0.9-0.1-1.2,0.3c-0.6,1.1-5.2,11-12.7,11c-1.7,0-2-2.3-2-4.2
		c0-1.3,0.3-2.7,0.9-4.3c0.7,0.7,1.7,1.3,3.2,1.3c4,0,7.5-4.6,7.5-8.1c0-0.3,0-0.5,0-0.6c0,0,0.1,0,0.3,0c0.5,0-0.2-4.5-4.2-4.5
		c-3.4,0-7.8,5-9.8,9.9c-2.1,2.5-8.5,10.6-14,10.6c-1.8,0-2.1-1.1-2.1-2.5c0-5.5,6.5-14.7,10.1-14.7c0.8,0,0.7,0.6,0.7,0.8
		c0,2-2.8,5.3-2.8,6c0,0.5,0.6,1.4,1.3,1.8l0.3-0.3l0.5-0.6c0.2-0.2,0.4-0.4,0.4-0.5c0.1-0.2,0.3-0.3,0.3-0.4l0.1-0.1c0,0,0,0,0,0
		l-0.1,0.2c-0.1,0.1-0.1,0.3-0.3,0.4l-0.4,0.6l-0.5,0.6c-0.1,0-0.2,0.1-0.3,0.3c0.2,0.1,0.4,0.2,0.5,0.2c0.9,0,3.3-3.9,3.3-6.4
		c0-2.6-2.2-5.8-4.7-5.8c-3.1,0-8.2,5.6-10.6,11c-2.7,4.5-6,8.3-8.3,8.3c0-2.6,6.2-12.6,6.2-15.1c0-2.2-1.7-3.6-2.4-3.9
		c0,0-0.1,0-0.2,0c0,0,0,0-0.1,0s-0.1,0-0.1,0c-0.9,0.5-5.3,5.6-8.7,9.7c1.6-3.7,3.1-7.4,3.1-8.1c0-1.4-1.7-2.6-2.6-2.6
		c-0.2,0-0.3,0.1-0.3,0.2c0,0,0,0.1,0,0.2c0,0.8-2,5.2-4.1,9.8c0,0,0,0,0,0c-0.6,1.1-5.2,11-12.7,11c-1.7,0-2-2.3-2-4.2
		c0-1.3,0.3-2.7,0.9-4.3c0.7,0.7,1.7,1.3,3.2,1.3c4,0,7.5-4.6,7.5-8.1c0-0.3,0-0.5,0-0.6c0,0,0.1,0,0.3,0c0.5,0-0.2-4.5-4.2-4.5
		c-3.6,0-8.2,5.4-10.1,10.5c-1.9,3.7-5,8.8-8.7,8.8c-1.1,0,5.6-14.2,5.6-15c0-1.2-2.1-4-2.8-3.2c-0.2,0.3-1.9,4-3.6,8.1
		c0,0-0.1,0.1-0.1,0.2c-0.8,1.5-6.1,10.6-9,10.6c-1.4,0,4.2-10.5,4.2-12.2c0-1.7-2.7-3-4.6-3.8c3-5.9,5.2-11.4,5.2-13.2
		c0-2.3-3.2-4.7-4.6-4.7c-1.8,0-8.2,7.5-8.2,12.6c0,2.9,1.8,4.2,3.7,5.3c-0.8,1.7-1.7,3.7-2.5,5.4c0,0,0,0,0,0.1
		c-0.6,1.1-5.2,11-12.7,11c-1.7,0-2-2.3-2-4.2c0-1.3,0.3-2.7,0.9-4.3c0.7,0.7,1.7,1.3,3.2,1.3c4,0,7.5-4.6,7.5-8.1
		c0-0.3,0-0.5,0-0.6c0,0,0.1,0,0.3,0c0.5,0-0.2-4.5-4.2-4.5c-3.4,0-7.6,4.7-9.7,9.5c-1.4,2.8-3.9,6.3-7.8,8.4
		c1.8-3.3,2.9-7.6,2.9-10.5c0-5.5-1.8-7.5-3.3-7.5c-1.5,0-3.7,2.2-6,5.2c0.6-1.7,0.9-2.8,0.9-3.1c0-1.3-3.1-4.8-3.1-2.1
		c0,0.6-1.4,4.4-3.3,9.2c0,0,0,0,0,0c-0.8,1.6-5.3,10.7-8,10.7c-1.5,0-3.2-1.6-4.6-4.5c5.1-6.1,10.2-13.4,10.2-14.2
		c0-1.2-0.9-3.3-1.7-3.3c-0.7,0-5.1,7.8-10,14.1c-0.9-2.7-1.5-6-1.5-9.8c0-1.2-2-2.3-3.4-2.3c0,0-0.1,0-0.1,0.1
		c-1,0.8-5,9.7-5.3,10.5c-0.3,0.9,1.8,3.3,2.3,2.4c0.7-1.3,2.1-4.8,3.2-7c0.4,2.8,1.2,6.1,2.4,9.1c-2.5,2.9-5,4.9-6.9,4.9
		c-0.8,0-1.5-0.6-1.5,0.4c0,1.1,2.2,3,3.4,3c1.3,0,3.7-2.2,6.6-5.3c1.8,3.1,4.2,5.3,7.5,5.3c0.7,0,1.5-0.3,2.2-0.8
		c-2.7,6.7-4.9,12.3-4.9,12.7c0,1,4,3.1,4,2.4c0-1,3.3-9.9,6.6-18.5c0.9,2.1,2.6,4.1,5.3,4.2h0.1h0h0.1c5.7-0.1,10-3.1,13-6.5
		c1,3.3,4.1,6.5,6.7,6.5c7,0,13.2-9.9,13.6-12l3.1-6.1c0.8,0.3,1.9,0.9,1.9,1.1c0,2-4.3,7.9-4.3,12.2c0,3.2,3.2,4.8,3.9,4.8
		c1.7,0,3.8-1.8,5.7-3.9c0.2,2.1,3.6,3.9,4.7,3.9c2.8,0,5.7-2.7,7.8-5.5c1.3,3,4,5.5,6.4,5.5c2.3,0,4.4-1,6.4-2.5
		c0.4,1.3,1.8,2.4,2.4,2.4c0.5,0,4.5-8,13.3-16.8c-2,4.7-5.5,10.2-5.5,12.9c0,1.3,2.5,3.9,4,3.9c2.4,0,5-2.2,7.2-4.9
		c1.1,2.3,3.6,4.9,6,4.9c4.4,0,9.2-3.7,12.4-7c0.9,3.5,4.1,7,6.9,7c7.2,0,13.6-10.5,13.6-12.1C552.8,24.4,552.2,23.7,551.5,23.3z
		 M528.4,23.8c0.2-0.3,0.4-0.6,0.5-1l0.3-0.5c0.1-0.2,0.1-0.4,0.2-0.5l0.1-0.5c0-0.2,0.1-0.3,0.1-0.5l0.1-0.4c0-0.1,0-0.3,0-0.3v0.3
		c0,0.2,0,0.3,0,0.4c0,0.2,0,0.3-0.1,0.5l-0.1,0.5c0,0.2-0.1,0.3-0.2,0.5c0,0.2-0.1,0.3-0.2,0.5c-0.2,0.4-0.4,0.7-0.6,1
		c-0.2,0.3-0.4,0.5-0.6,0.8c-0.2,0.3-0.3,0.4-0.5,0.5l0.4-0.6C528.1,24.4,528.2,24.1,528.4,23.8z M398.2,16.2c0,0.2-0.1,0.4-0.3,0.6
		c-0.2,0.5-0.5,1.3-0.9,2c-0.3,0.7-0.7,1.4-1,1.8l-0.4,0.6l-0.1,0.2l0,0l0.1-0.3l0.3-0.7l0.9-1.9c0.3-0.7,0.7-1.4,1-1.9L398.2,16.2
		l0.1-0.2l0,0L398.2,16.2z M398.4,32.8c-0.1,0.1-0.2,0.3-0.3,0.4l-0.5,0.5l-0.8,0.4l-0.8,0.3c-0.2,0-0.3,0.1-0.4,0.1
		c-0.1,0-0.2,0-0.3,0h-0.5h-0.1c0,0,0,0,0,0h0c0,0,0.1,0,0.1,0c0.1,0,0.2,0,0.2,0c0.1,0,0.2,0,0.3,0l0.3-0.1c0.1,0,0.2,0,0.4-0.1
		l0.3-0.2l0.4-0.2l0.4-0.2c0.1-0.1,0.2-0.1,0.3-0.2l0.6-0.4C398.1,32.9,398.2,32.8,398.4,32.8l0.1-0.1L398.4,32.8z M401.3,30.2
		l-0.2,0.2l-0.6,0.6c-0.2,0.3-0.5,0.4-0.6,0.6c-0.1,0-0.2,0.1-0.3,0.2c0,0,0,0-0.1,0l0.1-0.1c0,0,0-0.1,0.2-0.3l0.6-0.6
		c0.2-0.3,0.5-0.5,0.6-0.6L401.3,30.2L401.3,30.2L401.3,30.2z M400.1,23.7c-0.1-0.3-0.2-0.6-0.3-1.1s-0.2-0.8-0.2-1.1
		c0-0.1,0-0.3,0-0.4V21c0,0,0,0.1,0,0.1l0.1,0.3c0.1,0.3,0.1,0.7,0.3,1.1C400.1,23,400.1,23.3,400.1,23.7c0.1,0.1,0.1,0.2,0.1,0.3
		L400.1,23.7z M401.7,28.9c-0.3-0.6-0.5-1.2-0.6-1.8l-0.5-1.8c-0.1-0.2-0.1-0.4-0.1-0.5c0,0.1,0,0.3,0.2,0.5c0.1,0.5,0.3,1,0.6,1.8
		c0.2,0.5,0.4,1,0.7,1.6L401.7,28.9z M409.4,36.7c-0.2,0-0.3,0-0.4,0l-0.5-0.1l-0.5-0.2c-0.2,0-0.3-0.1-0.5-0.2
		c-0.3-0.2-0.7-0.3-1.1-0.6c-0.4-0.3-0.8-0.6-1.1-0.9c-0.7-0.7-1.4-1.5-1.9-2.4l-0.3-0.4l0.2-0.3c0.1,0.1,0.2,0.3,0.3,0.5
		c0.5,0.8,1.2,1.7,1.8,2.4l1.1,0.9c0.4,0.3,0.8,0.5,1,0.6l1,0.4l0.4,0.1L409.4,36.7l0.5,0C409.7,36.8,409.5,36.8,409.4,36.7z
		 M411.6,33.8l0.3-0.3c0.1,0,0.2-0.1,0.3-0.3l0.3-0.3l0.8-0.9c0.3-0.3,0.5-0.7,0.8-1.1s0.5-0.8,0.8-1.1l0.6-1l0.5-0.7
		c-0.1,0.2-0.2,0.5-0.4,0.8l-0.6,1l-0.8,1.1c-0.3,0.4-0.5,0.8-0.8,1.1l-0.8,0.9l-0.3,0.3l-0.3,0.3L411.6,33.8
		C411.6,33.8,411.6,33.8,411.6,33.8z M411.9,34.2c0,0-0.1,0.1-0.1,0.1l0.4-0.4l1-1l0.5-0.5l0.4-0.5c0.1-0.2,0.2-0.2,0.3-0.3l0.1-0.1
		c0,0,0,0,0,0l-0.1,0.2c0,0.1-0.1,0.3-0.3,0.4c-0.1,0.2-0.2,0.3-0.4,0.5l-0.5,0.5c-0.3,0.3-0.7,0.7-1,0.9
		C412.1,34,412,34.1,411.9,34.2z M428.2,16.4c0.1,0,0.3-0.1,0.4-0.2l0.2-0.1c0,0,0,0,0,0s-0.1,0-0.1,0
		C428.6,16.3,428.4,16.4,428.2,16.4c-0.1,0.1-0.1,0.2-0.2,0.3l-0.3,0.3c-0.2,0.1-0.4,0.3-0.5,0.5c-0.4,0.3-0.7,0.7-1,1
		c-0.1,0.2-0.2,0.3-0.3,0.4l-0.1,0.1l0.1-0.2l0.3-0.4l0.4-0.5l0.5-0.5l0.6-0.5L428.2,16.4z M426.7,18.4c-0.2,0.2-0.3,0.5-0.6,0.8
		c-0.3,0.3-0.5,0.6-0.8,1l-0.9,1.2c-0.3,0.5-0.6,0.8-0.9,1.2s-0.6,0.8-0.8,1.1c-0.3,0.3-0.4,0.6-0.5,0.8l-0.2,0.3l0.2-0.3l0.5-0.8
		c0.2-0.3,0.5-0.6,0.8-1.1c0.3-0.4,0.6-0.8,0.9-1.2c0.3-0.5,0.6-0.8,1-1.2c0.3-0.4,0.5-0.7,0.8-1L426.7,18.4z M421.6,22.8l0.5-0.9
		c0.3-0.4,0.5-0.8,0.8-1.3c0.3-0.5,0.7-0.9,1-1.4l1.1-1.3c0.4-0.5,0.7-0.8,1-1.1c0.3-0.3,0.6-0.6,0.8-0.8l0.2-0.2c0,0,0,0.1-0.2,0.3
		l-0.7,0.8c-0.3,0.3-0.7,0.7-1,1.1c-0.4,0.5-0.8,0.9-1.1,1.3c-0.4,0.5-0.8,0.9-1,1.4l-0.9,1.2L421.6,22.8c-0.1,0.2-0.1,0.3-0.1,0.3
		c0,0,0,0,0,0C421.5,23,421.5,22.9,421.6,22.8z M419.8,19.6l0.4-1.2h0l-0.1,0.3C420,18.9,420,19.2,419.8,19.6
		c-0.1,0.4-0.2,0.8-0.4,1.3l-0.6,1.8c0,0.1-0.1,0.2-0.1,0.2c-0.1,0-0.1,0-0.2,0c0-0.1,0.1-0.2,0.1-0.3
		C419.1,21.3,419.5,20.4,419.8,19.6z M410.8,43.5c-0.2,0.6-0.5,1.4-0.8,2.2c-0.2,0.5-0.3,0.8-0.5,1.2c-0.1,0.4-0.3,0.7-0.4,1
		c-0.1,0.3-0.2,0.6-0.3,0.8l-0.1,0.3l0.1-0.3l0.3-0.8l0.4-1c0.1-0.4,0.3-0.7,0.4-1.2c0.2-0.5,0.3-0.8,0.5-1.2
		C410.5,44.1,410.6,43.8,410.8,43.5c0-0.3,0.1-0.6,0.3-0.8l0.1-0.3L410.8,43.5z M411.5,41.1c-0.5,1.3-1,2.2-1.3,3
		c-0.2,0.4-0.3,0.6-0.4,0.8l-0.1,0.3l0,0l1.7-4.2l1.9-4.8c0.2-0.1,0.3-0.3,0.5-0.4l-0.4,1C412.6,38.4,412,39.9,411.5,41.1z
		 M420.1,29.8c3.7-5.7,6.1-8.6,7.7-10.2c0.9-0.9,1.7-1.5,2.3-1.7c0,5.1-3,16.9-8.6,16.9C419.7,34.9,419.9,31.7,420.1,29.8z
		 M426.5,32.9c-0.4,0.5-1,1.1-1.6,1.6c-0.2,0.2-0.4,0.3-0.5,0.3l-0.5,0.3c-0.2,0.1-0.4,0.2-0.5,0.2c-0.2,0.1-0.3,0.1-0.5,0.2
		c-0.3,0.1-0.5,0.2-0.8,0.2c0,0-0.1,0-0.2,0h0c0,0,0,0,0,0c0.1,0,0.2,0,0.2,0c0.2,0,0.4-0.1,0.7-0.3l0.5-0.2l0.5-0.3
		c0.2-0.1,0.3-0.2,0.5-0.3c0.2-0.2,0.4-0.3,0.5-0.3l0.5-0.4c0.2-0.2,0.3-0.3,0.5-0.4C426,33.3,426.3,33.1,426.5,32.9l0.6-0.8
		l-0.1,0.2L426.5,32.9z M429.4,26.6l-0.5,1.3c-0.1,0.3-0.1,0.5-0.3,0.7c-0.1,0.3-0.2,0.5-0.3,0.7c-0.1,0.2-0.2,0.4-0.3,0.6
		s-0.2,0.4-0.3,0.6c-0.2,0.4-0.4,0.8-0.7,1.1l-0.3,0.5c-0.2,0.1-0.3,0.3-0.4,0.4l-0.7,0.7l-0.3,0.3l-0.3,0.2
		c-0.2,0.1-0.3,0.2-0.4,0.3l0.3-0.3c0.1-0.1,0.2-0.2,0.3-0.3c0.1-0.1,0.2-0.2,0.3-0.3c0.2-0.2,0.4-0.4,0.6-0.7l0.3-0.4l0.3-0.5
		c0.3-0.3,0.4-0.7,0.7-1.1c0.1-0.2,0.2-0.4,0.3-0.6c0.1-0.2,0.2-0.4,0.3-0.6s0.2-0.5,0.3-0.7s0.2-0.4,0.2-0.7
		c0.2-0.5,0.3-0.9,0.5-1.3l0.4-1.3l0.3-1.3c0.1-0.4,0.2-0.8,0.2-1.1c0.1-0.7,0.2-1.2,0.3-1.7l0.1-0.6v0.2c0,0.1,0,0.3,0,0.5
		c0,0.5-0.1,1-0.2,1.7l-0.2,1.1c-0.1,0.5-0.1,0.8-0.3,1.3L429.4,26.6z M448.1,20.9c-0.1,0.2-0.2,0.5-0.4,0.9
		c-0.1,0.2-0.2,0.3-0.3,0.5l-0.4,0.6l-0.5,0.6c-0.2,0.2-0.3,0.4-0.6,0.5l-0.3,0.3c-0.1,0.1-0.2,0.1-0.3,0.2l-0.7,0.3
		c-0.2,0.1-0.5,0.1-0.7,0.3l-0.6,0.1c-0.2,0-0.4,0-0.5,0h-0.4h-0.3c0.1,0,0.2,0,0.3,0h0.4l0.5-0.1c0.2,0,0.4,0,0.6-0.1
		c0.2-0.1,0.5-0.1,0.7-0.3l0.7-0.3c0.1-0.1,0.2-0.1,0.3-0.2l0.3-0.3c0.2-0.1,0.4-0.3,0.6-0.5l0.5-0.5l0.4-0.6
		c0.2-0.2,0.3-0.4,0.3-0.5L448.1,20.9c0-0.2,0-0.3,0.1-0.3c0,0,0,0,0-0.1L448.1,20.9z M442.1,24.9c-0.4,0-0.6,0-0.8-0.1
		c1.8-3.7,4.9-7.2,7-7.2c0.2,0,0.3,0,0.5,0C448.1,20.3,446.7,24.9,442.1,24.9z M440.2,19.9c0.2-0.3,0.5-0.8,0.9-1.3s0.9-1.1,1.5-1.6
		l1-0.8c0.4-0.3,0.7-0.5,1.1-0.7c0.4-0.2,0.8-0.4,1.2-0.5c0.5-0.2,0.9-0.2,1.3-0.3c0.4,0,0.8,0,1.2,0.1l0.3,0.1
		c0.2,0,0.3,0.1,0.3,0.1c0.1,0,0.2,0.1,0.2,0.1c0.1,0,0.2,0.1,0.3,0.1c0.3,0.2,0.5,0.4,0.8,0.5c0.2,0.2,0.4,0.3,0.5,0.5l0.3,0.3
		l0.1,0.1c0,0-0.1,0-0.1-0.1c-0.1,0-0.2-0.2-0.3-0.3c-0.2-0.1-0.3-0.3-0.5-0.4c-0.3-0.2-0.5-0.3-0.8-0.5c-0.1,0-0.2,0-0.2-0.1
		l-0.3-0.1l-0.3-0.1c-0.1,0-0.1,0-0.3,0c-0.4-0.1-0.8-0.1-1.1-0.1c-0.5,0-0.8,0.2-1.2,0.3c-0.4,0.1-0.8,0.3-1.2,0.5
		c-0.3,0.2-0.7,0.4-1.1,0.7c-0.3,0.3-0.7,0.5-1,0.8L442,18c-0.3,0.3-0.5,0.5-0.7,0.8C440.8,19.2,440.5,19.7,440.2,19.9
		c-0.1,0.2-0.2,0.3-0.2,0.4C440,20.2,440.1,20.1,440.2,19.9z M439,22.1l0.5-0.7c0.2-0.2,0.3-0.4,0.5-0.6c0.1-0.2,0.3-0.4,0.4-0.5
		l0.7-0.7c-0.1,0.2-0.3,0.5-0.6,0.8l-0.4,0.5l-0.4,0.6l-0.5,0.7c-0.1,0.2-0.2,0.4-0.4,0.7c-0.1,0-0.1,0-0.2,0l0,0L439,22.1z
		 M447.8,33.9c-0.3,0.2-0.7,0.4-1.1,0.6l-0.6,0.3c-0.2,0.1-0.4,0.1-0.6,0.2c-0.3,0.1-0.5,0.1-0.7,0.2l-0.7,0.1
		c-0.3,0-0.5,0.1-0.6,0.1c-0.1,0-0.3,0-0.5,0c-0.1,0-0.3,0-0.5,0h-0.4h-0.3c0,0,0.1,0,0.3,0c0.1,0,0.3,0,0.4,0c0.2,0,0.3,0,0.5,0
		c0.2,0,0.3,0,0.5,0l0.6-0.1l0.7-0.1c0.2-0.1,0.4-0.1,0.6-0.2c0.3,0,0.5-0.1,0.7-0.2s0.4-0.1,0.6-0.3C447,34.2,447.4,34,447.8,33.9
		c0.3-0.2,0.5-0.3,0.7-0.5C448.3,33.6,448.1,33.7,447.8,33.9z M462.2,7.2C462.2,7.2,462.2,7.2,462.2,7.2
		C462.2,7.2,462.2,7.2,462.2,7.2L462.2,7.2z M454.6,15.8c-0.1-0.1-0.2-0.3-0.3-0.5l-0.3-0.8c0-0.2-0.1-0.4-0.1-0.5
		c0-0.2-0.1-0.4-0.1-0.5c0-0.2,0-0.4,0-0.5c0-0.2,0-0.4,0-0.5c0-0.1,0-0.3,0.1-0.5l0.1-0.4l0.2-0.6c0,0,0-0.1,0-0.2s0,0,0,0v0
		c0,0,0,0.1,0,0.2c0,0.2,0,0.4-0.2,0.6l-0.1,0.8c0,0.2,0,0.4,0,0.5v0.5c0,0.2,0,0.3,0,0.5l0.1,0.5c0.1,0.3,0.2,0.6,0.3,0.8
		C454.5,15.5,454.6,15.7,454.6,15.8c0.1,0.1,0.1,0.1,0.1,0.1L454.6,15.8z M455.6,7.7l-0.9,1.7l-0.3,0.8l-0.3,0.8
		c-0.1,0.3-0.2,0.5-0.2,0.6l-0.1,0.5c0,0.1,0,0.2,0,0.3v0.1c0,0,0,0,0,0v-0.1c0-0.1,0-0.2,0-0.3c0-0.2,0-0.4,0-0.5
		c0-0.2,0-0.4,0.2-0.7c0-0.2,0.1-0.5,0.2-0.8l0.3-0.9l0.4-0.9c0.2-0.3,0.3-0.6,0.5-0.9l0.5-0.9c0.2-0.3,0.3-0.5,0.5-0.8l0.5-0.8
		c0.2-0.2,0.3-0.5,0.5-0.6c0.3-0.5,0.6-0.7,0.8-1l0.2-0.3l0.1-0.1l-0.3,0.4c-0.2,0.3-0.4,0.5-0.7,1L457,5.3L456.5,6l-0.5,0.8
		L455.6,7.7z M456.4,14.2c0-4,5.5-10.9,6.5-10.9c0.6,0-1.8,6.3-5.2,13.3C456.8,16,456.4,15.3,456.4,14.2z M459.7,13.9
		c-0.3,0.6-0.5,1.1-0.8,1.5c-0.2,0.5-0.4,0.7-0.5,1l-0.3,0.4h0l0.7-1.5c0.4-0.9,0.9-2.1,1.4-3.3c0.5-1.2,1-2.3,1.4-3.3
		c0.2-0.5,0.3-0.8,0.5-1.1c0.1-0.1,0.1-0.2,0.1-0.3c0,0.1,0,0.2,0,0.3c-0.1,0.3-0.2,0.7-0.3,1.1l-0.3,0.8l-0.3,0.8
		c-0.2,0.6-0.4,1.1-0.7,1.8L459.7,13.9z M458.6,31c0,0,0,0.2,0,0.4l-0.1,1.1c0,0.5,0,0.8,0,1.1c0,0.2,0,0.3,0,0.4l-0.1-0.4
		c-0.1-0.3-0.1-0.7-0.1-1.1c0-0.5,0.1-0.8,0.2-1.1C458.5,31.2,458.5,31.1,458.6,31c0,0,0-0.1,0-0.1V31z M459.9,27.6
		c-0.1,0.2-0.2,0.5-0.3,0.9c-0.1,0.4-0.2,0.8-0.3,1.3c-0.1,0.2-0.1,0.4-0.2,0.7c-0.1,0.3-0.1,0.5-0.1,0.8s-0.1,0.5-0.1,0.8
		c0,0.3,0,0.5,0,0.8c0,0.3,0,0.5,0,0.7c0,0.1,0,0.2,0,0.3l0.1,0.3c0,0,0,0.1,0.1,0.3s0,0.2,0.1,0.2c0,0.1,0.1,0.3,0.2,0.4l0.1,0.2
		c0,0,0,0.1,0,0.1c0,0,0,0,0-0.1l-0.2-0.2c0-0.1-0.2-0.2-0.2-0.4c0-0.1-0.1-0.1-0.1-0.2s-0.1-0.2-0.1-0.3c0-0.1-0.1-0.2-0.1-0.3
		l-0.1-0.3l-0.1-0.7c0-0.3,0-0.5,0-0.8c0-0.3,0-0.5,0.1-0.8l0.1-0.8c0-0.3,0.1-0.5,0.2-0.8l0.4-1.3L459.9,27.6c0-0.2,0-0.3,0-0.3
		C459.9,27.4,459.9,27.5,459.9,27.6z M473.6,17l0.3-0.7h0c0,0,0,0.1-0.1,0.2C473.8,16.6,473.8,16.8,473.6,17
		c-0.1,0.5-0.3,1.1-0.6,1.9c-0.3,0.8-0.1,0.6-0.6,1.5l-1.1,2.8c-0.1,0-0.2,0-0.3,0c0.8-2,1.2-2.9,1.9-4.4L473.6,17z M468.3,33.1
		c-0.1,0.4-0.1,0.7-0.1,1c0,0.1,0,0.2,0,0.3c0,0-0.1-0.1-0.1-0.3C468.2,33.8,468.1,33.5,468.3,33.1c-0.1-0.3,0-0.5,0-0.7
		c0.1-0.1,0.1-0.2,0.2-0.3C468.5,32.5,468.4,32.8,468.3,33.1z M490.8,20.9c-0.1,0.2-0.2,0.5-0.4,0.9c-0.1,0.2-0.2,0.3-0.3,0.5
		l-0.4,0.6l-0.5,0.6c-0.2,0.2-0.3,0.4-0.6,0.5l-0.3,0.3c-0.1,0.1-0.2,0.1-0.3,0.2l-0.7,0.3c-0.2,0.1-0.5,0.1-0.7,0.3l-0.6,0.1
		c-0.2,0-0.4,0-0.5,0h-0.4h-0.3c0.1,0,0.2,0,0.3,0h0.4l0.5-0.1c0.2,0,0.4,0,0.6-0.1c0.2-0.1,0.5-0.1,0.7-0.3l0.7-0.3
		c0.1-0.1,0.2-0.1,0.3-0.2l0.3-0.3c0.2-0.1,0.4-0.3,0.6-0.5l0.5-0.5l0.4-0.6c0.2-0.2,0.3-0.4,0.3-0.5L490.8,20.9
		c0-0.2,0-0.3,0.1-0.3c0,0,0,0,0-0.1L490.8,20.9z M484.8,24.9c-0.4,0-0.6,0-0.8-0.1c1.8-3.7,4.9-7.2,7-7.2c0.2,0,0.3,0,0.5,0
		C490.8,20.3,489.4,24.9,484.8,24.9z M482.9,19.9c0.2-0.3,0.5-0.8,0.9-1.3s0.9-1.1,1.5-1.6l1-0.8c0.4-0.3,0.7-0.5,1.1-0.7
		c0.4-0.2,0.8-0.4,1.2-0.5c0.5-0.2,0.9-0.2,1.3-0.3c0.4,0,0.8,0,1.2,0.1l0.3,0.1c0.2,0,0.3,0.1,0.3,0.1c0.1,0,0.2,0.1,0.2,0.1
		c0.1,0,0.2,0.1,0.3,0.1c0.3,0.2,0.5,0.4,0.8,0.5c0.2,0.2,0.4,0.3,0.5,0.5l0.3,0.3l0.1,0.1c0,0-0.1,0-0.1-0.1
		c-0.1,0-0.2-0.2-0.3-0.3c-0.2-0.1-0.3-0.3-0.5-0.4c-0.3-0.2-0.5-0.3-0.8-0.5c-0.1,0-0.2,0-0.2-0.1l-0.3-0.1l-0.3-0.1
		c-0.1,0-0.1,0-0.3,0c-0.4-0.1-0.8-0.1-1.1-0.1c-0.5,0-0.8,0.2-1.2,0.3c-0.4,0.1-0.8,0.3-1.2,0.5c-0.3,0.2-0.7,0.4-1.1,0.7
		c-0.3,0.3-0.7,0.5-1,0.8l-0.8,0.8c-0.3,0.3-0.5,0.5-0.7,0.8C483.5,19.2,483.2,19.7,482.9,19.9c-0.1,0.2-0.2,0.3-0.2,0.4
		C482.7,20.2,482.8,20.1,482.9,19.9z M481.7,22.1l0.5-0.7c0.2-0.2,0.3-0.4,0.5-0.6c0.1-0.2,0.3-0.4,0.4-0.5l0.7-0.7
		c-0.1,0.2-0.3,0.5-0.6,0.8l-0.4,0.5l-0.4,0.6l-0.5,0.7c-0.1,0.2-0.3,0.4-0.4,0.7c0,0.1-0.1,0.1-0.1,0.2c-0.1,0-0.1-0.1-0.2-0.1
		l0.1-0.2L481.7,22.1z M477,32.1l0.4-0.5c0.2-0.2,0.4-0.4,0.5-0.7l0.6-0.8l0.5-0.8c0,0,0-0.1,0.1-0.1c0,0.1,0,0.2,0,0.3l-0.5,0.8
		l-0.6,0.8c-0.2,0.3-0.4,0.5-0.6,0.7C477.3,31.8,477.2,32,477,32.1z M479.2,30.1c-0.2,0.3-0.4,0.5-0.6,0.8s-0.3,0.4-0.5,0.6
		c-0.1,0.1-0.1,0.1-0.2,0.1l0.1-0.2c0.1-0.1,0.3-0.3,0.4-0.6s0.4-0.5,0.5-0.9l0.2-0.3c0,0.1,0,0.2,0,0.2L479.2,30.1z M490.5,33.9
		c-0.3,0.2-0.7,0.4-1.1,0.6l-0.6,0.3c-0.2,0.1-0.4,0.1-0.6,0.2c-0.3,0.1-0.5,0.1-0.7,0.2l-0.7,0.1c-0.3,0-0.5,0.1-0.6,0.1
		c-0.1,0-0.3,0-0.5,0c-0.1,0-0.3,0-0.5,0h-0.4h-0.3c0,0,0.1,0,0.3,0c0.1,0,0.3,0,0.4,0c0.2,0,0.3,0,0.5,0c0.2,0,0.3,0,0.5,0l0.6-0.1
		l0.7-0.1c0.2-0.1,0.4-0.1,0.6-0.2c0.3,0,0.5-0.1,0.7-0.2s0.4-0.1,0.6-0.3C489.8,34.2,490.1,34,490.5,33.9c0.3-0.2,0.5-0.3,0.7-0.5
		C491,33.6,490.8,33.7,490.5,33.9z M499.7,24.9c0-0.1,0-0.2,0-0.2l0.3-0.8l2-4.5c0,0,0,0,0,0l-0.1,0.3l-0.4,1l-0.6,1.5
		c-0.3,0.5-0.5,1.1-0.8,1.7C500,24.3,499.8,24.6,499.7,24.9z M500.8,23.4C500.8,23.5,500.8,23.5,500.8,23.4l0.1-0.3
		c0.1-0.2,0.2-0.5,0.3-1l0.5-1.3c0.2-0.5,0.4-1,0.6-1.6l0.6-1.5c0.2-0.5,0.4-0.9,0.5-1.4c0-0.2,0-0.4,0.2-0.5l0.1-0.4v-0.2v-0.1
		c0,0,0,0.1,0,0.1v0.2c0,0.3,0,0.6-0.1,1l-0.4,1.4c-0.2,0.5-0.3,1.1-0.5,1.6c-0.2,0.5-0.5,1-0.7,1.6c-0.2,0.5-0.4,0.9-0.6,1.3
		l-0.5,0.9C500.8,23.3,500.9,23.4,500.8,23.4z M508.5,21.9c0.2-0.3,0.3-0.6,0.4-0.8c0-0.1,0.1-0.2,0.2-0.3l-0.1,0.3
		C508.8,21.3,508.7,21.6,508.5,21.9l-0.4,1.1l-0.6,1.2c-0.5,0.8-0.8,1.7-1.1,2.3c-0.2,0.3-0.2,0.6-0.3,0.8l-0.1,0.3
		c0-0.1,0-0.2,0.1-0.3c0-0.2,0.2-0.5,0.3-0.8c0.2-0.3,0.3-0.7,0.5-1.1c0.2-0.5,0.4-0.8,0.6-1.3C507.8,23.3,508.2,22.6,508.5,21.9z
		 M504.2,30.4c-0.2,0.5-0.4,0.9-0.6,1.3c-0.1,0.4-0.3,0.7-0.3,1c0,0.1,0,0.2,0,0.3c0,0,0,0.1,0,0.1v-0.1v-0.3c0-0.2,0-0.3,0.1-0.5
		c0-0.2,0-0.4,0.1-0.6c0-0.2,0.1-0.4,0.2-0.7c0.1-0.2,0.2-0.4,0.3-0.7l0.7-1.6c0.3-0.5,0.5-1,0.8-1.6c0.3-0.5,0.5-0.9,0.7-1.3
		l0.5-0.9c0-0.1,0.1-0.2,0.2-0.3l-0.1,0.3c-0.1,0.2-0.2,0.5-0.4,1c-0.2,0.3-0.4,0.8-0.6,1.3c-0.3,0.5-0.5,1-0.8,1.6
		C504.6,29.4,504.5,29.9,504.2,30.4z M509,36.5c-0.1,0.1-0.3,0.1-0.4,0.2s-0.3,0.2-0.6,0.3c-0.3,0.1-0.5,0.2-0.8,0.2h-0.4l-0.4-0.1
		c-0.3,0-0.5-0.1-0.6-0.3l-0.3-0.1l-0.2-0.1l-0.1-0.1c0,0,0,0,0.1,0c0,0,0.1,0.1,0.2,0.1l0.3,0.1c0.2,0.1,0.4,0.2,0.6,0.2
		c0.1,0,0.3,0,0.4,0h0.4c0.5,0,1-0.2,1.3-0.3L509,36.5l0.2-0.1L509,36.5z M516.6,23.1l0.3-0.8l0.6-0.8c0.3-0.5,0.6-1,0.9-1.3
		c0.1-0.1,0.2-0.2,0.3-0.3c0,0.1-0.1,0.3-0.2,0.4l-0.4,0.6l-0.5,0.8C517.4,21.8,516.5,23.5,516.6,23.1z M515.5,31.5
		c0-0.3-0.1-0.5-0.1-0.8c0,0,0.1-0.1,0.1-0.1c0,0,0,0,0,0C515.5,31,515.5,31.3,515.5,31.5l0,0.3C515.5,31.7,515.5,31.6,515.5,31.5z
		 M543.7,20.9c-0.1,0.2-0.2,0.5-0.4,0.9c-0.1,0.2-0.2,0.3-0.3,0.5l-0.4,0.6l-0.5,0.6c-0.2,0.2-0.3,0.4-0.6,0.5l-0.3,0.3
		c-0.1,0.1-0.2,0.1-0.3,0.2l-0.7,0.3c-0.2,0.1-0.5,0.1-0.7,0.3l-0.6,0.1c-0.2,0-0.4,0-0.5,0h-0.4h-0.3c0.1,0,0.2,0,0.3,0h0.4
		l0.5-0.1c0.2,0,0.4,0,0.6-0.1c0.2-0.1,0.5-0.1,0.7-0.3l0.7-0.3c0.1-0.1,0.2-0.1,0.3-0.2l0.3-0.3c0.2-0.1,0.4-0.3,0.6-0.5l0.5-0.5
		l0.4-0.6c0.2-0.2,0.3-0.4,0.3-0.5L543.7,20.9c0-0.2,0-0.3,0.1-0.3c0,0,0,0,0-0.1L543.7,20.9z M537.8,24.9c-0.4,0-0.6,0-0.8-0.1
		c1.8-3.7,4.9-7.2,7-7.2c0.2,0,0.3,0,0.5,0C543.8,20.3,542.4,24.9,537.8,24.9z M535.9,19.9c0.2-0.3,0.5-0.8,0.9-1.3s0.9-1.1,1.5-1.6
		l1-0.8c0.4-0.3,0.7-0.5,1.1-0.7c0.4-0.2,0.8-0.4,1.2-0.5c0.5-0.2,0.9-0.2,1.3-0.3c0.4,0,0.8,0,1.2,0.1l0.3,0.1
		c0.2,0,0.3,0.1,0.3,0.1c0.1,0,0.2,0.1,0.2,0.1c0.1,0,0.2,0.1,0.3,0.1c0.3,0.2,0.5,0.4,0.8,0.5c0.2,0.2,0.4,0.3,0.5,0.5l0.3,0.3
		l0.1,0.1c0,0-0.1,0-0.1-0.1c-0.1,0-0.2-0.2-0.3-0.3c-0.2-0.1-0.3-0.3-0.5-0.4c-0.3-0.2-0.5-0.3-0.8-0.5c-0.1,0-0.2,0-0.2-0.1
		l-0.3-0.1l-0.3-0.1c-0.1,0-0.1,0-0.3,0c-0.4-0.1-0.8-0.1-1.1-0.1c-0.5,0-0.8,0.2-1.2,0.3c-0.4,0.1-0.8,0.3-1.2,0.5
		c-0.3,0.2-0.7,0.4-1.1,0.7c-0.3,0.3-0.7,0.5-1,0.8l-0.8,0.8c-0.3,0.3-0.5,0.5-0.7,0.8C536.5,19.2,536.2,19.7,535.9,19.9
		c-0.1,0.2-0.2,0.3-0.2,0.4C535.7,20.2,535.7,20.1,535.9,19.9z M534.7,22.1l0.5-0.7c0.2-0.2,0.3-0.4,0.5-0.6
		c0.1-0.2,0.3-0.4,0.4-0.5l0.7-0.7c-0.1,0.2-0.3,0.5-0.6,0.8l-0.4,0.5l-0.4,0.6l-0.5,0.7c-0.1,0.2-0.3,0.4-0.4,0.7
		c-0.1,0.2-0.2,0.4-0.3,0.5c0,0-0.1-0.1-0.1-0.1l0.2-0.5L534.7,22.1z M529.7,28.5c0,0.1-0.1,0.2-0.3,0.3c-0.2,0.3-0.5,0.6-0.9,1
		l-1.5,1.4c-0.5,0.5-1.2,1-1.8,1.5c-0.3,0.2-0.6,0.4-1,0.6c-0.3,0.2-0.7,0.4-1,0.5c-0.2,0.1-0.4,0.2-0.5,0.2
		c-0.2,0.1-0.3,0.1-0.5,0.2l-0.5,0.1c-0.2,0.1-0.3,0.1-0.5,0.1c-0.3,0.1-0.5,0.1-0.8,0.2c-0.2,0-0.5,0-0.6,0h-0.4h0
		c0.1,0,0.3,0,0.4,0c0.2,0,0.3,0,0.6-0.1c0.2,0,0.5-0.1,0.8-0.2l0.5-0.1c0.1-0.1,0.3-0.1,0.4-0.2c0.3-0.1,0.7-0.3,1-0.4
		c0.3-0.2,0.7-0.4,1-0.6c0.4-0.2,0.7-0.4,1-0.6c0.3-0.2,0.6-0.5,0.9-0.7c0.3-0.3,0.6-0.4,0.9-0.7c0.5-0.5,1.1-0.9,1.5-1.3
		c0.5-0.4,0.7-0.7,1-1l0.4-0.4L529.7,28.5z M543.4,33.9c-0.3,0.2-0.7,0.4-1.1,0.6l-0.6,0.3c-0.2,0.1-0.4,0.1-0.6,0.2
		c-0.3,0.1-0.5,0.1-0.7,0.2l-0.7,0.1c-0.3,0-0.5,0.1-0.6,0.1c-0.1,0-0.3,0-0.5,0c-0.1,0-0.3,0-0.5,0h-0.4h-0.3c0,0,0.1,0,0.3,0
		c0.1,0,0.3,0,0.4,0c0.2,0,0.3,0,0.5,0c0.2,0,0.3,0,0.5,0l0.6-0.1l0.7-0.1c0.2-0.1,0.4-0.1,0.6-0.2c0.3,0,0.5-0.1,0.7-0.2
		s0.4-0.1,0.6-0.3C542.7,34.2,543.1,34,543.4,33.9c0.3-0.2,0.5-0.3,0.7-0.5C543.9,33.6,543.7,33.7,543.4,33.9z"/>
	<path class="st0" d="M580.9,3.6c-0.6,0-1.2,0-1.8,0.1c-0.5-0.4-0.9-0.6-1.3-0.6c0,0-0.3,0.3-0.6,0.9c-4.5,0.7-8.4,2.4-8.4,2.9
		c0,0.7,0.8,3.1,1.8,3.1c0.5,0,1.8-0.5,3.6-1.1c-4.3,7-10.8,18.8-10.8,23.4c0,3.7,2.4,5.3,3.2,5.3c0.3,0,0.4-0.4,0.3-1
		c0.8,0.7,1.7,1.2,2.3,1.2c5.5,0,21.5-11.2,21.5-22C590.6,7.3,586.8,3.6,580.9,3.6z M570.4,17.8c0.2-0.5,0.5-0.7,0.6-1
		c0-0.1,0.1-0.1,0.1-0.2L570.4,17.8c-0.4,1-0.9,2.1-1.5,3.3l-0.8,1.7c-0.3,0.5-0.5,1-0.7,1.5l-0.5,1.1c-0.1,0.1-0.1,0.2-0.1,0.3
		c0,0,0-0.1,0.1-0.3l0.4-1.1c0.2-0.5,0.4-1,0.7-1.5s0.5-1.1,0.8-1.7s0.5-1.2,0.8-1.7C569.8,18.7,570.1,18.2,570.4,17.8z M564.6,29.3
		c-0.2,0.4-0.3,0.8-0.4,1.3c-0.1,0.5-0.2,0.8-0.2,1.2s-0.1,0.7-0.1,1.1c0,0.3,0,0.5,0.1,0.8c0,0.1,0,0.2,0.1,0.3
		c0,0.1,0,0.2,0.1,0.2c0,0.1,0,0.1,0,0.1l-0.1-0.1c0-0.1-0.1-0.1-0.1-0.2l-0.1-0.3c-0.1-0.4-0.2-1.1-0.1-1.8l0.2-1.3
		c0-0.2,0.1-0.4,0.2-0.7l0.2-0.7c0.3-1,0.6-1.9,1-2.9s0.8-1.9,1.2-2.8c0.4-0.9,0.8-1.7,1.2-2.4c0.3-0.7,0.7-1.2,0.9-1.6l0.3-0.4
		l0.1-0.2c-0.1,0.2-0.2,0.4-0.3,0.6l-0.8,1.7l-1.1,2.4c-0.5,0.9-0.8,1.8-1.2,2.8S564.9,28.3,564.6,29.3z M566.7,25.6
		c0,0,0,0.1,0,0.1C566.7,25.7,566.7,25.7,566.7,25.6z M567,34.7c-0.1,0-0.3,0-0.4-0.1c0-0.3,0-0.6,0-1c0-6,9.7-21.5,13.1-26.3
		c0.5,0,1-0.1,1.4-0.1c4,0,7.3,1.4,7.3,6C588.3,23.3,572.7,34.7,567,34.7z M582.2,27.2l-0.4,0.4c-0.3,0.4-0.7,0.8-1.1,1.3
		c-0.3,0.2-0.5,0.4-0.7,0.6l-0.6,0.5c-0.2,0.1-0.3,0.3-0.5,0.3c0,0-0.1,0-0.1,0c0,0,0,0,0,0c0.1,0,0.2-0.2,0.4-0.4
		c0.3-0.3,0.8-0.7,1.2-1.1l1.2-1.2C581.9,27.4,582.1,27.3,582.2,27.2l0.1-0.2L582.2,27.2z M585,22.8l-0.3,0.4
		c-0.3,0.3-0.6,0.8-1,1.4c-0.5,0.6-1,1.2-1.6,1.9c-0.3,0.3-0.6,0.7-1,1l-0.5,0.5l-0.5,0.5c-0.4,0.3-0.8,0.6-1.1,0.9
		c-0.3,0.3-0.8,0.6-1.1,0.9c-0.4,0.3-0.8,0.5-1.1,0.8l-0.5,0.3c-0.2,0.1-0.3,0.2-0.5,0.3l-0.9,0.5l-0.7,0.3l0.7-0.4
		c0.3-0.2,0.5-0.4,0.8-0.5c0.1-0.1,0.3-0.2,0.5-0.3l0.5-0.4c0.3-0.2,0.7-0.5,1.1-0.8c0.3-0.3,0.7-0.5,1.1-0.8c0.4-0.3,0.8-0.6,1.1-1
		l0.5-0.5l0.5-0.5l1-1c0.6-0.7,1.2-1.3,1.6-1.8l1.1-1.4l0.4-0.5L585,22.8z"/>
	<path class="st0" d="M634.2,13.5c0.6,0,3.6-4.4,3.6-4.8c0-0.4-1.9-3.3-2.8-3.3s-2.7,5-2.7,5.6C632.3,11.7,633.6,13.5,634.2,13.5z"
		/>
	<path class="st0" d="M677.3,23.2c-2.8,5.2-6.7,10.1-9.4,10.1c0-2.6,6.2-12.6,6.2-15.1c0-2.2-1.7-3.6-2.4-3.9c0,0-0.1,0-0.2,0
		c0,0,0,0-0.1,0s-0.1,0-0.1,0c-0.9,0.5-5.3,5.6-8.7,9.7c1.6-3.7,3.1-7.4,3.1-8.1c0-1.4-1.7-2.6-2.6-2.6c-0.2,0-0.3,0.1-0.3,0.2
		c0,0,0,0.1,0,0.2c0,0.8-2.1,5.5-4.3,10.2c0,0,0,0,0,0.1c-2.5,4.4-5.8,7.9-9.4,10.9c2.1-5.2,3.6-9.6,3.6-9.9c0-0.9-2-3.3-2.9-3.3
		c-0.1,0-0.3,0.3-0.6,1.1c-2,2-9.7,11.4-12.6,11.4c0-1.1,0.3-2.5,0.8-3.9c1.1-1.7,1.8-3.3,2-4.2c2.8-4.6,7.1-8.8,10.9-8.8
		c2.8,0,2.9,2.4,3.6,2.4c0.6,0-1-5.7-5.2-5.7c-3.2,0-8,4.1-11.3,8.9c-0.1,0-0.2,0-0.3,0.1c-0.1,0.3-0.3,0.6-0.4,0.9
		c-0.7,1.2-1.4,2.4-1.9,3.5c-1.8,3-4.3,5.9-7.1,5.9c-1.1,0,5.6-14.2,5.6-15c0-1.2-2.1-4-2.8-3.2c-0.2,0.3-1.9,4-3.6,8c0,0,0,0,0,0
		c-1.2,2.7-3.5,6.1-7,8.4c0-0.5,0.1-0.9,0.1-1.6c0-4.4-9.7-5.8-9.7-6.3c0.2-3,8.5-6.5,8.5-5.8c-0.1,0.8-1.8,3.5-1.9,4.3
		c-0.1,0.8,2.2,0.8,2.6,0.8c0.3,0,2.3-2.8,2.4-4.5c0.1-1.7-0.5-4.7-2.4-4.7c-2.8,0-11.4,3.8-11.9,9.4c0,0-0.1,0.1-0.1,0.1
		c-0.6,1.1-5.2,11-12.7,11c-1.7,0-2-2.3-2-4.2c0-1.3,0.3-2.7,0.9-4.3c0.7,0.7,1.7,1.3,3.2,1.3c4,0,7.5-4.6,7.5-8.1
		c0-0.3,0-0.5,0-0.6c0,0,0.1,0,0.3,0c0.5,0-0.2-4.5-4.2-4.5c-4.6,0-10.9,8.9-10.9,14.7c0,4,3.9,8.7,7.1,8.7c5.8,0,11-6.7,12.9-10.3
		c3,2.1,8.6,2.2,8.5,3.9c-0.3,2.9-9,4.2-8.7-0.7c0-0.3-1-0.3-1.2,2c-0.2,2.3,1.1,5.2,4.4,5.2c0.4,0,0.8,0,1.1-0.1
		c4.2-0.1,7.6-1.9,10.2-4.2c0,0,0,0.1,0,0.1c0,2.2,3.6,4.2,4.7,4.2c1.9,0,3.9-1.3,5.6-3c0.9,1.7,2.6,3,3.9,3c2.1,0,5-2.8,7.8-5.9
		c-1,2.7-2,5.5-3.2,8.2c-5.5,3.9-10.1,6.6-10.1,9.2c0,2.1,2.9,4.7,4.4,4.7c3,0,6.6-6.7,9.9-13.7c2.4-1.8,4.8-3.7,7.1-5.7
		c0,0,0,0,0,0c0,1.5,1.8,3.1,2.5,3.1c0.5,0,4.5-8,13.3-16.8c-2,4.7-5.5,10.2-5.5,12.9c0,1.3,2.5,3.9,4,3.9c4.4,0,9.5-7.5,11.7-11.8
		C680.1,25,677.8,22.5,677.3,23.2z M601.1,20.9c-0.1,0.2-0.2,0.5-0.4,0.9c-0.1,0.2-0.2,0.3-0.3,0.5l-0.4,0.6l-0.5,0.6
		c-0.2,0.2-0.3,0.4-0.6,0.5l-0.3,0.3c-0.1,0.1-0.2,0.1-0.3,0.2l-0.7,0.3c-0.2,0.1-0.5,0.1-0.7,0.3l-0.6,0.1c-0.2,0-0.4,0-0.5,0h-0.4
		h-0.3c0.1,0,0.2,0,0.3,0h0.4l0.5-0.1c0.2,0,0.4,0,0.6-0.1c0.2-0.1,0.5-0.1,0.7-0.3l0.7-0.3c0.1-0.1,0.2-0.1,0.3-0.2l0.3-0.3
		c0.2-0.1,0.4-0.3,0.6-0.5l0.5-0.5l0.4-0.6c0.2-0.2,0.3-0.4,0.3-0.5L601.1,20.9c0-0.2,0-0.3,0.1-0.3c0,0,0,0,0-0.1L601.1,20.9z
		 M595.1,24.9c-0.4,0-0.6,0-0.8-0.1c1.8-3.7,4.9-7.2,7-7.2c0.2,0,0.3,0,0.5,0C601.1,20.3,599.7,24.9,595.1,24.9z M593.2,19.9
		c0.2-0.3,0.5-0.8,0.9-1.3s0.9-1.1,1.5-1.6l1-0.8c0.4-0.3,0.7-0.5,1.1-0.7c0.4-0.2,0.8-0.4,1.2-0.5c0.5-0.2,0.9-0.2,1.3-0.3
		c0.4,0,0.8,0,1.2,0.1l0.3,0.1c0.2,0,0.3,0.1,0.3,0.1c0.1,0,0.2,0.1,0.2,0.1c0.1,0,0.2,0.1,0.3,0.1c0.3,0.2,0.5,0.4,0.8,0.5
		c0.2,0.2,0.4,0.3,0.5,0.5l0.3,0.3l0.1,0.1c0,0-0.1,0-0.1-0.1c-0.1,0-0.2-0.2-0.3-0.3c-0.2-0.1-0.3-0.3-0.5-0.4
		c-0.3-0.2-0.5-0.3-0.8-0.5c-0.1,0-0.2,0-0.2-0.1l-0.3-0.1l-0.3-0.1c-0.1,0-0.1,0-0.3,0c-0.4-0.1-0.8-0.1-1.1-0.1
		c-0.5,0-0.8,0.2-1.2,0.3c-0.4,0.1-0.8,0.3-1.2,0.5c-0.3,0.2-0.7,0.4-1.1,0.7c-0.3,0.3-0.7,0.5-1,0.8L595,18
		c-0.3,0.3-0.5,0.5-0.7,0.8C593.8,19.2,593.5,19.7,593.2,19.9c-0.1,0.2-0.2,0.3-0.2,0.4C593,20.2,593.1,20.1,593.2,19.9z
		 M592.2,22.1c-0.1,0.2-0.3,0.4-0.4,0.7s-0.3,0.5-0.4,0.7l-0.3,0.8c-0.1,0.2-0.1,0.5-0.3,0.7c-0.1,0.3-0.1,0.5-0.2,0.6l-0.1,0.6
		l-0.1,0.4c0,0.1,0,0.2,0,0.3V27c0-0.1,0-0.3,0-0.4c0-0.3,0-0.5,0.2-1c0-0.2,0.1-0.4,0.2-0.7c0.1-0.2,0.1-0.5,0.3-0.7l0.3-0.8
		l0.3-0.8l0.4-0.7l0.5-0.7c0.2-0.2,0.3-0.4,0.5-0.6c0.1-0.2,0.3-0.4,0.4-0.5l0.7-0.7c-0.1,0.2-0.3,0.5-0.6,0.8l-0.4,0.5l-0.4,0.6
		L592.2,22.1z M600.8,33.9c-0.3,0.2-0.7,0.4-1.1,0.6l-0.6,0.3c-0.2,0.1-0.4,0.1-0.6,0.2c-0.3,0.1-0.5,0.1-0.7,0.2l-0.7,0.1
		c-0.3,0-0.5,0.1-0.6,0.1c-0.1,0-0.3,0-0.5,0c-0.1,0-0.3,0-0.5,0h-0.4h-0.3c0,0,0.1,0,0.3,0c0.1,0,0.3,0,0.4,0c0.2,0,0.3,0,0.5,0
		c0.2,0,0.3,0,0.5,0l0.6-0.1l0.7-0.1c0.2-0.1,0.4-0.1,0.6-0.2c0.3,0,0.5-0.1,0.7-0.2s0.4-0.1,0.6-0.3C600,34.2,600.4,34,600.8,33.9
		c0.3-0.2,0.5-0.3,0.7-0.5C601.3,33.6,601.1,33.7,600.8,33.9z M610.9,19.3c-0.1,0.1-0.2,0.2-0.3,0.3c-0.2,0.3-0.5,0.5-0.8,0.9
		s-0.5,0.6-0.8,0.9l-0.1,0.2c0,0,0,0.1-0.1,0.1c0,0,0,0.1,0,0.1c0,0,0,0,0,0c0,0,0-0.1,0-0.1l0.2-0.3c0.1-0.3,0.4-0.6,0.7-1l0.8-0.8
		C610.7,19.4,610.8,19.3,610.9,19.3l0.1-0.1L610.9,19.3z M617.7,14.6L617.7,14.6C617.8,14.7,617.8,14.7,617.7,14.6l-0.1,0
		C617.6,14.7,617.7,14.6,617.7,14.6z M608,22.5l0.1-0.4c0-0.2,0.1-0.5,0.3-0.8c0.2-0.3,0.3-0.6,0.5-0.9c0.2-0.3,0.5-0.6,0.8-0.9
		c0.6-0.6,1.2-1.2,1.9-1.7c0.7-0.5,1.4-1,2.1-1.4c0.7-0.5,1.3-0.7,1.9-1c0.6-0.3,1.1-0.5,1.5-0.6c0.1,0,0.1,0,0.1,0
		c0,0-0.1,0-0.1,0.1l-1.4,0.6c-1.1,0.5-2.6,1.4-4,2.5c-0.7,0.5-1.3,1.1-1.9,1.7l-0.8,0.9c-0.2,0.3-0.4,0.6-0.5,0.9l-0.2,0.4
		c0,0.1-0.1,0.2-0.2,0.4C608.2,22.3,608.1,22.5,608,22.5c0,0.1,0,0.2,0,0.3c0,0.1-0.1,0.2-0.1,0.3c0,0,0,0,0,0c0-0.1,0-0.2,0-0.3
		C608,22.7,608,22.6,608,22.5z M616.6,33.3c-0.1,0-0.2,0.1-0.3,0.2c-0.1,0-0.3,0.1-0.4,0.2c-0.1,0-0.3,0.1-0.5,0.2l-0.6,0.2
		c-0.4,0.1-0.8,0.2-1.3,0.2H613h-0.6l-0.5-0.1l-0.5-0.1l-0.4-0.1l-0.3-0.1c-0.1,0-0.2-0.1-0.2-0.1l0,0l0.3,0.1c0,0,0.2,0.1,0.3,0.1
		l0.4,0.1l0.5,0.1c0.2,0,0.4,0,0.6,0c0.2,0,0.4,0,0.6,0h0.6l1.3-0.2c0.4-0.1,0.7-0.2,1-0.3c0.2,0,0.3-0.1,0.4-0.2
		C616.5,33.4,616.6,33.3,616.6,33.3l0.2-0.1L616.6,33.3z M630,17l0.3-0.7h0c0,0,0,0.1-0.1,0.2C630.2,16.6,630.2,16.8,630,17
		c-0.1,0.5-0.3,1.1-0.6,1.9c-0.3,0.8-0.1,0.6-0.6,1.5l-1,2.6c-0.1,0-0.2-0.1-0.3-0.1c0.7-1.8,1.1-2.7,1.8-4.1L630,17z M624.7,33.1
		c-0.1,0.4-0.1,0.7-0.1,1c0,0.1,0,0.2,0,0.3c0,0-0.1-0.1-0.1-0.3C624.6,33.8,624.5,33.5,624.7,33.1c-0.1-0.3,0-0.6,0.1-0.9
		c0.1-0.1,0.1-0.1,0.2-0.2C624.9,32.4,624.8,32.8,624.7,33.1z M635.3,29.6l-0.1,0.4l-0.1,0.2l-0.1,0.1c0,0,0-0.1,0.1-0.3
		c0-0.1,0-0.1,0.1-0.2L635.3,29.6z M639.7,24.4l-0.1,0.2c-0.1,0.1-0.1,0.2-0.2,0.3c0,0,0-0.1,0-0.1l0.2-0.3L639.7,24.4
		C639.7,24.4,639.7,24.4,639.7,24.4z M639.6,22.1l-0.7,0.9c-0.1,0.2-0.3,0.4-0.4,0.6c0,0-0.1-0.1-0.1-0.1l0.4-0.6L639.6,22.1
		l0.2-0.3l0.1-0.1L639.6,22.1z M638.3,22.8l1.1-1.5c0.5-0.5,0.8-1,1.2-1.4s0.8-0.9,1.3-1.3s0.9-0.8,1.3-1.2l0.7-0.5
		c0.2-0.2,0.4-0.3,0.7-0.5c0.5-0.3,0.9-0.6,1.3-0.8c0.2-0.1,0.4-0.2,0.6-0.3c0.2-0.1,0.4-0.2,0.5-0.2c0.4-0.1,0.8-0.2,1-0.2
		c0.3-0.1,0.5-0.1,0.6-0.1c-0.1,0-0.3,0-0.6,0.1s-0.6,0.1-0.9,0.3l-0.6,0.3l-0.6,0.3l-1.3,0.8l-0.7,0.5c-0.2,0.2-0.4,0.3-0.7,0.5
		c-0.5,0.4-0.8,0.8-1.3,1.2s-0.8,0.9-1.3,1.3c-1,1.1-1.8,2.2-2.6,3.2c0,0-0.1,0-0.1-0.1C638.1,23.1,638.2,22.9,638.3,22.8z
		 M633.6,31.9C633.6,31.9,633.6,31.9,633.6,31.9c-0.1,0.1-0.1,0.2-0.2,0.2L633.6,31.9z M635.8,50.8c0-1.5,1.7-3.3,4.4-5.5
		C638.6,48.6,637,50.8,635.8,50.8z M645.2,31.3c-0.3,0.4-0.6,0.6-0.8,0.8c-0.1,0-0.2,0.1-0.3,0.2l0.2-0.3l0.7-0.9l1-1.3
		c0.2-0.3,0.4-0.4,0.6-0.7l-0.3,0.8l-0.1,0.1C645.9,30.6,645.5,31,645.2,31.3z M645.6,41.7c-0.5,0.8-0.8,1.6-1.2,2.3
		c-0.4,0.6-0.6,1.2-0.9,1.6c-0.1,0.2-0.2,0.3-0.3,0.4l0,0l0-0.1l0.2-0.4l0.8-1.6l1-2.3c0.1-0.2,0.1-0.3,0.3-0.5l0.5-0.4L645.6,41.7z
		 M647.6,27.6c-0.1,0.3-0.2,0.8-0.4,1.3c-0.1,0.5-0.3,1.1-0.5,1.8c-0.2,0.7-0.4,1.4-0.7,2.1c-0.2,0.7-0.4,1.4-0.7,2.1
		c-0.2,0.7-0.5,1.3-0.7,1.8c-0.2,0.5-0.4,1-0.5,1.3l-0.2,0.3c0-0.1,0-0.2,0.2-0.4l0.5-1.2c0.2-0.5,0.4-1.1,0.6-1.8
		c0.3-0.6,0.4-1.3,0.7-2.1l1.3-3.9c0.2-0.6,0.4-1.2,0.6-1.7L647.6,27.6z M648.1,35.8c0.3-0.6,0.5-1.2,0.8-1.7l0.7-1.6
		c0.1-0.2,0.2-0.4,0.3-0.6l-0.2,0.6c-0.2,0.5-0.3,1-0.6,1.7l-0.5,1.3L648.1,35.8z M661.1,25c0-0.1,0-0.1-0.1-0.2l0.4-0.9l2-4.5
		c0,0,0,0,0,0l-0.1,0.3l-0.4,1l-0.6,1.5c-0.3,0.5-0.5,1.1-0.8,1.7C661.4,24.3,661.2,24.6,661.1,25z M662.2,23.4
		C662.2,23.5,662.2,23.5,662.2,23.4l0.1-0.3c0.1-0.2,0.2-0.5,0.3-1l0.5-1.3c0.2-0.5,0.4-1,0.6-1.6l0.6-1.5c0.2-0.5,0.4-0.9,0.5-1.4
		c0-0.2,0-0.4,0.2-0.5l0.1-0.4v-0.2v-0.1c0,0,0,0.1,0,0.1v0.2c0,0.3,0,0.6-0.1,1l-0.4,1.4c-0.2,0.5-0.3,1.1-0.5,1.6
		c-0.2,0.5-0.5,1-0.7,1.6c-0.2,0.5-0.4,0.9-0.6,1.3l-0.5,0.9C662.2,23.3,662.3,23.4,662.2,23.4z M669.9,21.9
		c0.2-0.3,0.3-0.6,0.4-0.8c0-0.1,0.1-0.2,0.2-0.3l-0.1,0.3C670.2,21.3,670.1,21.6,669.9,21.9l-0.4,1.1l-0.6,1.2
		c-0.5,0.8-0.8,1.7-1.1,2.3c-0.2,0.3-0.2,0.6-0.3,0.8l-0.1,0.3c0-0.1,0-0.2,0.1-0.3c0-0.2,0.2-0.5,0.3-0.8c0.2-0.3,0.3-0.7,0.5-1.1
		c0.2-0.5,0.4-0.8,0.6-1.3C669.2,23.3,669.6,22.6,669.9,21.9z M665.6,30.4c-0.2,0.5-0.4,0.9-0.6,1.3c-0.1,0.4-0.3,0.7-0.3,1
		c0,0.1,0,0.2,0,0.3c0,0,0,0.1,0,0.1v-0.1v-0.3c0-0.2,0-0.3,0.1-0.5c0-0.2,0-0.4,0.1-0.6c0-0.2,0.1-0.4,0.2-0.7
		c0.1-0.2,0.2-0.4,0.3-0.7l0.7-1.6c0.3-0.5,0.5-1,0.8-1.6c0.3-0.5,0.5-0.9,0.7-1.3L668,25c0-0.1,0.1-0.2,0.2-0.3L668,25
		c-0.1,0.2-0.2,0.5-0.4,1c-0.2,0.3-0.4,0.8-0.6,1.3c-0.3,0.5-0.5,1-0.8,1.6C666,29.4,665.9,29.9,665.6,30.4z M670.4,36.5
		c-0.1,0.1-0.3,0.1-0.4,0.2s-0.3,0.2-0.6,0.3c-0.3,0.1-0.5,0.2-0.8,0.2h-0.4l-0.4-0.1c-0.3,0-0.5-0.1-0.6-0.3l-0.3-0.1l-0.2-0.1
		l-0.1-0.1c0,0,0,0,0.1,0c0,0,0.1,0.1,0.2,0.1l0.3,0.1c0.2,0.1,0.4,0.2,0.6,0.2c0.1,0,0.3,0,0.4,0h0.4c0.5,0,1-0.2,1.3-0.3
		L670.4,36.5l0.2-0.1L670.4,36.5z"/>
</g>
</svg>
