<?xml version="1.0" standalone="no"?><!DOCTYPE svg PUBLIC "-//W3C//DTD SVG 1.1//EN" "http://www.w3.org/Graphics/SVG/1.1/DTD/svg11.dtd"><svg width="100%" height="100%" viewBox="0 0 200 200" version="1.1" xmlns="http://www.w3.org/2000/svg" xmlns:xlink="http://www.w3.org/1999/xlink" xml:space="preserve" style="fill-rule:evenodd;clip-rule:evenodd;stroke-linejoin:round;stroke-miterlimit:1.41421;"><path d="M100,1.759c54.221,0 98.241,44.02 98.241,98.241c0,54.221 -44.02,98.241 -98.241,98.241c-54.221,0 -98.241,-44.02 -98.241,-98.241c0,-54.221 44.02,-98.241 98.241,-98.241ZM67.943,47.282c-11.362,0 -20.661,9.299 -20.661,20.661l0,64.117c0,11.362 9.299,20.658 20.661,20.658l64.117,0c11.362,0 20.658,-9.296 20.658,-20.658l0,-64.117c0,-11.362 -9.296,-20.661 -20.658,-20.661l-64.117,0l0,0ZM65.073,87.781l15.923,0l0,47.91l-15.923,0l0,-47.91ZM105.734,135.691l-15.923,0c0,0 0.209,-43.418 0,-47.913l15.926,0l0,6.785c2.116,-3.265 5.901,-7.909 14.351,-7.909l0,0c10.478,0 18.332,6.848 18.332,21.564l0,27.473l-15.923,0l0,-25.631c0,-6.44 -2.304,-10.835 -8.067,-10.835c-4.399,0 -7.021,2.962 -8.172,5.823c-0.421,1.024 -0.524,2.453 -0.524,3.885l0,26.758ZM73.035,81.233l-0.102,0c-5.345,0 -8.799,-3.677 -8.799,-8.274c0,-4.701 3.559,-8.278 9.006,-8.278l0,0c5.448,0 8.804,3.576 8.907,8.278c0,4.597 -3.459,8.274 -9.012,8.274Z" style="fill:#444;"/></svg>