<?xml version="1.0" encoding="utf-8"?>
<!-- Generator: Adobe Illustrator 21.0.2, SVG Export Plug-In . SVG Version: 6.00 Build 0)  -->
<svg version="1.1" id="Layer_1" xmlns="http://www.w3.org/2000/svg" xmlns:xlink="http://www.w3.org/1999/xlink" x="0px" y="0px"
	 viewBox="0 0 60.4 60.4" style="enable-background:new 0 0 60.4 60.4;" xml:space="preserve">
<style type="text/css">
	.st0{fill:#AAC0D0;}
</style>
<path class="st0" d="M30.3,0c0.2,0,0.4,0,0.6,0c0.4,0,0.7,0,1.1,0c1,0.1,2.1,0.2,3.1,0.3c1.3,0.2,2.5,0.5,3.7,0.9
	c1.3,0.4,2.5,0.8,3.7,1.4c1.5,0.7,3,1.5,4.4,2.4c1.4,0.9,2.7,2,3.9,3.1c1.3,1.2,2.4,2.5,3.5,3.8c1.1,1.4,2,2.9,2.8,4.5
	c0.7,1.3,1.2,2.6,1.7,4c0.5,1.4,0.8,2.7,1.1,4.1c0.3,1.9,0.5,3.7,0.5,5.6c0,1.4-0.1,2.8-0.3,4.2c-0.2,1.5-0.5,3-1,4.4
	c-0.5,1.5-1,3-1.7,4.5c-0.8,1.6-1.7,3.2-2.8,4.6c-1.1,1.5-2.3,2.8-3.6,4.1c-1.3,1.3-2.8,2.4-4.3,3.4c-1.6,1-3.3,1.9-5,2.7
	c-1.9,0.8-3.9,1.4-5.9,1.8c-1.9,0.4-3.8,0.5-5.7,0.5s-3.8-0.2-5.7-0.5c-2-0.4-4-1-5.9-1.8c-1.7-0.7-3.4-1.6-4.9-2.6
	c-1.6-1-3-2.2-4.4-3.5c-1.3-1.3-2.5-2.6-3.6-4.1c-1.1-1.5-2-3-2.8-4.6c-0.7-1.4-1.3-2.9-1.7-4.4c-0.4-1.5-0.8-3-1-4.5
	C0.1,33,0,31.6,0,30.2c0-1.9,0.2-3.8,0.5-5.6c0.3-1.4,0.6-2.7,1.1-4.1c0.5-1.4,1-2.7,1.7-4C4,15,5,13.5,6,12.1
	c1-1.4,2.2-2.7,3.4-3.9c1.2-1.2,2.6-2.2,4-3.2c1.4-0.9,2.9-1.8,4.5-2.5c1.2-0.5,2.5-1,3.7-1.4c1.2-0.4,2.5-0.7,3.7-0.9
	c1-0.2,2.1-0.3,3.1-0.3c0.4,0,0.7,0,1.1,0c0.2,0,0.4,0,0.6,0C30.2,0,30.2,0,30.3,0L30.3,0z M30.1,2.1c-0.2,0-0.4,0-0.5,0
	c-0.3,0-0.7,0-1,0c-1,0.1-2,0.2-3,0.3c-1.1,0.2-2.3,0.5-3.4,0.8C21,3.6,19.8,4,18.7,4.5c-1.4,0.6-2.8,1.4-4.2,2.3
	c-1.3,0.9-2.5,1.8-3.6,2.9c-1.2,1.1-2.3,2.3-3.3,3.6c-0.9,1.2-1.8,2.6-2.5,3.9c-0.6,1.2-1.2,2.5-1.6,3.8c-0.4,1.2-0.8,2.5-1,3.8
	c-0.3,1.8-0.5,3.5-0.5,5.3c0,1.3,0.1,2.6,0.3,3.9c0.2,1.4,0.5,2.8,0.9,4.2c0.4,1.4,1,2.8,1.6,4.1c0.7,1.5,1.6,2.9,2.6,4.3
	c1,1.4,2.1,2.6,3.3,3.8c1.3,1.2,2.6,2.3,4.1,3.3c1.4,0.9,3,1.8,4.6,2.4c1.8,0.7,3.6,1.3,5.5,1.6c1.8,0.3,3.5,0.5,5.3,0.5
	s3.6-0.2,5.3-0.5c1.9-0.4,3.7-0.9,5.5-1.6c1.6-0.7,3.2-1.5,4.7-2.5c1.4-0.9,2.8-2,4-3.2c1.2-1.2,2.3-2.4,3.3-3.8
	c1-1.4,1.8-2.8,2.6-4.3c0.6-1.3,1.2-2.7,1.6-4.2c0.4-1.3,0.7-2.7,0.9-4.1c0.2-1.3,0.3-2.6,0.3-3.9c0-1.8-0.2-3.6-0.5-5.3
	c-0.3-1.3-0.6-2.6-1-3.9c-0.4-1.3-1-2.5-1.6-3.7c-0.7-1.4-1.6-2.8-2.6-4.1c-1-1.3-2-2.5-3.2-3.6c-1.1-1.1-2.3-2-3.6-2.9
	c-1.3-0.9-2.7-1.6-4.1-2.3c-1.1-0.5-2.2-0.9-3.4-1.3c-1.1-0.3-2.3-0.6-3.5-0.8c-1-0.2-2-0.3-3-0.3c-0.3,0-0.7,0-1,0
	c-0.2,0-0.4,0-0.5,0C30.2,2.1,30.2,2.1,30.1,2.1L30.1,2.1z M56.9,29.4c0,0.3,0,0.5,0,0.8c0,14.7-12,26.7-26.7,26.7
	c-9.1,0-17.1-4.5-21.9-11.4C8.5,45.2,8.8,45,9,44.8c1.2-1,2.5-2.1,3.7-3.1c0.5-0.4,0.9-0.8,1.4-1.2c0.2-0.2,0.4-0.3,0.5-0.5
	c0.1-0.1,0.3-0.2,0.4-0.4l0,0c-0.5,1.4-1.1,2.8-1.6,4.3c-0.2,0.4-0.3,0.9-0.5,1.3c0,0.1-0.1,0.2-0.1,0.3c0,0,0,0.1,0,0.1
	c0,0,0,0,0,0c0,0.1-0.1,0.2-0.1,0.3c0,0.1,0,0.2,0,0.3c0,0.1,0.1,0.2,0.1,0.3c0.1,0.2,0.3,0.3,0.5,0.4c0.1,0,0.2,0.1,0.3,0.1
	c0.1,0,0.2,0,0.3,0c0.2-0.1,0.4-0.2,0.5-0.4c0.1-0.1,0.1-0.2,0.1-0.3l0,0c0.2-0.5,0.4-1,0.5-1.5c0.2-0.6,0.5-1.3,0.7-1.9
	c0.7-1.9,1.4-3.8,2.1-5.7c0.1-0.2,0.2-0.4,0.2-0.6c0.3-0.3,0.6-0.6,1-0.9c0.1,0,0.1-0.1,0.2-0.1l0,0c0.2-0.1,0.3-0.2,0.5-0.3
	c0.2-0.1,0.4-0.2,0.6-0.3c0.5-0.3,1-0.6,1.5-0.8c0.6-0.3,1.2-0.6,1.8-0.9c0.6-0.3,1.2-0.6,1.8-0.8c0.7-0.3,1.4-0.6,2.2-0.8
	c0.3-0.1,0.7-0.2,1-0.3c0.3-0.1,0.6-0.1,0.9-0.2c0.4-0.1,0.9-0.1,1.3-0.1c0.3,0,0.7,0.1,1,0.1c0.2,0.1,0.4,0.1,0.6,0.3
	c0.1,0.1,0.2,0.2,0.3,0.3c0.1,0.1,0.1,0.1,0.2,0.2c0.3,0.3,0.5,0.7,0.6,1.2c0,0.1,0,0.1,0,0.2c0,0.1,0,0.2,0.1,0.3
	c0,0.1,0,0.1,0,0.2c0,0.1,0,0.1,0,0.2c0,0.3,0,0.6-0.1,0.9c0,0.1-0.1,0.1-0.1,0.2c-0.1,0.1-0.1,0.2-0.2,0.3
	c-0.1,0.1-0.3,0.2-0.4,0.3c-0.2,0.1-0.4,0.2-0.6,0.3c-0.3,0.1-0.6,0.2-0.9,0.3c-0.4,0.1-0.8,0.1-1.1,0.2c-0.3,0-0.6,0.1-0.9,0.1
	c-0.7,0-1.4,0-2,0c-0.7,0-1.3-0.1-1.9-0.2c-0.2,0-0.4-0.1-0.7-0.1c-0.1,0-0.2,0-0.3,0c-0.1,0-0.2,0-0.4-0.1c-0.1,0-0.1,0-0.2,0
	c0,0,0,0-0.1,0l0,0l-0.1,0l0,0c0,0-0.1,0-0.1,0c0,0-0.1,0-0.1,0c-0.1,0-0.1,0.1-0.2,0.1c0,0-0.1,0-0.1,0.1c0,0-0.1,0-0.1,0.1
	c0,0-0.1,0.1-0.1,0.1c0,0.1-0.1,0.1-0.1,0.2c0,0.1-0.1,0.1-0.1,0.2c0,0.1-0.1,0.2-0.1,0.3c0,0.1,0,0.3,0,0.4c0,0.1,0,0.2,0,0.3
	c0,0.1,0,0.2,0.1,0.3c0,0.1,0.1,0.2,0.1,0.3c0,0.2,0.1,0.3,0.1,0.5c0.1,0.2,0.1,0.4,0.2,0.6c0.1,0.3,0.2,0.5,0.3,0.8
	c0.1,0.3,0.2,0.6,0.4,0.9c0.2,0.4,0.4,0.8,0.6,1.3c0.2,0.3,0.3,0.6,0.5,1c0.1,0.2,0.3,0.5,0.4,0.7c0.1,0.2,0.3,0.4,0.4,0.6
	c0.8,1,1.7,2,2.7,2.7c0.2,0.1,0.3,0.2,0.5,0.3c0.2,0.1,0.5,0.3,0.7,0.4c0.3,0.2,0.7,0.3,1,0.4c0.5,0.2,1,0.3,1.6,0.4
	c0.3,0.1,0.7,0.1,1,0.1c0.3,0,0.5,0,0.8,0c0.2,0,0.4,0,0.6,0c1.2-0.1,2.4-0.5,3.5-1c0.2-0.1,0.3-0.1,0.5-0.2
	c0.2-0.1,0.4-0.2,0.7-0.3c0.3-0.1,0.6-0.3,0.8-0.5c0.4-0.2,0.7-0.4,1.1-0.7c0.5-0.3,0.9-0.6,1.3-0.9c0.6-0.4,1.1-0.8,1.6-1.3
	c0.7-0.6,1.4-1.2,2-1.8c0.8-0.8,1.6-1.6,2.4-2.4c1-1.1,1.9-2.2,2.8-3.3c1-1.2,1.9-2.4,2.8-3.6C55.2,31.8,56,30.6,56.9,29.4
	L56.9,29.4z M7.2,43.7c-2.3-4-3.7-8.6-3.7-13.5c0-14.7,12-26.7,26.7-26.7c13.4,0,24.5,9.9,26.4,22.7l0,0l-0.1,0.1l-0.1,0.1
	c-0.3,0.5-0.7,1-1,1.5c-1,1.4-2,2.8-3,4.2c-1,1.4-2.1,2.8-3.2,4.1c-0.9,1-1.8,2.1-2.7,3.1c-0.7,0.8-1.5,1.5-2.2,2.2
	c-0.6,0.6-1.2,1.1-1.9,1.6c-0.5,0.4-1,0.8-1.5,1.1c-0.4,0.3-0.8,0.5-1.2,0.8c-0.3,0.2-0.6,0.4-1,0.6c-0.3,0.1-0.5,0.3-0.8,0.4
	c-0.2,0.1-0.4,0.2-0.6,0.3c-0.2,0.1-0.3,0.1-0.5,0.2c-1,0.4-2,0.6-3,0.6c-0.1,0-0.3,0-0.4,0c-0.2,0-0.4,0-0.6-0.1
	c-0.3,0-0.6-0.1-0.9-0.2c-0.4-0.1-0.8-0.3-1.2-0.5c-0.6-0.3-1.2-0.7-1.7-1.1c-0.4-0.3-0.7-0.7-1-1c-0.4-0.4-0.7-0.9-1-1.4
	c-0.5-0.7-0.9-1.5-1.2-2.3c-0.2-0.3-0.3-0.7-0.4-1.1c-0.1-0.3-0.2-0.7-0.3-1l0,0c0.2,0,0.5,0.1,0.7,0.1c0.3,0,0.5,0.1,0.8,0.1
	c0.4,0,0.9,0.1,1.3,0.1c0.7,0,1.5,0,2.2-0.1c0.6-0.1,1.2-0.1,1.9-0.3c0.5-0.1,1-0.3,1.5-0.5c0.4-0.2,0.7-0.4,1.1-0.7
	c0.2-0.2,0.4-0.3,0.5-0.5c0.2-0.2,0.3-0.4,0.4-0.7c0.1-0.3,0.2-0.6,0.3-0.9c0.1-0.3,0.1-0.6,0.1-0.8c0-0.2,0-0.4,0-0.6
	c0-0.1,0-0.3-0.1-0.4c-0.1-0.4-0.2-0.9-0.4-1.3c-0.1-0.2-0.2-0.5-0.3-0.7c-0.1-0.2-0.3-0.5-0.5-0.7c-0.2-0.2-0.4-0.4-0.6-0.5
	c-0.2-0.1-0.3-0.2-0.5-0.3c-0.1-0.1-0.2-0.1-0.4-0.2c-0.1,0-0.2-0.1-0.3-0.1c-0.7-0.3-1.5-0.3-2.2-0.3c-0.1,0-0.3,0-0.4,0
	c-0.2,0-0.3,0-0.5,0c-0.2,0-0.4,0.1-0.7,0.1c-0.3,0-0.6,0.1-0.8,0.2c-0.4,0.1-0.7,0.2-1.1,0.3c-0.5,0.1-0.9,0.3-1.4,0.5
	c-0.4,0.2-0.9,0.3-1.3,0.5c0.7-0.7,1.5-1.5,2.2-2.3c0.8-0.8,1.5-1.6,2.2-2.5c0.6-0.7,1.3-1.5,1.9-2.2c0.6-0.7,1.1-1.4,1.6-2.1
	c0.5-0.6,0.9-1.3,1.3-1.9c0.4-0.6,0.7-1.2,1.1-1.9c0.1-0.3,0.3-0.6,0.4-0.9c0.1-0.2,0.2-0.5,0.3-0.7c0.1-0.2,0.1-0.4,0.2-0.5
	c0-0.1,0.1-0.3,0.1-0.4c0-0.1,0-0.2,0.1-0.3c0.1-0.7,0.2-1.4,0.1-2.1c0-0.1,0-0.2-0.1-0.3c0-0.1-0.1-0.3-0.1-0.4
	c-0.1-0.2-0.2-0.4-0.3-0.6c-0.1-0.3-0.3-0.5-0.5-0.7c-0.2-0.3-0.5-0.5-0.8-0.7c-0.3-0.2-0.6-0.3-0.9-0.3c-0.1,0-0.2,0-0.4,0
	c-0.1,0-0.1,0-0.2,0c0,0-0.1,0-0.1,0c0,0-0.1,0-0.1,0c-0.1,0-0.2,0-0.3,0c-0.1,0-0.1,0-0.2,0c-0.5,0.1-1,0.3-1.4,0.6
	c-0.1,0-0.2,0.1-0.2,0.2c-0.1,0.1-0.2,0.1-0.3,0.2c-0.1,0.1-0.2,0.2-0.3,0.3c-0.1,0.1-0.3,0.2-0.4,0.4c-0.2,0.2-0.3,0.3-0.5,0.5
	c-0.2,0.2-0.4,0.5-0.6,0.7c-0.3,0.3-0.5,0.6-0.8,1c-0.3,0.4-0.6,0.9-0.9,1.3c-0.4,0.6-0.8,1.2-1.1,1.8c-0.4,0.7-0.8,1.3-1.1,2
	c-0.4,0.7-0.8,1.4-1.1,2.1c-0.4,0.8-0.8,1.6-1.2,2.5c-0.8,1.6-1.5,3.3-2.2,4.9c-0.7,1.6-1.4,3.2-2.1,4.9c-0.2,0.6-0.5,1.1-0.7,1.7
	c-0.1,0.2-0.2,0.4-0.2,0.6c-2,1.9-4.1,3.7-6.2,5.5c-0.8,0.7-1.6,1.4-2.4,2.1C7.7,43.3,7.4,43.5,7.2,43.7L7.2,43.7z M32.6,11.9
	c-0.2,0-0.4,0.1-0.6,0.1c-0.1,0.1-0.2,0.1-0.4,0.2c-0.1,0.1-0.3,0.2-0.4,0.3c-0.2,0.1-0.4,0.3-0.6,0.5c-0.2,0.2-0.4,0.4-0.6,0.6
	c-0.2,0.2-0.4,0.5-0.6,0.7c-0.2,0.3-0.4,0.5-0.6,0.8c-0.3,0.4-0.5,0.7-0.8,1.1c-0.3,0.5-0.6,1-0.9,1.5c-0.3,0.5-0.6,1.1-0.9,1.6
	c-0.7,1.2-1.3,2.4-1.9,3.7c-0.7,1.3-1.3,2.7-1.9,4c-0.8,1.7-1.6,3.5-2.3,5.3c0.1-0.1,0.3-0.3,0.4-0.4c1.4-1.4,2.9-2.8,4.2-4.3
	c1.1-1.2,2.2-2.4,3.3-3.6c0.5-0.6,0.9-1.1,1.4-1.7c0.4-0.5,0.8-1.1,1.3-1.6c0.4-0.5,0.7-1,1-1.5c0.3-0.5,0.6-1,0.9-1.4
	c0.2-0.3,0.4-0.7,0.5-1.1c0.1-0.3,0.3-0.6,0.4-0.9c0.1-0.2,0.2-0.5,0.2-0.7c0-0.1,0.1-0.2,0.1-0.4c0-0.1,0-0.2,0-0.3
	c0-0.1,0-0.2,0-0.2c0-0.1,0-0.1,0-0.2c0-0.4,0-0.7-0.2-1.1c0-0.1-0.1-0.1-0.1-0.2c-0.1-0.1-0.1-0.2-0.2-0.3c0,0-0.1-0.1-0.1-0.1
	c-0.1-0.1-0.3-0.2-0.5-0.3C32.8,11.9,32.7,11.9,32.6,11.9C32.6,11.9,32.6,11.9,32.6,11.9L32.6,11.9z"/>
</svg>
