<?xml version="1.0" standalone="no"?><!DOCTYPE svg PUBLIC "-//W3C//DTD SVG 1.1//EN" "http://www.w3.org/Graphics/SVG/1.1/DTD/svg11.dtd"><svg width="100%" height="100%" viewBox="0 0 500 550" version="1.1" xmlns="http://www.w3.org/2000/svg" xmlns:xlink="http://www.w3.org/1999/xlink" xml:space="preserve" style="fill-rule:evenodd;clip-rule:evenodd;stroke-linejoin:round;stroke-miterlimit:1.41421;"><g><path d="M23.798,385.012l2.177,3.427c3.101,4.831 2.381,8.24 -2.654,11.438c-5.034,3.197 -8.426,2.4 -11.48,-2.46l-2.177,-3.427l14.134,-8.978ZM7.272,393.253l3.708,5.838c3.346,5.007 7.832,5.906 13.362,2.393c5.531,-3.513 6.624,-7.955 3.514,-13.112l-3.708,-5.838l-16.876,10.719Z" style="fill:#444;fill-rule:nonzero;"/><path d="M31.726,417.156c3.354,-2.292 5.531,-6.186 2.778,-9.931c-2.72,-3.7 -6.955,-2.984 -10.023,-0.729c-3.317,2.438 -5.015,6.084 -2.295,9.784c2.156,2.933 4.818,3.339 7.905,2.008l-1.045,-1.421c-2.091,0.842 -4.138,0.61 -5.664,-1.466c-2.007,-2.729 -0.299,-5.653 1.76,-7.202l6.584,8.957ZM26.338,407.32c2.286,-1.333 5.262,-1.54 6.97,0.784c1.692,2.301 0.662,5.108 -1.431,6.751l-5.539,-7.535Z" style="fill:#444;fill-rule:nonzero;"/><path d="M44.052,426.729c2.342,-2.089 2.039,-4.822 0.197,-7.041c-1.627,-1.961 -4.331,-3.465 -6.593,-1.587c-1.896,1.574 -1.391,3.41 -0.398,5.57l1.06,2.068c0.718,1.478 1.288,3.042 -0.004,4.115c-1.552,1.288 -3.578,-0.014 -4.633,-1.285c-1.502,-1.81 -1.681,-3.954 0.061,-5.582l-1.127,-1.357c-2.535,2.468 -2.276,5.236 -0.13,7.822c1.717,2.068 4.628,3.691 7.041,1.688c1.94,-1.609 1.503,-3.976 0.453,-5.724l-1.093,-2.15c-0.532,-1.123 -1.245,-2.86 -0.039,-3.861c1.444,-1.198 3.098,-0.17 4.099,1.037c1.288,1.551 1.607,3.47 -0.02,4.929l1.126,1.358Z" style="fill:#444;fill-rule:nonzero;"/><path d="M40.084,437.606l1.183,1.309l10.716,-9.692l-1.184,-1.308l-10.715,9.691ZM52.814,426.093l1.183,1.308l2.098,-1.896l-1.184,-1.309l-2.097,1.897Z" style="fill:#444;fill-rule:nonzero;"/><path d="M50.699,446.449c-2.285,-2.309 -1.339,-5.373 0.731,-7.421c2.129,-2.108 5.243,-3.22 7.607,-0.832c2.344,2.368 1.021,5.529 -0.989,7.518c-2.089,2.068 -5.202,2.904 -7.349,0.735ZM64.304,442.004l-1.241,-1.254l-1.771,1.753l-0.04,-0.039c0.642,-1.621 0.317,-3.82 -1.16,-5.312c-2.935,-2.966 -6.938,-2.313 -9.764,0.484c-2.925,2.896 -3.934,6.573 -0.684,9.857c1.458,1.472 3.515,1.839 5.34,1.175l0.039,0.04l-1.393,1.379c-2.507,2.482 -4.865,2.846 -7.15,0.538c-1.379,-1.393 -2.161,-3.258 -0.925,-5.034l-1.241,-1.254c-2.011,2.346 -0.918,5.282 1.111,7.332c3.329,3.363 6.362,2.685 9.446,-0.328l9.433,-9.337Z" style="fill:#444;fill-rule:nonzero;"/><path d="M58.52,456.386l1.319,1.171l5.593,-6.305c1.918,-2.079 4.587,-2.556 6.682,-0.698c2.137,1.895 1.499,3.837 -0.154,5.701l-5.983,6.746l1.32,1.17l6.168,-6.955c2.285,-2.576 2.776,-4.986 -0.262,-7.68c-1.529,-1.356 -3.755,-1.758 -5.388,-0.887l-0.042,-0.037l1.653,-1.864l-1.319,-1.171l-9.587,10.809Z" style="fill:#444;fill-rule:nonzero;"/><path d="M83.87,469.183c-1.059,1.433 -0.771,3.437 0.663,4.495c1.433,1.059 3.447,0.756 4.506,-0.677c1.059,-1.433 0.745,-3.433 -0.688,-4.492c-1.434,-1.058 -3.422,-0.759 -4.481,0.674Z" style="fill:#444;fill-rule:nonzero;"/><path d="M101.697,480.798c-2.126,3.525 -2.039,7.664 2.708,10.527c4.772,2.878 8.473,1.023 10.599,-2.501l6.609,-10.958l-1.631,-0.983l-6.391,10.598c-2.377,3.994 -5.182,4.363 -8.347,2.454c-3.141,-1.895 -4.124,-4.548 -1.7,-8.513l6.392,-10.598l-1.63,-0.983l-6.609,10.957Z" style="fill:#444;fill-rule:nonzero;"/><path d="M130.755,493.641c1.334,-2.84 -0.016,-5.234 -2.581,-6.553c-2.266,-1.166 -5.343,-1.489 -6.687,1.126c-1.127,2.191 0.058,3.682 1.818,5.28l1.786,1.485c1.241,1.079 2.379,2.294 1.61,3.788c-0.922,1.793 -3.296,1.39 -4.765,0.635c-2.092,-1.076 -3.097,-2.978 -2.133,-5.159l-1.569,-0.807c-1.365,3.266 -0.04,5.71 2.948,7.247c2.39,1.229 5.705,1.58 7.139,-1.209c1.153,-2.241 -0.177,-4.247 -1.829,-5.443l-1.848,-1.549c-0.93,-0.824 -2.267,-2.142 -1.55,-3.536c0.858,-1.669 2.783,-1.371 4.177,-0.654c1.793,0.922 2.839,2.562 1.915,4.543l1.569,0.806Z" style="fill:#444;fill-rule:nonzero;"/><path d="M145.2,503.981c1.764,-3.659 1.709,-8.12 -2.544,-9.993c-4.203,-1.851 -7.517,0.881 -9.052,4.366c-1.659,3.767 -1.313,7.774 2.89,9.625c3.331,1.467 5.841,0.492 7.853,-2.201l-1.614,-0.711c-1.393,1.773 -3.284,2.592 -5.641,1.554c-3.101,-1.366 -3.078,-4.752 -2.065,-7.12l10.173,4.48ZM135.625,498.143c1.317,-2.296 3.793,-3.959 6.432,-2.797c2.614,1.151 3.122,4.098 2.126,6.566l-8.558,-3.769Z" style="fill:#444;fill-rule:nonzero;"/><path d="M147.345,512.06l1.651,0.622l2.717,-7.205c1.057,-2.803 3.93,-4.233 6.858,-2.95l0.622,-1.65c-2.397,-1.024 -4.715,-0.431 -6.373,1.427l-0.053,-0.02l1.196,-3.17l-1.52,-0.573l-5.098,13.519Z" style="fill:#444;fill-rule:nonzero;"/><path d="M168.591,519.481l13.446,3.694l0.43,-1.566l-11.609,-3.19l2.092,-7.614l10.745,2.953l0.431,-1.566l-10.746,-2.953l1.914,-6.966l11.475,3.153l0.43,-1.566l-13.311,-3.657l-5.297,19.278Z" style="fill:#444;fill-rule:nonzero;"/><path d="M185.442,523.991l2.138,0.449l5.605,-5.032l3.191,6.878l2.192,0.46l-3.96,-8.528l6.517,-5.698l-2.165,-0.455l-5.073,4.543l-2.901,-6.216l-2.165,-0.455l3.643,7.86l-7.022,6.194Z" style="fill:#444;fill-rule:nonzero;"/><path d="M215.495,522.032c-0.428,2.966 -2.238,5.901 -5.563,5.422c-3.714,-0.536 -4.564,-3.856 -4.137,-6.821c0.468,-3.242 2.044,-5.929 5.896,-5.373c3.326,0.48 4.232,3.807 3.804,6.772ZM202.254,532.824l1.746,0.252l1.156,-8.009l0.055,0.008c0.453,2.159 2.375,3.54 4.509,3.847c4.351,0.628 6.937,-2.592 7.521,-6.638c0.584,-4.046 -0.987,-7.865 -5.338,-8.493c-2.3,-0.332 -4.468,0.572 -5.551,2.396l-0.056,-0.008l0.392,-2.716l-1.607,-0.232l-2.827,19.593Z" style="fill:#444;fill-rule:nonzero;"/><path d="M234.364,524.264c0.464,-4.036 -1.054,-8.231 -5.687,-8.602c-4.577,-0.366 -6.809,3.303 -7.113,7.099c-0.329,4.103 1.315,7.774 5.892,8.141c3.629,0.29 5.679,-1.456 6.694,-4.661l-1.759,-0.141c-0.732,2.133 -2.248,3.528 -4.816,3.322c-3.377,-0.27 -4.469,-3.476 -4.291,-6.046l11.08,0.888ZM223.402,521.897c0.49,-2.601 2.282,-4.986 5.157,-4.755c2.846,0.228 4.294,2.844 4.166,5.502l-9.323,-0.747Z" style="fill:#444;fill-rule:nonzero;"/><path d="M238.998,531.189l1.763,0.047l0.206,-7.697c0.079,-2.995 2.325,-5.288 5.512,-5.034l0.047,-1.764c-2.6,-0.181 -4.596,1.138 -5.554,3.437l-0.056,-0.001l0.091,-3.387l-1.624,-0.043l-0.385,14.442Z" style="fill:#444;fill-rule:nonzero;"/><path d="M250.623,531.388l1.764,-0.008l-0.064,-14.448l-1.764,0.008l0.064,14.448ZM250.547,514.224l1.764,-0.008l-0.012,-2.828l-1.764,0.008l0.012,2.828Z" style="fill:#444;fill-rule:nonzero;"/><path d="M270.425,523.984c-0.06,-4.062 -2.105,-8.026 -6.747,-7.797c-4.587,0.225 -6.328,4.152 -6.141,7.955c0.203,4.111 2.306,7.54 6.892,7.314c3.636,-0.179 5.444,-2.174 6.038,-5.483l-1.762,0.086c-0.452,2.209 -1.776,3.788 -4.349,3.915c-3.383,0.167 -4.879,-2.872 -5.033,-5.443l11.102,-0.547ZM259.25,523.049c0.15,-2.643 1.62,-5.238 4.501,-5.38c2.852,-0.141 4.625,2.267 4.839,4.92l-9.34,0.46Z" style="fill:#444;fill-rule:nonzero;"/><path d="M275.845,530.3l1.754,-0.194l-0.93,-8.377c-0.256,-2.817 1.179,-5.117 3.962,-5.426c2.839,-0.315 3.853,1.46 4.127,3.937l0.995,8.961l1.753,-0.194l-1.025,-9.24c-0.38,-3.423 -1.839,-5.402 -5.874,-4.954c-2.032,0.225 -3.822,1.607 -4.271,3.403l-0.056,0.007l-0.274,-2.477l-1.754,0.194l1.593,14.36Z" style="fill:#444;fill-rule:nonzero;"/><path d="M303.686,516.303c-0.956,-3.187 -3.585,-4.404 -6.619,-3.873c-4.358,0.763 -6.126,4.626 -5.412,8.708c0.715,4.082 3.69,7.114 8.048,6.351c3.172,-0.555 5.039,-3.042 4.909,-6.544l-1.738,0.304c0.195,2.41 -1.276,4.402 -3.427,4.778c-3.337,0.584 -5.523,-2.16 -6.054,-5.194c-0.531,-3.033 0.592,-6.357 3.93,-6.941c2.261,-0.396 3.785,0.673 4.625,2.715l1.738,-0.304Z" style="fill:#444;fill-rule:nonzero;"/><path d="M320.896,515.566c-0.81,-3.981 -3.553,-7.498 -8.073,-6.415c-4.466,1.07 -5.451,5.25 -4.564,8.953c0.959,4.003 3.66,6.984 8.126,5.914c3.54,-0.848 4.948,-3.144 4.919,-6.505l-1.715,0.411c-0.036,2.254 -1.045,4.051 -3.55,4.651c-3.295,0.789 -5.326,-1.92 -5.953,-4.419l10.81,-2.59ZM309.74,516.713c-0.341,-2.625 0.624,-5.447 3.428,-6.119c2.778,-0.666 4.965,1.373 5.666,3.94l-9.094,2.179Z" style="fill:#444;fill-rule:nonzero;"/><path d="M335.166,511.65c0.568,1.689 2.375,2.6 4.064,2.032c1.689,-0.568 2.595,-2.392 2.027,-4.081c-0.568,-1.689 -2.387,-2.577 -4.076,-2.009c-1.689,0.568 -2.583,2.369 -2.015,4.058Z" style="fill:#444;fill-rule:nonzero;"/><path d="M352.239,492.653l3.706,-1.657c5.229,-2.369 8.498,-1.163 10.933,4.281c2.435,5.444 1.155,8.686 -4.097,11.004l-3.706,1.657l-6.836,-15.285ZM358,510.198l6.314,-2.824c5.438,-2.585 6.977,-6.893 4.302,-12.874c-2.675,-5.981 -6.912,-7.706 -12.465,-5.376l-6.313,2.824l8.162,18.25Z" style="fill:#444;fill-rule:nonzero;"/><path d="M385.172,489.465c-1.784,-3.65 -5.323,-6.366 -9.426,-4.182c-4.054,2.157 -3.957,6.451 -2.168,9.813c1.933,3.633 5.296,5.84 9.35,3.683c3.213,-1.71 4,-4.285 3.128,-7.532l-1.557,0.828c0.532,2.191 0.006,4.184 -2.268,5.394c-2.991,1.592 -5.638,-0.521 -6.872,-2.782l9.813,-5.222ZM374.661,493.377c-0.989,-2.455 -0.764,-5.429 1.782,-6.784c2.521,-1.342 5.15,0.082 6.474,2.391l-8.256,4.393Z" style="fill:#444;fill-rule:nonzero;"/><path d="M396.199,490.756l1.602,-0.976l-2.903,-15.15l-1.554,0.947l2.774,13.163l-0.048,0.029l-10.474,-8.472l-1.673,1.02l12.276,9.439Z" style="fill:#444;fill-rule:nonzero;"/><path d="M412.37,471.993c-2.199,-3.416 -6.031,-5.699 -9.85,-3.051c-3.774,2.616 -3.176,6.869 -1.006,9.999c2.345,3.382 5.943,5.181 9.716,2.565c2.992,-2.074 3.472,-4.724 2.226,-7.847l-1.449,1.005c0.784,2.114 0.495,4.154 -1.622,5.622c-2.784,1.93 -5.66,0.142 -7.151,-1.959l9.136,-6.334ZM402.389,477.107c-1.27,-2.322 -1.394,-5.302 0.976,-6.946c2.347,-1.627 5.125,-0.52 6.709,1.618l-7.685,5.328Z" style="fill:#444;fill-rule:nonzero;"/><path d="M420.359,474.376l1.404,-1.068l-12.105,-15.91l-1.404,1.068l12.105,15.91Z" style="fill:#444;fill-rule:nonzero;"/><path d="M421.799,454.236c-3.393,2.839 -2.994,7.069 -0.335,10.247c2.659,3.179 6.751,4.318 10.145,1.479c3.393,-2.839 2.994,-7.068 0.335,-10.247c-2.659,-3.178 -6.752,-4.317 -10.145,-1.479ZM422.751,455.375c2.599,-2.174 5.863,-0.89 7.84,1.472c1.976,2.363 2.664,5.803 0.065,7.977c-2.598,2.174 -5.863,0.89 -7.839,-1.473c-1.977,-2.362 -2.665,-5.802 -0.066,-7.976Z" style="fill:#444;fill-rule:nonzero;"/><path d="M443.98,444.422c2.071,2.165 3.267,5.4 0.839,7.722c-2.712,2.594 -5.85,1.217 -7.921,-0.948c-2.264,-2.368 -3.408,-5.265 -0.595,-7.955c2.428,-2.322 5.607,-0.984 7.677,1.181ZM444.314,461.5l1.274,-1.219l-5.593,-5.848l0.04,-0.039c1.979,0.975 4.251,0.313 5.809,-1.177c3.177,-3.039 2.237,-7.06 -0.589,-10.014c-2.826,-2.955 -6.801,-4.073 -9.978,-1.034c-1.679,1.606 -2.304,3.87 -1.536,5.847l-0.04,0.039l-1.897,-1.983l-1.174,1.123l13.684,14.305Z" style="fill:#444;fill-rule:nonzero;"/><path d="M454.204,444.519l1.176,-1.315l-6.011,-5.375c-2.236,-2.037 -3.126,-4.486 -1.092,-6.761c1.494,-1.67 3.245,-1.192 4.688,0.135l7.305,6.533l1.176,-1.315l-6.095,-5.45c-2.003,-1.792 -3.303,-4.119 -1.269,-6.394c1.68,-1.878 3.237,-1.688 5.011,-0.101l7.243,6.477l1.176,-1.315l-7.305,-6.533c-2.547,-2.277 -4.861,-2.168 -6.97,0.191c-1.269,1.419 -1.793,3.391 -0.953,5.308c-1.774,-0.873 -3.601,-0.216 -4.87,1.204c-1.531,1.711 -1.704,3.585 -1.026,5.431l-0.056,0.062l-1.815,-1.624l-1.083,1.211l10.77,9.631Z" style="fill:#444;fill-rule:nonzero;"/><path d="M473.357,411.001c-3.14,-2.576 -7.488,-3.574 -10.311,0.119c-2.788,3.648 -0.914,7.513 2.111,9.825c3.271,2.5 7.247,3.107 10.035,-0.541c2.211,-2.892 1.854,-5.561 -0.289,-8.151l-1.071,1.402c1.395,1.771 1.746,3.801 0.181,5.848c-2.057,2.692 -5.342,1.872 -7.406,0.33l6.75,-8.832ZM465.428,418.932c-1.921,-1.821 -2.954,-4.619 -1.203,-6.911c1.735,-2.269 4.718,-2.068 6.882,-0.519l-5.679,7.43Z" style="fill:#444;fill-rule:nonzero;"/><path d="M481.686,410.93l0.983,-1.464l-6.997,-4.698c-2.317,-1.623 -3.148,-4.204 -1.587,-6.528c1.592,-2.372 3.602,-2 5.671,-0.611l7.486,5.025l0.983,-1.465l-7.718,-5.181c-2.86,-1.919 -5.313,-2.083 -7.576,1.288c-1.139,1.697 -1.24,3.957 -0.157,5.459l-0.032,0.047l-2.069,-1.389l-0.983,1.464l11.996,8.053Z" style="fill:#444;fill-rule:nonzero;"/><path d="M476.79,383.862l-0.909,1.512l3.72,2.236l-1.298,2.16l1.272,0.764l1.298,-2.16l8.471,5.092c2.098,1.294 3.188,1.002 4.4,-1.014c0.274,-0.456 0.486,-0.917 0.76,-1.373l-1.296,-0.779c-0.212,0.461 -0.448,0.907 -0.707,1.339c-0.721,1.037 -1.384,0.835 -2.368,0.243l-8.351,-5.02l1.514,-2.519l-1.272,-0.765l-1.514,2.52l-3.72,-2.236Z" style="fill:#444;fill-rule:nonzero;"/></g><path d="M251.035,1.224c1.597,0.008 3.193,0.026 4.789,0.061c2.909,0.065 5.816,0.18 8.722,0.346c8.6,0.491 17.174,1.428 25.677,2.811c10.372,1.687 20.637,4.038 30.708,7.037c10.404,3.098 20.602,6.886 30.506,11.331c12.524,5.62 24.577,12.289 35.996,19.907c11.345,7.569 22.065,16.073 32.018,25.395c10.306,9.651 19.79,20.179 28.315,31.434c8.716,11.507 16.428,23.774 23.011,36.62c5.389,10.516 10.022,21.419 13.847,32.599c3.801,11.108 6.803,22.488 8.978,34.025c2.864,15.186 4.291,30.638 4.291,46.091c0,11.573 -0.799,23.145 -2.404,34.607c-1.71,12.203 -4.335,24.278 -7.852,36.089c-3.742,12.566 -8.492,24.831 -14.186,36.641c-6.385,13.242 -13.955,25.91 -22.583,37.811c-8.725,12.036 -18.532,23.287 -29.26,33.577c-10.916,10.47 -22.785,19.944 -35.418,28.262c-12.939,8.52 -26.676,15.824 -40.979,21.775c-15.493,6.446 -31.645,11.3 -48.126,14.461c-15.43,2.959 -31.139,4.434 -46.85,4.434c-15.711,0 -31.42,-1.475 -46.85,-4.434c-16.48,-3.161 -32.632,-8.015 -48.126,-14.461c-14.073,-5.855 -27.599,-13.021 -40.355,-21.366c-12.866,-8.416 -24.946,-18.029 -36.041,-28.671c-10.729,-10.29 -20.535,-21.541 -29.261,-33.577c-8.628,-11.901 -16.198,-24.569 -22.582,-37.811c-5.584,-11.581 -10.26,-23.599 -13.968,-35.911c-3.626,-12.043 -6.325,-24.364 -8.07,-36.819c-1.606,-11.462 -2.404,-23.034 -2.404,-34.607c0,-15.453 1.426,-30.905 4.29,-46.091c2.128,-11.288 5.048,-22.427 8.733,-33.307c3.792,-11.194 8.393,-22.114 13.751,-32.649c6.433,-12.647 13.958,-24.737 22.457,-36.099c8.459,-11.306 17.88,-21.891 28.129,-31.604c10.077,-9.552 20.953,-18.259 32.48,-25.999c11.603,-7.791 23.864,-14.6 36.616,-20.322c9.903,-4.445 20.101,-8.233 30.505,-11.331c10.072,-2.999 20.336,-5.35 30.708,-7.037c8.503,-1.383 17.078,-2.32 25.678,-2.811c2.905,-0.166 5.813,-0.281 8.722,-0.346c1.596,-0.035 3.192,-0.053 4.788,-0.061c0.533,0 1.067,0 1.6,0ZM249.489,18.224c-1.488,0.007 -2.977,0.024 -4.465,0.057c-2.711,0.06 -5.422,0.167 -8.13,0.322c-8.251,0.471 -16.477,1.383 -24.63,2.735c-9.413,1.562 -18.729,3.711 -27.874,6.434c-9.684,2.884 -19.177,6.411 -28.396,10.548c-11.875,5.329 -23.294,11.67 -34.1,18.925c-10.548,7.083 -20.511,15.036 -29.759,23.749c-9.744,9.18 -18.693,19.204 -26.713,29.924c-7.637,10.21 -14.431,21.051 -20.28,32.381c-5.154,9.981 -9.575,20.34 -13.211,30.969c-3.46,10.113 -6.21,20.468 -8.223,30.965c-2.758,14.376 -4.13,29.011 -4.13,43.648c0,10.784 0.743,21.568 2.239,32.248c1.625,11.595 4.137,23.065 7.513,34.276c3.451,11.461 7.805,22.649 13.003,33.43c5.946,12.333 12.997,24.131 21.033,35.216c8.13,11.215 17.267,21.698 27.264,31.286c10.338,9.915 21.593,18.872 33.58,26.714c11.879,7.771 24.474,14.444 37.58,19.896c14.422,6.001 29.457,10.518 44.798,13.461c14.375,2.757 29.01,4.13 43.647,4.13c14.637,0 29.272,-1.373 43.648,-4.13c15.341,-2.943 30.376,-7.46 44.798,-13.461c13.319,-5.541 26.111,-12.344 38.16,-20.277c11.77,-7.75 22.829,-16.578 32.999,-26.333c9.997,-9.588 19.134,-20.071 27.264,-31.286c8.036,-11.085 15.087,-22.883 21.034,-35.216c5.3,-10.994 9.722,-22.411 13.206,-34.11c3.274,-10.994 5.717,-22.235 7.309,-33.596c1.496,-10.68 2.24,-21.464 2.24,-32.248c0,-14.637 -1.373,-29.272 -4.131,-43.648c-2.057,-10.728 -4.884,-21.309 -8.452,-31.633c-3.592,-10.395 -7.935,-20.529 -12.981,-30.301c-6.062,-11.741 -13.137,-22.956 -21.115,-33.488c-7.943,-10.488 -16.781,-20.298 -26.383,-29.291c-9.274,-8.686 -19.262,-16.609 -29.832,-23.661c-10.635,-7.095 -21.859,-13.305 -33.522,-18.539c-9.004,-4.041 -18.268,-7.499 -27.717,-10.344c-9.363,-2.82 -18.907,-5.037 -28.553,-6.638c-8.154,-1.352 -16.38,-2.264 -24.631,-2.735c-2.708,-0.155 -5.418,-0.262 -8.13,-0.322c-1.488,-0.033 -2.976,-0.05 -4.465,-0.057c-0.497,0 -0.995,0 -1.492,0ZM469.075,242.545c0.06,2.105 0.09,4.217 0.09,6.336c0,120.83 -98.099,218.929 -218.93,218.929c-74.308,0 -140.019,-37.1 -179.604,-93.773c1.975,-1.639 3.946,-3.281 5.914,-4.927c10.143,-8.48 20.21,-17.05 30.203,-25.707c3.725,-3.228 7.438,-6.469 11.144,-9.72c1.44,-1.266 2.88,-2.534 4.319,-3.803c1.156,-1.021 2.312,-2.043 3.466,-3.067l-0.01,0.027c-4.369,11.591 -8.656,23.214 -12.832,34.876c-1.277,3.568 -2.544,7.139 -3.796,10.715c-0.332,0.948 -0.662,1.897 -0.991,2.847c-0.085,0.245 -0.17,0.49 -0.255,0.736c-0.029,0.084 -0.069,0.164 -0.086,0.251c-0.163,0.853 -0.437,1.698 -0.452,2.567c-0.015,0.869 0.109,1.751 0.364,2.582c0.254,0.83 0.645,1.631 1.143,2.342c1.01,1.441 2.45,2.526 4.114,3.098c0.821,0.283 1.698,0.437 2.567,0.452c0.869,0.015 1.751,-0.109 2.581,-0.364c1.683,-0.515 3.159,-1.549 4.218,-2.955c0.522,-0.694 0.815,-1.534 1.223,-2.302l0.082,-0.24c1.437,-4.157 2.903,-8.305 4.382,-12.448c1.873,-5.247 3.77,-10.487 5.686,-15.719c5.7,-15.56 11.575,-31.056 17.609,-46.49c0.617,-1.576 1.236,-3.152 1.856,-4.727c2.652,-2.442 5.297,-4.892 7.934,-7.351c0.607,-0.247 1.181,-0.586 1.781,-0.853l0.076,-0.049c1.248,-0.803 2.509,-1.588 3.774,-2.364c1.517,-0.93 3.042,-1.846 4.574,-2.751c4.022,-2.375 8.09,-4.673 12.2,-6.894c4.97,-2.685 10.001,-5.258 15.098,-7.694c4.91,-2.346 9.883,-4.566 14.926,-6.613c5.859,-2.378 11.819,-4.53 17.893,-6.297c2.713,-0.79 5.449,-1.501 8.209,-2.106c2.379,-0.521 4.777,-0.964 7.189,-1.299c3.614,-0.501 7.275,-0.771 10.924,-0.613c2.695,0.117 5.395,0.469 7.991,1.219c1.776,0.514 3.503,1.219 5.091,2.172c1.006,0.603 1.953,1.304 2.817,2.098c0.474,0.435 0.923,0.897 1.345,1.383c2.377,2.737 3.837,6.148 4.741,9.628c0.141,0.542 0.269,1.088 0.385,1.636c0.158,0.746 0.294,1.496 0.412,2.249c0.083,0.533 0.156,1.067 0.214,1.603c0.044,0.414 0.079,0.83 0.104,1.246c0.159,2.617 -0.081,5.302 -1.079,7.747c-0.214,0.523 -0.46,1.033 -0.739,1.524c-0.54,0.952 -1.199,1.831 -1.945,2.63c-1.012,1.084 -2.175,2.018 -3.411,2.832c-1.58,1.041 -3.282,1.89 -5.03,2.609c-2.457,1.01 -5.014,1.767 -7.599,2.368c-3.079,0.715 -6.207,1.207 -9.347,1.556c-2.332,0.259 -4.672,0.438 -7.015,0.555c-5.565,0.277 -11.146,0.212 -16.71,-0.068c-5.337,-0.269 -10.664,-0.74 -15.972,-1.364c-1.84,-0.217 -3.677,-0.454 -5.512,-0.704c-0.755,-0.105 -1.509,-0.211 -2.264,-0.32c-1.022,-0.148 -2.043,-0.301 -3.065,-0.454c-0.582,-0.087 -1.165,-0.178 -1.75,-0.252c-0.322,-0.041 -0.346,-0.041 -0.727,-0.081l-0.279,-0.012l-0.939,0.015l-0.013,0.001c-0.304,0.039 -0.608,0.077 -0.911,0.117c-0.327,0.042 -0.64,0.156 -0.959,0.234c-0.609,0.15 -1.17,0.469 -1.723,0.749c-0.261,0.132 -0.491,0.317 -0.736,0.475c-0.224,0.145 -0.42,0.329 -0.626,0.499c-0.295,0.242 -0.505,0.459 -0.77,0.757c-0.381,0.429 -0.713,0.899 -1,1.395c-0.267,0.46 -0.488,0.946 -0.666,1.447c-0.286,0.799 -0.451,1.634 -0.519,2.479c-0.084,1.036 -0.021,2.08 0.094,3.112c0.079,0.714 0.185,1.425 0.306,2.133c0.152,0.895 0.329,1.785 0.52,2.672c0.2,0.927 0.416,1.851 0.646,2.771c0.312,1.255 0.648,2.504 1.002,3.748c0.469,1.644 0.97,3.278 1.499,4.904c0.678,2.083 1.402,4.151 2.167,6.204c0.952,2.553 1.968,5.082 3.047,7.584c1.506,3.493 3.135,6.934 4.889,10.309c1.38,2.654 2.838,5.268 4.378,7.833c1.124,1.871 2.292,3.716 3.506,5.53c1.031,1.542 2.096,3.061 3.195,4.556c6.235,8.476 13.617,16.188 22.239,22.262c1.309,0.923 2.646,1.807 4.008,2.648c1.899,1.173 3.848,2.264 5.843,3.264c2.779,1.394 5.647,2.612 8.584,3.636c4.172,1.455 8.481,2.515 12.851,3.167c2.793,0.417 5.61,0.668 8.432,0.761c2.11,0.068 4.222,0.049 6.33,-0.055c1.57,-0.077 3.138,-0.201 4.701,-0.368c10.047,-1.077 19.838,-3.96 29.118,-7.908c1.39,-0.591 2.769,-1.206 4.138,-1.844c1.843,-0.858 3.666,-1.757 5.472,-2.692c2.324,-1.203 4.617,-2.466 6.88,-3.78c2.995,-1.74 5.939,-3.57 8.833,-5.474c3.73,-2.454 7.378,-5.032 10.953,-7.708c4.542,-3.401 8.966,-6.959 13.286,-10.638c5.63,-4.794 11.085,-9.792 16.394,-14.938c6.671,-6.465 13.113,-13.165 19.372,-20.029c8.052,-8.831 15.802,-17.936 23.318,-27.227c7.897,-9.762 15.535,-19.732 22.97,-29.85c7.057,-9.604 13.93,-19.342 20.652,-29.183ZM61.551,359.916c-19.217,-32.562 -30.245,-70.521 -30.245,-111.035c0,-120.831 98.099,-218.93 218.929,-218.93c109.723,0 200.702,80.893 216.501,186.243l-0.193,0.211l-0.644,0.977l-0.641,0.969c-2.726,4.117 -5.473,8.221 -8.248,12.306c-7.901,11.631 -16.011,23.122 -24.387,34.416c-8.44,11.38 -17.15,22.563 -26.22,33.448c-7.171,8.607 -14.567,17.028 -22.257,25.175c-5.907,6.257 -11.989,12.353 -18.289,18.215c-4.946,4.602 -10.028,9.06 -15.274,13.317c-3.965,3.217 -8.024,6.319 -12.192,9.268c-3.228,2.283 -6.522,4.474 -9.889,6.547c-2.571,1.583 -5.184,3.097 -7.843,4.526c-2.099,1.129 -4.226,2.204 -6.383,3.218c-1.553,0.729 -3.122,1.427 -4.705,2.088c-1.278,0.533 -2.566,1.042 -3.864,1.525c-7.983,2.971 -16.401,4.966 -24.941,5.193c-1.188,0.032 -2.377,0.029 -3.565,-0.01c-1.753,-0.057 -3.505,-0.193 -5.246,-0.412c-2.407,-0.302 -4.795,-0.763 -7.14,-1.384c-3.492,-0.925 -6.886,-2.204 -10.128,-3.796c-5.057,-2.484 -9.723,-5.717 -13.95,-9.433c-3.018,-2.651 -5.817,-5.548 -8.414,-8.611c-3.019,-3.56 -5.767,-7.345 -8.28,-11.276c-3.782,-5.917 -7.04,-12.167 -9.839,-18.606c-1.235,-2.84 -2.38,-5.72 -3.431,-8.634c-0.988,-2.74 -1.894,-5.51 -2.696,-8.31l0.307,0.038c1.947,0.237 3.896,0.459 5.848,0.66c2.21,0.227 4.423,0.425 6.639,0.594c3.671,0.281 7.349,0.482 11.03,0.584c6.037,0.167 12.089,0.075 18.111,-0.425c5.132,-0.427 10.253,-1.148 15.265,-2.349c4.081,-0.979 8.099,-2.281 11.904,-4.064c3.1,-1.453 6.057,-3.232 8.709,-5.403c1.601,-1.311 3.088,-2.763 4.416,-4.35c1.426,-1.703 2.667,-3.558 3.686,-5.532c1.148,-2.223 2.01,-4.59 2.582,-7.025c0.527,-2.243 0.808,-4.541 0.877,-6.843c0.052,-1.761 -0.019,-3.524 -0.193,-5.277c-0.121,-1.219 -0.295,-2.433 -0.501,-3.64c-0.624,-3.644 -1.586,-7.238 -2.996,-10.659c-0.797,-1.934 -1.737,-3.81 -2.831,-5.594c-1.185,-1.934 -2.551,-3.759 -4.086,-5.429c-1.447,-1.574 -3.043,-3.009 -4.761,-4.281c-1.288,-0.953 -2.643,-1.814 -4.051,-2.58c-0.964,-0.525 -1.953,-1.006 -2.961,-1.442c-0.78,-0.338 -1.572,-0.65 -2.373,-0.936c-5.884,-2.101 -12.187,-2.802 -18.409,-2.687c-1.128,0.021 -2.256,0.069 -3.383,0.141c-1.393,0.089 -2.784,0.215 -4.172,0.373c-1.793,0.204 -3.579,0.461 -5.358,0.763c-2.329,0.396 -4.645,0.869 -6.946,1.403c-2.995,0.695 -5.965,1.495 -8.911,2.376c-3.89,1.163 -7.74,2.464 -11.547,3.876c-3.553,1.319 -7.073,2.723 -10.562,4.203c6.019,-6.097 11.97,-12.261 17.835,-18.507c6.229,-6.632 12.361,-13.356 18.36,-20.198c5.277,-6.018 10.451,-12.128 15.477,-18.358c4.52,-5.601 8.922,-11.299 13.148,-17.127c3.737,-5.153 7.338,-10.408 10.725,-15.798c3.153,-5.017 6.125,-10.154 8.788,-15.449c1.203,-2.39 2.342,-4.814 3.397,-7.274c0.821,-1.916 1.591,-3.854 2.297,-5.816c0.528,-1.469 1.02,-2.95 1.468,-4.445c0.342,-1.142 0.658,-2.291 0.945,-3.447c0.205,-0.824 0.395,-1.652 0.568,-2.483c1.169,-5.62 1.593,-11.459 0.635,-17.144c-0.147,-0.872 -0.326,-1.738 -0.538,-2.597c-0.284,-1.144 -0.628,-2.274 -1.034,-3.382c-0.577,-1.577 -1.279,-3.107 -2.103,-4.571c-1.177,-2.092 -2.601,-4.038 -4.223,-5.806c-2.035,-2.219 -4.359,-4.186 -6.966,-5.701c-2.294,-1.333 -4.795,-2.302 -7.397,-2.821c-0.973,-0.194 -1.959,-0.326 -2.949,-0.396c-0.447,-0.032 -0.895,-0.048 -1.343,-0.057c-0.268,-0.003 -0.536,-0.002 -0.804,0.001c-0.357,0.009 -0.713,0.021 -1.069,0.043c-0.798,0.049 -1.593,0.136 -2.382,0.258c-0.612,0.094 -1.22,0.21 -1.824,0.346c-4.111,0.923 -7.972,2.748 -11.515,4.999c-0.627,0.399 -1.246,0.812 -1.856,1.237c-0.778,0.542 -1.542,1.104 -2.293,1.682c-0.926,0.713 -1.832,1.452 -2.72,2.211c-1.151,0.983 -2.272,2.001 -3.367,3.046c-1.375,1.312 -2.709,2.665 -4.01,4.051c-1.759,1.874 -3.459,3.804 -5.105,5.778c-2.141,2.568 -4.204,5.199 -6.202,7.879c-2.614,3.507 -5.12,7.093 -7.547,10.731c-3.241,4.857 -6.34,9.808 -9.34,14.817c-3.215,5.368 -6.314,10.805 -9.327,16.288c-3.176,5.779 -6.257,11.61 -9.264,17.478c-3.421,6.677 -6.747,13.402 -9.999,20.163c-6.383,13.271 -12.482,26.679 -18.387,40.169c-5.796,13.244 -11.402,26.57 -16.861,39.955c-1.892,4.638 -3.763,9.284 -5.622,13.936c-0.674,1.69 -1.347,3.381 -2.018,5.073c-16.757,15.363 -33.79,30.425 -51.041,45.231c-6.634,5.694 -13.302,11.35 -20.002,16.966c-2.128,1.784 -4.259,3.564 -6.394,5.339ZM270.086,98.901c-1.559,0.02 -3.083,0.463 -4.512,1.062c-1.025,0.43 -2.011,0.948 -2.965,1.517c-1.159,0.69 -2.271,1.457 -3.347,2.271c-1.585,1.197 -3.092,2.496 -4.543,3.852c-1.621,1.515 -3.173,3.104 -4.673,4.738c-1.69,1.84 -3.316,3.739 -4.892,5.677c-1.812,2.227 -3.56,4.505 -5.259,6.818c-2.147,2.92 -4.216,5.898 -6.227,8.913c-2.631,3.943 -5.163,7.952 -7.624,12.004c-2.65,4.365 -5.216,8.781 -7.719,13.232c-5.573,9.914 -10.835,20.001 -15.903,30.181c-5.386,10.822 -10.55,21.754 -15.558,32.756c-6.497,14.275 -12.728,28.671 -18.779,43.141c1.118,-1.076 2.234,-2.155 3.349,-3.234c11.817,-11.461 23.449,-23.115 34.774,-35.064c9.14,-9.644 18.086,-19.477 26.704,-29.591c3.922,-4.602 7.774,-9.263 11.534,-13.998c3.524,-4.439 6.966,-8.944 10.294,-13.532c2.909,-4.013 5.732,-8.09 8.426,-12.25c2.507,-3.871 4.905,-7.815 7.132,-11.855c1.561,-2.831 3.039,-5.711 4.391,-8.649c1.083,-2.352 2.086,-4.742 2.971,-7.176c0.723,-1.988 1.368,-4.006 1.896,-6.055c0.258,-1 0.488,-2.007 0.683,-3.021c0.154,-0.796 0.285,-1.596 0.391,-2.4c0.081,-0.616 0.147,-1.233 0.196,-1.852c0.035,-0.456 0.061,-0.912 0.076,-1.369c0.098,-2.964 -0.255,-6.005 -1.491,-8.727c-0.226,-0.498 -0.48,-0.983 -0.762,-1.452c-0.535,-0.89 -1.171,-1.714 -1.879,-2.474c-0.233,-0.25 -0.473,-0.493 -0.721,-0.729c-1.134,-1.081 -2.459,-2.036 -3.983,-2.471c-0.509,-0.146 -1.032,-0.227 -1.56,-0.255c-0.14,-0.006 -0.28,-0.009 -0.42,-0.008Z" style="fill:#444;"/></svg>