<?xml version="1.0" standalone="no"?><!DOCTYPE svg PUBLIC "-//W3C//DTD SVG 1.1//EN" "http://www.w3.org/Graphics/SVG/1.1/DTD/svg11.dtd"><svg width="100%" height="100%" viewBox="0 0 500 550" version="1.1" xmlns="http://www.w3.org/2000/svg" xmlns:xlink="http://www.w3.org/1999/xlink" xml:space="preserve" style="fill-rule:evenodd;clip-rule:evenodd;stroke-linejoin:round;stroke-miterlimit:1.41421;"><g transform="matrix(0.000656704,1,-1,0.000656704,540.32,522.688)"><g transform="matrix(0.844478,-0.53559,0.53559,0.844478,-306.476,12.6315)"><text x="-131.488px" y="534.042px" style="font-family:'HelveticaNeueLTStd-Lt';font-size:28px;fill:#444;">D</text></g><g transform="matrix(0.806092,-0.59179,0.59179,0.806092,-330.919,34.3628)"><text x="-113.023px" y="522.149px" style="font-family:'HelveticaNeueLTStd-Lt';font-size:28px;fill:#444;">e</text></g><g transform="matrix(0.769907,-0.638156,0.638156,0.769907,-349.4,54.5333)"><text x="-99.076px" y="511.792px" style="font-family:'HelveticaNeueLTStd-Lt';font-size:28px;fill:#444;">s</text></g><g transform="matrix(0.742111,-0.670278,0.670278,0.742111,-358.38,71.1879)"><text x="-86.678px" y="501.325px" style="font-family:'HelveticaNeueLTStd-Lt';font-size:28px;fill:#444;">i</text></g><g transform="matrix(0.711174,-0.703016,0.703016,0.711174,-372.01,86.5129)"><text x="-80.717px" y="496.001px" style="font-family:'HelveticaNeueLTStd-Lt';font-size:28px;fill:#444;">g</text></g><g transform="matrix(0.664035,-0.747702,0.747702,0.664035,-383.883,111.637)"><text x="-67.715px" y="482.991px" style="font-family:'HelveticaNeueLTStd-Lt';font-size:28px;fill:#444;">n</text></g><g transform="matrix(0.594651,-0.803984,0.803984,0.594651,-390.888,147.254)"><text x="-49.409px" y="461.278px" style="font-family:'HelveticaNeueLTStd-Lt';font-size:18px;fill:#444;">•</text></g><g transform="matrix(0.517024,-0.855971,0.855971,0.517024,-397.793,182.744)"><text x="-36.96px" y="443.873px" style="font-family:'HelveticaNeueLTStd-Lt';font-size:28px;fill:#444;">U</text></g><g transform="matrix(0.457945,-0.888981,0.888981,0.457945,-391.767,207.453)"><text x="-25.77px" y="424.979px" style="font-family:'HelveticaNeueLTStd-Lt';font-size:28px;fill:#444;">s</text></g><g transform="matrix(0.403658,-0.91491,0.91491,0.403658,-386.517,227.978)"><text x="-18.376px" y="410.487px" style="font-family:'HelveticaNeueLTStd-Lt';font-size:28px;fill:#444;">e</text></g><g transform="matrix(0.353451,-0.935453,0.935453,0.353451,-376.495,244.349)"><text x="-11.48px" y="394.539px" style="font-family:'HelveticaNeueLTStd-Lt';font-size:28px;fill:#444;">r</text></g><g transform="matrix(0.265581,-0.964088,0.964088,0.265581,-363.179,270.586)"><text x="-3.987px" y="373.67px" style="font-family:'HelveticaNeueLTStd-Lt';font-size:28px;fill:#444;">E</text></g><g transform="matrix(0.206054,-0.978541,0.978541,0.206054,-346.445,282.817)"><text x="1.064px" y="354.905px" style="font-family:'HelveticaNeueLTStd-Lt';font-size:28px;fill:#444;">x</text></g><g transform="matrix(0.143433,-0.98966,0.98966,0.143433,-331.71,294.683)"><text x="4.38px" y="338.967px" style="font-family:'HelveticaNeueLTStd-Lt';font-size:28px;fill:#444;">p</text></g><g transform="matrix(0.0805043,-0.996754,0.996754,0.0805043,-312.822,301.467)"><text x="6.987px" y="320.287px" style="font-family:'HelveticaNeueLTStd-Lt';font-size:28px;fill:#444;">e</text></g><g transform="matrix(0.0273441,-0.999626,0.999626,0.0273441,-294.862,302.975)"><text x="8.257px" y="303.007px" style="font-family:'HelveticaNeueLTStd-Lt';font-size:28px;fill:#444;">r</text></g><g transform="matrix(-0.00376593,-0.999993,0.999993,-0.00376593,-282.86,301.023)"><text x="8.516px" y="291.41px" style="font-family:'HelveticaNeueLTStd-Lt';font-size:28px;fill:#444;">i</text></g><g transform="matrix(-0.0485204,-0.998822,0.998822,-0.0485204,-274.106,305.653)"><text x="8.53px" y="283.384px" style="font-family:'HelveticaNeueLTStd-Lt';font-size:28px;fill:#444;">e</text></g><g transform="matrix(-0.109606,-0.993975,0.993975,-0.109606,-256.064,302.863)"><text x="7.619px" y="266.121px" style="font-family:'HelveticaNeueLTStd-Lt';font-size:28px;fill:#444;">n</text></g><g transform="matrix(-0.171782,-0.985135,0.985135,-0.171782,-238.146,296.508)"><text x="5.566px" y="248.36px" style="font-family:'HelveticaNeueLTStd-Lt';font-size:28px;fill:#444;">c</text></g><g transform="matrix(-0.232372,-0.972627,0.972627,-0.232372,-221.878,287.496)"><text x="2.511px" y="231.305px" style="font-family:'HelveticaNeueLTStd-Lt';font-size:28px;fill:#444;">e</text></g><g transform="matrix(-0.318227,-0.948015,0.948015,-0.318227,-199.862,264.927)"><text x="-4.669px" y="204.33px" style="font-family:'HelveticaNeueLTStd-Lt';font-size:18px;fill:#444;">•</text></g><g transform="matrix(-0.407674,-0.913128,0.913128,-0.407674,-184.748,248.462)"><text x="-11.788px" y="184.152px" style="font-family:'HelveticaNeueLTStd-Lt';font-size:28px;fill:#444;">D</text></g><g transform="matrix(-0.469202,-0.883091,0.883091,-0.469202,-175.652,222.771)"><text x="-20.876px" y="164.175px" style="font-family:'HelveticaNeueLTStd-Lt';font-size:28px;fill:#444;">e</text></g><g transform="matrix(-0.519763,-0.854311,0.854311,-0.519763,-171.442,201.443)"><text x="-29.102px" y="148.908px" style="font-family:'HelveticaNeueLTStd-Lt';font-size:28px;fill:#444;">v</text></g><g transform="matrix(-0.569228,-0.822179,0.822179,-0.569228,-169.985,181.834)"><text x="-37.357px" y="135.448px" style="font-family:'HelveticaNeueLTStd-Lt';font-size:28px;fill:#444;">e</text></g><g transform="matrix(-0.604972,-0.796247,0.796247,-0.604972,-172.584,156.958)"><text x="-47.357px" y="121.289px" style="font-family:'HelveticaNeueLTStd-Lt';font-size:28px;fill:#444;">l</text></g><g transform="matrix(-0.641165,-0.767403,0.767403,-0.641165,-173.74,148.593)"><text x="-52.129px" y="114.917px" style="font-family:'HelveticaNeueLTStd-Lt';font-size:28px;fill:#444;">o</text></g><g transform="matrix(-0.690736,-0.723107,0.723107,-0.690736,-181.079,124.304)"><text x="-63.958px" y="100.875px" style="font-family:'HelveticaNeueLTStd-Lt';font-size:28px;fill:#444;">p</text></g><g transform="matrix(-0.744975,-0.667093,0.667093,-0.744975,-192.479,100.787)"><text x="-76.974px" y="87.185px" style="font-family:'HelveticaNeueLTStd-Lt';font-size:28px;fill:#444;">m</text></g><g transform="matrix(-0.794094,-0.607794,0.607794,-0.794094,-215.899,66.7336)"><text x="-96.646px" y="69.937px" style="font-family:'HelveticaNeueLTStd-Lt';font-size:28px;fill:#444;">e</text></g><g transform="matrix(-0.829894,-0.557921,0.557921,-0.829894,-235.254,47.2372)"><text x="-110.426px" y="59.482px" style="font-family:'HelveticaNeueLTStd-Lt';font-size:28px;fill:#444;">n</text></g><g transform="matrix(-0.856749,-0.515733,0.515733,-0.856749,-258.333,27.5498)"><text x="-125.34px" y="49.652px" style="font-family:'HelveticaNeueLTStd-Lt';font-size:28px;fill:#444;">t</text></g></g><path d="M251.035,1.224c1.597,0.008 3.193,0.026 4.789,0.061c2.909,0.065 5.816,0.18 8.722,0.346c8.6,0.491 17.174,1.428 25.677,2.811c10.372,1.687 20.637,4.038 30.708,7.037c10.404,3.098 20.602,6.886 30.506,11.331c12.524,5.62 24.577,12.289 35.996,19.907c11.345,7.569 22.065,16.073 32.018,25.395c10.306,9.651 19.79,20.179 28.315,31.434c8.716,11.507 16.428,23.774 23.011,36.62c5.389,10.516 10.022,21.419 13.847,32.599c3.801,11.108 6.803,22.488 8.978,34.025c2.864,15.186 4.291,30.638 4.291,46.091c0,11.573 -0.799,23.145 -2.404,34.607c-1.71,12.203 -4.335,24.278 -7.852,36.089c-3.742,12.566 -8.492,24.831 -14.186,36.641c-6.385,13.242 -13.955,25.91 -22.583,37.811c-8.725,12.036 -18.532,23.287 -29.26,33.577c-10.916,10.47 -22.785,19.944 -35.418,28.262c-12.939,8.52 -26.676,15.824 -40.979,21.775c-15.493,6.446 -31.645,11.3 -48.126,14.461c-15.43,2.959 -31.139,4.434 -46.85,4.434c-15.711,0 -31.42,-1.475 -46.85,-4.434c-16.48,-3.161 -32.632,-8.015 -48.126,-14.461c-14.073,-5.855 -27.599,-13.021 -40.355,-21.366c-12.866,-8.416 -24.946,-18.029 -36.041,-28.671c-10.729,-10.29 -20.535,-21.541 -29.261,-33.577c-8.628,-11.901 -16.198,-24.569 -22.582,-37.811c-5.584,-11.581 -10.26,-23.599 -13.968,-35.911c-3.626,-12.043 -6.325,-24.364 -8.07,-36.819c-1.606,-11.462 -2.404,-23.034 -2.404,-34.607c0,-15.453 1.426,-30.905 4.29,-46.091c2.128,-11.288 5.048,-22.427 8.733,-33.307c3.792,-11.194 8.393,-22.114 13.751,-32.649c6.433,-12.647 13.958,-24.737 22.457,-36.099c8.459,-11.306 17.88,-21.891 28.129,-31.604c10.077,-9.552 20.953,-18.259 32.48,-25.999c11.603,-7.791 23.864,-14.6 36.616,-20.322c9.903,-4.445 20.101,-8.233 30.505,-11.331c10.072,-2.999 20.336,-5.35 30.708,-7.037c8.503,-1.383 17.078,-2.32 25.678,-2.811c2.905,-0.166 5.813,-0.281 8.722,-0.346c1.596,-0.035 3.192,-0.053 4.788,-0.061c0.533,0 1.067,0 1.6,0ZM249.489,18.224c-1.488,0.007 -2.977,0.024 -4.465,0.057c-2.711,0.06 -5.422,0.167 -8.13,0.322c-8.251,0.471 -16.477,1.383 -24.63,2.735c-9.413,1.562 -18.729,3.711 -27.874,6.434c-9.684,2.884 -19.177,6.411 -28.396,10.548c-11.875,5.329 -23.294,11.67 -34.1,18.925c-10.548,7.083 -20.511,15.036 -29.759,23.749c-9.744,9.18 -18.693,19.204 -26.713,29.924c-7.637,10.21 -14.431,21.051 -20.28,32.381c-5.154,9.981 -9.575,20.34 -13.211,30.969c-3.46,10.113 -6.21,20.468 -8.223,30.965c-2.758,14.376 -4.13,29.011 -4.13,43.648c0,10.784 0.743,21.568 2.239,32.248c1.625,11.595 4.137,23.065 7.513,34.276c3.451,11.461 7.805,22.649 13.003,33.43c5.946,12.333 12.997,24.131 21.033,35.216c8.13,11.215 17.267,21.698 27.264,31.286c10.338,9.915 21.593,18.872 33.58,26.714c11.879,7.771 24.474,14.444 37.58,19.896c14.422,6.001 29.457,10.518 44.798,13.461c14.375,2.757 29.01,4.13 43.647,4.13c14.637,0 29.272,-1.373 43.648,-4.13c15.341,-2.943 30.376,-7.46 44.798,-13.461c13.319,-5.541 26.111,-12.344 38.16,-20.277c11.77,-7.75 22.829,-16.578 32.999,-26.333c9.997,-9.588 19.134,-20.071 27.264,-31.286c8.036,-11.085 15.087,-22.883 21.034,-35.216c5.3,-10.994 9.722,-22.411 13.206,-34.11c3.274,-10.994 5.717,-22.235 7.309,-33.596c1.496,-10.68 2.24,-21.464 2.24,-32.248c0,-14.637 -1.373,-29.272 -4.131,-43.648c-2.057,-10.728 -4.884,-21.309 -8.452,-31.633c-3.592,-10.395 -7.935,-20.529 -12.981,-30.301c-6.062,-11.741 -13.137,-22.956 -21.115,-33.488c-7.943,-10.488 -16.781,-20.298 -26.383,-29.291c-9.274,-8.686 -19.262,-16.609 -29.832,-23.661c-10.635,-7.095 -21.859,-13.305 -33.522,-18.539c-9.004,-4.041 -18.268,-7.499 -27.717,-10.344c-9.363,-2.82 -18.907,-5.037 -28.553,-6.638c-8.154,-1.352 -16.38,-2.264 -24.631,-2.735c-2.708,-0.155 -5.418,-0.262 -8.13,-0.322c-1.488,-0.033 -2.976,-0.05 -4.465,-0.057c-0.497,0 -0.995,0 -1.492,0ZM469.075,242.545c0.06,2.105 0.09,4.217 0.09,6.336c0,120.83 -98.099,218.929 -218.93,218.929c-74.308,0 -140.019,-37.1 -179.604,-93.773c1.975,-1.639 3.946,-3.281 5.914,-4.927c10.143,-8.48 20.21,-17.05 30.203,-25.707c3.725,-3.228 7.438,-6.469 11.144,-9.72c1.44,-1.266 2.88,-2.534 4.319,-3.803c1.156,-1.021 2.312,-2.043 3.466,-3.067l-0.01,0.027c-4.369,11.591 -8.656,23.214 -12.832,34.876c-1.277,3.568 -2.544,7.139 -3.796,10.715c-0.332,0.948 -0.662,1.897 -0.991,2.847c-0.085,0.245 -0.17,0.49 -0.255,0.736c-0.029,0.084 -0.069,0.164 -0.086,0.251c-0.163,0.853 -0.437,1.698 -0.452,2.567c-0.015,0.869 0.109,1.751 0.364,2.582c0.254,0.83 0.645,1.631 1.143,2.342c1.01,1.441 2.45,2.526 4.114,3.098c0.821,0.283 1.698,0.437 2.567,0.452c0.869,0.015 1.751,-0.109 2.581,-0.364c1.683,-0.515 3.159,-1.549 4.218,-2.955c0.522,-0.694 0.815,-1.534 1.223,-2.302l0.082,-0.24c1.437,-4.157 2.903,-8.305 4.382,-12.448c1.873,-5.247 3.77,-10.487 5.686,-15.719c5.7,-15.56 11.575,-31.056 17.609,-46.49c0.617,-1.576 1.236,-3.152 1.856,-4.727c2.652,-2.442 5.297,-4.892 7.934,-7.351c0.607,-0.247 1.181,-0.586 1.781,-0.853l0.076,-0.049c1.248,-0.803 2.509,-1.588 3.774,-2.364c1.517,-0.93 3.042,-1.846 4.574,-2.751c4.022,-2.375 8.09,-4.673 12.2,-6.894c4.97,-2.685 10.001,-5.258 15.098,-7.694c4.91,-2.346 9.883,-4.566 14.926,-6.613c5.859,-2.378 11.819,-4.53 17.893,-6.297c2.713,-0.79 5.449,-1.501 8.209,-2.106c2.379,-0.521 4.777,-0.964 7.189,-1.299c3.614,-0.501 7.275,-0.771 10.924,-0.613c2.695,0.117 5.395,0.469 7.991,1.219c1.776,0.514 3.503,1.219 5.091,2.172c1.006,0.603 1.953,1.304 2.817,2.098c0.474,0.435 0.923,0.897 1.345,1.383c2.377,2.737 3.837,6.148 4.741,9.628c0.141,0.542 0.269,1.088 0.385,1.636c0.158,0.746 0.294,1.496 0.412,2.249c0.083,0.533 0.156,1.067 0.214,1.603c0.044,0.414 0.079,0.83 0.104,1.246c0.159,2.617 -0.081,5.302 -1.079,7.747c-0.214,0.523 -0.46,1.033 -0.739,1.524c-0.54,0.952 -1.199,1.831 -1.945,2.63c-1.012,1.084 -2.175,2.018 -3.411,2.832c-1.58,1.041 -3.282,1.89 -5.03,2.609c-2.457,1.01 -5.014,1.767 -7.599,2.368c-3.079,0.715 -6.207,1.207 -9.347,1.556c-2.332,0.259 -4.672,0.438 -7.015,0.555c-5.565,0.277 -11.146,0.212 -16.71,-0.068c-5.337,-0.269 -10.664,-0.74 -15.972,-1.364c-1.84,-0.217 -3.677,-0.454 -5.512,-0.704c-0.755,-0.105 -1.509,-0.211 -2.264,-0.32c-1.022,-0.148 -2.043,-0.301 -3.065,-0.454c-0.582,-0.087 -1.165,-0.178 -1.75,-0.252c-0.322,-0.041 -0.346,-0.041 -0.727,-0.081l-0.279,-0.012l-0.939,0.015l-0.013,0.001c-0.304,0.039 -0.608,0.077 -0.911,0.117c-0.327,0.042 -0.64,0.156 -0.959,0.234c-0.609,0.15 -1.17,0.469 -1.723,0.749c-0.261,0.132 -0.491,0.317 -0.736,0.475c-0.224,0.145 -0.42,0.329 -0.626,0.499c-0.295,0.242 -0.505,0.459 -0.77,0.757c-0.381,0.429 -0.713,0.899 -1,1.395c-0.267,0.46 -0.488,0.946 -0.666,1.447c-0.286,0.799 -0.451,1.634 -0.519,2.479c-0.084,1.036 -0.021,2.08 0.094,3.112c0.079,0.714 0.185,1.425 0.306,2.133c0.152,0.895 0.329,1.785 0.52,2.672c0.2,0.927 0.416,1.851 0.646,2.771c0.312,1.255 0.648,2.504 1.002,3.748c0.469,1.644 0.97,3.278 1.499,4.904c0.678,2.083 1.402,4.151 2.167,6.204c0.952,2.553 1.968,5.082 3.047,7.584c1.506,3.493 3.135,6.934 4.889,10.309c1.38,2.654 2.838,5.268 4.378,7.833c1.124,1.871 2.292,3.716 3.506,5.53c1.031,1.542 2.096,3.061 3.195,4.556c6.235,8.476 13.617,16.188 22.239,22.262c1.309,0.923 2.646,1.807 4.008,2.648c1.899,1.173 3.848,2.264 5.843,3.264c2.779,1.394 5.647,2.612 8.584,3.636c4.172,1.455 8.481,2.515 12.851,3.167c2.793,0.417 5.61,0.668 8.432,0.761c2.11,0.068 4.222,0.049 6.33,-0.055c1.57,-0.077 3.138,-0.201 4.701,-0.368c10.047,-1.077 19.838,-3.96 29.118,-7.908c1.39,-0.591 2.769,-1.206 4.138,-1.844c1.843,-0.858 3.666,-1.757 5.472,-2.692c2.324,-1.203 4.617,-2.466 6.88,-3.78c2.995,-1.74 5.939,-3.57 8.833,-5.474c3.73,-2.454 7.378,-5.032 10.953,-7.708c4.542,-3.401 8.966,-6.959 13.286,-10.638c5.63,-4.794 11.085,-9.792 16.394,-14.938c6.671,-6.465 13.113,-13.165 19.372,-20.029c8.052,-8.831 15.802,-17.936 23.318,-27.227c7.897,-9.762 15.535,-19.732 22.97,-29.85c7.057,-9.604 13.93,-19.342 20.652,-29.183ZM61.551,359.916c-19.217,-32.562 -30.245,-70.521 -30.245,-111.035c0,-120.831 98.099,-218.93 218.929,-218.93c109.723,0 200.702,80.893 216.501,186.243l-0.193,0.211l-0.644,0.977l-0.641,0.969c-2.726,4.117 -5.473,8.221 -8.248,12.306c-7.901,11.631 -16.011,23.122 -24.387,34.416c-8.44,11.38 -17.15,22.563 -26.22,33.448c-7.171,8.607 -14.567,17.028 -22.257,25.175c-5.907,6.257 -11.989,12.353 -18.289,18.215c-4.946,4.602 -10.028,9.06 -15.274,13.317c-3.965,3.217 -8.024,6.319 -12.192,9.268c-3.228,2.283 -6.522,4.474 -9.889,6.547c-2.571,1.583 -5.184,3.097 -7.843,4.526c-2.099,1.129 -4.226,2.204 -6.383,3.218c-1.553,0.729 -3.122,1.427 -4.705,2.088c-1.278,0.533 -2.566,1.042 -3.864,1.525c-7.983,2.971 -16.401,4.966 -24.941,5.193c-1.188,0.032 -2.377,0.029 -3.565,-0.01c-1.753,-0.057 -3.505,-0.193 -5.246,-0.412c-2.407,-0.302 -4.795,-0.763 -7.14,-1.384c-3.492,-0.925 -6.886,-2.204 -10.128,-3.796c-5.057,-2.484 -9.723,-5.717 -13.95,-9.433c-3.018,-2.651 -5.817,-5.548 -8.414,-8.611c-3.019,-3.56 -5.767,-7.345 -8.28,-11.276c-3.782,-5.917 -7.04,-12.167 -9.839,-18.606c-1.235,-2.84 -2.38,-5.72 -3.431,-8.634c-0.988,-2.74 -1.894,-5.51 -2.696,-8.31l0.307,0.038c1.947,0.237 3.896,0.459 5.848,0.66c2.21,0.227 4.423,0.425 6.639,0.594c3.671,0.281 7.349,0.482 11.03,0.584c6.037,0.167 12.089,0.075 18.111,-0.425c5.132,-0.427 10.253,-1.148 15.265,-2.349c4.081,-0.979 8.099,-2.281 11.904,-4.064c3.1,-1.453 6.057,-3.232 8.709,-5.403c1.601,-1.311 3.088,-2.763 4.416,-4.35c1.426,-1.703 2.667,-3.558 3.686,-5.532c1.148,-2.223 2.01,-4.59 2.582,-7.025c0.527,-2.243 0.808,-4.541 0.877,-6.843c0.052,-1.761 -0.019,-3.524 -0.193,-5.277c-0.121,-1.219 -0.295,-2.433 -0.501,-3.64c-0.624,-3.644 -1.586,-7.238 -2.996,-10.659c-0.797,-1.934 -1.737,-3.81 -2.831,-5.594c-1.185,-1.934 -2.551,-3.759 -4.086,-5.429c-1.447,-1.574 -3.043,-3.009 -4.761,-4.281c-1.288,-0.953 -2.643,-1.814 -4.051,-2.58c-0.964,-0.525 -1.953,-1.006 -2.961,-1.442c-0.78,-0.338 -1.572,-0.65 -2.373,-0.936c-5.884,-2.101 -12.187,-2.802 -18.409,-2.687c-1.128,0.021 -2.256,0.069 -3.383,0.141c-1.393,0.089 -2.784,0.215 -4.172,0.373c-1.793,0.204 -3.579,0.461 -5.358,0.763c-2.329,0.396 -4.645,0.869 -6.946,1.403c-2.995,0.695 -5.965,1.495 -8.911,2.376c-3.89,1.163 -7.74,2.464 -11.547,3.876c-3.553,1.319 -7.073,2.723 -10.562,4.203c6.019,-6.097 11.97,-12.261 17.835,-18.507c6.229,-6.632 12.361,-13.356 18.36,-20.198c5.277,-6.018 10.451,-12.128 15.477,-18.358c4.52,-5.601 8.922,-11.299 13.148,-17.127c3.737,-5.153 7.338,-10.408 10.725,-15.798c3.153,-5.017 6.125,-10.154 8.788,-15.449c1.203,-2.39 2.342,-4.814 3.397,-7.274c0.821,-1.916 1.591,-3.854 2.297,-5.816c0.528,-1.469 1.02,-2.95 1.468,-4.445c0.342,-1.142 0.658,-2.291 0.945,-3.447c0.205,-0.824 0.395,-1.652 0.568,-2.483c1.169,-5.62 1.593,-11.459 0.635,-17.144c-0.147,-0.872 -0.326,-1.738 -0.538,-2.597c-0.284,-1.144 -0.628,-2.274 -1.034,-3.382c-0.577,-1.577 -1.279,-3.107 -2.103,-4.571c-1.177,-2.092 -2.601,-4.038 -4.223,-5.806c-2.035,-2.219 -4.359,-4.186 -6.966,-5.701c-2.294,-1.333 -4.795,-2.302 -7.397,-2.821c-0.973,-0.194 -1.959,-0.326 -2.949,-0.396c-0.447,-0.032 -0.895,-0.048 -1.343,-0.057c-0.268,-0.003 -0.536,-0.002 -0.804,0.001c-0.357,0.009 -0.713,0.021 -1.069,0.043c-0.798,0.049 -1.593,0.136 -2.382,0.258c-0.612,0.094 -1.22,0.21 -1.824,0.346c-4.111,0.923 -7.972,2.748 -11.515,4.999c-0.627,0.399 -1.246,0.812 -1.856,1.237c-0.778,0.542 -1.542,1.104 -2.293,1.682c-0.926,0.713 -1.832,1.452 -2.72,2.211c-1.151,0.983 -2.272,2.001 -3.367,3.046c-1.375,1.312 -2.709,2.665 -4.01,4.051c-1.759,1.874 -3.459,3.804 -5.105,5.778c-2.141,2.568 -4.204,5.199 -6.202,7.879c-2.614,3.507 -5.12,7.093 -7.547,10.731c-3.241,4.857 -6.34,9.808 -9.34,14.817c-3.215,5.368 -6.314,10.805 -9.327,16.288c-3.176,5.779 -6.257,11.61 -9.264,17.478c-3.421,6.677 -6.747,13.402 -9.999,20.163c-6.383,13.271 -12.482,26.679 -18.387,40.169c-5.796,13.244 -11.402,26.57 -16.861,39.955c-1.892,4.638 -3.763,9.284 -5.622,13.936c-0.674,1.69 -1.347,3.381 -2.018,5.073c-16.757,15.363 -33.79,30.425 -51.041,45.231c-6.634,5.694 -13.302,11.35 -20.002,16.966c-2.128,1.784 -4.259,3.564 -6.394,5.339ZM270.086,98.901c-1.559,0.02 -3.083,0.463 -4.512,1.062c-1.025,0.43 -2.011,0.948 -2.965,1.517c-1.159,0.69 -2.271,1.457 -3.347,2.271c-1.585,1.197 -3.092,2.496 -4.543,3.852c-1.621,1.515 -3.173,3.104 -4.673,4.738c-1.69,1.84 -3.316,3.739 -4.892,5.677c-1.812,2.227 -3.56,4.505 -5.259,6.818c-2.147,2.92 -4.216,5.898 -6.227,8.913c-2.631,3.943 -5.163,7.952 -7.624,12.004c-2.65,4.365 -5.216,8.781 -7.719,13.232c-5.573,9.914 -10.835,20.001 -15.903,30.181c-5.386,10.822 -10.55,21.754 -15.558,32.756c-6.497,14.275 -12.728,28.671 -18.779,43.141c1.118,-1.076 2.234,-2.155 3.349,-3.234c11.817,-11.461 23.449,-23.115 34.774,-35.064c9.14,-9.644 18.086,-19.477 26.704,-29.591c3.922,-4.602 7.774,-9.263 11.534,-13.998c3.524,-4.439 6.966,-8.944 10.294,-13.532c2.909,-4.013 5.732,-8.09 8.426,-12.25c2.507,-3.871 4.905,-7.815 7.132,-11.855c1.561,-2.831 3.039,-5.711 4.391,-8.649c1.083,-2.352 2.086,-4.742 2.971,-7.176c0.723,-1.988 1.368,-4.006 1.896,-6.055c0.258,-1 0.488,-2.007 0.683,-3.021c0.154,-0.796 0.285,-1.596 0.391,-2.4c0.081,-0.616 0.147,-1.233 0.196,-1.852c0.035,-0.456 0.061,-0.912 0.076,-1.369c0.098,-2.964 -0.255,-6.005 -1.491,-8.727c-0.226,-0.498 -0.48,-0.983 -0.762,-1.452c-0.535,-0.89 -1.171,-1.714 -1.879,-2.474c-0.233,-0.25 -0.473,-0.493 -0.721,-0.729c-1.134,-1.081 -2.459,-2.036 -3.983,-2.471c-0.509,-0.146 -1.032,-0.227 -1.56,-0.255c-0.14,-0.006 -0.28,-0.009 -0.42,-0.008Z" style="fill:#444;"/></svg>