<?xml version="1.0" encoding="utf-8"?>
<!-- Generator: Adobe Illustrator 21.1.0, SVG Export Plug-In . SVG Version: 6.00 Build 0)  -->
<svg version="1.1" id="Layer_1" xmlns="http://www.w3.org/2000/svg" xmlns:xlink="http://www.w3.org/1999/xlink" x="0px" y="0px"
	 viewBox="0 0 100 100" style="enable-background:new 0 0 100 100;" xml:space="preserve">
<style type="text/css">
	.st0{fill:#444444;}
</style>
<g>
	<path class="st0" d="M50.2,0c0.3,0,0.6,0,1,0c0.6,0,1.2,0,1.8,0.1c1.7,0.1,3.5,0.3,5.2,0.6c2.1,0.3,4.2,0.8,6.2,1.4
		c2.1,0.6,4.2,1.4,6.2,2.3c2.5,1.1,5,2.5,7.3,4c2.3,1.5,4.5,3.2,6.5,5.1c2.1,1.9,4,4.1,5.7,6.3c1.8,2.3,3.3,4.8,4.6,7.4
		c1.1,2.1,2,4.3,2.8,6.6c0.8,2.2,1.4,4.5,1.8,6.9c0.6,3.1,0.9,6.2,0.9,9.3c0,2.3-0.2,4.7-0.5,7c-0.3,2.5-0.9,4.9-1.6,7.3
		c-0.8,2.5-1.7,5-2.9,7.4c-1.3,2.7-2.8,5.2-4.6,7.6c-1.8,2.4-3.7,4.7-5.9,6.8c-2.2,2.1-4.6,4-7.2,5.7c-2.6,1.7-5.4,3.2-8.3,4.4
		c-3.1,1.3-6.4,2.3-9.7,2.9c-3.1,0.6-6.3,0.9-9.5,0.9c-3.2,0-6.3-0.3-9.5-0.9c-3.3-0.6-6.6-1.6-9.7-2.9c-2.8-1.2-5.6-2.6-8.1-4.3
		c-2.6-1.7-5-3.6-7.3-5.8c-2.2-2.1-4.1-4.3-5.9-6.8c-1.7-2.4-3.3-5-4.6-7.6c-1.1-2.3-2.1-4.8-2.8-7.3C1.4,62,0.8,59.5,0.5,57
		C0.2,54.7,0,52.3,0,50c0-3.1,0.3-6.2,0.9-9.3c0.4-2.3,1-4.5,1.8-6.7c0.8-2.3,1.7-4.5,2.8-6.6c1.3-2.6,2.8-5,4.5-7.3
		c1.7-2.3,3.6-4.4,5.7-6.4c2-1.9,4.2-3.7,6.6-5.2c2.3-1.6,4.8-2.9,7.4-4.1c2-0.9,4.1-1.7,6.2-2.3c2-0.6,4.1-1.1,6.2-1.4
		c1.7-0.3,3.4-0.5,5.2-0.6C47.7,0,48.3,0,48.9,0c0.3,0,0.6,0,1,0C49.9,0,50.1,0,50.2,0L50.2,0z M49.8,3.4c-0.3,0-0.6,0-0.9,0
		c-0.5,0-1.1,0-1.6,0.1c-1.7,0.1-3.3,0.3-5,0.6c-1.9,0.3-3.8,0.7-5.6,1.3c-2,0.6-3.9,1.3-5.7,2.1c-2.4,1.1-4.7,2.4-6.9,3.8
		c-2.1,1.4-4.1,3-6,4.8c-2,1.9-3.8,3.9-5.4,6c-1.5,2.1-2.9,4.3-4.1,6.5c-1,2-1.9,4.1-2.7,6.3c-0.7,2-1.3,4.1-1.7,6.3
		C3.7,44.1,3.4,47,3.4,50c0,2.2,0.2,4.4,0.5,6.5c0.3,2.3,0.8,4.7,1.5,6.9C6.1,65.7,7,68,8,70.2c1.2,2.5,2.6,4.9,4.2,7.1
		c1.6,2.3,3.5,4.4,5.5,6.3c2.1,2,4.4,3.8,6.8,5.4c2.4,1.6,4.9,2.9,7.6,4c2.9,1.2,5.9,2.1,9,2.7c2.9,0.6,5.9,0.8,8.8,0.8
		c3,0,5.9-0.3,8.8-0.8c3.1-0.6,6.1-1.5,9-2.7c2.7-1.1,5.3-2.5,7.7-4.1c2.4-1.6,4.6-3.3,6.7-5.3c2-1.9,3.9-4.1,5.5-6.3
		c1.6-2.2,3-4.6,4.2-7.1c1.1-2.2,2-4.5,2.7-6.9c0.7-2.2,1.2-4.5,1.5-6.8c0.3-2.2,0.5-4.3,0.5-6.5c0-3-0.3-5.9-0.8-8.8
		c-0.4-2.2-1-4.3-1.7-6.4c-0.7-2.1-1.6-4.1-2.6-6.1c-1.2-2.4-2.7-4.6-4.3-6.8c-1.6-2.1-3.4-4.1-5.3-5.9c-1.9-1.8-3.9-3.4-6-4.8
		c-2.1-1.4-4.4-2.7-6.8-3.7c-1.8-0.8-3.7-1.5-5.6-2.1c-1.9-0.6-3.8-1-5.8-1.3c-1.6-0.3-3.3-0.5-5-0.6c-0.5,0-1.1-0.1-1.6-0.1
		c-0.3,0-0.6,0-0.9,0C50.1,3.4,49.9,3.4,49.8,3.4L49.8,3.4z M94.2,48.7c0,0.4,0,0.9,0,1.3c0,24.4-19.8,44.2-44.2,44.2
		c-15,0-28.3-7.5-36.3-18.9c0.4-0.3,0.8-0.7,1.2-1c2-1.7,4.1-3.4,6.1-5.2c0.8-0.7,1.5-1.3,2.2-2c0.3-0.3,0.6-0.5,0.9-0.8
		c0.2-0.2,0.5-0.4,0.7-0.6l0,0c-0.9,2.3-1.7,4.7-2.6,7c-0.3,0.7-0.5,1.4-0.8,2.2c-0.1,0.2-0.1,0.4-0.2,0.6c0,0,0,0.1-0.1,0.1
		c0,0,0,0,0,0.1c0,0.2-0.1,0.3-0.1,0.5s0,0.4,0.1,0.5c0.1,0.2,0.1,0.3,0.2,0.5c0.2,0.3,0.5,0.5,0.8,0.6c0.2,0.1,0.3,0.1,0.5,0.1
		c0.2,0,0.4,0,0.5-0.1c0.3-0.1,0.6-0.3,0.9-0.6c0.1-0.1,0.2-0.3,0.2-0.5l0,0c0.3-0.8,0.6-1.7,0.9-2.5c0.4-1.1,0.8-2.1,1.1-3.2
		c1.2-3.1,2.3-6.3,3.6-9.4c0.1-0.3,0.2-0.6,0.4-1c0.5-0.5,1.1-1,1.6-1.5c0.1,0,0.2-0.1,0.4-0.2l0,0c0.3-0.2,0.5-0.3,0.8-0.5
		c0.3-0.2,0.6-0.4,0.9-0.6c0.8-0.5,1.6-0.9,2.5-1.4c1-0.5,2-1.1,3-1.6c1-0.5,2-0.9,3-1.3c1.2-0.5,2.4-0.9,3.6-1.3
		c0.5-0.2,1.1-0.3,1.7-0.4c0.5-0.1,1-0.2,1.5-0.3c0.7-0.1,1.5-0.2,2.2-0.1c0.5,0,1.1,0.1,1.6,0.2c0.4,0.1,0.7,0.2,1,0.4
		c0.2,0.1,0.4,0.3,0.6,0.4c0.1,0.1,0.2,0.2,0.3,0.3c0.5,0.6,0.8,1.2,1,1.9c0,0.1,0.1,0.2,0.1,0.3c0,0.2,0.1,0.3,0.1,0.5
		c0,0.1,0,0.2,0,0.3c0,0.1,0,0.2,0,0.3c0,0.5,0,1.1-0.2,1.6c0,0.1-0.1,0.2-0.1,0.3c-0.1,0.2-0.2,0.4-0.4,0.5
		c-0.2,0.2-0.4,0.4-0.7,0.6c-0.3,0.2-0.7,0.4-1,0.5c-0.5,0.2-1,0.4-1.5,0.5c-0.6,0.1-1.3,0.2-1.9,0.3c-0.5,0.1-0.9,0.1-1.4,0.1
		c-1.1,0.1-2.3,0-3.4,0c-1.1-0.1-2.2-0.1-3.2-0.3c-0.4,0-0.7-0.1-1.1-0.1c-0.2,0-0.3,0-0.5-0.1c-0.2,0-0.4-0.1-0.6-0.1
		c-0.1,0-0.2,0-0.4-0.1c-0.1,0-0.1,0-0.1,0l-0.1,0l-0.2,0l0,0c-0.1,0-0.1,0-0.2,0c-0.1,0-0.1,0-0.2,0c-0.1,0-0.2,0.1-0.3,0.2
		c-0.1,0-0.1,0.1-0.1,0.1c0,0-0.1,0.1-0.1,0.1c-0.1,0-0.1,0.1-0.2,0.2C38.1,60.8,38,60.9,38,61c-0.1,0.1-0.1,0.2-0.1,0.3
		c-0.1,0.2-0.1,0.3-0.1,0.5c0,0.2,0,0.4,0,0.6c0,0.1,0,0.3,0.1,0.4c0,0.2,0.1,0.4,0.1,0.5c0,0.2,0.1,0.4,0.1,0.6
		c0.1,0.3,0.1,0.5,0.2,0.8c0.1,0.3,0.2,0.7,0.3,1c0.1,0.4,0.3,0.8,0.4,1.3c0.2,0.5,0.4,1,0.6,1.5c0.3,0.7,0.6,1.4,1,2.1
		c0.3,0.5,0.6,1.1,0.9,1.6c0.2,0.4,0.5,0.8,0.7,1.1c0.2,0.3,0.4,0.6,0.6,0.9c1.3,1.7,2.7,3.3,4.5,4.5c0.3,0.2,0.5,0.4,0.8,0.5
		c0.4,0.2,0.8,0.5,1.2,0.7c0.6,0.3,1.1,0.5,1.7,0.7c0.8,0.3,1.7,0.5,2.6,0.6c0.6,0.1,1.1,0.1,1.7,0.2c0.4,0,0.9,0,1.3,0
		c0.3,0,0.6,0,0.9-0.1c2-0.2,4-0.8,5.9-1.6c0.3-0.1,0.6-0.2,0.8-0.4c0.4-0.2,0.7-0.4,1.1-0.5c0.5-0.2,0.9-0.5,1.4-0.8
		c0.6-0.4,1.2-0.7,1.8-1.1c0.8-0.5,1.5-1,2.2-1.6c0.9-0.7,1.8-1.4,2.7-2.1c1.1-1,2.2-2,3.3-3c1.3-1.3,2.6-2.7,3.9-4
		c1.6-1.8,3.2-3.6,4.7-5.5c1.6-2,3.1-4,4.6-6C91.4,52.7,92.8,50.7,94.2,48.7L94.2,48.7z M11.9,72.4C8,65.8,5.8,58.2,5.8,50
		C5.8,25.6,25.6,5.8,50,5.8c22.2,0,40.5,16.3,43.7,37.6l0,0l-0.1,0.2l-0.1,0.2c-0.6,0.8-1.1,1.7-1.7,2.5c-1.6,2.3-3.2,4.7-4.9,6.9
		c-1.7,2.3-3.5,4.6-5.3,6.8c-1.4,1.7-2.9,3.4-4.5,5.1c-1.2,1.3-2.4,2.5-3.7,3.7c-1,0.9-2,1.8-3.1,2.7c-0.8,0.6-1.6,1.3-2.5,1.9
		c-0.7,0.5-1.3,0.9-2,1.3c-0.5,0.3-1,0.6-1.6,0.9c-0.4,0.2-0.9,0.4-1.3,0.6c-0.3,0.1-0.6,0.3-0.9,0.4c-0.3,0.1-0.5,0.2-0.8,0.3
		c-1.6,0.6-3.3,1-5,1c-0.2,0-0.5,0-0.7,0c-0.4,0-0.7,0-1.1-0.1c-0.5-0.1-1-0.2-1.4-0.3c-0.7-0.2-1.4-0.4-2-0.8c-1-0.5-2-1.2-2.8-1.9
		c-0.6-0.5-1.2-1.1-1.7-1.7c-0.6-0.7-1.2-1.5-1.7-2.3c-0.8-1.2-1.4-2.5-2-3.8c-0.2-0.6-0.5-1.2-0.7-1.7c-0.2-0.6-0.4-1.1-0.5-1.7
		l0.1,0c0.4,0,0.8,0.1,1.2,0.1c0.4,0,0.9,0.1,1.3,0.1c0.7,0.1,1.5,0.1,2.2,0.1c1.2,0,2.4,0,3.7-0.1c1-0.1,2.1-0.2,3.1-0.5
		c0.8-0.2,1.6-0.5,2.4-0.8c0.6-0.3,1.2-0.7,1.8-1.1c0.3-0.3,0.6-0.6,0.9-0.9c0.3-0.3,0.5-0.7,0.7-1.1c0.2-0.4,0.4-0.9,0.5-1.4
		c0.1-0.5,0.2-0.9,0.2-1.4c0-0.4,0-0.7,0-1.1c0-0.2-0.1-0.5-0.1-0.7c-0.1-0.7-0.3-1.5-0.6-2.2c-0.2-0.4-0.4-0.8-0.6-1.1
		c-0.2-0.4-0.5-0.8-0.8-1.1c-0.3-0.3-0.6-0.6-1-0.9c-0.3-0.2-0.5-0.4-0.8-0.5c-0.2-0.1-0.4-0.2-0.6-0.3c-0.2-0.1-0.3-0.1-0.5-0.2
		c-1.2-0.4-2.5-0.6-3.7-0.5c-0.2,0-0.5,0-0.7,0c-0.3,0-0.6,0-0.8,0.1c-0.4,0-0.7,0.1-1.1,0.2c-0.5,0.1-0.9,0.2-1.4,0.3
		c-0.6,0.1-1.2,0.3-1.8,0.5c-0.8,0.2-1.6,0.5-2.3,0.8c-0.7,0.3-1.4,0.5-2.1,0.8c1.2-1.2,2.4-2.5,3.6-3.7c1.3-1.3,2.5-2.7,3.7-4.1
		c1.1-1.2,2.1-2.4,3.1-3.7c0.9-1.1,1.8-2.3,2.7-3.5c0.8-1,1.5-2.1,2.2-3.2c0.6-1,1.2-2.1,1.8-3.1c0.2-0.5,0.5-1,0.7-1.5
		c0.2-0.4,0.3-0.8,0.5-1.2c0.1-0.3,0.2-0.6,0.3-0.9c0.1-0.2,0.1-0.5,0.2-0.7c0-0.2,0.1-0.3,0.1-0.5c0.2-1.1,0.3-2.3,0.1-3.5
		c0-0.2-0.1-0.4-0.1-0.5c-0.1-0.2-0.1-0.5-0.2-0.7c-0.1-0.3-0.3-0.6-0.4-0.9c-0.2-0.4-0.5-0.8-0.9-1.2c-0.4-0.4-0.9-0.8-1.4-1.2
		c-0.5-0.3-1-0.5-1.5-0.6c-0.2,0-0.4-0.1-0.6-0.1c-0.1,0-0.2,0-0.3,0c-0.1,0-0.1,0-0.2,0c-0.1,0-0.1,0-0.2,0c-0.2,0-0.3,0-0.5,0.1
		c-0.1,0-0.2,0-0.4,0.1c-0.8,0.2-1.6,0.6-2.3,1c-0.1,0.1-0.3,0.2-0.4,0.2c-0.2,0.1-0.3,0.2-0.5,0.3c-0.2,0.1-0.4,0.3-0.5,0.4
		c-0.2,0.2-0.5,0.4-0.7,0.6c-0.3,0.3-0.5,0.5-0.8,0.8c-0.4,0.4-0.7,0.8-1,1.2c-0.4,0.5-0.8,1-1.3,1.6c-0.5,0.7-1,1.4-1.5,2.2
		c-0.7,1-1.3,2-1.9,3c-0.6,1.1-1.3,2.2-1.9,3.3c-0.6,1.2-1.3,2.3-1.9,3.5c-0.7,1.3-1.4,2.7-2,4.1c-1.3,2.7-2.5,5.4-3.7,8.1
		c-1.2,2.7-2.3,5.4-3.4,8.1c-0.4,0.9-0.8,1.9-1.1,2.8c-0.1,0.3-0.3,0.7-0.4,1c-3.4,3.1-6.8,6.1-10.3,9.1c-1.3,1.1-2.7,2.3-4,3.4
		C12.8,71.7,12.3,72.1,11.9,72.4L11.9,72.4z M54,19.7c-0.3,0-0.6,0.1-0.9,0.2c-0.2,0.1-0.4,0.2-0.6,0.3c-0.2,0.1-0.5,0.3-0.7,0.5
		c-0.3,0.2-0.6,0.5-0.9,0.8c-0.3,0.3-0.6,0.6-0.9,1c-0.3,0.4-0.7,0.8-1,1.1c-0.4,0.4-0.7,0.9-1.1,1.4c-0.4,0.6-0.9,1.2-1.3,1.8
		c-0.5,0.8-1,1.6-1.5,2.4c-0.5,0.9-1.1,1.8-1.6,2.7c-1.1,2-2.2,4-3.2,6.1c-1.1,2.2-2.1,4.4-3.1,6.6c-1.3,2.9-2.6,5.8-3.8,8.7
		c0.2-0.2,0.5-0.4,0.7-0.7c2.4-2.3,4.7-4.7,7-7.1c1.8-1.9,3.7-3.9,5.4-6c0.8-0.9,1.6-1.9,2.3-2.8c0.7-0.9,1.4-1.8,2.1-2.7
		c0.6-0.8,1.2-1.6,1.7-2.5c0.5-0.8,1-1.6,1.4-2.4c0.3-0.6,0.6-1.2,0.9-1.7c0.2-0.5,0.4-1,0.6-1.4c0.1-0.4,0.3-0.8,0.4-1.2
		c0.1-0.2,0.1-0.4,0.1-0.6c0-0.2,0.1-0.3,0.1-0.5c0-0.1,0-0.2,0-0.4c0-0.1,0-0.2,0-0.3c0-0.6-0.1-1.2-0.3-1.8c0-0.1-0.1-0.2-0.2-0.3
		c-0.1-0.2-0.2-0.3-0.4-0.5c0-0.1-0.1-0.1-0.1-0.1c-0.2-0.2-0.5-0.4-0.8-0.5C54.3,19.7,54.2,19.7,54,19.7C54.1,19.7,54,19.7,54,19.7
		L54,19.7z"/>
</g>
</svg>
