<?xml version="1.0" encoding="utf-8"?>
<!-- Generator: Adobe Illustrator 21.0.2, SVG Export Plug-In . SVG Version: 6.00 Build 0)  -->
<svg version="1.1" id="Layer_1" xmlns="http://www.w3.org/2000/svg" xmlns:xlink="http://www.w3.org/1999/xlink" x="0px" y="0px"
	 viewBox="0 0 100 100" style="enable-background:new 0 0 100 100;" xml:space="preserve">
<style type="text/css">
	.st0{fill:#FFFFFF;}
</style>
<g>
	<path class="st0" d="M50.1439,2.1507c0.2874,0.0014,0.5745,0.0047,0.8617,0.011c0.5234,0.0117,1.0465,0.0324,1.5694,0.0623
		c1.5474,0.0883,3.0902,0.2569,4.6202,0.5058c1.8663,0.3036,3.7133,0.7266,5.5254,1.2662c1.872,0.5574,3.707,1.239,5.4891,2.0388
		c2.2535,1.0112,4.4223,2.2112,6.4769,3.582c2.0414,1.3619,3.9703,2.8921,5.7612,4.5694c1.8544,1.7366,3.5609,3.6309,5.0949,5.6561
		c1.5683,2.0705,2.956,4.2778,4.1405,6.5892c0.9697,1.8922,1.8033,3.854,2.4916,5.8657c0.6839,1.9987,1.2241,4.0464,1.6154,6.1223
		c0.5153,2.7325,0.7721,5.5128,0.7721,8.2934c0,2.0824-0.1438,4.1646-0.4326,6.227c-0.3077,2.1957-0.78,4.3685-1.4128,6.4937
		c-0.6733,2.2611-1.528,4.468-2.5526,6.593c-1.1489,2.3827-2.511,4.6621-4.0635,6.8035c-1.5699,2.1657-3.3346,4.1901-5.2649,6.0417
		c-1.9642,1.8839-4.0998,3.5886-6.3729,5.0853c-2.3282,1.533-4.7999,2.8473-7.3736,3.9181c-2.7877,1.1599-5.694,2.0333-8.6595,2.602
		c-2.7764,0.5324-5.603,0.7978-8.4299,0.7978c-2.827,0-5.6535-0.2654-8.4299-0.7978c-2.9653-0.5688-5.8716-1.4422-8.6595-2.602
		c-2.5322-1.0535-4.966-2.3429-7.2613-3.8445c-2.315-1.5143-4.4887-3.244-6.485-5.1589c-1.9305-1.8515-3.695-3.876-5.2651-6.0417
		c-1.5525-2.1414-2.9146-4.4208-4.0633-6.8035c-1.0048-2.0838-1.8461-4.2463-2.5133-6.4616
		c-0.6524-2.167-1.1381-4.3839-1.4521-6.625c-0.289-2.0624-0.4326-4.1446-0.4326-6.227c0-2.7805,0.2566-5.5609,0.7719-8.2934
		c0.3829-2.0311,0.9083-4.0354,1.5714-5.9931c0.6823-2.0142,1.5102-3.9791,2.4743-5.8747c1.1575-2.2756,2.5115-4.451,4.0408-6.4955
		c1.5221-2.0343,3.2172-3.939,5.0614-5.6867c1.8132-1.7187,3.7702-3.2854,5.8443-4.6781c2.0878-1.4019,4.294-2.627,6.5885-3.6566
		c1.7819-0.7998,3.6169-1.4814,5.4889-2.0388c1.8123-0.5396,3.6592-0.9627,5.5254-1.2662c1.53-0.2488,3.0729-0.4174,4.6204-0.5058
		c0.5227-0.0299,1.046-0.0506,1.5694-0.0623c0.2872-0.0063,0.5744-0.0095,0.8615-0.011
		C49.9519,2.1507,50.0479,2.1507,50.1439,2.1507L50.1439,2.1507z M49.8657,5.2096c-0.2677,0.0013-0.5357,0.0043-0.8034,0.0103
		c-0.4878,0.0108-0.9756,0.03-1.4629,0.0579c-1.4846,0.0847-2.9648,0.2488-4.4318,0.4921c-1.6937,0.2811-3.37,0.6677-5.0155,1.1577
		c-1.7425,0.5189-3.4506,1.1536-5.1094,1.898c-2.1367,0.9589-4.1914,2.0998-6.1358,3.4053
		c-1.898,1.2745-3.6906,2.7055-5.3547,4.2733c-1.7533,1.6518-3.3635,3.4555-4.8066,5.3844
		c-1.3742,1.8371-2.5966,3.7878-3.6491,5.8265c-0.9274,1.7959-1.7229,3.6599-2.3771,5.5724
		c-0.6226,1.8197-1.1174,3.6829-1.4796,5.5717c-0.4963,2.5867-0.7431,5.2201-0.7431,7.8538c0,1.9404,0.1337,3.8808,0.4029,5.8025
		c0.2924,2.0863,0.7444,4.1502,1.3519,6.1674c0.621,2.0622,1.4044,4.0753,2.3397,6.0152c1.0699,2.2191,2.3386,4.342,3.7846,6.3366
		c1.4629,2.018,3.1069,3.9042,4.9057,5.6294c1.8602,1.784,3.8853,3.3957,6.0422,4.8068c2.1374,1.3983,4.4037,2.599,6.7619,3.58
		c2.595,1.0798,5.3003,1.8926,8.0607,2.4221c2.5866,0.4961,5.2199,0.7431,7.8536,0.7431s5.267-0.2471,7.8538-0.7431
		c2.7604-0.5295,5.4657-1.3423,8.0607-2.4221c2.3965-0.997,4.6983-2.2211,6.8663-3.6485c2.1178-1.3945,4.1077-2.983,5.9377-4.7382
		c1.7988-1.7252,3.4429-3.6115,4.9057-5.6294c1.446-1.9946,2.7147-4.1174,3.7847-6.3366c0.9537-1.9782,1.7493-4.0325,2.3762-6.1376
		c0.5891-1.9782,1.0287-4.0008,1.3151-6.0451c0.2692-1.9217,0.4031-3.8621,0.4031-5.8025c0-2.6337-0.247-5.2671-0.7433-7.8538
		c-0.3701-1.9303-0.8788-3.8342-1.5208-5.6919c-0.6463-1.8704-1.4278-3.6939-2.3357-5.4522
		c-1.0908-2.1126-2.3638-4.1306-3.7993-6.0257c-1.4292-1.8872-3.0195-3.6523-4.7472-5.2705
		c-1.6687-1.5629-3.4659-2.9885-5.3678-4.2574c-1.9136-1.2766-3.9332-2.394-6.0318-3.3358
		c-1.6201-0.7271-3.2871-1.3493-4.9873-1.8612c-1.6847-0.5074-3.402-0.9063-5.1377-1.1944
		c-1.4672-0.2433-2.9473-0.4074-4.432-0.4921c-0.4873-0.0279-0.9749-0.0471-1.4629-0.0579
		c-0.2677-0.0059-0.5355-0.009-0.8034-0.0103C50.0447,5.2095,49.9551,5.2095,49.8657,5.2096L49.8657,5.2096z M89.3768,45.5727
		c0.0108,0.3788,0.0162,0.7588,0.0162,1.1401c0,21.7415-17.6514,39.3929-39.3931,39.3929c-13.3706,0-25.1943-6.6756-32.317-16.873
		c0.3554-0.2949,0.71-0.5904,1.0641-0.8865c1.8251-1.5258,3.6365-3.0679,5.4346-4.6256c0.6703-0.5808,1.3384-1.164,2.0052-1.749
		c0.2591-0.2278,0.5182-0.456,0.7771-0.6843c0.208-0.1837,0.416-0.3676,0.6237-0.5519l-0.0018,0.0049
		c-0.7861,2.0856-1.5575,4.177-2.3089,6.2754c-0.2298,0.642-0.4578,1.2846-0.683,1.928c-0.0597,0.1706-0.1191,0.3413-0.1783,0.5123
		c-0.0153,0.0441-0.0306,0.0882-0.0459,0.1324c-0.0052,0.0151-0.0124,0.0295-0.0155,0.0452
		c-0.0293,0.1535-0.0786,0.3055-0.0813,0.4619c-0.0027,0.1564,0.0196,0.3151,0.0655,0.4646
		c0.0457,0.1493,0.1161,0.2935,0.2057,0.4214c0.1817,0.2593,0.4408,0.4545,0.7403,0.5574c0.1477,0.0509,0.3055,0.0786,0.4619,0.0813
		s0.3151-0.0196,0.4644-0.0655c0.3028-0.0927,0.5684-0.2787,0.759-0.5317c0.0939-0.1249,0.1466-0.276,0.2201-0.4142l0.0148-0.0432
		c0.2586-0.748,0.5224-1.4944,0.7885-2.2398c0.337-0.9441,0.6784-1.887,1.0231-2.8284c1.0256-2.7998,2.0827-5.5881,3.1685-8.3652
		c0.111-0.2836,0.2224-0.5672,0.334-0.8506c0.4772-0.4394,0.9531-0.8802,1.4276-1.3227c0.1092-0.0444,0.2125-0.1054,0.3205-0.1535
		l0.0137-0.0088c0.2246-0.1445,0.4515-0.2857,0.6791-0.4254c0.273-0.1673,0.5474-0.3322,0.823-0.495
		c0.7237-0.4273,1.4557-0.8408,2.1952-1.2405c0.8943-0.4831,1.7995-0.9461,2.7167-1.3844c0.8835-0.4221,1.7783-0.8216,2.6857-1.1899
		c1.0542-0.4279,2.1267-0.8151,3.2196-1.133c0.4882-0.1422,0.9805-0.2701,1.4771-0.3789c0.4281-0.0937,0.8596-0.1735,1.2936-0.2337
		c0.6503-0.0901,1.309-0.1387,1.9656-0.1103c0.4849,0.0211,0.9707,0.0844,1.4379,0.2193c0.3196,0.0925,0.6303,0.2193,0.916,0.3908
		c0.181,0.1085,0.3514,0.2346,0.5069,0.3775c0.0853,0.0783,0.1661,0.1614,0.242,0.2489c0.4277,0.4925,0.6904,1.1062,0.8531,1.7324
		c0.0254,0.0975,0.0484,0.1958,0.0693,0.2944c0.0284,0.1342,0.0529,0.2692,0.0741,0.4047c0.0149,0.0959,0.0281,0.192,0.0385,0.2884
		c0.0079,0.0745,0.0142,0.1493,0.0187,0.2242c0.0286,0.4709-0.0146,0.954-0.1942,1.394c-0.0385,0.0941-0.0828,0.1859-0.133,0.2742
		c-0.0972,0.1713-0.2157,0.3295-0.35,0.4732c-0.1821,0.1951-0.3914,0.3631-0.6138,0.5096
		c-0.2843,0.1873-0.5905,0.3401-0.9051,0.4695c-0.4421,0.1817-0.9022,0.3179-1.3673,0.4261c-0.554,0.1287-1.1169,0.2172-1.6819,0.28
		c-0.4196,0.0466-0.8407,0.0788-1.2622,0.0999c-1.0013,0.0498-2.0056,0.0382-3.0067-0.0122
		c-0.9603-0.0484-1.9188-0.1331-2.8739-0.2454c-0.3311-0.039-0.6616-0.0817-0.9918-0.1267
		c-0.1359-0.0189-0.2715-0.038-0.4074-0.0576c-0.1839-0.0266-0.3676-0.0542-0.5515-0.0817
		c-0.1047-0.0157-0.2096-0.032-0.3149-0.0453c-0.0579-0.0074-0.0623-0.0074-0.1308-0.0146l-0.0502-0.0022l-0.169,0.0027
		l-0.0023,0.0002c-0.0547,0.007-0.1094,0.0139-0.1639,0.0211c-0.0588,0.0076-0.1152,0.0281-0.1726,0.0421
		c-0.1096,0.027-0.2105,0.0844-0.31,0.1348c-0.047,0.0238-0.0883,0.057-0.1324,0.0855c-0.0403,0.0261-0.0756,0.0592-0.1126,0.0898
		c-0.0531,0.0435-0.0909,0.0826-0.1385,0.1362c-0.0686,0.0772-0.1283,0.1618-0.1799,0.251
		c-0.048,0.0828-0.0878,0.1702-0.1198,0.2604c-0.0515,0.1438-0.0812,0.294-0.0934,0.4461c-0.0151,0.1864-0.0038,0.3743,0.0169,0.56
		c0.0142,0.1285,0.0333,0.2564,0.0551,0.3838c0.0274,0.161,0.0592,0.3212,0.0936,0.4808c0.036,0.1668,0.0749,0.3331,0.1162,0.4986
		c0.0561,0.2258,0.1166,0.4506,0.1803,0.6744c0.0844,0.2958,0.1745,0.5898,0.2697,0.8824c0.122,0.3748,0.2523,0.7469,0.3899,1.1163
		c0.1713,0.4594,0.3541,0.9144,0.5483,1.3646c0.271,0.6285,0.5641,1.2477,0.8797,1.8549c0.2483,0.4775,0.5107,0.9479,0.7878,1.4094
		c0.2022,0.3367,0.4124,0.6686,0.6309,0.995c0.1855,0.2775,0.3771,0.5508,0.5749,0.8198c1.1219,1.5251,2.4502,2.9128,4.0016,4.0057
		c0.2355,0.1661,0.4761,0.3251,0.7212,0.4765c0.3417,0.2111,0.6924,0.4074,1.0514,0.5873c0.5,0.2508,1.0161,0.47,1.5446,0.6542
		c0.7507,0.2618,1.526,0.4525,2.3123,0.5699c0.5026,0.075,1.0094,0.1202,1.5172,0.1369c0.3797,0.0122,0.7597,0.0088,1.139-0.0099
		c0.2825-0.0139,0.5646-0.0362,0.8459-0.0662c1.8078-0.1938,3.5695-0.7125,5.2393-1.4229c0.2501-0.1063,0.4982-0.217,0.7446-0.3318
		c0.3316-0.1544,0.6596-0.3161,0.9846-0.4844c0.4182-0.2165,0.8308-0.4437,1.238-0.6802c0.5389-0.3131,1.0686-0.6424,1.5894-0.985
		c0.6712-0.4416,1.3276-0.9054,1.9708-1.3869c0.8173-0.612,1.6133-1.2522,2.3906-1.9141c1.013-0.8626,1.9946-1.7619,2.9499-2.6879
		c1.2003-1.1633,2.3595-2.3688,3.4857-3.6039c1.4488-1.589,2.8433-3.2273,4.1957-4.8991c1.4209-1.7565,2.7953-3.5505,4.1331-5.3711
		C86.9306,49.0956,88.1673,47.3434,89.3768,45.5727L89.3768,45.5727z M16.0491,66.6918c-3.4578-5.859-5.4421-12.6892-5.4421-19.9791
		c0-21.7417,17.6514-39.3931,39.3929-39.3931c19.743,0,36.1133,14.5555,38.9561,33.5116l-0.0347,0.038l-0.1159,0.1758L88.69,41.2194
		c-0.4905,0.7408-0.9848,1.4792-1.4841,2.2143c-1.4217,2.0928-2.8809,4.1605-4.3881,6.1926
		c-1.5187,2.0477-3.0859,4.0599-4.7179,6.0185c-1.2903,1.5487-2.6211,3.0639-4.0048,4.5299
		c-1.0629,1.1259-2.1572,2.2227-3.2908,3.2775c-0.89,0.8281-1.8044,1.6302-2.7483,2.3962c-0.7134,0.5788-1.4438,1.137-2.1938,1.6676
		c-0.5808,0.4108-1.1735,0.805-1.7794,1.178c-0.4626,0.2848-0.9328,0.5573-1.4112,0.8144c-0.3777,0.2031-0.7604,0.3966-1.1485,0.579
		c-0.2794,0.1312-0.5618,0.2568-0.8466,0.3757c-0.23,0.0959-0.4617,0.1875-0.6953,0.2744
		c-1.4364,0.5346-2.9511,0.8936-4.4878,0.9344c-0.2138,0.0058-0.4277,0.0052-0.6415-0.0018
		c-0.3154-0.0103-0.6307-0.0347-0.9439-0.0741c-0.4331-0.0543-0.8628-0.1373-1.2847-0.249c-0.6283-0.1664-1.239-0.3966-1.8224-0.683
		c-0.9099-0.447-1.7495-1.0287-2.5101-1.6973c-0.543-0.477-1.0467-0.9983-1.514-1.5494c-0.5432-0.6406-1.0377-1.3216-1.4899-2.0289
		c-0.6805-1.0647-1.2667-2.1893-1.7704-3.3479c-0.2222-0.511-0.4282-1.0292-0.6174-1.5536
		c-0.1778-0.493-0.3408-0.9914-0.4851-1.4953l0.0552,0.0068c0.3503,0.0426,0.701,0.0826,1.0523,0.1188
		c0.3977,0.0408,0.7959,0.0765,1.1946,0.1069c0.6605,0.0506,1.3223,0.0867,1.9847,0.1051c1.0863,0.03,2.1752,0.0135,3.2588-0.0765
		c0.9234-0.0768,1.8449-0.2066,2.7467-0.4227c0.7343-0.1762,1.4573-0.4104,2.1419-0.7313c0.5578-0.2614,1.0899-0.5816,1.5671-0.9722
		c0.2881-0.2359,0.5556-0.4972,0.7946-0.7827c0.2566-0.3064,0.4799-0.6402,0.6632-0.9954c0.2066-0.4,0.3617-0.8259,0.4646-1.264
		c0.0948-0.4036,0.1454-0.8171,0.1578-1.2313c0.0094-0.3169-0.0034-0.6341-0.0347-0.9495c-0.0218-0.2193-0.0531-0.4378-0.0901-0.655
		c-0.1123-0.6557-0.2854-1.3024-0.5391-1.9179c-0.1434-0.348-0.3125-0.6856-0.5094-1.0066c-0.2132-0.348-0.459-0.6764-0.7352-0.9769
		c-0.2604-0.2832-0.5475-0.5414-0.8567-0.7703c-0.2318-0.1715-0.4756-0.3264-0.7289-0.4642
		c-0.1735-0.0945-0.3514-0.181-0.5328-0.2595c-0.1404-0.0608-0.2829-0.117-0.427-0.1684c-1.0587-0.378-2.1929-0.5042-3.3124-0.4835
		c-0.203,0.0038-0.4059,0.0124-0.6087,0.0254c-0.2506,0.016-0.5009,0.0387-0.7507,0.0671c-0.3226,0.0367-0.644,0.0829-0.9641,0.1373
		c-0.4191,0.0713-0.8358,0.1564-1.2498,0.2524c-0.5389,0.1251-1.0733,0.269-1.6034,0.4275
		c-0.6999,0.2093-1.3927,0.4434-2.0777,0.6974c-0.6393,0.2373-1.2727,0.49-1.9005,0.7563c1.083-1.0971,2.1538-2.2062,3.2091-3.3301
		c1.1208-1.1933,2.2242-2.4032,3.3036-3.6343c0.9495-1.0829,1.8805-2.1823,2.7849-3.3032c0.8133-1.0078,1.6054-2.0331,2.3658-3.0817
		c0.6724-0.9272,1.3204-1.8728,1.9298-2.8426c0.5673-0.9027,1.1021-1.8271,1.5813-2.7798c0.2165-0.43,0.4214-0.8662,0.6112-1.3088
		c0.1477-0.3448,0.2863-0.6935,0.4133-1.0465c0.095-0.2643,0.1835-0.5308,0.2641-0.7998c0.0615-0.2055,0.1184-0.4122,0.17-0.6202
		c0.0369-0.1483,0.0711-0.2973,0.1022-0.4468c0.2103-1.0112,0.2866-2.0619,0.1143-3.0848
		c-0.0265-0.1569-0.0587-0.3127-0.0968-0.4673c-0.0511-0.2058-0.113-0.4092-0.1861-0.6085
		c-0.1038-0.2838-0.2301-0.5591-0.3784-0.8225c-0.2118-0.3764-0.468-0.7266-0.7599-1.0447
		c-0.3662-0.3993-0.7843-0.7532-1.2534-1.0258c-0.4128-0.2399-0.8628-0.4142-1.331-0.5076
		c-0.1751-0.0349-0.3525-0.0587-0.5306-0.0713c-0.0804-0.0058-0.161-0.0086-0.2416-0.0103
		c-0.0482-0.0005-0.0964-0.0004-0.1447,0.0002c-0.0642,0.0016-0.1283,0.0038-0.1924,0.0077
		c-0.1436,0.0088-0.2866,0.0245-0.4286,0.0464c-0.1101,0.0169-0.2195,0.0378-0.3282,0.0623
		c-0.7397,0.1661-1.4344,0.4945-2.072,0.8995c-0.1128,0.0718-0.2242,0.1461-0.334,0.2226c-0.14,0.0975-0.2775,0.1986-0.4126,0.3026
		c-0.1666,0.1283-0.3296,0.2613-0.4894,0.3978c-0.2071,0.1769-0.4088,0.36-0.6058,0.5481
		c-0.2474,0.2361-0.4874,0.4795-0.7215,0.7289c-0.3165,0.3372-0.6224,0.6845-0.9186,1.0397
		c-0.3852,0.4621-0.7564,0.9355-1.116,1.4177c-0.4704,0.631-0.9213,1.2763-1.358,1.9309c-0.5832,0.8739-1.1408,1.7648-1.6806,2.6661
		c-0.5785,0.9659-1.1361,1.9442-1.6783,2.9308c-0.5715,1.0398-1.1259,2.089-1.6669,3.1449c-0.6156,1.2014-1.214,2.4115-1.7992,3.628
		c-1.1485,2.3879-2.2459,4.8005-3.3085,7.2278c-1.0429,2.3831-2.0516,4.7809-3.0339,7.1893
		c-0.3404,0.8345-0.6771,1.6705-1.0116,2.5076c-0.1213,0.3041-0.2424,0.6084-0.3631,0.9128
		c-3.0152,2.7643-6.08,5.4745-9.1841,8.1386c-1.1937,1.0246-2.3935,2.0423-3.5991,3.0528
		C16.8167,66.0522,16.4333,66.3724,16.0491,66.6918L16.0491,66.6918z M53.5718,19.7262c-0.2805,0.0036-0.5547,0.0833-0.8119,0.1911
		c-0.1844,0.0774-0.3618,0.1706-0.5335,0.273c-0.2085,0.1242-0.4086,0.2622-0.6022,0.4086
		c-0.2852,0.2154-0.5564,0.4491-0.8174,0.6931c-0.2917,0.2726-0.5709,0.5585-0.8408,0.8525
		c-0.3041,0.3311-0.5967,0.6728-0.8802,1.0215c-0.326,0.4007-0.6406,0.8106-0.9463,1.2268
		c-0.3863,0.5254-0.7586,1.0613-1.1205,1.6038c-0.4734,0.7095-0.929,1.4308-1.3718,2.1599c-0.4768,0.7854-0.9385,1.58-1.3889,2.3809
		c-1.0028,1.7839-1.9496,3.5989-2.8615,5.4306c-0.9691,1.9473-1.8983,3.9143-2.7994,5.8939
		c-1.169,2.5686-2.2902,5.1589-3.379,7.7626c0.2012-0.1936,0.402-0.3878,0.6026-0.5819c2.1263-2.0622,4.2193-4.1592,6.2571-6.3092
		c1.6446-1.7353,3.2543-3.5046,4.805-5.3245c0.7057-0.8281,1.3988-1.6667,2.0754-2.5187c0.6341-0.7987,1.2534-1.6093,1.8522-2.4349
		c0.5234-0.7221,1.0314-1.4557,1.5161-2.2042c0.4511-0.6965,0.8826-1.4062,1.2833-2.1331c0.2809-0.5094,0.5468-1.0276,0.7901-1.5563
		c0.1949-0.4232,0.3753-0.8533,0.5346-1.2912c0.1301-0.3577,0.2462-0.7208,0.3412-1.0895c0.0464-0.1799,0.0878-0.3611,0.1229-0.5436
		c0.0277-0.1432,0.0513-0.2872,0.0704-0.4318c0.0146-0.1108,0.0265-0.2219,0.0353-0.3332c0.0063-0.0821,0.011-0.1641,0.0137-0.2463
		c0.0176-0.5333-0.0459-1.0805-0.2683-1.5703c-0.0407-0.0896-0.0864-0.1769-0.1371-0.2613
		c-0.0963-0.1601-0.2107-0.3084-0.3381-0.4452c-0.0419-0.045-0.0851-0.0887-0.1297-0.1312
		c-0.204-0.1945-0.4425-0.3663-0.7167-0.4446c-0.0916-0.0263-0.1857-0.0408-0.2807-0.0459
		C53.6222,19.7265,53.597,19.726,53.5718,19.7262L53.5718,19.7262z"/>
</g>
<g>
	<path class="st0" d="M6.9824,71.165c-0.3008,0.1553-0.5947,0.25-0.8818,0.2842c-0.2861,0.0342-0.5566,0.0127-0.8105-0.0635
		c-0.2529-0.0762-0.4834-0.2061-0.6904-0.3877c-0.208-0.1826-0.3838-0.4111-0.5254-0.6865l-0.7334-1.4238l3.8965-2.0078
		l0.7334,1.4238c0.1426,0.2744,0.2275,0.5498,0.2549,0.8252c0.0283,0.2744-0.001,0.5371-0.085,0.7881
		c-0.085,0.25-0.2246,0.4824-0.418,0.6963C7.5273,70.8271,7.2822,71.0107,6.9824,71.165z M6.832,70.873
		c0.2725-0.1396,0.4951-0.3018,0.6689-0.4873s0.2988-0.3838,0.374-0.5977c0.0762-0.2139,0.1035-0.4355,0.0811-0.6689
		c-0.0225-0.2324-0.0928-0.4648-0.2139-0.6982l-0.5869-1.1396l-3.4395,1.7725l0.5879,1.1396
		c0.1191,0.2334,0.2686,0.4258,0.4443,0.5791c0.1768,0.1533,0.374,0.2607,0.5918,0.3223c0.2188,0.0625,0.4521,0.0762,0.7041,0.042
		C6.2949,71.1016,6.5586,71.0146,6.832,70.873z"/>
	<path class="st0" d="M7.0361,72.2568l-0.0498,0.0312c-0.1963,0.1211-0.3555,0.251-0.4756,0.3896
		c-0.1211,0.1387-0.2061,0.2812-0.2549,0.4277c-0.0479,0.1465-0.0605,0.2959-0.0371,0.4463
		c0.0234,0.1514,0.0801,0.2998,0.1709,0.4473c0.082,0.1318,0.168,0.2363,0.2559,0.3154c0.0889,0.0781,0.1719,0.1396,0.249,0.1826
		c0.0771,0.0439,0.1416,0.0762,0.1943,0.0967s0.085,0.04,0.0967,0.0576c0.0127,0.0225,0.0146,0.0449,0.0059,0.0684l-0.043,0.1211
		c-0.0791-0.0098-0.1621-0.0352-0.251-0.0762c-0.0889-0.04-0.1748-0.0938-0.2598-0.1582c-0.085-0.0654-0.168-0.1406-0.248-0.2256
		c-0.0801-0.0859-0.1504-0.1777-0.2109-0.2754c-0.1113-0.1797-0.1816-0.3623-0.2109-0.5479
		c-0.0283-0.1865-0.0166-0.3691,0.0381-0.5479c0.0537-0.1797,0.1494-0.3516,0.2871-0.5156c0.1367-0.1641,0.3164-0.3154,0.54-0.4541
		c0.1875-0.1162,0.3779-0.1973,0.5693-0.2432c0.1924-0.0439,0.377-0.0527,0.5537-0.0225c0.1777,0.0303,0.3457,0.0977,0.502,0.2041
		c0.1543,0.1064,0.29,0.252,0.4062,0.4385c0.0908,0.1465,0.1514,0.2998,0.1777,0.458c0.0283,0.1572,0.0215,0.3125-0.0176,0.4668
		c-0.0391,0.1533-0.1143,0.3008-0.2227,0.4424c-0.1104,0.1416-0.2559,0.2695-0.4404,0.3848
		c-0.0381,0.0234-0.0674,0.0342-0.0879,0.0332c-0.0215-0.0029-0.0391-0.0156-0.0537-0.04L7.0361,72.2568z M8.2812,73.9043
		c0.1406-0.0869,0.2549-0.1846,0.3418-0.293c0.0869-0.1094,0.1465-0.2236,0.1787-0.3438s0.0381-0.2422,0.0186-0.3662
		c-0.0205-0.125-0.0684-0.2471-0.1406-0.3662c-0.084-0.1348-0.1816-0.2432-0.2891-0.3242c-0.1084-0.0801-0.2275-0.1357-0.3535-0.165
		c-0.1279-0.0283-0.2617-0.0322-0.4023-0.0117c-0.1396,0.0215-0.2822,0.0664-0.4297,0.1357L8.2812,73.9043z"/>
	<path class="st0" d="M10.5684,75.7139c-0.0332,0.0039-0.0586-0.0068-0.0771-0.0332c-0.0127-0.0186-0.0195-0.0488-0.0186-0.0928
		c0.002-0.043-0.002-0.0986-0.0088-0.165c-0.0088-0.0664-0.0273-0.1426-0.0566-0.2285c-0.0283-0.0859-0.0781-0.1787-0.1504-0.2803
		c-0.0635-0.0908-0.1367-0.165-0.2158-0.2217c-0.0781-0.0566-0.1592-0.0957-0.2393-0.1182
		c-0.082-0.0215-0.1621-0.0264-0.2412-0.0146c-0.0781,0.0127-0.1494,0.042-0.2129,0.0869c-0.0801,0.0557-0.1318,0.123-0.1543,0.2002
		c-0.0234,0.0771-0.0312,0.1621-0.0225,0.2529s0.0283,0.1885,0.0615,0.292c0.0322,0.1025,0.0664,0.207,0.1006,0.3135
		s0.0645,0.2129,0.0908,0.3203c0.0273,0.1074,0.0391,0.2109,0.0361,0.3105s-0.0254,0.1943-0.0674,0.2852
		c-0.043,0.0908-0.1143,0.1719-0.2148,0.2432c-0.1104,0.0771-0.2256,0.1299-0.3477,0.1582c-0.123,0.0273-0.2441,0.0283-0.3672,0.002
		c-0.1211-0.0254-0.2422-0.0801-0.3594-0.1602c-0.1182-0.0811-0.2266-0.1924-0.3281-0.334
		c-0.124-0.1777-0.2041-0.3496-0.2383-0.5186c-0.0332-0.167-0.041-0.335-0.0215-0.5l0.125-0.0049
		c0.0195-0.002,0.0371,0.001,0.0508,0.0078c0.0156,0.0059,0.0293,0.0186,0.042,0.0361c0.0146,0.0225,0.0205,0.0586,0.0156,0.1094
		C7.7441,75.71,7.7441,75.7725,7.75,75.8467c0.0068,0.0742,0.0234,0.1592,0.0508,0.2549c0.0264,0.0957,0.0801,0.2002,0.1602,0.3135
		c0.0742,0.1064,0.1553,0.1895,0.2432,0.25c0.0869,0.0596,0.1738,0.0986,0.2627,0.1172c0.0889,0.0176,0.1768,0.0166,0.2637-0.0029
		c0.0889-0.0205,0.1709-0.0576,0.2471-0.1113c0.084-0.0596,0.1396-0.1289,0.167-0.209c0.0264-0.0801,0.0371-0.167,0.0283-0.2598
		c-0.0078-0.0938-0.0264-0.1914-0.0586-0.2939s-0.0654-0.207-0.1006-0.3135c-0.0352-0.1074-0.0654-0.2129-0.0938-0.3193
		c-0.0264-0.1064-0.0391-0.21-0.0361-0.3096c0.0029-0.1006,0.0244-0.1963,0.0654-0.2861c0.042-0.0898,0.1143-0.1719,0.2188-0.2461
		c0.0898-0.0625,0.1895-0.1035,0.2998-0.124c0.1104-0.0195,0.2217-0.0146,0.335,0.0127c0.1123,0.0273,0.2246,0.0791,0.334,0.1562
		s0.21,0.1787,0.3008,0.3076c0.1084,0.1533,0.1826,0.3047,0.2227,0.4541c0.0391,0.1504,0.0488,0.3066,0.0273,0.4688L10.5684,75.7139
		z"/>
	<path class="st0" d="M11.6357,76.4844l-2.4424,1.8799l-0.1787-0.2334l2.4424-1.8799L11.6357,76.4844z M12.5557,75.9365
		c-0.0303,0.0225-0.0615,0.0381-0.0957,0.0449c-0.0361,0.0078-0.0693,0.0088-0.1045,0.0039
		c-0.0342-0.0039-0.0684-0.0156-0.1006-0.0332c-0.0312-0.0166-0.0586-0.04-0.0801-0.0693
		c-0.0234-0.0303-0.0391-0.0615-0.0488-0.0967c-0.0078-0.0352-0.0088-0.0703-0.0059-0.1045
		c0.0049-0.0352,0.0156-0.0684,0.0312-0.0996c0.0166-0.0312,0.04-0.0576,0.0693-0.0801c0.0303-0.0225,0.0615-0.0391,0.0986-0.0488
		c0.0361-0.0088,0.0713-0.0107,0.1055-0.0068c0.0352,0.0049,0.0684,0.0156,0.0996,0.0332c0.0322,0.0176,0.0586,0.041,0.082,0.0703
		c0.0215,0.0293,0.0371,0.0615,0.0469,0.0967c0.0088,0.0352,0.0107,0.0703,0.0059,0.1045
		c-0.0049,0.0352-0.0156,0.0684-0.0322,0.1016C12.6084,75.8857,12.585,75.9141,12.5557,75.9365z"/>
	<path class="st0" d="M13.7617,79.2764l-0.0781,0.0664c-0.0352,0.0293-0.0742,0.0254-0.1201-0.0117l-0.3301-0.3379
		c-0.0215,0.0947-0.0605,0.1855-0.1152,0.2725c-0.0537,0.0859-0.124,0.166-0.2109,0.2393
		c-0.1133,0.0957-0.2334,0.1631-0.3604,0.2002c-0.126,0.0381-0.252,0.0488-0.3799,0.0303c-0.127-0.0176-0.2529-0.0635-0.376-0.1357
		c-0.124-0.0713-0.2383-0.1709-0.3438-0.2949c-0.1133-0.1348-0.1963-0.2734-0.249-0.4189
		c-0.0938-0.0342-0.1836-0.0488-0.2666-0.0439c-0.084,0.0049-0.1504,0.0283-0.2012,0.0713
		c-0.0684,0.0576-0.0996,0.125-0.0947,0.2041c0.0039,0.0791,0.0312,0.1641,0.0801,0.2559c0.0498,0.0928,0.1143,0.1904,0.1953,0.2949
		c0.0791,0.1035,0.1611,0.21,0.2432,0.3184s0.1592,0.2188,0.2305,0.332c0.0693,0.1113,0.1211,0.2217,0.1504,0.3291
		c0.0312,0.1084,0.0352,0.2139,0.0117,0.3164c-0.0234,0.1016-0.0879,0.1973-0.1943,0.2871c-0.0967,0.082-0.2109,0.1377-0.3428,0.165
		c-0.1299,0.0273-0.2695,0.0234-0.418-0.0098c-0.1465-0.0342-0.2979-0.0986-0.4492-0.1934
		c-0.1533-0.0957-0.2969-0.2246-0.4355-0.3867c-0.1406-0.166-0.2451-0.3252-0.3174-0.4785
		c-0.0713-0.1533-0.1143-0.2959-0.1279-0.4287s-0.001-0.2529,0.0381-0.3604c0.04-0.1055,0.1025-0.1953,0.1875-0.2676
		c0.125-0.1055,0.2666-0.1553,0.4248-0.1475c0.1582,0.0059,0.3232,0.0586,0.4932,0.1582c-0.04-0.1016-0.0547-0.1982-0.0449-0.29
		c0.0117-0.0908,0.0605-0.1738,0.1494-0.249c0.0332-0.0273,0.0723-0.0518,0.1191-0.0693c0.0479-0.0176,0.0996-0.0293,0.1562-0.0342
		s0.1162-0.0029,0.1787,0.0068c0.0615,0.0098,0.125,0.0273,0.1895,0.0508c-0.0312-0.166-0.0176-0.3262,0.0352-0.4795
		c0.0557-0.1523,0.1533-0.29,0.2979-0.4111c0.1133-0.0957,0.2334-0.1631,0.3594-0.2012c0.126-0.0371,0.2539-0.0479,0.3838-0.0293
		c0.1279,0.0176,0.2539,0.0635,0.377,0.1357c0.125,0.0723,0.2393,0.1709,0.3467,0.2979c0.0879,0.1035,0.1572,0.2109,0.2051,0.3184
		c0.0488,0.1094,0.0801,0.2178,0.0938,0.3262L13.7617,79.2764z M11.1465,81.0684c0.0742-0.0625,0.1182-0.1318,0.1289-0.209
		c0.0127-0.0762,0.0039-0.1572-0.0254-0.2441c-0.0293-0.0859-0.0742-0.1748-0.1348-0.2676
		c-0.0615-0.0938-0.1299-0.1885-0.2031-0.2842c-0.0723-0.0967-0.1465-0.1924-0.2207-0.29
		c-0.0742-0.0967-0.1387-0.1924-0.1943-0.2861c-0.0732-0.04-0.1484-0.0723-0.2207-0.0967c-0.0742-0.0244-0.1455-0.0381-0.2158-0.041
		s-0.1367,0.0049-0.2002,0.0244c-0.0635,0.0186-0.123,0.0508-0.1768,0.0957c-0.0693,0.0586-0.1182,0.1309-0.1475,0.2168
		c-0.0293,0.085-0.0361,0.1807-0.0215,0.2861s0.0508,0.2178,0.1094,0.3389c0.0596,0.1201,0.1436,0.2451,0.2529,0.375
		c0.1016,0.1191,0.209,0.2197,0.3242,0.3008c0.1133,0.0801,0.2275,0.1377,0.3408,0.1729c0.1143,0.0352,0.2227,0.0459,0.3271,0.0312
		C10.9736,81.1777,11.0664,81.1367,11.1465,81.0684z M11.6006,79.1738c0.085,0.1006,0.1758,0.1787,0.2725,0.2334
		c0.0947,0.0537,0.1914,0.085,0.2891,0.0947s0.1953-0.002,0.291-0.0352c0.0967-0.0332,0.1885-0.0869,0.2783-0.1611
		c0.0879-0.0752,0.1553-0.1582,0.2041-0.25c0.0488-0.0908,0.0762-0.1855,0.082-0.2832c0.0059-0.0986-0.0098-0.1992-0.0479-0.3008
		c-0.0371-0.1025-0.0986-0.2031-0.1816-0.3027c-0.085-0.0986-0.1738-0.1758-0.2686-0.2295s-0.1904-0.0859-0.2891-0.0967
		c-0.0977-0.0098-0.1953,0.001-0.293,0.0352c-0.0957,0.0342-0.1895,0.0879-0.2773,0.1631
		c-0.0889,0.0742-0.1572,0.1562-0.2061,0.2471c-0.0479,0.0889-0.0762,0.1826-0.0811,0.2812
		c-0.0059,0.0986,0.0088,0.1992,0.0459,0.3018S11.5166,79.0752,11.6006,79.1738z"/>
	<path class="st0" d="M14.1211,80.2461c0.2266-0.0205,0.4434-0.002,0.6494,0.0566c0.208,0.0605,0.3916,0.1719,0.5518,0.3369
		c0.1172,0.1211,0.2021,0.2471,0.2539,0.377c0.0508,0.1299,0.0693,0.2607,0.0557,0.3916c-0.0137,0.1318-0.0557,0.2617-0.1289,0.3926
		c-0.0713,0.1299-0.1719,0.2578-0.3018,0.3828l-1.4141,1.3721l-0.2061-0.2129l1.4141-1.3721
		c0.208-0.2012,0.3242-0.4062,0.3496-0.6162c0.0254-0.209-0.0557-0.4111-0.2441-0.6045c-0.1387-0.1436-0.3057-0.2432-0.501-0.2969
		c-0.1953-0.0547-0.4053-0.0674-0.6299-0.0381l-1.6631,1.6133l-0.207-0.2139l2.2119-2.1455l0.1143,0.1172
		c0.0361,0.0371,0.0391,0.0771,0.0078,0.1191L14.1211,80.2461z"/>
	<path class="st0" d="M17.418,84.3838c0.0801-0.0977,0.1748-0.1729,0.2822-0.2285c0.1084-0.0557,0.2207-0.0889,0.3369-0.0996
		c0.1172-0.0127,0.2324-0.002,0.3467,0.0312s0.2178,0.0898,0.3135,0.168c0.0967,0.0811,0.1729,0.1748,0.2285,0.2832
		c0.0547,0.1074,0.0879,0.2197,0.0967,0.3369c0.0107,0.1172-0.001,0.2344-0.0361,0.3506c-0.0352,0.1152-0.0928,0.2227-0.1729,0.3193
		c-0.0791,0.0947-0.1719,0.1689-0.2783,0.2217c-0.1055,0.0527-0.2168,0.085-0.333,0.0957s-0.2324-0.002-0.3486-0.0361
		c-0.1162-0.0352-0.2227-0.0918-0.3193-0.1738c-0.0957-0.0781-0.1699-0.1709-0.2227-0.2773
		c-0.0518-0.1055-0.084-0.2168-0.0947-0.333s-0.001-0.2314,0.0332-0.3447C17.2832,84.583,17.3379,84.4785,17.418,84.3838z"/>
	<path class="st0" d="M21.9082,89.7705c0.1768,0.1143,0.3545,0.1865,0.5342,0.2158c0.1787,0.0293,0.3535,0.0205,0.5215-0.0244
		c0.168-0.0469,0.3262-0.127,0.4727-0.2422c0.1475-0.1143,0.2764-0.2578,0.3877-0.4287l1.4785-2.2725l0.2646,0.1729l-1.4775,2.2715
		c-0.1328,0.2021-0.2871,0.3711-0.4658,0.5049c-0.1777,0.1338-0.3711,0.2275-0.5752,0.2803
		c-0.2061,0.0518-0.4199,0.0596-0.6396,0.0215c-0.2207-0.0381-0.4385-0.126-0.6533-0.2656
		c-0.2139-0.1396-0.3828-0.3027-0.5068-0.4893s-0.2031-0.3838-0.2393-0.5938c-0.0352-0.208-0.0273-0.4219,0.0225-0.6387
		c0.0508-0.2178,0.1416-0.4277,0.2734-0.6299l1.4785-2.2725l0.2676,0.1738l-1.4766,2.2705
		c-0.1113,0.1709-0.1904,0.3467-0.2354,0.5283c-0.0459,0.1807-0.0557,0.3574-0.0303,0.5293
		c0.0254,0.1709,0.0869,0.334,0.1865,0.4863C21.5938,89.5215,21.7324,89.6553,21.9082,89.7705z"/>
	<path class="st0" d="M26.9258,89.8701c-0.0273,0.0186-0.0566,0.0186-0.083,0.0039c-0.0195-0.0107-0.0391-0.0361-0.0566-0.0762
		c-0.0186-0.0391-0.0459-0.0879-0.0811-0.1436c-0.0352-0.0566-0.085-0.1182-0.1484-0.1826s-0.1494-0.127-0.2578-0.1875
		c-0.0967-0.0537-0.1934-0.0898-0.29-0.1064c-0.0957-0.0166-0.1846-0.0176-0.2676-0.0029c-0.083,0.0166-0.1572,0.0459-0.2227,0.0908
		s-0.1172,0.1025-0.1543,0.1709c-0.0479,0.085-0.0654,0.167-0.0537,0.2471c0.0127,0.0801,0.042,0.1592,0.0898,0.2383
		c0.0469,0.0781,0.1074,0.1572,0.1816,0.2363s0.1494,0.1592,0.2275,0.2393c0.0762,0.0801,0.1504,0.1641,0.2207,0.249
		c0.0693,0.085,0.126,0.1738,0.166,0.2646s0.0615,0.1865,0.0615,0.2861c0.002,0.0996-0.0273,0.2041-0.0879,0.3125
		c-0.0664,0.1172-0.1475,0.2148-0.2451,0.293c-0.0967,0.0781-0.208,0.1318-0.3291,0.1602
		c-0.1211,0.0293-0.2529,0.0332-0.3936,0.0107c-0.1416-0.0215-0.2881-0.0742-0.4395-0.1592
		c-0.1904-0.1055-0.3369-0.2266-0.4395-0.3633c-0.1035-0.1367-0.1816-0.2842-0.2363-0.4414l0.1104-0.0596
		c0.0166-0.0088,0.0342-0.0146,0.0498-0.0146c0.0146-0.001,0.0332,0.0039,0.0527,0.0156c0.0244,0.0127,0.0439,0.043,0.0615,0.0908
		c0.0166,0.0469,0.0449,0.1035,0.082,0.168c0.0361,0.0635,0.0879,0.1338,0.1543,0.208c0.0664,0.0752,0.1602,0.1455,0.2812,0.2129
		c0.1133,0.0635,0.2227,0.1035,0.3262,0.1201c0.1045,0.0166,0.2002,0.0137,0.2881-0.0078c0.0889-0.0225,0.168-0.0615,0.2373-0.1182
		c0.0713-0.0557,0.1289-0.125,0.1738-0.2061c0.0508-0.0908,0.0703-0.1777,0.0605-0.2607c-0.0098-0.084-0.0391-0.166-0.0859-0.2461
		c-0.0469-0.0811-0.1074-0.1611-0.1816-0.2393c-0.0723-0.0791-0.1484-0.1582-0.2266-0.2402
		c-0.0771-0.0811-0.1504-0.1631-0.2207-0.2471s-0.126-0.1719-0.167-0.2637s-0.0635-0.1865-0.0645-0.2861
		c-0.0029-0.0986,0.0283-0.2041,0.0908-0.3154c0.0527-0.0967,0.126-0.1768,0.2158-0.2412c0.0908-0.0654,0.1924-0.1104,0.3066-0.1348
		c0.1133-0.0234,0.2373-0.0244,0.3691-0.0039c0.1318,0.0225,0.2666,0.0703,0.4033,0.1475c0.165,0.0918,0.2979,0.1963,0.3984,0.3145
		c0.1006,0.1172,0.1768,0.2539,0.2266,0.4092L26.9258,89.8701z"/>
	<path class="st0" d="M27.3994,91.3018l-0.0254,0.0537c-0.0967,0.21-0.1592,0.4053-0.1846,0.5869
		c-0.0254,0.1826-0.0186,0.3477,0.0215,0.498c0.0381,0.1484,0.1094,0.2803,0.2109,0.3936c0.1016,0.1143,0.2314,0.208,0.3887,0.2812
		c0.1406,0.0664,0.2695,0.1074,0.3857,0.124c0.1182,0.0176,0.2207,0.0234,0.3096,0.0186c0.0879-0.0059,0.1602-0.0146,0.2148-0.0264
		c0.0557-0.0117,0.0928-0.0127,0.1113-0.0049c0.0244,0.0117,0.0391,0.0303,0.043,0.0547l0.0312,0.124
		c-0.0703,0.0352-0.1543,0.0605-0.251,0.0742c-0.0977,0.0137-0.1982,0.0166-0.3057,0.0098
		c-0.1074-0.0088-0.2178-0.0264-0.3301-0.0547c-0.1143-0.0273-0.2227-0.0664-0.3271-0.1143
		c-0.1914-0.0898-0.3496-0.2041-0.4756-0.3447c-0.127-0.1396-0.2168-0.2998-0.2695-0.4795s-0.0654-0.375-0.04-0.5879
		c0.0244-0.2129,0.0938-0.4385,0.2041-0.6758c0.0938-0.2002,0.208-0.3721,0.3447-0.5137c0.1367-0.1426,0.2861-0.251,0.4512-0.3223
		c0.165-0.0723,0.3408-0.1074,0.5312-0.1035c0.1875,0.0039,0.3818,0.0518,0.5791,0.1455c0.1582,0.0732,0.291,0.168,0.4004,0.2852
		c0.1084,0.1172,0.1895,0.251,0.2393,0.4014c0.0518,0.1504,0.0703,0.3145,0.0557,0.4932c-0.0137,0.1777-0.0664,0.3652-0.1582,0.5615
		c-0.0195,0.041-0.0381,0.0664-0.0557,0.0762c-0.0195,0.0098-0.042,0.0088-0.0674-0.0039L27.3994,91.3018z M29.3438,92.002
		c0.0703-0.1494,0.1113-0.2939,0.125-0.4316c0.0137-0.1387,0.001-0.2666-0.0371-0.3848c-0.0381-0.1191-0.1006-0.2246-0.1855-0.3174
		c-0.085-0.0938-0.1904-0.1699-0.3184-0.2295c-0.1436-0.0674-0.2832-0.1055-0.4189-0.1143
		c-0.1357-0.0078-0.2627,0.0098-0.3867,0.0557c-0.1221,0.0449-0.2363,0.1152-0.3428,0.209
		c-0.1045,0.0947-0.2002,0.2109-0.2852,0.3486L29.3438,92.002z"/>
	<path class="st0" d="M30.7939,92.1133c0.0928-0.0986,0.1865-0.1816,0.2793-0.249c0.0947-0.0664,0.1924-0.1162,0.291-0.1484
		c0.0996-0.0322,0.2021-0.0459,0.3057-0.042c0.1045,0.0049,0.2119,0.0293,0.3232,0.0762c0.0586,0.0244,0.1152,0.0537,0.168,0.0879
		s0.0947,0.0742,0.1279,0.1191l-0.1016,0.1797c-0.0215,0.0264-0.0469,0.0342-0.0732,0.0234
		c-0.0234-0.0098-0.0557-0.0312-0.0957-0.0645c-0.042-0.0322-0.1006-0.0654-0.1768-0.0967
		c-0.1104-0.0459-0.2148-0.0703-0.3145-0.0723c-0.0986-0.002-0.1953,0.0166-0.29,0.0547c-0.0957,0.0391-0.1895,0.0967-0.2812,0.1738
		c-0.0908,0.0771-0.1846,0.1709-0.2793,0.2812l-0.7686,1.8408l-0.2744-0.1143l1.1865-2.8447l0.1455,0.0605
		c0.0332,0.0137,0.0527,0.0293,0.0596,0.0479c0.0088,0.0195,0.0078,0.0459-0.002,0.0801L30.7939,92.1133z"/>
	<path class="st0" d="M36.0459,96.1807l-0.085,0.249l-2.5059-0.7881l1.3164-4.1807l2.5059,0.7881L37.1982,92.5l-2.2002-0.6924
		l-0.5332,1.6895l1.832,0.5771l-0.0771,0.2451l-1.832-0.5762l-0.5488,1.7422L36.0459,96.1807z"/>
	<path class="st0" d="M39.1328,97.2168l-0.2734-0.0664c-0.0283-0.0059-0.0488-0.0205-0.0605-0.041
		c-0.0117-0.0215-0.0215-0.041-0.0273-0.0596l-0.5869-1.5479c-0.0166,0.0332-0.04,0.0654-0.0703,0.0938l-1.1641,1.0117
		c-0.0186,0.0146-0.0371,0.0283-0.0557,0.041c-0.0195,0.0117-0.04,0.0156-0.0645,0.0098l-0.2598-0.0635l1.4629-1.2676
		l-0.6924-1.7168l0.2734,0.0664c0.0283,0.0068,0.0479,0.0176,0.0586,0.0332c0.0117,0.0146,0.0205,0.0322,0.0273,0.0508
		l0.5703,1.4805c0.0078-0.0146,0.0186-0.0303,0.0312-0.0459c0.0146-0.0156,0.0273-0.0322,0.043-0.0469l1.1025-0.959
		c0.0166-0.0156,0.0332-0.0283,0.0498-0.0361c0.0176-0.0088,0.0381-0.0107,0.0596-0.0049l0.2617,0.0635l-1.3955,1.1914
		L39.1328,97.2168z"/>
	<path class="st0" d="M40.6348,94.9365c0.166-0.1592,0.3477-0.2773,0.5469-0.3535s0.4102-0.0947,0.6348-0.0557
		c0.3721,0.0654,0.6396,0.2451,0.8027,0.541c0.1631,0.2939,0.1992,0.7002,0.1084,1.2168c-0.0381,0.2217-0.1035,0.4238-0.1963,0.6055
		c-0.0908,0.1826-0.2061,0.334-0.3438,0.4561c-0.1367,0.1211-0.2949,0.208-0.4727,0.2607s-0.374,0.0605-0.5879,0.0225
		c-0.2051-0.0352-0.377-0.1045-0.5146-0.2061c-0.1367-0.1016-0.2471-0.2354-0.332-0.4014l-0.2598,1.4805l-0.293-0.0518
		l0.7207-4.1104l0.1631,0.0283c0.0508,0.0098,0.0752,0.04,0.0742,0.0918L40.6348,94.9365z M40.3262,96.7666
		c0.043,0.0977,0.0918,0.1816,0.1455,0.2539c0.0537,0.0713,0.1113,0.1309,0.1768,0.1816c0.0645,0.0498,0.1357,0.0898,0.2139,0.1211
		c0.0771,0.0303,0.1602,0.0527,0.249,0.0684c0.1797,0.0312,0.3418,0.0264,0.4883-0.0146c0.1455-0.042,0.2734-0.1143,0.3848-0.2178
		c0.1123-0.1025,0.2051-0.2334,0.2793-0.3906c0.0762-0.1582,0.1309-0.3359,0.165-0.5361c0.0791-0.4512,0.0547-0.7979-0.0752-1.04
		c-0.1289-0.2412-0.3496-0.3896-0.6611-0.4443c-0.2012-0.0352-0.3926-0.0156-0.5732,0.0596
		c-0.1816,0.0752-0.3516,0.1943-0.5127,0.3564L40.3262,96.7666z"/>
	<path class="st0" d="M43.75,96.3135l-0.0059,0.0576c-0.0244,0.2305-0.0195,0.4355,0.0146,0.6152
		c0.0352,0.1807,0.0957,0.335,0.1816,0.4629c0.0869,0.1289,0.1973,0.2305,0.3301,0.3047s0.2861,0.1201,0.458,0.1387
		c0.1553,0.0166,0.29,0.0137,0.4062-0.0078c0.1172-0.0225,0.2158-0.0508,0.2979-0.084c0.0811-0.0342,0.1455-0.0664,0.1943-0.0947
		c0.0498-0.0293,0.084-0.043,0.1045-0.041c0.0264,0.0029,0.0459,0.0156,0.0576,0.0371l0.0703,0.1074
		c-0.0566,0.0566-0.126,0.1074-0.2129,0.1523s-0.1826,0.0811-0.2861,0.1084c-0.1045,0.0273-0.2139,0.0469-0.3311,0.0566
		c-0.1152,0.0107-0.2305,0.0098-0.3457-0.002c-0.2109-0.0225-0.3984-0.0791-0.5615-0.1699
		c-0.166-0.0918-0.3018-0.2129-0.4102-0.3662c-0.1084-0.1523-0.1855-0.333-0.2314-0.543c-0.0449-0.209-0.0537-0.4443-0.0264-0.7051
		c0.0234-0.2197,0.0752-0.4189,0.1582-0.5986c0.083-0.1787,0.1895-0.3301,0.3223-0.4512c0.1318-0.123,0.2881-0.2129,0.4668-0.2705
		c0.1807-0.0576,0.3789-0.0752,0.5967-0.0527c0.1719,0.0186,0.3291,0.0654,0.4707,0.1406s0.2607,0.1758,0.3584,0.3008
		c0.0957,0.125,0.167,0.2744,0.2119,0.4473c0.0449,0.1738,0.0566,0.3682,0.0332,0.583c-0.0049,0.0449-0.0137,0.0762-0.0283,0.0908
		c-0.0127,0.0156-0.0342,0.0215-0.0635,0.0186L43.75,96.3135z M45.8154,96.3408c0.0166-0.1641,0.0098-0.3135-0.0225-0.4492
		c-0.0322-0.1348-0.0869-0.2529-0.1602-0.3516c-0.0762-0.0996-0.1689-0.1797-0.2783-0.2402
		c-0.1113-0.0605-0.2373-0.0977-0.377-0.1133c-0.1582-0.0166-0.3018-0.0068-0.4316,0.0293
		c-0.1318,0.0361-0.2471,0.0957-0.3486,0.1787s-0.1855,0.1865-0.2549,0.3096c-0.0703,0.123-0.1221,0.2637-0.1572,0.4229
		L45.8154,96.3408z"/>
	<path class="st0" d="M47.2285,95.9414c0.0537-0.123,0.1133-0.2324,0.1787-0.3281c0.0654-0.0938,0.1406-0.1738,0.2227-0.2383
		c0.083-0.0635,0.1738-0.1113,0.2734-0.1426c0.1006-0.0312,0.21-0.0439,0.3291-0.0381c0.0645,0.0029,0.127,0.0117,0.1895,0.0264
		c0.0605,0.0146,0.1133,0.0371,0.1611,0.0684l-0.0352,0.2031c-0.0127,0.0322-0.0332,0.0479-0.0625,0.0459
		c-0.0234-0.001-0.0615-0.0098-0.1113-0.0264c-0.0508-0.0176-0.1162-0.0283-0.1982-0.0322
		c-0.1201-0.0059-0.2256,0.0068-0.3203,0.0391c-0.0938,0.0312-0.1777,0.0811-0.2549,0.1494
		c-0.0771,0.0693-0.1455,0.1553-0.2061,0.2588c-0.0596,0.1035-0.1152,0.2227-0.168,0.3584l-0.0996,1.9932l-0.2959-0.0146
		l0.1533-3.0781l0.1562,0.0078c0.0352,0.001,0.0605,0.0098,0.0742,0.0254c0.0137,0.0146,0.0215,0.04,0.0234,0.0752L47.2285,95.9414z
		"/>
	<path class="st0" d="M49.6279,94.2109c0,0.0371-0.0078,0.0713-0.0234,0.1035c-0.0166,0.0312-0.0381,0.0596-0.0615,0.084
		c-0.0254,0.0244-0.0547,0.0439-0.0889,0.0576c-0.0322,0.0146-0.0674,0.0215-0.1055,0.0205c-0.0361,0-0.0723-0.0078-0.1045-0.0234
		c-0.0332-0.0146-0.0615-0.0342-0.0859-0.0596c-0.0254-0.0244-0.0439-0.0537-0.0576-0.085
		c-0.0137-0.0332-0.0215-0.0674-0.0205-0.1045c0-0.0371,0.0078-0.0732,0.0234-0.1064c0.0137-0.0342,0.0342-0.0635,0.0605-0.0879
		c0.0244-0.0244,0.0527-0.0439,0.0859-0.0576c0.0342-0.0146,0.0693-0.0205,0.1055-0.0205c0.0391,0.001,0.0723,0.0078,0.1055,0.0225
		c0.0332,0.0156,0.0625,0.0361,0.0859,0.0605c0.0244,0.0254,0.0449,0.0547,0.0596,0.0889S49.6289,94.1738,49.6279,94.2109z
		 M49.4873,95.2715l-0.0391,3.082l-0.2939-0.0039l0.0391-3.0811L49.4873,95.2715z"/>
	<path class="st0" d="M50.666,96.6973l0.0029,0.0596c0.0078,0.2305,0.041,0.4336,0.1006,0.6064
		c0.0605,0.1738,0.1406,0.3184,0.2451,0.4336c0.1025,0.1152,0.2256,0.2012,0.3682,0.2559s0.2998,0.0791,0.4727,0.0732
		c0.1562-0.0049,0.29-0.0264,0.4014-0.0645c0.1123-0.0381,0.207-0.0791,0.2822-0.124c0.0762-0.0459,0.1367-0.0859,0.1807-0.1211
		s0.0771-0.0537,0.0967-0.0547c0.0273-0.001,0.0488,0.0088,0.0635,0.0283l0.085,0.0967c-0.0488,0.0635-0.1113,0.124-0.1914,0.1807
		s-0.168,0.1055-0.2686,0.1465c-0.0986,0.042-0.2041,0.0762-0.3184,0.1025s-0.2285,0.041-0.3438,0.0459
		c-0.2109,0.0068-0.4043-0.0225-0.5791-0.0898c-0.1768-0.0674-0.3291-0.1689-0.458-0.3057
		c-0.1279-0.1357-0.2295-0.3047-0.3037-0.5049c-0.0742-0.2012-0.1152-0.4336-0.124-0.6953
		c-0.0088-0.2207,0.0166-0.4258,0.0732-0.6143c0.0566-0.1895,0.1406-0.3535,0.2559-0.4922c0.1143-0.1406,0.2559-0.251,0.4258-0.332
		c0.1689-0.083,0.3643-0.1279,0.583-0.1348c0.1729-0.0068,0.335,0.0176,0.4863,0.0723c0.1494,0.0547,0.2822,0.1377,0.3955,0.248
		c0.1133,0.1113,0.2041,0.249,0.2734,0.4141c0.0684,0.165,0.1055,0.3564,0.1143,0.5732c0.001,0.0449-0.0039,0.0762-0.0166,0.0928
		c-0.0107,0.0176-0.0322,0.0254-0.0605,0.0273L50.666,96.6973z M52.7158,96.4385c-0.0059-0.165-0.0342-0.3125-0.085-0.4414
		c-0.0508-0.1299-0.1191-0.2383-0.208-0.3262c-0.0879-0.0879-0.1904-0.1543-0.3086-0.1992
		c-0.1182-0.0439-0.2471-0.0645-0.3887-0.0596c-0.1582,0.0059-0.2998,0.0352-0.4238,0.0898
		c-0.124,0.0537-0.2314,0.1279-0.3203,0.2246c-0.0889,0.0947-0.1582,0.209-0.21,0.3418c-0.0508,0.1318-0.083,0.2783-0.0957,0.4404
		L52.7158,96.4385z"/>
	<path class="st0" d="M54.0176,95.6533c0.124-0.1914,0.2744-0.3496,0.4482-0.4756c0.1768-0.126,0.377-0.2002,0.6055-0.2236
		c0.168-0.0166,0.3193-0.0059,0.4531,0.0352c0.1338,0.04,0.248,0.1064,0.3428,0.1982c0.0938,0.0918,0.1709,0.207,0.2285,0.3438
		c0.0566,0.1377,0.0947,0.2959,0.1133,0.4746l0.1992,1.96l-0.2959,0.0303l-0.1982-1.96c-0.0303-0.2871-0.1191-0.5068-0.2666-0.6562
		c-0.1484-0.1494-0.3574-0.2109-0.626-0.1836c-0.1992,0.0205-0.3809,0.0898-0.5449,0.209
		c-0.1621,0.1201-0.3027,0.2773-0.4199,0.4717l0.2344,2.3047l-0.2959,0.0303l-0.3125-3.0664l0.1641-0.0166
		c0.0508-0.0049,0.084,0.0176,0.0977,0.0684L54.0176,95.6533z"/>
	<path class="st0" d="M59.1582,94.8252c-0.0078,0.0127-0.0166,0.0225-0.0254,0.0312c-0.0068,0.0088-0.0186,0.0146-0.0361,0.0166
		c-0.0195,0.0039-0.0488-0.0049-0.0879-0.0273c-0.04-0.0215-0.0918-0.0439-0.1562-0.0664c-0.0654-0.0225-0.1445-0.041-0.2373-0.0527
		c-0.0918-0.0127-0.2031-0.0088-0.3291,0.0127c-0.1748,0.0293-0.3252,0.0869-0.4502,0.1709
		c-0.125,0.0859-0.2246,0.1934-0.2979,0.3252c-0.0742,0.1318-0.123,0.2842-0.1426,0.458c-0.0195,0.1729-0.0127,0.3613,0.0205,0.5674
		c0.0361,0.2139,0.0938,0.3994,0.1709,0.5557c0.0781,0.1562,0.1719,0.2842,0.2822,0.3818c0.1113,0.0977,0.2354,0.165,0.377,0.2021
		c0.1396,0.0371,0.29,0.042,0.4482,0.0156c0.1465-0.0244,0.2666-0.0625,0.3594-0.1133c0.0938-0.0508,0.1689-0.1025,0.2266-0.1543
		c0.0566-0.0518,0.1006-0.0977,0.1318-0.1387c0.0303-0.041,0.0586-0.0625,0.082-0.0674c0.0244-0.0039,0.0469,0.0029,0.0664,0.0205
		l0.0938,0.085c-0.0371,0.0693-0.0869,0.1367-0.1504,0.2002c-0.0615,0.0654-0.1338,0.125-0.2168,0.1787
		s-0.1758,0.1006-0.2773,0.1387c-0.1006,0.0391-0.209,0.0684-0.3223,0.0879c-0.1934,0.0322-0.376,0.0264-0.5479-0.0176
		c-0.1709-0.043-0.3262-0.1211-0.4639-0.2363c-0.1367-0.1133-0.2549-0.2617-0.3516-0.4443c-0.0967-0.1836-0.165-0.3975-0.207-0.6445
		c-0.0391-0.2314-0.0439-0.4482-0.0146-0.6504c0.0293-0.2012,0.0918-0.3818,0.1855-0.54c0.0947-0.1582,0.2217-0.29,0.3789-0.3945
		s0.3467-0.1758,0.5664-0.2129c0.1973-0.0332,0.3779-0.0303,0.541,0.0068s0.3105,0.1006,0.4424,0.1895L59.1582,94.8252z"/>
	<path class="st0" d="M60.2627,95.6279l0.0127,0.0576c0.0527,0.2256,0.125,0.417,0.2168,0.5762s0.2002,0.2852,0.3223,0.3789
		c0.123,0.0928,0.2607,0.1533,0.4121,0.1797c0.1484,0.0264,0.3086,0.0205,0.4775-0.0186c0.1514-0.0352,0.2783-0.082,0.3818-0.1406
		c0.1025-0.0586,0.1865-0.1182,0.2529-0.1768c0.0654-0.0586,0.1162-0.1094,0.1533-0.1533c0.0361-0.043,0.0654-0.0674,0.084-0.0723
		c0.0273-0.0049,0.0498,0,0.0684,0.0166l0.1006,0.0791c-0.0342,0.0713-0.085,0.1426-0.1523,0.2129
		c-0.0664,0.0703-0.1455,0.1357-0.2344,0.1953c-0.0889,0.0605-0.1865,0.1143-0.292,0.1621
		c-0.1074,0.0479-0.2168,0.085-0.3301,0.1113c-0.2061,0.0479-0.4004,0.0547-0.5859,0.0225s-0.3555-0.1025-0.5068-0.2119
		c-0.1523-0.1084-0.2842-0.2539-0.3965-0.4375c-0.1104-0.1826-0.1953-0.4023-0.2549-0.6582
		c-0.0508-0.2148-0.0654-0.4209-0.0459-0.6162c0.0186-0.1973,0.0713-0.374,0.1572-0.5332c0.084-0.1592,0.2021-0.2949,0.3535-0.4072
		c0.1504-0.1133,0.333-0.1953,0.5469-0.2451c0.168-0.0391,0.332-0.0459,0.4902-0.0215c0.1582,0.0254,0.3037,0.0811,0.4365,0.168
		c0.1318,0.0869,0.2471,0.2051,0.3467,0.3535c0.0986,0.1494,0.1729,0.3291,0.2217,0.54c0.0098,0.0439,0.0117,0.0762,0.0039,0.0947
		c-0.0098,0.0195-0.0264,0.0312-0.0557,0.0381L60.2627,95.6279z M62.2236,94.9805c-0.0371-0.1611-0.0928-0.2998-0.168-0.418
		c-0.0742-0.1172-0.1631-0.21-0.2666-0.2793s-0.2168-0.1152-0.3418-0.1357c-0.124-0.0205-0.2549-0.0156-0.3916,0.0156
		c-0.1543,0.0361-0.2881,0.0928-0.3994,0.1689c-0.1123,0.0771-0.2012,0.1709-0.2705,0.2822
		c-0.0693,0.1104-0.1152,0.2363-0.1406,0.376c-0.0244,0.1396-0.0283,0.2891-0.0107,0.4502L62.2236,94.9805z"/>
	<path class="st0" d="M65.292,94.0996c-0.041-0.1191-0.0576-0.2393-0.0479-0.3594c0.0078-0.1211,0.0381-0.2354,0.0898-0.3408
		c0.0498-0.1064,0.1182-0.1982,0.2061-0.2793c0.0869-0.0791,0.1904-0.1396,0.3076-0.1797c0.1182-0.041,0.2383-0.0576,0.3584-0.0488
		c0.1221,0.0098,0.2344,0.0391,0.3408,0.0918c0.1035,0.0518,0.1982,0.124,0.2793,0.2139c0.0801,0.0898,0.1416,0.1943,0.1826,0.3135
		c0.04,0.1172,0.0557,0.2354,0.0449,0.3525c-0.0098,0.1182-0.04,0.2295-0.0908,0.335c-0.0518,0.1045-0.1221,0.1982-0.2129,0.2793
		c-0.0898,0.0811-0.1943,0.1416-0.3135,0.1826c-0.1172,0.04-0.2354,0.0557-0.3535,0.0459c-0.1172-0.0098-0.2285-0.04-0.333-0.0918
		s-0.1982-0.1211-0.2783-0.208S65.332,94.2168,65.292,94.0996z"/>
	<path class="st0" d="M73.2773,90.376c0.1475,0.3057,0.2344,0.6016,0.2607,0.8896s-0.002,0.5576-0.0859,0.8076
		c-0.082,0.251-0.2178,0.4785-0.4053,0.6816c-0.1885,0.2021-0.4219,0.3711-0.7012,0.5049l-1.4424,0.6953l-1.9023-3.9492
		l1.4424-0.6953c0.2803-0.1338,0.5566-0.2119,0.833-0.2314c0.2754-0.0205,0.5371,0.0146,0.7852,0.1055
		c0.248,0.0918,0.4766,0.2373,0.6846,0.4375C72.9551,89.8213,73.1328,90.0732,73.2773,90.376z M72.9824,90.5186
		c-0.1328-0.2754-0.2891-0.502-0.4688-0.6816c-0.1807-0.1787-0.377-0.3096-0.5879-0.3906c-0.2109-0.082-0.4326-0.1143-0.666-0.0986
		c-0.2334,0.0166-0.4678,0.0811-0.7031,0.1953l-1.1562,0.5566l1.6787,3.4854l1.1553-0.5566
		c0.2363-0.1143,0.4346-0.2568,0.5918-0.4297c0.1582-0.1719,0.2695-0.3662,0.3389-0.582c0.0664-0.2168,0.0869-0.4502,0.0596-0.7031
		C73.1963,91.0615,73.1152,90.7959,72.9824,90.5186z"/>
	<path class="st0" d="M74.3682,90.3525l0.0303,0.0508c0.1162,0.2002,0.2422,0.3623,0.3779,0.4863
		c0.1348,0.125,0.2744,0.2139,0.4199,0.2666c0.1465,0.0518,0.2939,0.0693,0.4463,0.0498c0.1514-0.0186,0.3008-0.0723,0.4512-0.1602
		c0.1338-0.0781,0.2412-0.1602,0.3223-0.2471s0.1436-0.168,0.1895-0.2432c0.0459-0.0762,0.0791-0.1396,0.1016-0.1924
		c0.0215-0.0518,0.042-0.084,0.0596-0.0938c0.0225-0.0137,0.0459-0.0156,0.0693-0.0049l0.1191,0.0449
		c-0.0117,0.0791-0.0391,0.1621-0.082,0.25c-0.043,0.0869-0.0986,0.1729-0.167,0.2559c-0.0654,0.083-0.1436,0.1641-0.2314,0.2412
		c-0.0869,0.0771-0.1816,0.1455-0.2812,0.2031c-0.1816,0.1064-0.3662,0.1719-0.5527,0.1963s-0.3691,0.0068-0.5469-0.0527
		c-0.1777-0.0586-0.3477-0.1582-0.5068-0.3008c-0.1611-0.1416-0.3076-0.3252-0.4395-0.5518
		c-0.1113-0.1914-0.1875-0.3828-0.2266-0.5762c-0.041-0.1934-0.043-0.3779-0.0088-0.5557c0.0342-0.1768,0.1064-0.3408,0.2168-0.4941
		c0.1104-0.1523,0.2607-0.2842,0.4492-0.3945c0.1494-0.0879,0.3037-0.1426,0.4629-0.166c0.1582-0.0234,0.3145-0.0127,0.4668,0.0303
		c0.1523,0.0449,0.2979,0.123,0.4365,0.2354s0.2627,0.2627,0.3721,0.4502c0.0225,0.0381,0.0322,0.0693,0.0312,0.0889
		c-0.0029,0.0205-0.0176,0.0381-0.042,0.0527L74.3682,90.3525z M76.0498,89.1523c-0.083-0.1426-0.1787-0.2588-0.2842-0.3486
		c-0.1064-0.0898-0.2188-0.1523-0.3379-0.1885s-0.2402-0.0449-0.3652-0.0283c-0.127,0.0176-0.25,0.0605-0.3701,0.1318
		c-0.1377,0.0801-0.249,0.1729-0.332,0.2793c-0.085,0.1064-0.1426,0.2227-0.1738,0.3496c-0.0332,0.127-0.041,0.2607-0.0225,0.4004
		c0.0176,0.1406,0.0576,0.2852,0.1221,0.4336L76.0498,89.1523z"/>
	<path class="st0" d="M78.3076,86.1914l0.6396,3.2842l-0.2158,0.1455l-2.7988-1.833l0.1924-0.1299
		c0.0234-0.0156,0.0479-0.0225,0.0723-0.0205c0.0244,0.0029,0.043,0.0098,0.0586,0.0225l2.2031,1.4492
		c0.0762,0.0586,0.1475,0.1191,0.2119,0.1826c-0.0342-0.084-0.0635-0.1729-0.0859-0.2666l-0.5078-2.5889
		c-0.0039-0.0244-0.0029-0.0479,0.0039-0.0684c0.0078-0.0205,0.0215-0.0391,0.042-0.0518L78.3076,86.1914z"/>
	<path class="st0" d="M79.6934,86.9258l0.0352,0.0459c0.1416,0.1836,0.2871,0.3291,0.4365,0.4355s0.2998,0.1758,0.4512,0.21
		s0.2998,0.0312,0.4482-0.0068c0.1475-0.0381,0.29-0.1094,0.4277-0.2158c0.123-0.0947,0.2188-0.1895,0.2871-0.2861
		c0.0703-0.0957,0.123-0.1846,0.1582-0.2646c0.0352-0.0811,0.0605-0.1494,0.0762-0.2031c0.0156-0.0557,0.0312-0.0889,0.0469-0.1016
		c0.0225-0.0166,0.0449-0.0205,0.0684-0.0127l0.125,0.0293c-0.002,0.0791-0.0176,0.165-0.0508,0.2568
		c-0.0312,0.0928-0.0752,0.1846-0.1318,0.2754c-0.0566,0.0918-0.1221,0.1816-0.1992,0.2695s-0.1621,0.167-0.2539,0.2373
		c-0.167,0.1289-0.3418,0.2168-0.5244,0.2637c-0.1816,0.0479-0.3643,0.0537-0.5479,0.0176
		c-0.1836-0.0352-0.3643-0.1143-0.542-0.2344c-0.1768-0.1201-0.3457-0.2842-0.5049-0.4922
		c-0.1357-0.1758-0.2344-0.3564-0.2988-0.543c-0.0635-0.1855-0.0898-0.3691-0.0781-0.5488
		c0.0127-0.1797,0.0625-0.3525,0.1533-0.5176c0.0898-0.166,0.2217-0.3154,0.3955-0.4492c0.1367-0.1055,0.2832-0.1797,0.4385-0.2227
		c0.1543-0.043,0.3086-0.0527,0.4658-0.0293c0.1562,0.0244,0.3115,0.084,0.4619,0.1777c0.1523,0.0938,0.2949,0.2275,0.4268,0.3994
		c0.0273,0.0361,0.042,0.0645,0.042,0.085c0.001,0.0215-0.0107,0.04-0.0342,0.0576L79.6934,86.9258z M81.21,85.5225
		c-0.1016-0.1318-0.209-0.2344-0.3271-0.3105c-0.1162-0.0752-0.2363-0.123-0.3584-0.1436c-0.123-0.0205-0.2461-0.0156-0.3672,0.0176
		c-0.1221,0.0332-0.2393,0.0918-0.3496,0.1777c-0.127,0.0967-0.2246,0.2031-0.2939,0.3193s-0.1133,0.2393-0.1289,0.3682
		c-0.0166,0.1299-0.0059,0.2637,0.0273,0.4004c0.0361,0.1367,0.0957,0.2754,0.1787,0.415L81.21,85.5225z"/>
	<path class="st0" d="M80.5791,82.584l2.9121,3.4414l-0.2266,0.1914l-2.9111-3.4404L80.5791,82.584z"/>
	<path class="st0" d="M83.1348,82.1475c0.1611-0.1504,0.3311-0.2588,0.5107-0.3223c0.1787-0.0645,0.3584-0.0869,0.54-0.0674
		s0.3633,0.0791,0.543,0.1787c0.1787,0.0996,0.3506,0.2373,0.5166,0.4141c0.165,0.1758,0.291,0.3564,0.377,0.542
		c0.0869,0.1846,0.1338,0.3682,0.1396,0.5508c0.0078,0.1836-0.0273,0.3613-0.1035,0.5352c-0.0771,0.1738-0.1963,0.335-0.3574,0.4863
		c-0.1621,0.1504-0.332,0.2588-0.5098,0.3232c-0.1787,0.0654-0.3584,0.0889-0.541,0.0703s-0.3643-0.0771-0.543-0.1768
		c-0.1777-0.0986-0.3496-0.2363-0.5146-0.4121c-0.166-0.1768-0.292-0.3584-0.3779-0.5439
		c-0.0879-0.1855-0.1348-0.3701-0.1406-0.5537s0.0293-0.3623,0.1045-0.5361C82.8535,82.4609,82.9736,82.2988,83.1348,82.1475z
		 M85.1416,84.2949c0.1338-0.126,0.2305-0.2578,0.2881-0.3975s0.0791-0.2842,0.0664-0.4336
		c-0.0137-0.1484-0.0605-0.2988-0.1406-0.4512c-0.0811-0.1533-0.1914-0.3037-0.333-0.4551
		c-0.1396-0.1494-0.2822-0.2695-0.4297-0.3604c-0.1484-0.0918-0.2959-0.1494-0.4434-0.1729
		C84.001,82,83.8555,82.0117,83.7109,82.0586s-0.2842,0.1338-0.418,0.2588c-0.1338,0.126-0.2295,0.2588-0.2861,0.3984
		c-0.0576,0.1406-0.0771,0.2861-0.0635,0.4365c0.0137,0.1494,0.0605,0.3008,0.1406,0.4541
		c0.0811,0.1543,0.1895,0.3057,0.3311,0.4551c0.1396,0.1514,0.2842,0.2715,0.4316,0.3613c0.1475,0.0889,0.2949,0.1455,0.4424,0.1689
		s0.293,0.0107,0.4355-0.0361C84.8691,84.5078,85.0078,84.4209,85.1416,84.2949z"/>
	<path class="st0" d="M85.3662,80.8096c-0.0439-0.2275-0.0439-0.4443,0-0.6523c0.0439-0.209,0.1436-0.3965,0.2988-0.5635
		c0.2568-0.2764,0.5527-0.4033,0.8887-0.3799c0.3369,0.0225,0.6973,0.2129,1.082,0.5693c0.165,0.1533,0.2988,0.3184,0.4023,0.4941
		c0.1025,0.1758,0.168,0.3545,0.1953,0.5361s0.0146,0.3613-0.0381,0.5391c-0.0527,0.1787-0.1533,0.3467-0.2998,0.5059
		c-0.1426,0.1533-0.293,0.2598-0.4541,0.3193c-0.1602,0.0605-0.332,0.0811-0.5156,0.0615l1.1006,1.0225l-0.2021,0.2168
		l-3.0586-2.8379l0.1104-0.1211c0.0371-0.0371,0.0752-0.042,0.1191-0.0127L85.3662,80.8096z M86.7344,82.0625
		c0.1064,0.0166,0.2031,0.0215,0.292,0.0146c0.0889-0.0059,0.1719-0.0225,0.249-0.0498s0.1494-0.0645,0.2168-0.1133
		s0.1328-0.1055,0.1943-0.1719c0.124-0.1338,0.208-0.2725,0.252-0.418c0.0439-0.1445,0.0537-0.292,0.0264-0.4424
		c-0.0254-0.1484-0.084-0.2979-0.1758-0.4463s-0.2119-0.292-0.3604-0.4297c-0.3359-0.3115-0.6406-0.4785-0.9141-0.502
		c-0.2734-0.0215-0.5176,0.083-0.7314,0.3145c-0.1396,0.1494-0.2266,0.3203-0.2617,0.5137
		c-0.0361,0.1924-0.0283,0.4004,0.0195,0.623L86.7344,82.0625z"/>
	<path class="st0" d="M89.4668,80.0801l-2.4307-1.8965l0.1016-0.1289c0.0312-0.041,0.0693-0.0488,0.1162-0.0234l0.3682,0.252
		c-0.0615-0.1992-0.085-0.3926-0.0742-0.5801c0.0127-0.1865,0.0791-0.3564,0.1982-0.5098c0.1387-0.1768,0.3008-0.2793,0.4863-0.3057
		c0.1855-0.0273,0.3848,0.0117,0.5967,0.1172c-0.0771-0.1074-0.1309-0.2148-0.1631-0.3252s-0.0459-0.2188-0.04-0.3242
		c0.0049-0.1055,0.0273-0.208,0.0684-0.3066c0.04-0.0977,0.0928-0.1895,0.1582-0.2744c0.0947-0.1201,0.1992-0.2129,0.3145-0.2783
		c0.1133-0.0654,0.2363-0.1006,0.3672-0.1064c0.1309-0.0049,0.2666,0.0186,0.4072,0.0713c0.1436,0.0537,0.2871,0.1367,0.4336,0.251
		l1.5537,1.2119l-0.1816,0.2324l-1.5527-1.2119c-0.2383-0.1855-0.459-0.2754-0.6631-0.2705
		c-0.2051,0.0059-0.3818,0.1035-0.5303,0.2939c-0.0664,0.085-0.1143,0.1777-0.1436,0.2793s-0.0361,0.2061-0.0234,0.3125
		c0.0156,0.1074,0.0557,0.2139,0.1191,0.3203s0.1562,0.207,0.2773,0.3008l1.5527,1.2109l-0.1836,0.2354l-1.5527-1.2119
		c-0.2363-0.1846-0.4531-0.2783-0.6523-0.2822c-0.1982-0.0049-0.3672,0.084-0.5088,0.2646c-0.1025,0.1318-0.1592,0.2842-0.168,0.457
		c-0.0098,0.1738,0.0205,0.3584,0.0898,0.5547l1.8428,1.4365L89.4668,80.0801z"/>
	<path class="st0" d="M91.2617,74.9258l0.0488,0.0312c0.1934,0.127,0.3789,0.2148,0.5547,0.2666
		c0.1758,0.0508,0.3418,0.0674,0.4961,0.0488c0.1523-0.0176,0.293-0.0693,0.4209-0.1543c0.127-0.085,0.2373-0.1992,0.3311-0.3457
		c0.085-0.1289,0.1445-0.25,0.1777-0.3643c0.0342-0.1133,0.0547-0.2148,0.0605-0.3027c0.0078-0.0879,0.0098-0.1602,0.0059-0.2168
		s0-0.0938,0.0117-0.1113c0.0137-0.0225,0.0332-0.0342,0.0596-0.0342l0.127-0.0137c0.0244,0.0752,0.0371,0.1621,0.0371,0.2588
		c0,0.0986-0.0117,0.1992-0.0332,0.3037c-0.0234,0.1055-0.0566,0.2119-0.1006,0.3203c-0.042,0.1084-0.0967,0.2109-0.1602,0.3076
		c-0.1143,0.1768-0.251,0.3174-0.4062,0.4229c-0.1562,0.1055-0.3271,0.1709-0.5127,0.1982
		c-0.1855,0.0264-0.3809,0.0127-0.5889-0.042c-0.207-0.0557-0.4199-0.1543-0.6396-0.2979
		c-0.1855-0.1211-0.3379-0.2588-0.4609-0.4141c-0.1211-0.1543-0.207-0.3184-0.2549-0.4922
		c-0.0479-0.1729-0.0566-0.3525-0.0273-0.5391c0.0303-0.1865,0.1045-0.3711,0.2236-0.5547c0.0957-0.1455,0.209-0.2637,0.3408-0.3555
		c0.1309-0.0918,0.2744-0.1523,0.4307-0.1807c0.1562-0.0293,0.3203-0.0244,0.4951,0.0146c0.1738,0.0381,0.3525,0.1172,0.5352,0.2354
		c0.0371,0.0254,0.0605,0.0469,0.0674,0.0674c0.0068,0.0186,0.002,0.041-0.0137,0.0645L91.2617,74.9258z M92.2275,73.0996
		c-0.1387-0.0908-0.2754-0.1523-0.4102-0.1846c-0.1357-0.0332-0.2646-0.0391-0.3867-0.0176
		c-0.123,0.0215-0.2354,0.0674-0.3408,0.1387c-0.1035,0.0713-0.1943,0.165-0.2715,0.2832
		c-0.0859,0.1328-0.1436,0.2656-0.1709,0.3984c-0.0283,0.1328-0.0273,0.2627,0.001,0.3906c0.0273,0.1279,0.0791,0.25,0.1572,0.3682
		c0.0791,0.1182,0.1807,0.2285,0.3057,0.332L92.2275,73.0996z"/>
	<path class="st0" d="M92.3496,71.5518c-0.0859-0.21-0.1289-0.4238-0.1318-0.6387c-0.002-0.2158,0.0527-0.4238,0.165-0.624
		c0.083-0.1475,0.1787-0.2646,0.2891-0.3506c0.1094-0.0869,0.2305-0.1416,0.3594-0.167c0.1299-0.0234,0.2676-0.0205,0.4131,0.0117
		c0.1445,0.0312,0.2959,0.0918,0.4531,0.1797l1.7188,0.9629l-0.1455,0.2598l-1.7188-0.9629
		c-0.252-0.1416-0.4824-0.1953-0.6895-0.1602c-0.208,0.0352-0.3789,0.1699-0.5098,0.4062
		c-0.0986,0.1758-0.1465,0.3643-0.1426,0.5654c0.0049,0.2031,0.0527,0.4072,0.1436,0.6152l2.0215,1.1328l-0.1455,0.2598
		l-2.6885-1.5068l0.0801-0.1436c0.0254-0.0449,0.0635-0.0586,0.1113-0.04L92.3496,71.5518z"/>
	<path class="st0" d="M96.5322,69.2109c-0.0938,0.1865-0.2197,0.3047-0.376,0.3564s-0.3418,0.0225-0.5566-0.0859l-1.8789-0.9541
		l-0.1992,0.3955c-0.0117,0.0195-0.0254,0.0342-0.042,0.041c-0.0186,0.0078-0.0371,0.0059-0.0576-0.0049l-0.1025-0.0518
		l0.2061-0.4863l-0.9502-0.5654c-0.0146-0.0117-0.0254-0.0264-0.0332-0.0449c-0.0068-0.0166-0.0059-0.0361,0.0049-0.0566
		l0.0625-0.124l1.0508,0.5332l0.4404-0.8672l0.1953,0.0986l-0.4395,0.8682l1.8643,0.9463c0.0752,0.0381,0.1445,0.0615,0.209,0.0703
		c0.0645,0.0078,0.123,0.0039,0.1748-0.0127c0.0527-0.0166,0.0996-0.043,0.1387-0.0811c0.04-0.0371,0.0732-0.083,0.1006-0.1357
		c0.0332-0.0674,0.0527-0.1289,0.0576-0.1865s0.0049-0.1104,0-0.1562c-0.0059-0.0469-0.0127-0.0869-0.0195-0.1182
		c-0.0088-0.0322-0.0098-0.0547-0.0039-0.0674c0.0088-0.0146,0.0244-0.0254,0.0508-0.0303l0.1514-0.0127
		c0.043,0.1094,0.0596,0.2295,0.0527,0.3613C96.624,68.9717,96.5908,69.0947,96.5322,69.2109z"/>
</g>
</svg>
