<?xml version="1.0" standalone="no"?><!DOCTYPE svg PUBLIC "-//W3C//DTD SVG 1.1//EN" "http://www.w3.org/Graphics/SVG/1.1/DTD/svg11.dtd"><svg width="100%" height="100%" viewBox="0 0 200 200" version="1.1" xmlns="http://www.w3.org/2000/svg" xmlns:xlink="http://www.w3.org/1999/xlink" xml:space="preserve" style="fill-rule:evenodd;clip-rule:evenodd;stroke-linejoin:round;stroke-miterlimit:1.41421;"><path d="M100,1.759c54.221,0 98.241,44.02 98.241,98.241c0,54.221 -44.02,98.241 -98.241,98.241c-54.221,0 -98.241,-44.02 -98.241,-98.241c0,-54.221 44.02,-98.241 98.241,-98.241ZM140.543,52.249c0.722,0.012 1.441,0.049 2.157,0.122c1.659,0.17 3.294,0.517 4.862,1.031c2.967,0.975 5.676,2.55 7.883,4.576c2.15,1.972 3.812,4.36 4.835,6.96c0.527,1.338 0.884,2.728 1.063,4.137c0.083,0.642 0.123,1.286 0.137,1.933c0.136,19.265 0.002,38.532 0.002,57.798c-0.005,0.644 -0.037,1.286 -0.11,1.927c-0.16,1.413 -0.498,2.81 -1.007,4.155c-0.933,2.469 -2.44,4.755 -4.397,6.684c-2.297,2.264 -5.199,4.02 -8.406,5.072c-1.484,0.487 -3.028,0.824 -4.596,1.003c-0.804,0.092 -1.612,0.137 -2.423,0.151c-26.941,0.153 -53.884,0.001 -80.826,0.001c-0.719,-0.004 -1.436,-0.032 -2.151,-0.098c-1.577,-0.143 -3.136,-0.446 -4.637,-0.902c-2.917,-0.885 -5.604,-2.346 -7.832,-4.25c-2.348,-2.006 -4.173,-4.491 -5.289,-7.221c-0.544,-1.33 -0.92,-2.714 -1.119,-4.118c-0.103,-0.721 -0.154,-1.445 -0.169,-2.171c-0.136,-19.266 -0.002,-38.532 -0.002,-57.798c0.005,-0.644 0.037,-1.286 0.11,-1.927c0.16,-1.413 0.498,-2.81 1.007,-4.155c0.933,-2.469 2.44,-4.756 4.397,-6.684c2.297,-2.264 5.199,-4.02 8.406,-5.073c1.568,-0.514 3.203,-0.861 4.862,-1.031c0.716,-0.073 1.435,-0.11 2.157,-0.122c27.028,-0.154 54.058,-0.154 81.086,0ZM79.081,103.246l-24.459,36.283c0.209,0.08 0.42,0.155 0.634,0.225c0.908,0.298 1.853,0.504 2.812,0.614c0.495,0.056 0.993,0.084 1.493,0.093c26.959,0.153 53.919,0.153 80.878,0c0.5,-0.009 0.998,-0.037 1.493,-0.093c0.959,-0.11 1.904,-0.316 2.812,-0.614c0.545,-0.179 1.076,-0.391 1.588,-0.633l-24.153,-35.827c-0.833,0.642 -1.676,1.274 -2.532,1.892c-1.054,0.762 -2.126,1.503 -3.22,2.217c-1.485,0.967 -3.012,1.885 -4.598,2.715c-1.442,0.755 -2.935,1.44 -4.488,1.994c-2.126,0.759 -4.398,1.284 -6.7,1.27c-1.084,-0.006 -2.164,-0.142 -3.219,-0.362c-1.416,-0.297 -2.79,-0.745 -4.117,-1.274c-1.532,-0.611 -3.008,-1.332 -4.441,-2.111c-1.77,-0.962 -3.477,-2.015 -5.14,-3.117c-1.583,-1.05 -3.127,-2.145 -4.643,-3.272ZM46.692,73.648c-0.119,18.432 -0.113,36.866 0.017,55.298c0.01,0.448 0.041,0.893 0.104,1.338c0.122,0.859 0.352,1.706 0.684,2.519c0.248,0.606 0.553,1.192 0.91,1.752l24.421,-36.225c-0.394,-0.326 -0.786,-0.653 -1.176,-0.981c-2.554,-2.147 -5.052,-4.345 -7.505,-6.584c-4.167,-3.803 -8.212,-7.713 -12.167,-11.693c-1.782,-1.793 -3.544,-3.601 -5.288,-5.424ZM153.308,73.687c-3.144,3.353 -6.32,6.681 -9.558,9.962c-2.622,2.656 -5.281,5.282 -7.999,7.859c-2.124,2.013 -4.282,3.996 -6.492,5.933c-0.305,0.268 -0.611,0.534 -0.918,0.8l23.814,35.325c0.148,-0.294 0.282,-0.593 0.401,-0.897c0.322,-0.819 0.541,-1.669 0.651,-2.532c0.05,-0.396 0.075,-0.793 0.084,-1.191c0.13,-18.419 0.136,-36.84 0.017,-55.259ZM151.027,64.68c-0.369,-0.484 -0.779,-0.943 -1.225,-1.373c-1.394,-1.341 -3.137,-2.384 -5.058,-3.015c-0.908,-0.298 -1.853,-0.503 -2.812,-0.613c-0.495,-0.056 -0.993,-0.084 -1.492,-0.093c-26.899,-0.153 -53.798,-0.001 -80.697,-0.001c-0.506,0.003 -1.01,0.025 -1.512,0.076c-1.015,0.105 -2.016,0.316 -2.975,0.631c-1.773,0.583 -3.396,1.516 -4.732,2.712c-0.574,0.515 -1.094,1.078 -1.552,1.678c0.204,0.222 0.409,0.443 0.613,0.664c2.92,3.141 5.905,6.232 8.943,9.28c3.384,3.395 6.836,6.737 10.376,10.001c1.999,1.843 4.025,3.661 6.089,5.444c1.94,1.676 3.912,3.322 5.93,4.923c2.474,1.963 5.014,3.863 7.671,5.624c1.159,0.769 2.341,1.51 3.556,2.206c1.049,0.602 2.123,1.171 3.233,1.68c0.837,0.384 1.697,0.735 2.584,1.018c0.652,0.207 1.322,0.382 2.008,0.47c0.239,0.031 0.481,0.051 0.723,0.052c0.736,0.005 1.471,-0.127 2.176,-0.307c1.282,-0.325 2.506,-0.825 3.68,-1.383c1.045,-0.497 2.057,-1.049 3.044,-1.633c1.076,-0.637 2.124,-1.312 3.15,-2.012c2.548,-1.736 4.969,-3.617 7.321,-5.561c1.935,-1.6 3.822,-3.247 5.675,-4.922c2.153,-1.948 4.261,-3.935 6.338,-5.948c6.548,-6.348 12.791,-12.943 18.945,-19.598Z" style="fill:#444;"/></svg>