<?xml version="1.0" encoding="utf-8"?>
<!-- Generator: Adobe Illustrator 21.0.0, SVG Export Plug-In . SVG Version: 6.00 Build 0)  -->
<svg version="1.1" id="Layer_1" xmlns="http://www.w3.org/2000/svg" xmlns:xlink="http://www.w3.org/1999/xlink" x="0px" y="0px"
	 viewBox="0 0 630.7 642" style="enable-background:new 0 0 630.7 642;" xml:space="preserve">
<style type="text/css">
	.st0{fill:#444444;}
</style>
<path class="st0" d="M315.4,5.6c174,0,315.4,141.3,315.4,315.4S489.4,636.4,315.4,636.4S0,495,0,321S141.3,5.6,315.4,5.6z
	 M253.5,485.7c139.2,0,215.3-115.3,215.3-215.3c0-3.3,0-6.5-0.2-9.8c14.8-10.7,27.6-24,37.8-39.2c-13.8,6.1-28.5,10.1-43.5,11.9
	c15.8-9.5,27.6-24.3,33.3-41.9c-14.9,8.8-31.1,15-48.1,18.4c-28.7-30.5-76.6-31.9-107.1-3.3c-19.7,18.5-28,46-21.9,72.3
	c-60.8-3.1-117.5-31.8-156-79.1c-20.1,34.6-9.8,78.8,23.4,101c-12-0.4-23.8-3.6-34.3-9.5c0,0.3,0,0.6,0,1c0,36,25.4,67.1,60.7,74.2
	c-11.1,3-22.8,3.5-34.2,1.3c9.9,30.8,38.3,51.9,70.7,52.6c-26.8,21.1-59.9,32.5-94,32.5c-6,0-12-0.4-18-1.1
	C172.1,473.9,212.4,485.7,253.5,485.7"/>
</svg>
